G04 ================== begin FILE IDENTIFICATION RECORD ==================*
G04 Layout Name:  HY_UART_DBUG_V20_230103.brd*
G04 Film Name:    Drill_Legend*
G04 File Format:  Gerber RS274X*
G04 File Origin:  Cadence Allegro 17.2-S079*
G04 Origin Date:  Tue Jan 31 14:16:27 2023*
G04 *
G04 Layer:  MANUFACTURING/NCLEGEND-1-4*
G04 Layer:  MANUFACTURING/NCDRILL_LEGEND*
G04 Layer:  MANUFACTURING/NCDRILL_FIGURE*
G04 Layer:  BOARD GEOMETRY/DIMENSION*
G04 *
G04 Offset:    (0.0000 0.0000)*
G04 Mirror:    No*
G04 Mode:      Positive*
G04 Rotation:  0*
G04 FullContactRelief:  No*
G04 UndefLineWidth:     0.1524*
G04 ================== end FILE IDENTIFICATION RECORD ====================*
%FSLAX55Y55*MOMM*%
%IR0*IPPOS*OFA0.00000B0.00000*MIA0B0*SFA1.00000B1.00000*%
%AMMACRO19*
1,1,.1524,.289949,-.7*
20,1,.1524,.289949,-.7,-.289949,-.7,0.0*
1,1,.1524,-.289949,-.7*
20,1,.1524,-.289949,-.7,-.7,-.289949,0.0*
1,1,.1524,-.7,-.289949*
20,1,.1524,-.7,-.289949,-.7,.289949,0.0*
1,1,.1524,-.7,.289949*
20,1,.1524,-.7,.289949,-.289949,.7,0.0*
1,1,.1524,-.289949,.7*
20,1,.1524,-.289949,.7,.289949,.7,0.0*
1,1,.1524,.289949,.7*
20,1,.1524,.289949,.7,.7,.289949,0.0*
1,1,.1524,.7,.289949*
20,1,.1524,.7,.289949,.7,-.289949,0.0*
1,1,.1524,.7,-.289949*
20,1,.1524,.7,-.289949,.289949,-.7,0.0*
1,1,.1524,.289949,-.7*
%
%ADD19MACRO19*%
%AMMACRO11*
1,1,.1524,-.3,.3*
20,1,.1524,-.3,.3,.3,.3,0.0*
1,1,.1524,.3,.3*
20,1,.1524,.3,.3,.352094,.295442,0.0*
1,1,.1524,.352094,.295442*
20,1,.1524,.352094,.295442,.402606,.281908,0.0*
1,1,.1524,.402606,.281908*
20,1,.1524,.402606,.281908,.45,.259808,0.0*
1,1,.1524,.45,.259808*
20,1,.1524,.45,.259808,.492836,.229813,0.0*
1,1,.1524,.492836,.229813*
20,1,.1524,.492836,.229813,.529813,.192836,0.0*
1,1,.1524,.529813,.192836*
20,1,.1524,.529813,.192836,.559808,.15,0.0*
1,1,.1524,.559808,.15*
20,1,.1524,.559808,.15,.581908,.102606,0.0*
1,1,.1524,.581908,.102606*
20,1,.1524,.581908,.102606,.595442,.052094,0.0*
1,1,.1524,.595442,.052094*
20,1,.1524,.595442,.052094,.6,0.0,0.0*
1,1,.1524,.6,0.0*
20,1,.1524,.6,0.0,.595442,-.052094,0.0*
1,1,.1524,.595442,-.052094*
20,1,.1524,.595442,-.052094,.581908,-.102606,0.0*
1,1,.1524,.581908,-.102606*
20,1,.1524,.581908,-.102606,.559808,-.15,0.0*
1,1,.1524,.559808,-.15*
20,1,.1524,.559808,-.15,.529813,-.192836,0.0*
1,1,.1524,.529813,-.192836*
20,1,.1524,.529813,-.192836,.492836,-.229813,0.0*
1,1,.1524,.492836,-.229813*
20,1,.1524,.492836,-.229813,.45,-.259808,0.0*
1,1,.1524,.45,-.259808*
20,1,.1524,.45,-.259808,.402606,-.281908,0.0*
1,1,.1524,.402606,-.281908*
20,1,.1524,.402606,-.281908,.352094,-.295442,0.0*
1,1,.1524,.352094,-.295442*
20,1,.1524,.352094,-.295442,.3,-.3,0.0*
1,1,.1524,.3,-.3*
20,1,.1524,.3,-.3,-.3,-.3,0.0*
1,1,.1524,-.3,-.3*
20,1,.1524,-.3,-.3,-.352094,-.295442,0.0*
1,1,.1524,-.352094,-.295442*
20,1,.1524,-.352094,-.295442,-.402606,-.281908,0.0*
1,1,.1524,-.402606,-.281908*
20,1,.1524,-.402606,-.281908,-.45,-.259808,0.0*
1,1,.1524,-.45,-.259808*
20,1,.1524,-.45,-.259808,-.492836,-.229813,0.0*
1,1,.1524,-.492836,-.229813*
20,1,.1524,-.492836,-.229813,-.529813,-.192836,0.0*
1,1,.1524,-.529813,-.192836*
20,1,.1524,-.529813,-.192836,-.559808,-.15,0.0*
1,1,.1524,-.559808,-.15*
20,1,.1524,-.559808,-.15,-.581908,-.102606,0.0*
1,1,.1524,-.581908,-.102606*
20,1,.1524,-.581908,-.102606,-.595442,-.052094,0.0*
1,1,.1524,-.595442,-.052094*
20,1,.1524,-.595442,-.052094,-.6,0.0,0.0*
1,1,.1524,-.6,0.0*
20,1,.1524,-.6,0.0,-.595442,.052094,0.0*
1,1,.1524,-.595442,.052094*
20,1,.1524,-.595442,.052094,-.581908,.102606,0.0*
1,1,.1524,-.581908,.102606*
20,1,.1524,-.581908,.102606,-.559808,.15,0.0*
1,1,.1524,-.559808,.15*
20,1,.1524,-.559808,.15,-.529813,.192836,0.0*
1,1,.1524,-.529813,.192836*
20,1,.1524,-.529813,.192836,-.492836,.229813,0.0*
1,1,.1524,-.492836,.229813*
20,1,.1524,-.492836,.229813,-.45,.259808,0.0*
1,1,.1524,-.45,.259808*
20,1,.1524,-.45,.259808,-.402606,.281908,0.0*
1,1,.1524,-.402606,.281908*
20,1,.1524,-.402606,.281908,-.352094,.295442,0.0*
1,1,.1524,-.352094,.295442*
20,1,.1524,-.352094,.295442,-.3,.3,0.0*
1,1,.1524,-.3,.3*
1,1,.1524,-.15,-.15*
20,1,.1524,-.15,-.15,-.19,-.145,0.0*
1,1,.1524,-.19,-.145*
20,1,.1524,-.19,-.145,-.225,-.125,0.0*
1,1,.1524,-.225,-.125*
20,1,.1524,-.225,-.125,-.255,-.095,0.0*
1,1,.1524,-.255,-.095*
20,1,.1524,-.255,-.095,-.275,-.06,0.0*
1,1,.1524,-.275,-.06*
20,1,.1524,-.275,-.06,-.285,-.02,0.0*
1,1,.1524,-.285,-.02*
20,1,.1524,-.285,-.02,-.285,.02,0.0*
1,1,.1524,-.285,.02*
20,1,.1524,-.285,.02,-.275,.06,0.0*
1,1,.1524,-.275,.06*
20,1,.1524,-.275,.06,-.255,.095,0.0*
1,1,.1524,-.255,.095*
20,1,.1524,-.255,.095,-.225,.125,0.0*
1,1,.1524,-.225,.125*
20,1,.1524,-.225,.125,-.19,.145,0.0*
1,1,.1524,-.19,.145*
20,1,.1524,-.19,.145,-.15,.15,0.0*
1,1,.1524,-.15,.15*
20,1,.1524,-.15,.15,-.11,.145,0.0*
1,1,.1524,-.11,.145*
20,1,.1524,-.11,.145,-.075,.125,0.0*
1,1,.1524,-.075,.125*
20,1,.1524,-.075,.125,-.045,.095,0.0*
1,1,.1524,-.045,.095*
20,1,.1524,-.045,.095,-.025,.06,0.0*
1,1,.1524,-.025,.06*
20,1,.1524,-.025,.06,-.015,.02,0.0*
1,1,.1524,-.015,.02*
20,1,.1524,-.015,.02,-.015,-.02,0.0*
1,1,.1524,-.015,-.02*
20,1,.1524,-.015,-.02,-.025,-.06,0.0*
1,1,.1524,-.025,-.06*
20,1,.1524,-.025,-.06,-.045,-.095,0.0*
1,1,.1524,-.045,-.095*
20,1,.1524,-.045,-.095,-.075,-.125,0.0*
1,1,.1524,-.075,-.125*
20,1,.1524,-.075,-.125,-.11,-.145,0.0*
1,1,.1524,-.11,-.145*
20,1,.1524,-.11,-.145,-.15,-.15,0.0*
1,1,.1524,-.15,-.15*
1,1,.1524,.0251,-.15*
20,1,.1524,.0251,-.15,.1501,.15,0.0*
1,1,.1524,.1501,.15*
20,1,.1524,.1501,.15,.2751,-.15,0.0*
1,1,.1524,.2751,-.15*
1,1,.1524,.2301,-.045*
20,1,.1524,.2301,-.045,.0701,-.045,0.0*
1,1,.1524,.0701,-.045*
%
%ADD11MACRO11*%
%AMMACRO21*
1,1,.1524,.9,0.0*
20,1,.1524,.9,0.0,0.0,-.9,0.0*
1,1,.1524,0.0,-.9*
20,1,.1524,0.0,-.9,-.9,0.0,0.0*
1,1,.1524,-.9,0.0*
20,1,.1524,-.9,0.0,0.0,.9,0.0*
1,1,.1524,0.0,.9*
20,1,.1524,0.0,.9,.9,0.0,0.0*
1,1,.1524,.9,0.0*
%
%ADD21MACRO21*%
%AMMACRO16*
1,1,.1524,.4,.4*
20,1,.1524,.4,.4,.4,-.4,0.0*
1,1,.1524,.4,-.4*
20,1,.1524,.4,-.4,-.4,-.4,0.0*
1,1,.1524,-.4,-.4*
20,1,.1524,-.4,-.4,-.4,.4,0.0*
1,1,.1524,-.4,.4*
20,1,.1524,-.4,.4,.4,.4,0.0*
1,1,.1524,.4,.4*
%
%ADD16MACRO16*%
%AMMACRO12*
1,1,.1524,-.55,.3*
20,1,.1524,-.55,.3,.55,.3,0.0*
1,1,.1524,.55,.3*
20,1,.1524,.55,.3,.602094,.295442,0.0*
1,1,.1524,.602094,.295442*
20,1,.1524,.602094,.295442,.652606,.281908,0.0*
1,1,.1524,.652606,.281908*
20,1,.1524,.652606,.281908,.7,.259808,0.0*
1,1,.1524,.7,.259808*
20,1,.1524,.7,.259808,.742836,.229813,0.0*
1,1,.1524,.742836,.229813*
20,1,.1524,.742836,.229813,.779813,.192836,0.0*
1,1,.1524,.779813,.192836*
20,1,.1524,.779813,.192836,.809808,.15,0.0*
1,1,.1524,.809808,.15*
20,1,.1524,.809808,.15,.831908,.102606,0.0*
1,1,.1524,.831908,.102606*
20,1,.1524,.831908,.102606,.845442,.052094,0.0*
1,1,.1524,.845442,.052094*
20,1,.1524,.845442,.052094,.85,0.0,0.0*
1,1,.1524,.85,0.0*
20,1,.1524,.85,0.0,.845442,-.052094,0.0*
1,1,.1524,.845442,-.052094*
20,1,.1524,.845442,-.052094,.831908,-.102606,0.0*
1,1,.1524,.831908,-.102606*
20,1,.1524,.831908,-.102606,.809808,-.15,0.0*
1,1,.1524,.809808,-.15*
20,1,.1524,.809808,-.15,.779813,-.192836,0.0*
1,1,.1524,.779813,-.192836*
20,1,.1524,.779813,-.192836,.742836,-.229813,0.0*
1,1,.1524,.742836,-.229813*
20,1,.1524,.742836,-.229813,.7,-.259808,0.0*
1,1,.1524,.7,-.259808*
20,1,.1524,.7,-.259808,.652606,-.281908,0.0*
1,1,.1524,.652606,-.281908*
20,1,.1524,.652606,-.281908,.602094,-.295442,0.0*
1,1,.1524,.602094,-.295442*
20,1,.1524,.602094,-.295442,.55,-.3,0.0*
1,1,.1524,.55,-.3*
20,1,.1524,.55,-.3,-.55,-.3,0.0*
1,1,.1524,-.55,-.3*
20,1,.1524,-.55,-.3,-.602094,-.295442,0.0*
1,1,.1524,-.602094,-.295442*
20,1,.1524,-.602094,-.295442,-.652606,-.281908,0.0*
1,1,.1524,-.652606,-.281908*
20,1,.1524,-.652606,-.281908,-.7,-.259808,0.0*
1,1,.1524,-.7,-.259808*
20,1,.1524,-.7,-.259808,-.742836,-.229813,0.0*
1,1,.1524,-.742836,-.229813*
20,1,.1524,-.742836,-.229813,-.779813,-.192836,0.0*
1,1,.1524,-.779813,-.192836*
20,1,.1524,-.779813,-.192836,-.809808,-.15,0.0*
1,1,.1524,-.809808,-.15*
20,1,.1524,-.809808,-.15,-.831908,-.102606,0.0*
1,1,.1524,-.831908,-.102606*
20,1,.1524,-.831908,-.102606,-.845442,-.052094,0.0*
1,1,.1524,-.845442,-.052094*
20,1,.1524,-.845442,-.052094,-.85,0.0,0.0*
1,1,.1524,-.85,0.0*
20,1,.1524,-.85,0.0,-.845442,.052094,0.0*
1,1,.1524,-.845442,.052094*
20,1,.1524,-.845442,.052094,-.831908,.102606,0.0*
1,1,.1524,-.831908,.102606*
20,1,.1524,-.831908,.102606,-.809808,.15,0.0*
1,1,.1524,-.809808,.15*
20,1,.1524,-.809808,.15,-.779813,.192836,0.0*
1,1,.1524,-.779813,.192836*
20,1,.1524,-.779813,.192836,-.742836,.229813,0.0*
1,1,.1524,-.742836,.229813*
20,1,.1524,-.742836,.229813,-.7,.259808,0.0*
1,1,.1524,-.7,.259808*
20,1,.1524,-.7,.259808,-.652606,.281908,0.0*
1,1,.1524,-.652606,.281908*
20,1,.1524,-.652606,.281908,-.602094,.295442,0.0*
1,1,.1524,-.602094,.295442*
20,1,.1524,-.602094,.295442,-.55,.3,0.0*
1,1,.1524,-.55,.3*
1,1,.1524,-.15,-.15*
20,1,.1524,-.15,-.15,-.19,-.145,0.0*
1,1,.1524,-.19,-.145*
20,1,.1524,-.19,-.145,-.225,-.125,0.0*
1,1,.1524,-.225,-.125*
20,1,.1524,-.225,-.125,-.255,-.095,0.0*
1,1,.1524,-.255,-.095*
20,1,.1524,-.255,-.095,-.275,-.06,0.0*
1,1,.1524,-.275,-.06*
20,1,.1524,-.275,-.06,-.285,-.02,0.0*
1,1,.1524,-.285,-.02*
20,1,.1524,-.285,-.02,-.285,.02,0.0*
1,1,.1524,-.285,.02*
20,1,.1524,-.285,.02,-.275,.06,0.0*
1,1,.1524,-.275,.06*
20,1,.1524,-.275,.06,-.255,.095,0.0*
1,1,.1524,-.255,.095*
20,1,.1524,-.255,.095,-.225,.125,0.0*
1,1,.1524,-.225,.125*
20,1,.1524,-.225,.125,-.19,.145,0.0*
1,1,.1524,-.19,.145*
20,1,.1524,-.19,.145,-.15,.15,0.0*
1,1,.1524,-.15,.15*
20,1,.1524,-.15,.15,-.11,.145,0.0*
1,1,.1524,-.11,.145*
20,1,.1524,-.11,.145,-.075,.125,0.0*
1,1,.1524,-.075,.125*
20,1,.1524,-.075,.125,-.045,.095,0.0*
1,1,.1524,-.045,.095*
20,1,.1524,-.045,.095,-.025,.06,0.0*
1,1,.1524,-.025,.06*
20,1,.1524,-.025,.06,-.015,.02,0.0*
1,1,.1524,-.015,.02*
20,1,.1524,-.015,.02,-.015,-.02,0.0*
1,1,.1524,-.015,-.02*
20,1,.1524,-.015,-.02,-.025,-.06,0.0*
1,1,.1524,-.025,-.06*
20,1,.1524,-.025,-.06,-.045,-.095,0.0*
1,1,.1524,-.045,-.095*
20,1,.1524,-.045,-.095,-.075,-.125,0.0*
1,1,.1524,-.075,-.125*
20,1,.1524,-.075,-.125,-.11,-.145,0.0*
1,1,.1524,-.11,-.145*
20,1,.1524,-.11,-.145,-.15,-.15,0.0*
1,1,.1524,-.15,-.15*
1,1,.1524,.1901,.01*
20,1,.1524,.1901,.01,.2101,.025,0.0*
1,1,.1524,.2101,.025*
20,1,.1524,.2101,.025,.2251,.05,0.0*
1,1,.1524,.2251,.05*
20,1,.1524,.2251,.05,.2351,.085,0.0*
1,1,.1524,.2351,.085*
20,1,.1524,.2351,.085,.2251,.115,0.0*
1,1,.1524,.2251,.115*
20,1,.1524,.2251,.115,.2051,.135,0.0*
1,1,.1524,.2051,.135*
20,1,.1524,.2051,.135,.1701,.15,0.0*
1,1,.1524,.1701,.15*
20,1,.1524,.1701,.15,.0351,.15,0.0*
1,1,.1524,.0351,.15*
20,1,.1524,.0351,.15,.0351,-.15,0.0*
1,1,.1524,.0351,-.15*
20,1,.1524,.0351,-.15,.2001,-.15,0.0*
1,1,.1524,.2001,-.15*
20,1,.1524,.2001,-.15,.2351,-.13,0.0*
1,1,.1524,.2351,-.13*
20,1,.1524,.2351,-.13,.2551,-.1,0.0*
1,1,.1524,.2551,-.1*
20,1,.1524,.2551,-.1,.2651,-.065,0.0*
1,1,.1524,.2651,-.065*
20,1,.1524,.2651,-.065,.2551,-.03,0.0*
1,1,.1524,.2551,-.03*
20,1,.1524,.2551,-.03,.2251,0.0,0.0*
1,1,.1524,.2251,0.0*
20,1,.1524,.2251,0.0,.1901,.01,0.0*
1,1,.1524,.1901,.01*
20,1,.1524,.1901,.01,.0351,.01,0.0*
1,1,.1524,.0351,.01*
%
%ADD12MACRO12*%
%AMMACRO14*
1,1,.1524,.127,0.0*
20,1,.1524,.127,0.0,-.127,0.0,0.0*
1,1,.1524,-.127,0.0*
1,1,.1524,0.0,.127*
20,1,.1524,0.0,.127,0.0,-.127,0.0*
1,1,.1524,0.0,-.127*
%
%ADD14MACRO14*%
%AMMACRO18*
1,1,.1524,0.0,.55*
20,1,.1524,0.0,.55,-.476314,.275,0.0*
1,1,.1524,-.476314,.275*
20,1,.1524,-.476314,.275,-.476314,-.275,0.0*
1,1,.1524,-.476314,-.275*
20,1,.1524,-.476314,-.275,0.0,-.55,0.0*
1,1,.1524,0.0,-.55*
20,1,.1524,0.0,-.55,.476314,-.275,0.0*
1,1,.1524,.476314,-.275*
20,1,.1524,.476314,-.275,.476314,.275,0.0*
1,1,.1524,.476314,.275*
20,1,.1524,.476314,.275,0.0,.55,0.0*
1,1,.1524,0.0,.55*
%
%ADD18MACRO18*%
%AMMACRO13*
1,1,.1524,-.5,-1.*
20,1,.1524,-.5,-1.,-.5,1.,0.0*
1,1,.1524,-.5,1.*
20,1,.1524,-.5,1.,-.492404,1.086824,0.0*
1,1,.1524,-.492404,1.086824*
20,1,.1524,-.492404,1.086824,-.469846,1.17101,0.0*
1,1,.1524,-.469846,1.17101*
20,1,.1524,-.469846,1.17101,-.433013,1.25,0.0*
1,1,.1524,-.433013,1.25*
20,1,.1524,-.433013,1.25,-.383022,1.321394,0.0*
1,1,.1524,-.383022,1.321394*
20,1,.1524,-.383022,1.321394,-.321394,1.383022,0.0*
1,1,.1524,-.321394,1.383022*
20,1,.1524,-.321394,1.383022,-.25,1.433013,0.0*
1,1,.1524,-.25,1.433013*
20,1,.1524,-.25,1.433013,-.17101,1.469846,0.0*
1,1,.1524,-.17101,1.469846*
20,1,.1524,-.17101,1.469846,-.086824,1.492404,0.0*
1,1,.1524,-.086824,1.492404*
20,1,.1524,-.086824,1.492404,0.0,1.5,0.0*
1,1,.1524,0.0,1.5*
20,1,.1524,0.0,1.5,.086824,1.492404,0.0*
1,1,.1524,.086824,1.492404*
20,1,.1524,.086824,1.492404,.17101,1.469846,0.0*
1,1,.1524,.17101,1.469846*
20,1,.1524,.17101,1.469846,.25,1.433013,0.0*
1,1,.1524,.25,1.433013*
20,1,.1524,.25,1.433013,.321394,1.383022,0.0*
1,1,.1524,.321394,1.383022*
20,1,.1524,.321394,1.383022,.383022,1.321394,0.0*
1,1,.1524,.383022,1.321394*
20,1,.1524,.383022,1.321394,.433013,1.25,0.0*
1,1,.1524,.433013,1.25*
20,1,.1524,.433013,1.25,.469846,1.17101,0.0*
1,1,.1524,.469846,1.17101*
20,1,.1524,.469846,1.17101,.492404,1.086824,0.0*
1,1,.1524,.492404,1.086824*
20,1,.1524,.492404,1.086824,.5,1.,0.0*
1,1,.1524,.5,1.*
20,1,.1524,.5,1.,.5,-1.,0.0*
1,1,.1524,.5,-1.*
20,1,.1524,.5,-1.,.492404,-1.086824,0.0*
1,1,.1524,.492404,-1.086824*
20,1,.1524,.492404,-1.086824,.469846,-1.17101,0.0*
1,1,.1524,.469846,-1.17101*
20,1,.1524,.469846,-1.17101,.433013,-1.25,0.0*
1,1,.1524,.433013,-1.25*
20,1,.1524,.433013,-1.25,.383022,-1.321394,0.0*
1,1,.1524,.383022,-1.321394*
20,1,.1524,.383022,-1.321394,.321394,-1.383022,0.0*
1,1,.1524,.321394,-1.383022*
20,1,.1524,.321394,-1.383022,.25,-1.433013,0.0*
1,1,.1524,.25,-1.433013*
20,1,.1524,.25,-1.433013,.17101,-1.469846,0.0*
1,1,.1524,.17101,-1.469846*
20,1,.1524,.17101,-1.469846,.086824,-1.492404,0.0*
1,1,.1524,.086824,-1.492404*
20,1,.1524,.086824,-1.492404,0.0,-1.5,0.0*
1,1,.1524,0.0,-1.5*
20,1,.1524,0.0,-1.5,-.086824,-1.492404,0.0*
1,1,.1524,-.086824,-1.492404*
20,1,.1524,-.086824,-1.492404,-.17101,-1.469846,0.0*
1,1,.1524,-.17101,-1.469846*
20,1,.1524,-.17101,-1.469846,-.25,-1.433013,0.0*
1,1,.1524,-.25,-1.433013*
20,1,.1524,-.25,-1.433013,-.321394,-1.383022,0.0*
1,1,.1524,-.321394,-1.383022*
20,1,.1524,-.321394,-1.383022,-.383022,-1.321394,0.0*
1,1,.1524,-.383022,-1.321394*
20,1,.1524,-.383022,-1.321394,-.433013,-1.25,0.0*
1,1,.1524,-.433013,-1.25*
20,1,.1524,-.433013,-1.25,-.469846,-1.17101,0.0*
1,1,.1524,-.469846,-1.17101*
20,1,.1524,-.469846,-1.17101,-.492404,-1.086824,0.0*
1,1,.1524,-.492404,-1.086824*
20,1,.1524,-.492404,-1.086824,-.5,-1.,0.0*
1,1,.1524,-.5,-1.*
1,1,.1524,-.25,-.25*
20,1,.1524,-.25,-.25,-.3167,-.2417,0.0*
1,1,.1524,-.3167,-.2417*
20,1,.1524,-.3167,-.2417,-.375,-.2083,0.0*
1,1,.1524,-.375,-.2083*
20,1,.1524,-.375,-.2083,-.425,-.1583,0.0*
1,1,.1524,-.425,-.1583*
20,1,.1524,-.425,-.1583,-.4583,-.1,0.0*
1,1,.1524,-.4583,-.1*
20,1,.1524,-.4583,-.1,-.475,-.0333,0.0*
1,1,.1524,-.475,-.0333*
20,1,.1524,-.475,-.0333,-.475,.0333,0.0*
1,1,.1524,-.475,.0333*
20,1,.1524,-.475,.0333,-.4583,.1,0.0*
1,1,.1524,-.4583,.1*
20,1,.1524,-.4583,.1,-.425,.1583,0.0*
1,1,.1524,-.425,.1583*
20,1,.1524,-.425,.1583,-.375,.2083,0.0*
1,1,.1524,-.375,.2083*
20,1,.1524,-.375,.2083,-.3167,.2417,0.0*
1,1,.1524,-.3167,.2417*
20,1,.1524,-.3167,.2417,-.25,.25,0.0*
1,1,.1524,-.25,.25*
20,1,.1524,-.25,.25,-.1833,.2417,0.0*
1,1,.1524,-.1833,.2417*
20,1,.1524,-.1833,.2417,-.125,.2083,0.0*
1,1,.1524,-.125,.2083*
20,1,.1524,-.125,.2083,-.075,.1583,0.0*
1,1,.1524,-.075,.1583*
20,1,.1524,-.075,.1583,-.0417,.1,0.0*
1,1,.1524,-.0417,.1*
20,1,.1524,-.0417,.1,-.025,.0333,0.0*
1,1,.1524,-.025,.0333*
20,1,.1524,-.025,.0333,-.025,-.0333,0.0*
1,1,.1524,-.025,-.0333*
20,1,.1524,-.025,-.0333,-.0417,-.1,0.0*
1,1,.1524,-.0417,-.1*
20,1,.1524,-.0417,-.1,-.075,-.1583,0.0*
1,1,.1524,-.075,-.1583*
20,1,.1524,-.075,-.1583,-.125,-.2083,0.0*
1,1,.1524,-.125,-.2083*
20,1,.1524,-.125,-.2083,-.1833,-.2417,0.0*
1,1,.1524,-.1833,-.2417*
20,1,.1524,-.1833,-.2417,-.25,-.25,0.0*
1,1,.1524,-.25,-.25*
1,1,.1524,.4334,.2083*
20,1,.1524,.4334,.2083,.3834,.2333,0.0*
1,1,.1524,.3834,.2333*
20,1,.1524,.3834,.2333,.3251,.25,0.0*
1,1,.1524,.3251,.25*
20,1,.1524,.3251,.25,.2584,.25,0.0*
1,1,.1524,.2584,.25*
20,1,.1524,.2584,.25,.1834,.225,0.0*
1,1,.1524,.1834,.225*
20,1,.1524,.1834,.225,.1251,.1833,0.0*
1,1,.1524,.1251,.1833*
20,1,.1524,.1251,.1833,.0834,.1333,0.0*
1,1,.1524,.0834,.1333*
20,1,.1524,.0834,.1333,.0501,.05,0.0*
1,1,.1524,.0501,.05*
20,1,.1524,.0501,.05,.0418,-.025,0.0*
1,1,.1524,.0418,-.025*
20,1,.1524,.0418,-.025,.0584,-.1,0.0*
1,1,.1524,.0584,-.1*
20,1,.1524,.0584,-.1,.0834,-.15,0.0*
1,1,.1524,.0834,-.15*
20,1,.1524,.0834,-.15,.1334,-.2,0.0*
1,1,.1524,.1334,-.2*
20,1,.1524,.1334,-.2,.1918,-.2333,0.0*
1,1,.1524,.1918,-.2333*
20,1,.1524,.1918,-.2333,.2501,-.25,0.0*
1,1,.1524,.2501,-.25*
20,1,.1524,.2501,-.25,.3084,-.25,0.0*
1,1,.1524,.3084,-.25*
20,1,.1524,.3084,-.25,.3668,-.2333,0.0*
1,1,.1524,.3668,-.2333*
20,1,.1524,.3668,-.2333,.4168,-.2083,0.0*
1,1,.1524,.4168,-.2083*
20,1,.1524,.4168,-.2083,.4584,-.175,0.0*
1,1,.1524,.4584,-.175*
%
%ADD13MACRO13*%
%AMMACRO17*
1,1,.1524,-1.,.5*
20,1,.1524,-1.,.5,1.,.5,0.0*
1,1,.1524,1.,.5*
20,1,.1524,1.,.5,1.086824,.492404,0.0*
1,1,.1524,1.086824,.492404*
20,1,.1524,1.086824,.492404,1.17101,.469846,0.0*
1,1,.1524,1.17101,.469846*
20,1,.1524,1.17101,.469846,1.25,.433013,0.0*
1,1,.1524,1.25,.433013*
20,1,.1524,1.25,.433013,1.321394,.383022,0.0*
1,1,.1524,1.321394,.383022*
20,1,.1524,1.321394,.383022,1.383022,.321394,0.0*
1,1,.1524,1.383022,.321394*
20,1,.1524,1.383022,.321394,1.433013,.25,0.0*
1,1,.1524,1.433013,.25*
20,1,.1524,1.433013,.25,1.469846,.17101,0.0*
1,1,.1524,1.469846,.17101*
20,1,.1524,1.469846,.17101,1.492404,.086824,0.0*
1,1,.1524,1.492404,.086824*
20,1,.1524,1.492404,.086824,1.5,0.0,0.0*
1,1,.1524,1.5,0.0*
20,1,.1524,1.5,0.0,1.492404,-.086824,0.0*
1,1,.1524,1.492404,-.086824*
20,1,.1524,1.492404,-.086824,1.469846,-.17101,0.0*
1,1,.1524,1.469846,-.17101*
20,1,.1524,1.469846,-.17101,1.433013,-.25,0.0*
1,1,.1524,1.433013,-.25*
20,1,.1524,1.433013,-.25,1.383022,-.321394,0.0*
1,1,.1524,1.383022,-.321394*
20,1,.1524,1.383022,-.321394,1.321394,-.383022,0.0*
1,1,.1524,1.321394,-.383022*
20,1,.1524,1.321394,-.383022,1.25,-.433013,0.0*
1,1,.1524,1.25,-.433013*
20,1,.1524,1.25,-.433013,1.17101,-.469846,0.0*
1,1,.1524,1.17101,-.469846*
20,1,.1524,1.17101,-.469846,1.086824,-.492404,0.0*
1,1,.1524,1.086824,-.492404*
20,1,.1524,1.086824,-.492404,1.,-.5,0.0*
1,1,.1524,1.,-.5*
20,1,.1524,1.,-.5,-1.,-.5,0.0*
1,1,.1524,-1.,-.5*
20,1,.1524,-1.,-.5,-1.086824,-.492404,0.0*
1,1,.1524,-1.086824,-.492404*
20,1,.1524,-1.086824,-.492404,-1.17101,-.469846,0.0*
1,1,.1524,-1.17101,-.469846*
20,1,.1524,-1.17101,-.469846,-1.25,-.433013,0.0*
1,1,.1524,-1.25,-.433013*
20,1,.1524,-1.25,-.433013,-1.321394,-.383022,0.0*
1,1,.1524,-1.321394,-.383022*
20,1,.1524,-1.321394,-.383022,-1.383022,-.321394,0.0*
1,1,.1524,-1.383022,-.321394*
20,1,.1524,-1.383022,-.321394,-1.433013,-.25,0.0*
1,1,.1524,-1.433013,-.25*
20,1,.1524,-1.433013,-.25,-1.469846,-.17101,0.0*
1,1,.1524,-1.469846,-.17101*
20,1,.1524,-1.469846,-.17101,-1.492404,-.086824,0.0*
1,1,.1524,-1.492404,-.086824*
20,1,.1524,-1.492404,-.086824,-1.5,0.0,0.0*
1,1,.1524,-1.5,0.0*
20,1,.1524,-1.5,0.0,-1.492404,.086824,0.0*
1,1,.1524,-1.492404,.086824*
20,1,.1524,-1.492404,.086824,-1.469846,.17101,0.0*
1,1,.1524,-1.469846,.17101*
20,1,.1524,-1.469846,.17101,-1.433013,.25,0.0*
1,1,.1524,-1.433013,.25*
20,1,.1524,-1.433013,.25,-1.383022,.321394,0.0*
1,1,.1524,-1.383022,.321394*
20,1,.1524,-1.383022,.321394,-1.321394,.383022,0.0*
1,1,.1524,-1.321394,.383022*
20,1,.1524,-1.321394,.383022,-1.25,.433013,0.0*
1,1,.1524,-1.25,.433013*
20,1,.1524,-1.25,.433013,-1.17101,.469846,0.0*
1,1,.1524,-1.17101,.469846*
20,1,.1524,-1.17101,.469846,-1.086824,.492404,0.0*
1,1,.1524,-1.086824,.492404*
20,1,.1524,-1.086824,.492404,-1.,.5,0.0*
1,1,.1524,-1.,.5*
1,1,.1524,-.25,-.25*
20,1,.1524,-.25,-.25,-.3167,-.2417,0.0*
1,1,.1524,-.3167,-.2417*
20,1,.1524,-.3167,-.2417,-.375,-.2083,0.0*
1,1,.1524,-.375,-.2083*
20,1,.1524,-.375,-.2083,-.425,-.1583,0.0*
1,1,.1524,-.425,-.1583*
20,1,.1524,-.425,-.1583,-.4583,-.1,0.0*
1,1,.1524,-.4583,-.1*
20,1,.1524,-.4583,-.1,-.475,-.0333,0.0*
1,1,.1524,-.475,-.0333*
20,1,.1524,-.475,-.0333,-.475,.0333,0.0*
1,1,.1524,-.475,.0333*
20,1,.1524,-.475,.0333,-.4583,.1,0.0*
1,1,.1524,-.4583,.1*
20,1,.1524,-.4583,.1,-.425,.1583,0.0*
1,1,.1524,-.425,.1583*
20,1,.1524,-.425,.1583,-.375,.2083,0.0*
1,1,.1524,-.375,.2083*
20,1,.1524,-.375,.2083,-.3167,.2417,0.0*
1,1,.1524,-.3167,.2417*
20,1,.1524,-.3167,.2417,-.25,.25,0.0*
1,1,.1524,-.25,.25*
20,1,.1524,-.25,.25,-.1833,.2417,0.0*
1,1,.1524,-.1833,.2417*
20,1,.1524,-.1833,.2417,-.125,.2083,0.0*
1,1,.1524,-.125,.2083*
20,1,.1524,-.125,.2083,-.075,.1583,0.0*
1,1,.1524,-.075,.1583*
20,1,.1524,-.075,.1583,-.0417,.1,0.0*
1,1,.1524,-.0417,.1*
20,1,.1524,-.0417,.1,-.025,.0333,0.0*
1,1,.1524,-.025,.0333*
20,1,.1524,-.025,.0333,-.025,-.0333,0.0*
1,1,.1524,-.025,-.0333*
20,1,.1524,-.025,-.0333,-.0417,-.1,0.0*
1,1,.1524,-.0417,-.1*
20,1,.1524,-.0417,-.1,-.075,-.1583,0.0*
1,1,.1524,-.075,-.1583*
20,1,.1524,-.075,-.1583,-.125,-.2083,0.0*
1,1,.1524,-.125,-.2083*
20,1,.1524,-.125,-.2083,-.1833,-.2417,0.0*
1,1,.1524,-.1833,-.2417*
20,1,.1524,-.1833,-.2417,-.25,-.25,0.0*
1,1,.1524,-.25,-.25*
1,1,.1524,.4334,.2083*
20,1,.1524,.4334,.2083,.3834,.2333,0.0*
1,1,.1524,.3834,.2333*
20,1,.1524,.3834,.2333,.3251,.25,0.0*
1,1,.1524,.3251,.25*
20,1,.1524,.3251,.25,.2584,.25,0.0*
1,1,.1524,.2584,.25*
20,1,.1524,.2584,.25,.1834,.225,0.0*
1,1,.1524,.1834,.225*
20,1,.1524,.1834,.225,.1251,.1833,0.0*
1,1,.1524,.1251,.1833*
20,1,.1524,.1251,.1833,.0834,.1333,0.0*
1,1,.1524,.0834,.1333*
20,1,.1524,.0834,.1333,.0501,.05,0.0*
1,1,.1524,.0501,.05*
20,1,.1524,.0501,.05,.0418,-.025,0.0*
1,1,.1524,.0418,-.025*
20,1,.1524,.0418,-.025,.0584,-.1,0.0*
1,1,.1524,.0584,-.1*
20,1,.1524,.0584,-.1,.0834,-.15,0.0*
1,1,.1524,.0834,-.15*
20,1,.1524,.0834,-.15,.1334,-.2,0.0*
1,1,.1524,.1334,-.2*
20,1,.1524,.1334,-.2,.1918,-.2333,0.0*
1,1,.1524,.1918,-.2333*
20,1,.1524,.1918,-.2333,.2501,-.25,0.0*
1,1,.1524,.2501,-.25*
20,1,.1524,.2501,-.25,.3084,-.25,0.0*
1,1,.1524,.3084,-.25*
20,1,.1524,.3084,-.25,.3668,-.2333,0.0*
1,1,.1524,.3668,-.2333*
20,1,.1524,.3668,-.2333,.4168,-.2083,0.0*
1,1,.1524,.4168,-.2083*
20,1,.1524,.4168,-.2083,.4584,-.175,0.0*
1,1,.1524,.4584,-.175*
%
%ADD17MACRO17*%
%AMMACRO15*
1,1,.1524,0.0,1.15*
20,1,.1524,0.0,1.15,.995929,-.575,0.0*
1,1,.1524,.995929,-.575*
20,1,.1524,.995929,-.575,-.995929,-.575,0.0*
1,1,.1524,-.995929,-.575*
20,1,.1524,-.995929,-.575,0.0,1.15,0.0*
1,1,.1524,0.0,1.15*
%
%ADD15MACRO15*%
%AMMACRO10*
1,1,.1524,-.4125,1.2375*
20,1,.1524,-.4125,1.2375,.4125,1.2375,0.0*
1,1,.1524,.4125,1.2375*
20,1,.1524,.4125,1.2375,.62739,1.2187,0.0*
1,1,.1524,.62739,1.2187*
20,1,.1524,.62739,1.2187,.83575,1.16287,0.0*
1,1,.1524,.83575,1.16287*
20,1,.1524,.83575,1.16287,1.03125,1.071706,0.0*
1,1,.1524,1.03125,1.071706*
20,1,.1524,1.03125,1.071706,1.20795,.94798,0.0*
1,1,.1524,1.20795,.94798*
20,1,.1524,1.20795,.94798,1.36048,.79545,0.0*
1,1,.1524,1.36048,.79545*
20,1,.1524,1.36048,.79545,1.484206,.61875,0.0*
1,1,.1524,1.484206,.61875*
20,1,.1524,1.484206,.61875,1.57537,.42325,0.0*
1,1,.1524,1.57537,.42325*
20,1,.1524,1.57537,.42325,1.6312,.21489,0.0*
1,1,.1524,1.6312,.21489*
20,1,.1524,1.6312,.21489,1.65,0.0,0.0*
1,1,.1524,1.65,0.0*
20,1,.1524,1.65,0.0,1.6312,-.21489,0.0*
1,1,.1524,1.6312,-.21489*
20,1,.1524,1.6312,-.21489,1.57537,-.42325,0.0*
1,1,.1524,1.57537,-.42325*
20,1,.1524,1.57537,-.42325,1.484206,-.61875,0.0*
1,1,.1524,1.484206,-.61875*
20,1,.1524,1.484206,-.61875,1.36048,-.79545,0.0*
1,1,.1524,1.36048,-.79545*
20,1,.1524,1.36048,-.79545,1.20795,-.94798,0.0*
1,1,.1524,1.20795,-.94798*
20,1,.1524,1.20795,-.94798,1.03125,-1.071706,0.0*
1,1,.1524,1.03125,-1.071706*
20,1,.1524,1.03125,-1.071706,.83575,-1.16287,0.0*
1,1,.1524,.83575,-1.16287*
20,1,.1524,.83575,-1.16287,.62739,-1.2187,0.0*
1,1,.1524,.62739,-1.2187*
20,1,.1524,.62739,-1.2187,.4125,-1.2375,0.0*
1,1,.1524,.4125,-1.2375*
20,1,.1524,.4125,-1.2375,-.4125,-1.2375,0.0*
1,1,.1524,-.4125,-1.2375*
20,1,.1524,-.4125,-1.2375,-.62739,-1.2187,0.0*
1,1,.1524,-.62739,-1.2187*
20,1,.1524,-.62739,-1.2187,-.83575,-1.16287,0.0*
1,1,.1524,-.83575,-1.16287*
20,1,.1524,-.83575,-1.16287,-1.03125,-1.071706,0.0*
1,1,.1524,-1.03125,-1.071706*
20,1,.1524,-1.03125,-1.071706,-1.20795,-.94798,0.0*
1,1,.1524,-1.20795,-.94798*
20,1,.1524,-1.20795,-.94798,-1.36048,-.79545,0.0*
1,1,.1524,-1.36048,-.79545*
20,1,.1524,-1.36048,-.79545,-1.484206,-.61875,0.0*
1,1,.1524,-1.484206,-.61875*
20,1,.1524,-1.484206,-.61875,-1.57537,-.42325,0.0*
1,1,.1524,-1.57537,-.42325*
20,1,.1524,-1.57537,-.42325,-1.6312,-.21489,0.0*
1,1,.1524,-1.6312,-.21489*
20,1,.1524,-1.6312,-.21489,-1.65,0.0,0.0*
1,1,.1524,-1.65,0.0*
20,1,.1524,-1.65,0.0,-1.6312,.21489,0.0*
1,1,.1524,-1.6312,.21489*
20,1,.1524,-1.6312,.21489,-1.57537,.42325,0.0*
1,1,.1524,-1.57537,.42325*
20,1,.1524,-1.57537,.42325,-1.484206,.61875,0.0*
1,1,.1524,-1.484206,.61875*
20,1,.1524,-1.484206,.61875,-1.36048,.79545,0.0*
1,1,.1524,-1.36048,.79545*
20,1,.1524,-1.36048,.79545,-1.20795,.94798,0.0*
1,1,.1524,-1.20795,.94798*
20,1,.1524,-1.20795,.94798,-1.03125,1.071706,0.0*
1,1,.1524,-1.03125,1.071706*
20,1,.1524,-1.03125,1.071706,-.83575,1.16287,0.0*
1,1,.1524,-.83575,1.16287*
20,1,.1524,-.83575,1.16287,-.62739,1.2187,0.0*
1,1,.1524,-.62739,1.2187*
20,1,.1524,-.62739,1.2187,-.4125,1.2375,0.0*
1,1,.1524,-.4125,1.2375*
%
%ADD10MACRO10*%
%AMMACRO20*
1,1,.1524,.45,0.0*
20,1,.1524,.45,0.0,.225,.389711,0.0*
1,1,.1524,.225,.389711*
20,1,.1524,.225,.389711,-.225,.389711,0.0*
1,1,.1524,-.225,.389711*
20,1,.1524,-.225,.389711,-.45,0.0,0.0*
1,1,.1524,-.45,0.0*
20,1,.1524,-.45,0.0,-.225,-.389711,0.0*
1,1,.1524,-.225,-.389711*
20,1,.1524,-.225,-.389711,.225,-.389711,0.0*
1,1,.1524,.225,-.389711*
20,1,.1524,.225,-.389711,.45,0.0,0.0*
1,1,.1524,.45,0.0*
%
%ADD20MACRO20*%
%ADD22C,.1524*%
G75*
%LPD*%
G75*
G54D10*
X360000Y360000D03*
Y5040000D03*
X1060000D03*
X7440000D03*
X8140000Y360000D03*
Y5040000D03*
X10671730Y2617500D03*
G54D20*
X6521000Y3786000D03*
Y3532000D03*
X6775000Y3659000D03*
Y3405000D03*
X6521000Y4294000D03*
Y4040000D03*
X6775000Y4167000D03*
Y3913000D03*
X7900000Y3187500D03*
Y3441500D03*
Y4258500D03*
Y4512500D03*
X10671730Y5792500D03*
G54D11*
X208000Y2142000D03*
Y3006000D03*
X10671730Y1982500D03*
G54D12*
X626000Y2142000D03*
Y3006000D03*
X10671730Y1347500D03*
G54D21*
X7105000Y3075500D03*
Y4624500D03*
X10671730Y3887500D03*
G54D22*
G01X-1427400Y2503320D02*
X-1413180Y2487450D01*
X-1396590Y2477920D01*
X-1375250Y2474750D01*
X-1353910Y2481100D01*
X-1337320Y2493800D01*
X-1325470Y2516020D01*
X-1323100Y2541420D01*
X-1327840Y2566820D01*
X-1339690Y2582700D01*
X-1356290Y2595400D01*
X-1372880Y2598570D01*
X-1389470Y2595400D01*
X-1410810Y2582700D01*
X-1403700Y2665250D01*
X-1339690D01*
G01X-1156300Y2474750D02*
Y2665250D01*
X-1244020Y2528730D01*
X-1125480D01*
G01X-512650Y972850D02*
X-498430Y950620D01*
X-479470Y937920D01*
X-458130Y934750D01*
X-439160Y937920D01*
X-420200Y953800D01*
X-408350Y972850D01*
X-405980Y991900D01*
X-410720Y1014120D01*
X-427310Y1030000D01*
X-443910Y1036350D01*
X-465240D01*
G01X-443910D02*
X-429680Y1045870D01*
X-417830Y1061750D01*
X-413090Y1080800D01*
X-417830Y1099850D01*
X-429680Y1115720D01*
X-451020Y1125250D01*
X-472350Y1122080D01*
X-493690Y1109370D01*
G01X-270000Y928400D02*
X-274740Y931580D01*
Y937920D01*
X-270000Y941100D01*
X-265260Y937920D01*
Y931580D01*
X-270000Y928400D01*
G01X-124540Y1014120D02*
X-107950Y1036350D01*
X-93720Y1049050D01*
X-74760Y1055400D01*
X-58160Y1049050D01*
X-46310Y1036350D01*
X-36830Y1017300D01*
X-34460Y995070D01*
X-36830Y976020D01*
X-46310Y956970D01*
X-60540Y941100D01*
X-77130Y934750D01*
X-96090Y941100D01*
X-112690Y960140D01*
X-122170Y988730D01*
X-124540Y1020470D01*
X-119800Y1061750D01*
X-112690Y1083980D01*
X-100840Y1106200D01*
X-84240Y1122080D01*
X-67650Y1125250D01*
X-51050Y1118900D01*
X-39200Y1103020D01*
G01X-957900Y1913320D02*
X-943680Y1897450D01*
X-927090Y1887920D01*
X-905750Y1884750D01*
X-884410Y1891100D01*
X-867820Y1903800D01*
X-855970Y1926020D01*
X-853600Y1951420D01*
X-858340Y1976820D01*
X-870190Y1992700D01*
X-886790Y2005400D01*
X-903380Y2008570D01*
X-919970Y2005400D01*
X-941310Y1992700D01*
X-934200Y2075250D01*
X-870190D01*
G01X-715250D02*
X-734220Y2068900D01*
X-748440Y2053020D01*
X-757920Y2033980D01*
X-765030Y2008570D01*
X-767400Y1980000D01*
X-765030Y1951420D01*
X-757920Y1926020D01*
X-748440Y1906970D01*
X-734220Y1891100D01*
X-715250Y1884750D01*
X-696290Y1891100D01*
X-682060Y1906970D01*
X-672580Y1926020D01*
X-665470Y1951420D01*
X-663100Y1980000D01*
X-665470Y2008570D01*
X-672580Y2033980D01*
X-682060Y2053020D01*
X-696290Y2068900D01*
X-715250Y2075250D01*
G01X-524750Y1878400D02*
X-529490Y1881580D01*
Y1887920D01*
X-524750Y1891100D01*
X-520010Y1887920D01*
Y1881580D01*
X-524750Y1878400D01*
G01X-305800Y1884750D02*
Y2075250D01*
X-393520Y1938730D01*
X-274980D01*
G01X665260Y5754750D02*
X670000Y5796020D01*
X677110Y5830950D01*
X686590Y5862700D01*
X698450Y5897620D01*
X717410Y5945250D01*
X622590D01*
G01X787350Y-247150D02*
X801570Y-269380D01*
X820530Y-282080D01*
X841870Y-285250D01*
X860840Y-282080D01*
X879800Y-266200D01*
X891650Y-247150D01*
X894020Y-228100D01*
X889280Y-205880D01*
X872690Y-190000D01*
X856090Y-183650D01*
X834760D01*
G01X856090D02*
X870320Y-174130D01*
X882170Y-158250D01*
X886910Y-139200D01*
X882170Y-120150D01*
X870320Y-104280D01*
X848980Y-94750D01*
X827650Y-97920D01*
X806310Y-110630D01*
G01X1030000Y-291600D02*
X1025260Y-288420D01*
Y-282080D01*
X1030000Y-278900D01*
X1034740Y-282080D01*
Y-288420D01*
X1030000Y-291600D01*
G01X1175460Y-205880D02*
X1192050Y-183650D01*
X1206280Y-170950D01*
X1225240Y-164600D01*
X1241840Y-170950D01*
X1253690Y-183650D01*
X1263170Y-202700D01*
X1265540Y-224930D01*
X1263170Y-243980D01*
X1253690Y-263030D01*
X1239460Y-278900D01*
X1222870Y-285250D01*
X1203910Y-278900D01*
X1187310Y-259860D01*
X1177830Y-231270D01*
X1175460Y-199530D01*
X1180200Y-158250D01*
X1187310Y-136020D01*
X1199160Y-113800D01*
X1215760Y-97920D01*
X1232350Y-94750D01*
X1248950Y-101100D01*
X1260800Y-116980D01*
G01X2084250Y-515250D02*
X2100840Y-512080D01*
X2119810Y-502550D01*
X2131660Y-486680D01*
X2136400Y-464450D01*
X2131660Y-442230D01*
X2117440Y-423180D01*
X2096100Y-413650D01*
X2072400D01*
X2058170Y-407300D01*
X2046320Y-391430D01*
X2041580Y-369200D01*
X2048690Y-346980D01*
X2065280Y-331100D01*
X2084250Y-324750D01*
X2103210Y-331100D01*
X2119810Y-346980D01*
X2126920Y-369200D01*
X2122180Y-391430D01*
X2110330Y-407300D01*
X2096100Y-413650D01*
X2072400D01*
X2051060Y-423180D01*
X2036840Y-442230D01*
X2032100Y-464450D01*
X2036840Y-486680D01*
X2048690Y-502550D01*
X2067660Y-512080D01*
X2084250Y-515250D01*
G01X2274750D02*
Y-324750D01*
X2246300Y-362850D01*
G01Y-515250D02*
X2303190D01*
G01X2465250Y-521600D02*
X2460510Y-518420D01*
Y-512080D01*
X2465250Y-508900D01*
X2469990Y-512080D01*
Y-518420D01*
X2465250Y-521600D01*
G01X2684200Y-515250D02*
Y-324750D01*
X2596480Y-461270D01*
X2715020D01*
G01X3544750Y-765250D02*
X3561340Y-762080D01*
X3580310Y-752550D01*
X3592160Y-736680D01*
X3596900Y-714450D01*
X3592160Y-692230D01*
X3577940Y-673180D01*
X3556600Y-663650D01*
X3532900D01*
X3518670Y-657300D01*
X3506820Y-641430D01*
X3502080Y-619200D01*
X3509190Y-596980D01*
X3525780Y-581100D01*
X3544750Y-574750D01*
X3563710Y-581100D01*
X3580310Y-596980D01*
X3587420Y-619200D01*
X3582680Y-641430D01*
X3570830Y-657300D01*
X3556600Y-663650D01*
X3532900D01*
X3511560Y-673180D01*
X3497340Y-692230D01*
X3492600Y-714450D01*
X3497340Y-736680D01*
X3509190Y-752550D01*
X3528160Y-762080D01*
X3544750Y-765250D01*
G01X3683100Y-736680D02*
X3697320Y-752550D01*
X3713910Y-762080D01*
X3735250Y-765250D01*
X3756590Y-758900D01*
X3773180Y-746200D01*
X3785030Y-723980D01*
X3787400Y-698580D01*
X3782660Y-673180D01*
X3770810Y-657300D01*
X3754210Y-644600D01*
X3737620Y-641430D01*
X3721030Y-644600D01*
X3699690Y-657300D01*
X3706800Y-574750D01*
X3770810D01*
G01X9809520Y7538750D02*
Y7856250D01*
X9959140D01*
G01X9904010Y7702800D02*
X9809520D01*
G01X10152050Y7856250D02*
X10246530D01*
G01X10199290D02*
Y7538750D01*
G01X10152050D02*
X10246530D01*
G01X10537870Y7697500D02*
X10616620D01*
Y7602250D01*
X10592990Y7570490D01*
X10565430Y7549330D01*
X10526060Y7538750D01*
X10486690Y7549330D01*
X10459130Y7570490D01*
X10435510Y7602250D01*
X10419760Y7639290D01*
X10411880Y7681620D01*
Y7718670D01*
X10419760Y7750410D01*
X10435510Y7787460D01*
X10459130Y7819210D01*
X10482750Y7840370D01*
X10514250Y7856250D01*
X10541810D01*
X10573300Y7845670D01*
X10596930Y7824500D01*
G01X10742600Y7856250D02*
Y7628710D01*
X10758340Y7581070D01*
X10789840Y7549330D01*
X10829210Y7538750D01*
X10868580Y7549330D01*
X10900080Y7581070D01*
X10915820Y7628710D01*
Y7856250D01*
G01X11065430Y7538750D02*
Y7856250D01*
X11163850D01*
X11195350Y7840370D01*
X11215040Y7819210D01*
X11222910Y7776870D01*
X11215040Y7734540D01*
X11191410Y7708090D01*
X11163850Y7692200D01*
X11065430D01*
G01X11163850D02*
X11222910Y7538750D01*
G01X11537870D02*
X11380390D01*
Y7856250D01*
X11537870D01*
G01X11474880Y7702800D02*
X11380390D01*
G01X12407940Y7538750D02*
Y7856250D01*
X12557560D01*
G01X12502430Y7702800D02*
X12407940D01*
G01X12750470Y7856250D02*
X12844950D01*
G01X12797710D02*
Y7538750D01*
G01X12750470D02*
X12844950D01*
G01X13022120D02*
Y7856250D01*
X13203220Y7538750D01*
Y7856250D01*
G01X13380390D02*
X13474870D01*
G01X13427630D02*
Y7538750D01*
G01X13380390D02*
X13474870D01*
G01X13659910Y7581070D02*
X13691410Y7554620D01*
X13726840Y7538750D01*
X13758340D01*
X13789830Y7554620D01*
X13813460Y7581070D01*
X13825270Y7618130D01*
X13817400Y7655160D01*
X13797710Y7686910D01*
X13762270Y7708090D01*
X13715030Y7718670D01*
X13687470Y7739830D01*
X13675660Y7776870D01*
X13683540Y7813920D01*
X13703220Y7840370D01*
X13730780Y7856250D01*
X13758340D01*
X13785900Y7845670D01*
X13809520Y7819210D01*
G01X13974870Y7538750D02*
Y7856250D01*
G01X14140230D02*
Y7538750D01*
G01Y7697500D02*
X13974870D01*
G01X14451250Y7538750D02*
X14293770D01*
Y7856250D01*
X14451250D01*
G01X14388260Y7702800D02*
X14293770D01*
G01X14600860Y7538750D02*
Y7856250D01*
X14679590D01*
X14711090Y7840370D01*
X14734710Y7819210D01*
X14754400Y7787460D01*
X14770150Y7750410D01*
X14774080Y7697500D01*
X14770150Y7644580D01*
X14754400Y7607540D01*
X14734710Y7575780D01*
X14711090Y7554620D01*
X14679590Y7538750D01*
X14600860D01*
G01X14884320Y7432920D02*
X15120540D01*
G01X15234710Y7581070D02*
X15266210Y7554620D01*
X15301640Y7538750D01*
X15333140D01*
X15364630Y7554620D01*
X15388260Y7581070D01*
X15400070Y7618130D01*
X15392200Y7655160D01*
X15372510Y7686910D01*
X15337070Y7708090D01*
X15289830Y7718670D01*
X15262270Y7739830D01*
X15250460Y7776870D01*
X15258340Y7813920D01*
X15278020Y7840370D01*
X15305580Y7856250D01*
X15333140D01*
X15360700Y7845670D01*
X15384320Y7819210D01*
G01X15585110Y7856250D02*
X15679590D01*
G01X15632350D02*
Y7538750D01*
G01X15585110D02*
X15679590D01*
G01X15872500Y7856250D02*
X16022120D01*
X15872500Y7538750D01*
X16022120D01*
G01X16341010D02*
X16183530D01*
Y7856250D01*
X16341010D01*
G01X16278020Y7702800D02*
X16183530D01*
G01X13341020Y-17750D02*
X13364630Y-54800D01*
X13396130Y-75960D01*
X13431570Y-81250D01*
X13463070Y-75960D01*
X13494560Y-49510D01*
X13514240Y-17750D01*
X13518180Y14000D01*
X13510310Y51030D01*
X13482750Y77500D01*
X13455190Y88090D01*
X13419750D01*
G01X13455190D02*
X13478810Y103960D01*
X13498500Y130410D01*
X13506370Y162160D01*
X13498500Y193920D01*
X13478810Y220370D01*
X13443380Y236250D01*
X13407950Y230960D01*
X13372510Y209790D01*
G01X13742590Y-91830D02*
X13734710Y-86540D01*
Y-75960D01*
X13742590Y-70670D01*
X13750470Y-75960D01*
Y-86540D01*
X13742590Y-91830D01*
G01X14057550Y236250D02*
X14026050Y225670D01*
X14002430Y199210D01*
X13986680Y167460D01*
X13974870Y125120D01*
X13970940Y77500D01*
X13974870Y29870D01*
X13986680Y-12460D01*
X14002430Y-44220D01*
X14026050Y-70670D01*
X14057550Y-81250D01*
X14089040Y-70670D01*
X14112670Y-44220D01*
X14128420Y-12460D01*
X14140230Y29870D01*
X14144160Y77500D01*
X14140230Y125120D01*
X14128420Y167460D01*
X14112670Y199210D01*
X14089040Y225670D01*
X14057550Y236250D01*
G01X14313460Y130410D02*
X14431560Y-81250D01*
G01Y130410D02*
X14313460Y-81250D01*
G01X14687470D02*
Y236250D01*
X14640230Y172750D01*
G01Y-81250D02*
X14734710D01*
G01X15002430Y-91830D02*
X14994550Y-86540D01*
Y-75960D01*
X15002430Y-70670D01*
X15010310Y-75960D01*
Y-86540D01*
X15002430Y-91830D01*
G01X15317390Y236250D02*
X15285890Y225670D01*
X15262270Y199210D01*
X15246520Y167460D01*
X15234710Y125120D01*
X15230780Y77500D01*
X15234710Y29870D01*
X15246520Y-12460D01*
X15262270Y-44220D01*
X15285890Y-70670D01*
X15317390Y-81250D01*
X15348880Y-70670D01*
X15372510Y-44220D01*
X15388260Y-12460D01*
X15400070Y29870D01*
X15404000Y77500D01*
X15400070Y125120D01*
X15388260Y167460D01*
X15372510Y199210D01*
X15348880Y225670D01*
X15317390Y236250D01*
G01X13341020Y617250D02*
X13364630Y580200D01*
X13396130Y559040D01*
X13431570Y553750D01*
X13463070Y559040D01*
X13494560Y585490D01*
X13514240Y617250D01*
X13518180Y649000D01*
X13510310Y686030D01*
X13482750Y712500D01*
X13455190Y723090D01*
X13419750D01*
G01X13455190D02*
X13478810Y738960D01*
X13498500Y765410D01*
X13506370Y797160D01*
X13498500Y828920D01*
X13478810Y855370D01*
X13443380Y871250D01*
X13407950Y865960D01*
X13372510Y844790D01*
G01X13742590Y543170D02*
X13734710Y548460D01*
Y559040D01*
X13742590Y564330D01*
X13750470Y559040D01*
Y548460D01*
X13742590Y543170D01*
G01X14057550Y871250D02*
X14026050Y860670D01*
X14002430Y834210D01*
X13986680Y802460D01*
X13974870Y760120D01*
X13970940Y712500D01*
X13974870Y664870D01*
X13986680Y622540D01*
X14002430Y590780D01*
X14026050Y564330D01*
X14057550Y553750D01*
X14089040Y564330D01*
X14112670Y590780D01*
X14128420Y622540D01*
X14140230Y664870D01*
X14144160Y712500D01*
X14140230Y760120D01*
X14128420Y802460D01*
X14112670Y834210D01*
X14089040Y860670D01*
X14057550Y871250D01*
G01X14313460Y765410D02*
X14431560Y553750D01*
G01Y765410D02*
X14313460Y553750D01*
G01X14687470D02*
Y871250D01*
X14640230Y807750D01*
G01Y553750D02*
X14734710D01*
G01X15002430Y543170D02*
X14994550Y548460D01*
Y559040D01*
X15002430Y564330D01*
X15010310Y559040D01*
Y548460D01*
X15002430Y543170D01*
G01X15317390Y871250D02*
X15285890Y860670D01*
X15262270Y834210D01*
X15246520Y802460D01*
X15234710Y760120D01*
X15230780Y712500D01*
X15234710Y664870D01*
X15246520Y622540D01*
X15262270Y590780D01*
X15285890Y564330D01*
X15317390Y553750D01*
X15348880Y564330D01*
X15372510Y590780D01*
X15388260Y622540D01*
X15400070Y664870D01*
X15404000Y712500D01*
X15400070Y760120D01*
X15388260Y802460D01*
X15372510Y834210D01*
X15348880Y860670D01*
X15317390Y871250D01*
G01X13427630Y1188750D02*
Y1506250D01*
X13380390Y1442750D01*
G01Y1188750D02*
X13474870D01*
G01X13742590Y1178170D02*
X13734710Y1183460D01*
Y1194040D01*
X13742590Y1199330D01*
X13750470Y1194040D01*
Y1183460D01*
X13742590Y1178170D01*
G01X14049670Y1188750D02*
X14057550Y1257540D01*
X14069360Y1315740D01*
X14085110Y1368670D01*
X14104790Y1426870D01*
X14136290Y1506250D01*
X13978810D01*
G01X14313460Y1400410D02*
X14431560Y1188750D01*
G01Y1400410D02*
X14313460Y1188750D01*
G01X14687470Y1506250D02*
X14655970Y1495670D01*
X14632350Y1469210D01*
X14616600Y1437460D01*
X14604790Y1395120D01*
X14600860Y1347500D01*
X14604790Y1299870D01*
X14616600Y1257540D01*
X14632350Y1225780D01*
X14655970Y1199330D01*
X14687470Y1188750D01*
X14718960Y1199330D01*
X14742590Y1225780D01*
X14758340Y1257540D01*
X14770150Y1299870D01*
X14774080Y1347500D01*
X14770150Y1395120D01*
X14758340Y1437460D01*
X14742590Y1469210D01*
X14718960Y1495670D01*
X14687470Y1506250D01*
G01X15002430Y1178170D02*
X14994550Y1183460D01*
Y1194040D01*
X15002430Y1199330D01*
X15010310Y1194040D01*
Y1183460D01*
X15002430Y1178170D01*
G01X15242580Y1321030D02*
X15270150Y1358090D01*
X15293770Y1379250D01*
X15325270Y1389830D01*
X15352830Y1379250D01*
X15372510Y1358090D01*
X15388260Y1326330D01*
X15392200Y1289290D01*
X15388260Y1257540D01*
X15372510Y1225780D01*
X15348880Y1199330D01*
X15321330Y1188750D01*
X15289830Y1199330D01*
X15262270Y1231070D01*
X15246520Y1278710D01*
X15242580Y1331620D01*
X15250460Y1400410D01*
X15262270Y1437460D01*
X15281950Y1474500D01*
X15309510Y1500960D01*
X15337070Y1506250D01*
X15364630Y1495670D01*
X15384320Y1469210D01*
G01X13427630Y1823750D02*
Y2141250D01*
X13380390Y2077750D01*
G01Y1823750D02*
X13474870D01*
G01X13742590Y1813170D02*
X13734710Y1818460D01*
Y1829040D01*
X13742590Y1834330D01*
X13750470Y1829040D01*
Y1818460D01*
X13742590Y1813170D01*
G01X13982740Y2088330D02*
X14006370Y2120080D01*
X14033930Y2135960D01*
X14065430Y2141250D01*
X14104790Y2130670D01*
X14132360Y2104210D01*
X14140230Y2072460D01*
X14136290Y2040700D01*
X14120540Y2014250D01*
X14041800Y1961330D01*
X14006370Y1924290D01*
X13982740Y1871360D01*
X13974870Y1823750D01*
X14140230D01*
G01X14313460Y2035410D02*
X14431560Y1823750D01*
G01Y2035410D02*
X14313460Y1823750D01*
G01X14687470Y2141250D02*
X14655970Y2130670D01*
X14632350Y2104210D01*
X14616600Y2072460D01*
X14604790Y2030120D01*
X14600860Y1982500D01*
X14604790Y1934870D01*
X14616600Y1892540D01*
X14632350Y1860780D01*
X14655970Y1834330D01*
X14687470Y1823750D01*
X14718960Y1834330D01*
X14742590Y1860780D01*
X14758340Y1892540D01*
X14770150Y1934870D01*
X14774080Y1982500D01*
X14770150Y2030120D01*
X14758340Y2072460D01*
X14742590Y2104210D01*
X14718960Y2130670D01*
X14687470Y2141250D01*
G01X15002430Y1813170D02*
X14994550Y1818460D01*
Y1829040D01*
X15002430Y1834330D01*
X15010310Y1829040D01*
Y1818460D01*
X15002430Y1813170D01*
G01X15242580Y1956030D02*
X15270150Y1993090D01*
X15293770Y2014250D01*
X15325270Y2024830D01*
X15352830Y2014250D01*
X15372510Y1993090D01*
X15388260Y1961330D01*
X15392200Y1924290D01*
X15388260Y1892540D01*
X15372510Y1860780D01*
X15348880Y1834330D01*
X15321330Y1823750D01*
X15289830Y1834330D01*
X15262270Y1866070D01*
X15246520Y1913710D01*
X15242580Y1966620D01*
X15250460Y2035410D01*
X15262270Y2072460D01*
X15281950Y2109500D01*
X15309510Y2135960D01*
X15337070Y2141250D01*
X15364630Y2130670D01*
X15384320Y2104210D01*
G01X13092980Y8173750D02*
X13191410Y8491250D01*
X13289840Y8173750D01*
G01X13254400Y8284870D02*
X13128410D01*
G01X13427630Y8491250D02*
Y8173750D01*
X13585110D01*
G01X13742590Y8491250D02*
Y8173750D01*
X13900070D01*
G01X14364640Y8491250D02*
Y8263710D01*
X14380380Y8216070D01*
X14411880Y8184330D01*
X14451250Y8173750D01*
X14490620Y8184330D01*
X14522120Y8216070D01*
X14537860Y8263710D01*
Y8491250D01*
G01X14675660Y8173750D02*
Y8491250D01*
X14856760Y8173750D01*
Y8491250D01*
G01X15033930D02*
X15128410D01*
G01X15081170D02*
Y8173750D01*
G01X15033930D02*
X15128410D01*
G01X15396130Y8491250D02*
Y8173750D01*
G01X15305580Y8491250D02*
X15486680D01*
G01X15628410Y8216070D02*
X15659910Y8189620D01*
X15695340Y8173750D01*
X15726840D01*
X15758330Y8189620D01*
X15781960Y8216070D01*
X15793770Y8253130D01*
X15785900Y8290160D01*
X15766210Y8321910D01*
X15730770Y8343090D01*
X15683530Y8353670D01*
X15655970Y8374830D01*
X15644160Y8411870D01*
X15652040Y8448920D01*
X15671720Y8475370D01*
X15699280Y8491250D01*
X15726840D01*
X15754400Y8480670D01*
X15778020Y8454210D01*
G01X16242580Y8173750D02*
X16341010Y8491250D01*
X16439440Y8173750D01*
G01X16404000Y8284870D02*
X16278010D01*
G01X16577230Y8173750D02*
Y8491250D01*
X16675650D01*
X16707150Y8475370D01*
X16726840Y8454210D01*
X16734710Y8411870D01*
X16726840Y8369540D01*
X16703210Y8343090D01*
X16675650Y8327200D01*
X16577230D01*
G01X16675650D02*
X16734710Y8173750D01*
G01X17049670D02*
X16892190D01*
Y8491250D01*
X17049670D01*
G01X16986680Y8337800D02*
X16892190D01*
G01X17553610Y8491250D02*
X17648090D01*
G01X17600850D02*
Y8173750D01*
G01X17553610D02*
X17648090D01*
G01X17825260D02*
Y8491250D01*
X18006360Y8173750D01*
Y8491250D01*
G01X18443360Y8173750D02*
Y8491250D01*
X18545730Y8226670D01*
X18648100Y8491250D01*
Y8173750D01*
G01X18813450Y8491250D02*
X18907930D01*
G01X18860690D02*
Y8173750D01*
G01X18813450D02*
X18907930D01*
G01X19096910Y8491250D02*
Y8173750D01*
X19254390D01*
G01X19411870Y8491250D02*
Y8173750D01*
X19569350D01*
G01X19758330Y8491250D02*
X19852810D01*
G01X19805570D02*
Y8173750D01*
G01X19758330D02*
X19852810D01*
G01X20018160D02*
Y8491250D01*
X20120530Y8226670D01*
X20222900Y8491250D01*
Y8173750D01*
G01X20514230D02*
X20356750D01*
Y8491250D01*
X20514230D01*
G01X20451240Y8337800D02*
X20356750D01*
G01X20750450Y8491250D02*
Y8173750D01*
G01X20659900Y8491250D02*
X20841000D01*
G01X21144150Y8173750D02*
X20986670D01*
Y8491250D01*
X21144150D01*
G01X21081160Y8337800D02*
X20986670D01*
G01X21301630Y8173750D02*
Y8491250D01*
X21400050D01*
X21431550Y8475370D01*
X21451240Y8454210D01*
X21459110Y8411870D01*
X21451240Y8369540D01*
X21427610Y8343090D01*
X21400050Y8327200D01*
X21301630D01*
G01X21400050D02*
X21459110Y8173750D01*
G01X21612650Y8216070D02*
X21644150Y8189620D01*
X21679580Y8173750D01*
X21711080D01*
X21742570Y8189620D01*
X21766200Y8216070D01*
X21778010Y8253130D01*
X21770140Y8290160D01*
X21750450Y8321910D01*
X21715010Y8343090D01*
X21667770Y8353670D01*
X21640210Y8374830D01*
X21628400Y8411870D01*
X21636280Y8448920D01*
X21655960Y8475370D01*
X21683520Y8491250D01*
X21711080D01*
X21738640Y8480670D01*
X21762260Y8454210D01*
G01X13419760Y8823750D02*
Y9141250D01*
X13498490D01*
X13529990Y9125370D01*
X13553610Y9104210D01*
X13573300Y9072460D01*
X13589050Y9035410D01*
X13592980Y8982500D01*
X13589050Y8929580D01*
X13573300Y8892540D01*
X13553610Y8860780D01*
X13529990Y8839620D01*
X13498490Y8823750D01*
X13419760D01*
G01X13742590D02*
Y9141250D01*
X13841010D01*
X13872510Y9125370D01*
X13892200Y9104210D01*
X13900070Y9061870D01*
X13892200Y9019540D01*
X13868570Y8993090D01*
X13841010Y8977200D01*
X13742590D01*
G01X13841010D02*
X13900070Y8823750D01*
G01X14089050Y9141250D02*
X14183530D01*
G01X14136290D02*
Y8823750D01*
G01X14089050D02*
X14183530D01*
G01X14372510Y9141250D02*
Y8823750D01*
X14529990D01*
G01X14687470Y9141250D02*
Y8823750D01*
X14844950D01*
G01X15482740Y9114790D02*
X15459120Y9130670D01*
X15431570Y9141250D01*
X15400070D01*
X15364630Y9125370D01*
X15337080Y9098920D01*
X15317390Y9067160D01*
X15301640Y9014250D01*
X15297700Y8966620D01*
X15305580Y8919000D01*
X15317390Y8887250D01*
X15341010Y8855490D01*
X15368570Y8834330D01*
X15396130Y8823750D01*
X15423690D01*
X15451250Y8834330D01*
X15474870Y8850200D01*
X15494560Y8871360D01*
G01X15628410Y8823750D02*
Y9141250D01*
G01X15793770D02*
Y8823750D01*
G01Y8982500D02*
X15628410D01*
G01X15927620Y8823750D02*
X16026050Y9141250D01*
X16124480Y8823750D01*
G01X16089040Y8934870D02*
X15963050D01*
G01X16262270Y8823750D02*
Y9141250D01*
X16360690D01*
X16392190Y9125370D01*
X16411880Y9104210D01*
X16419750Y9061870D01*
X16411880Y9019540D01*
X16388250Y8993090D01*
X16360690Y8977200D01*
X16262270D01*
G01X16360690D02*
X16419750Y8823750D01*
G01X16655970Y9141250D02*
Y8823750D01*
G01X16565420Y9141250D02*
X16746520D01*
G01X16970930Y8813170D02*
X16963050Y8818460D01*
Y8829040D01*
X16970930Y8834330D01*
X16978810Y8829040D01*
Y8818460D01*
X16970930Y8813170D01*
G01Y8956030D02*
X16963050Y8961330D01*
Y8971910D01*
X16970930Y8977200D01*
X16978810Y8971910D01*
Y8961330D01*
X16970930Y8956030D01*
G01X17600850Y9141250D02*
Y8823750D01*
G01X17510300Y9141250D02*
X17691400D01*
G01X17915810Y8823750D02*
X17884310Y8829040D01*
X17856760Y8850200D01*
X17833130Y8881960D01*
X17817380Y8919000D01*
X17809510Y8961330D01*
Y9003670D01*
X17817380Y9046000D01*
X17833130Y9083040D01*
X17856760Y9114790D01*
X17884310Y9135960D01*
X17915810Y9141250D01*
X17947300Y9135960D01*
X17974860Y9114790D01*
X17998490Y9083040D01*
X18014240Y9046000D01*
X18022110Y9003670D01*
Y8961330D01*
X18014240Y8919000D01*
X17998490Y8881960D01*
X17974860Y8850200D01*
X17947300Y8829040D01*
X17915810Y8823750D01*
G01X18152030D02*
Y9141250D01*
X18246520D01*
X18278010Y9125370D01*
X18301640Y9088330D01*
X18309510Y9046000D01*
X18301640Y9003670D01*
X18281950Y8971910D01*
X18246520Y8956030D01*
X18152030D01*
G01X18860690Y9141250D02*
Y8823750D01*
G01X18805570Y9035410D02*
X18915810D01*
G01X19175650Y8823750D02*
X19152030Y8829040D01*
X19128410Y8850200D01*
X19112650Y8887250D01*
X19104780Y8929580D01*
X19112650Y8971910D01*
X19128410Y9008960D01*
X19152030Y9030120D01*
X19175650Y9035410D01*
X19199270Y9030120D01*
X19222890Y9008960D01*
X19238640Y8971910D01*
X19242580Y8929580D01*
X19238640Y8887250D01*
X19222890Y8850200D01*
X19199270Y8829040D01*
X19175650Y8823750D01*
G01X19837060Y8993090D02*
X19852810Y9008960D01*
X19864620Y9035410D01*
X19872500Y9072460D01*
X19864620Y9104210D01*
X19848880Y9125370D01*
X19821320Y9141250D01*
X19715020D01*
Y8823750D01*
X19844940D01*
X19872500Y8844910D01*
X19888250Y8876670D01*
X19896120Y8913710D01*
X19888250Y8950740D01*
X19864620Y8982500D01*
X19837060Y8993090D01*
X19715020D01*
G01X20120530Y8823750D02*
X20089030Y8829040D01*
X20061480Y8850200D01*
X20037850Y8881960D01*
X20022100Y8919000D01*
X20014230Y8961330D01*
Y9003670D01*
X20022100Y9046000D01*
X20037850Y9083040D01*
X20061480Y9114790D01*
X20089030Y9135960D01*
X20120530Y9141250D01*
X20152020Y9135960D01*
X20179580Y9114790D01*
X20203210Y9083040D01*
X20218960Y9046000D01*
X20226830Y9003670D01*
Y8961330D01*
X20218960Y8919000D01*
X20203210Y8881960D01*
X20179580Y8850200D01*
X20152020Y8829040D01*
X20120530Y8823750D01*
G01X20435490Y9141250D02*
Y8823750D01*
G01X20344940Y9141250D02*
X20526040D01*
G01X20750450D02*
Y8823750D01*
G01X20659900Y9141250D02*
X20841000D01*
G01X21065410Y8823750D02*
X21033910Y8829040D01*
X21006360Y8850200D01*
X20982730Y8881960D01*
X20966980Y8919000D01*
X20959110Y8961330D01*
Y9003670D01*
X20966980Y9046000D01*
X20982730Y9083040D01*
X21006360Y9114790D01*
X21033910Y9135960D01*
X21065410Y9141250D01*
X21096900Y9135960D01*
X21124460Y9114790D01*
X21148090Y9083040D01*
X21163840Y9046000D01*
X21171710Y9003670D01*
Y8961330D01*
X21163840Y8919000D01*
X21148090Y8881960D01*
X21124460Y8850200D01*
X21096900Y8829040D01*
X21065410Y8823750D01*
G01X21278000D02*
Y9141250D01*
X21380370Y8876670D01*
X21482740Y9141250D01*
Y8823750D01*
G01X13970940Y2522250D02*
X13994550Y2485200D01*
X14026050Y2464040D01*
X14061490Y2458750D01*
X14092990Y2464040D01*
X14124480Y2490490D01*
X14144160Y2522250D01*
X14148100Y2554000D01*
X14140230Y2591030D01*
X14112670Y2617500D01*
X14085110Y2628090D01*
X14049670D01*
G01X14085110D02*
X14108730Y2643960D01*
X14128420Y2670410D01*
X14136290Y2702160D01*
X14128420Y2733920D01*
X14108730Y2760370D01*
X14073300Y2776250D01*
X14037870Y2770960D01*
X14002430Y2749790D01*
G01X14372510Y2448170D02*
X14364630Y2453460D01*
Y2464040D01*
X14372510Y2469330D01*
X14380390Y2464040D01*
Y2453460D01*
X14372510Y2448170D01*
G01X14600860Y2522250D02*
X14624470Y2485200D01*
X14655970Y2464040D01*
X14691410Y2458750D01*
X14722910Y2464040D01*
X14754400Y2490490D01*
X14774080Y2522250D01*
X14778020Y2554000D01*
X14770150Y2591030D01*
X14742590Y2617500D01*
X14715030Y2628090D01*
X14679590D01*
G01X14715030D02*
X14738650Y2643960D01*
X14758340Y2670410D01*
X14766210Y2702160D01*
X14758340Y2733920D01*
X14738650Y2760370D01*
X14703220Y2776250D01*
X14667790Y2770960D01*
X14632350Y2749790D01*
G01X13982740Y3358330D02*
X14006370Y3390080D01*
X14033930Y3405960D01*
X14065430Y3411250D01*
X14104790Y3400670D01*
X14132360Y3374210D01*
X14140230Y3342460D01*
X14136290Y3310700D01*
X14120540Y3284250D01*
X14041800Y3231330D01*
X14006370Y3194290D01*
X13982740Y3141360D01*
X13974870Y3093750D01*
X14140230D01*
G01X14372510Y3083170D02*
X14364630Y3088460D01*
Y3099040D01*
X14372510Y3104330D01*
X14380390Y3099040D01*
Y3088460D01*
X14372510Y3083170D01*
G01X14600860Y3157250D02*
X14624470Y3120200D01*
X14655970Y3099040D01*
X14691410Y3093750D01*
X14722910Y3099040D01*
X14754400Y3125490D01*
X14774080Y3157250D01*
X14778020Y3189000D01*
X14770150Y3226030D01*
X14742590Y3252500D01*
X14715030Y3263090D01*
X14679590D01*
G01X14715030D02*
X14738650Y3278960D01*
X14758340Y3305410D01*
X14766210Y3337160D01*
X14758340Y3368920D01*
X14738650Y3395370D01*
X14703220Y3411250D01*
X14667790Y3405960D01*
X14632350Y3384790D01*
G01X14057550Y3728750D02*
Y4046250D01*
X14010310Y3982750D01*
G01Y3728750D02*
X14104790D01*
G01X14372510Y3718170D02*
X14364630Y3723460D01*
Y3734040D01*
X14372510Y3739330D01*
X14380390Y3734040D01*
Y3723460D01*
X14372510Y3718170D01*
G01X14687470Y3728750D02*
X14715030Y3734040D01*
X14746520Y3749910D01*
X14766210Y3776360D01*
X14774080Y3813420D01*
X14766210Y3850450D01*
X14742590Y3882200D01*
X14707150Y3898090D01*
X14667790D01*
X14644160Y3908670D01*
X14624470Y3935120D01*
X14616600Y3972160D01*
X14628420Y4009210D01*
X14655970Y4035670D01*
X14687470Y4046250D01*
X14718960Y4035670D01*
X14746520Y4009210D01*
X14758340Y3972160D01*
X14750460Y3935120D01*
X14730780Y3908670D01*
X14707150Y3898090D01*
X14667790D01*
X14632350Y3882200D01*
X14608730Y3850450D01*
X14600860Y3813420D01*
X14608730Y3776360D01*
X14628420Y3749910D01*
X14659910Y3734040D01*
X14687470Y3728750D01*
G01X14057550Y4363750D02*
Y4681250D01*
X14010310Y4617750D01*
G01Y4363750D02*
X14104790D01*
G01X14372510Y4353170D02*
X14364630Y4358460D01*
Y4369040D01*
X14372510Y4374330D01*
X14380390Y4369040D01*
Y4358460D01*
X14372510Y4353170D01*
G01X14734710Y4363750D02*
Y4681250D01*
X14589040Y4453710D01*
X14785900D01*
G01X14057550Y4998750D02*
Y5316250D01*
X14010310Y5252750D01*
G01Y4998750D02*
X14104790D01*
G01X14372510Y4988170D02*
X14364630Y4993460D01*
Y5004040D01*
X14372510Y5009330D01*
X14380390Y5004040D01*
Y4993460D01*
X14372510Y4988170D01*
G01X14687470Y4998750D02*
Y5316250D01*
X14640230Y5252750D01*
G01Y4998750D02*
X14734710D01*
G01X14057550Y5951250D02*
X14026050Y5940670D01*
X14002430Y5914210D01*
X13986680Y5882460D01*
X13974870Y5840120D01*
X13970940Y5792500D01*
X13974870Y5744870D01*
X13986680Y5702540D01*
X14002430Y5670780D01*
X14026050Y5644330D01*
X14057550Y5633750D01*
X14089040Y5644330D01*
X14112670Y5670780D01*
X14128420Y5702540D01*
X14140230Y5744870D01*
X14144160Y5792500D01*
X14140230Y5840120D01*
X14128420Y5882460D01*
X14112670Y5914210D01*
X14089040Y5940670D01*
X14057550Y5951250D01*
G01X14372510Y5623170D02*
X14364630Y5628460D01*
Y5639040D01*
X14372510Y5644330D01*
X14380390Y5639040D01*
Y5628460D01*
X14372510Y5623170D01*
G01X14620540Y5670780D02*
X14648100Y5644330D01*
X14679590Y5633750D01*
X14711090Y5644330D01*
X14738650Y5676070D01*
X14758340Y5723710D01*
X14766210Y5771330D01*
Y5829540D01*
X14758340Y5877160D01*
X14738650Y5919500D01*
X14715030Y5940670D01*
X14687470Y5951250D01*
X14655970Y5940670D01*
X14632350Y5919500D01*
X14616600Y5887750D01*
X14608730Y5845410D01*
X14616600Y5808380D01*
X14636290Y5771330D01*
X14659910Y5750160D01*
X14687470Y5744870D01*
X14718960Y5755450D01*
X14742590Y5781910D01*
X14766210Y5829540D01*
G01X14057550Y6586250D02*
X14026050Y6575670D01*
X14002430Y6549210D01*
X13986680Y6517460D01*
X13974870Y6475120D01*
X13970940Y6427500D01*
X13974870Y6379870D01*
X13986680Y6337540D01*
X14002430Y6305780D01*
X14026050Y6279330D01*
X14057550Y6268750D01*
X14089040Y6279330D01*
X14112670Y6305780D01*
X14128420Y6337540D01*
X14140230Y6379870D01*
X14144160Y6427500D01*
X14140230Y6475120D01*
X14128420Y6517460D01*
X14112670Y6549210D01*
X14089040Y6575670D01*
X14057550Y6586250D01*
G01X14372510Y6258170D02*
X14364630Y6263460D01*
Y6274040D01*
X14372510Y6279330D01*
X14380390Y6274040D01*
Y6263460D01*
X14372510Y6258170D01*
G01X14687470Y6268750D02*
X14715030Y6274040D01*
X14746520Y6289910D01*
X14766210Y6316360D01*
X14774080Y6353420D01*
X14766210Y6390450D01*
X14742590Y6422200D01*
X14707150Y6438090D01*
X14667790D01*
X14644160Y6448670D01*
X14624470Y6475120D01*
X14616600Y6512160D01*
X14628420Y6549210D01*
X14655970Y6575670D01*
X14687470Y6586250D01*
X14718960Y6575670D01*
X14746520Y6549210D01*
X14758340Y6512160D01*
X14750460Y6475120D01*
X14730780Y6448670D01*
X14707150Y6438090D01*
X14667790D01*
X14632350Y6422200D01*
X14608730Y6390450D01*
X14600860Y6353420D01*
X14608730Y6316360D01*
X14628420Y6289910D01*
X14659910Y6274040D01*
X14687470Y6268750D01*
G01X13742590Y7221250D02*
X13711090Y7210670D01*
X13687470Y7184210D01*
X13671720Y7152460D01*
X13659910Y7110120D01*
X13655980Y7062500D01*
X13659910Y7014870D01*
X13671720Y6972540D01*
X13687470Y6940780D01*
X13711090Y6914330D01*
X13742590Y6903750D01*
X13774080Y6914330D01*
X13797710Y6940780D01*
X13813460Y6972540D01*
X13825270Y7014870D01*
X13829200Y7062500D01*
X13825270Y7110120D01*
X13813460Y7152460D01*
X13797710Y7184210D01*
X13774080Y7210670D01*
X13742590Y7221250D01*
G01X14057550Y6893170D02*
X14049670Y6898460D01*
Y6909040D01*
X14057550Y6914330D01*
X14065430Y6909040D01*
Y6898460D01*
X14057550Y6893170D01*
G01X14297700Y7168330D02*
X14321330Y7200080D01*
X14348890Y7215960D01*
X14380390Y7221250D01*
X14419750Y7210670D01*
X14447320Y7184210D01*
X14455190Y7152460D01*
X14451250Y7120700D01*
X14435500Y7094250D01*
X14356760Y7041330D01*
X14321330Y7004290D01*
X14297700Y6951360D01*
X14289830Y6903750D01*
X14455190D01*
G01X14600860Y6951360D02*
X14624470Y6924910D01*
X14652030Y6909040D01*
X14687470Y6903750D01*
X14722910Y6914330D01*
X14750460Y6935490D01*
X14770150Y6972540D01*
X14774080Y7014870D01*
X14766210Y7057200D01*
X14746520Y7083670D01*
X14718960Y7104830D01*
X14691410Y7110120D01*
X14663850Y7104830D01*
X14628420Y7083670D01*
X14640230Y7221250D01*
X14746520D01*
G01X15049670Y6903750D02*
Y7221250D01*
X14904000Y6993710D01*
X15100860D01*
G01X17364630Y7538750D02*
Y7856250D01*
X17463050D01*
X17494550Y7840370D01*
X17514240Y7819210D01*
X17522110Y7776870D01*
X17514240Y7734540D01*
X17490610Y7708090D01*
X17463050Y7692200D01*
X17364630D01*
G01X17463050D02*
X17522110Y7538750D01*
G01X17758330D02*
X17726830Y7544040D01*
X17699280Y7565200D01*
X17675650Y7596960D01*
X17659900Y7634000D01*
X17652030Y7676330D01*
Y7718670D01*
X17659900Y7761000D01*
X17675650Y7798040D01*
X17699280Y7829790D01*
X17726830Y7850960D01*
X17758330Y7856250D01*
X17789820Y7850960D01*
X17817380Y7829790D01*
X17841010Y7798040D01*
X17856760Y7761000D01*
X17864630Y7718670D01*
Y7676330D01*
X17856760Y7634000D01*
X17841010Y7596960D01*
X17817380Y7565200D01*
X17789820Y7544040D01*
X17758330Y7538750D01*
G01X18073290Y7856250D02*
Y7538750D01*
G01X17982740Y7856250D02*
X18163840D01*
G01X18289820Y7538750D02*
X18388250Y7856250D01*
X18486680Y7538750D01*
G01X18451240Y7649870D02*
X18325250D01*
G01X18703210Y7856250D02*
Y7538750D01*
G01X18612660Y7856250D02*
X18793760D01*
G01X18970930D02*
X19065410D01*
G01X19018170D02*
Y7538750D01*
G01X18970930D02*
X19065410D01*
G01X19333130D02*
X19301630Y7544040D01*
X19274080Y7565200D01*
X19250450Y7596960D01*
X19234700Y7634000D01*
X19226830Y7676330D01*
Y7718670D01*
X19234700Y7761000D01*
X19250450Y7798040D01*
X19274080Y7829790D01*
X19301630Y7850960D01*
X19333130Y7856250D01*
X19364620Y7850960D01*
X19392180Y7829790D01*
X19415810Y7798040D01*
X19431560Y7761000D01*
X19439430Y7718670D01*
Y7676330D01*
X19431560Y7634000D01*
X19415810Y7596960D01*
X19392180Y7565200D01*
X19364620Y7544040D01*
X19333130Y7538750D01*
G01X19557540D02*
Y7856250D01*
X19738640Y7538750D01*
Y7856250D01*
G01X17691400Y-44220D02*
X17718960Y-70670D01*
X17750450Y-81250D01*
X17781950Y-70670D01*
X17809510Y-38930D01*
X17829200Y8710D01*
X17837070Y56330D01*
Y114540D01*
X17829200Y162160D01*
X17809510Y204500D01*
X17785890Y225670D01*
X17758330Y236250D01*
X17726830Y225670D01*
X17703210Y204500D01*
X17687460Y172750D01*
X17679590Y130410D01*
X17687460Y93380D01*
X17707150Y56330D01*
X17730770Y35160D01*
X17758330Y29870D01*
X17789820Y40450D01*
X17813450Y66910D01*
X17837070Y114540D01*
G01X18073290Y236250D02*
X18041790Y225670D01*
X18018170Y199210D01*
X18002420Y167460D01*
X17990610Y125120D01*
X17986680Y77500D01*
X17990610Y29870D01*
X18002420Y-12460D01*
X18018170Y-44220D01*
X18041790Y-70670D01*
X18073290Y-81250D01*
X18104780Y-70670D01*
X18128410Y-44220D01*
X18144160Y-12460D01*
X18155970Y29870D01*
X18159900Y77500D01*
X18155970Y125120D01*
X18144160Y167460D01*
X18128410Y199210D01*
X18104780Y225670D01*
X18073290Y236250D01*
G01X18388250Y-91830D02*
X18380370Y-86540D01*
Y-75960D01*
X18388250Y-70670D01*
X18396130Y-75960D01*
Y-86540D01*
X18388250Y-91830D01*
G01X18703210Y236250D02*
X18671710Y225670D01*
X18648090Y199210D01*
X18632340Y167460D01*
X18620530Y125120D01*
X18616600Y77500D01*
X18620530Y29870D01*
X18632340Y-12460D01*
X18648090Y-44220D01*
X18671710Y-70670D01*
X18703210Y-81250D01*
X18734700Y-70670D01*
X18758330Y-44220D01*
X18774080Y-12460D01*
X18785890Y29870D01*
X18789820Y77500D01*
X18785890Y125120D01*
X18774080Y167460D01*
X18758330Y199210D01*
X18734700Y225670D01*
X18703210Y236250D01*
G01X19018170D02*
X18986670Y225670D01*
X18963050Y199210D01*
X18947300Y167460D01*
X18935490Y125120D01*
X18931560Y77500D01*
X18935490Y29870D01*
X18947300Y-12460D01*
X18963050Y-44220D01*
X18986670Y-70670D01*
X19018170Y-81250D01*
X19049660Y-70670D01*
X19073290Y-44220D01*
X19089040Y-12460D01*
X19100850Y29870D01*
X19104780Y77500D01*
X19100850Y125120D01*
X19089040Y167460D01*
X19073290Y199210D01*
X19049660Y225670D01*
X19018170Y236250D01*
G01X19333130D02*
X19301630Y225670D01*
X19278010Y199210D01*
X19262260Y167460D01*
X19250450Y125120D01*
X19246520Y77500D01*
X19250450Y29870D01*
X19262260Y-12460D01*
X19278010Y-44220D01*
X19301630Y-70670D01*
X19333130Y-81250D01*
X19364620Y-70670D01*
X19388250Y-44220D01*
X19404000Y-12460D01*
X19415810Y29870D01*
X19419740Y77500D01*
X19415810Y125120D01*
X19404000Y167460D01*
X19388250Y199210D01*
X19364620Y225670D01*
X19333130Y236250D01*
G01X17915810Y871250D02*
X17884310Y860670D01*
X17860690Y834210D01*
X17844940Y802460D01*
X17833130Y760120D01*
X17829200Y712500D01*
X17833130Y664870D01*
X17844940Y622540D01*
X17860690Y590780D01*
X17884310Y564330D01*
X17915810Y553750D01*
X17947300Y564330D01*
X17970930Y590780D01*
X17986680Y622540D01*
X17998490Y664870D01*
X18002420Y712500D01*
X17998490Y760120D01*
X17986680Y802460D01*
X17970930Y834210D01*
X17947300Y860670D01*
X17915810Y871250D01*
G01X18230770Y543170D02*
X18222890Y548460D01*
Y559040D01*
X18230770Y564330D01*
X18238650Y559040D01*
Y548460D01*
X18230770Y543170D01*
G01X18545730Y871250D02*
X18514230Y860670D01*
X18490610Y834210D01*
X18474860Y802460D01*
X18463050Y760120D01*
X18459120Y712500D01*
X18463050Y664870D01*
X18474860Y622540D01*
X18490610Y590780D01*
X18514230Y564330D01*
X18545730Y553750D01*
X18577220Y564330D01*
X18600850Y590780D01*
X18616600Y622540D01*
X18628410Y664870D01*
X18632340Y712500D01*
X18628410Y760120D01*
X18616600Y802460D01*
X18600850Y834210D01*
X18577220Y860670D01*
X18545730Y871250D01*
G01X18860690D02*
X18829190Y860670D01*
X18805570Y834210D01*
X18789820Y802460D01*
X18778010Y760120D01*
X18774080Y712500D01*
X18778010Y664870D01*
X18789820Y622540D01*
X18805570Y590780D01*
X18829190Y564330D01*
X18860690Y553750D01*
X18892180Y564330D01*
X18915810Y590780D01*
X18931560Y622540D01*
X18943370Y664870D01*
X18947300Y712500D01*
X18943370Y760120D01*
X18931560Y802460D01*
X18915810Y834210D01*
X18892180Y860670D01*
X18860690Y871250D01*
G01X19175650D02*
X19144150Y860670D01*
X19120530Y834210D01*
X19104780Y802460D01*
X19092970Y760120D01*
X19089040Y712500D01*
X19092970Y664870D01*
X19104780Y622540D01*
X19120530Y590780D01*
X19144150Y564330D01*
X19175650Y553750D01*
X19207140Y564330D01*
X19230770Y590780D01*
X19246520Y622540D01*
X19258330Y664870D01*
X19262260Y712500D01*
X19258330Y760120D01*
X19246520Y802460D01*
X19230770Y834210D01*
X19207140Y860670D01*
X19175650Y871250D01*
G01X17915810Y1506250D02*
X17884310Y1495670D01*
X17860690Y1469210D01*
X17844940Y1437460D01*
X17833130Y1395120D01*
X17829200Y1347500D01*
X17833130Y1299870D01*
X17844940Y1257540D01*
X17860690Y1225780D01*
X17884310Y1199330D01*
X17915810Y1188750D01*
X17947300Y1199330D01*
X17970930Y1225780D01*
X17986680Y1257540D01*
X17998490Y1299870D01*
X18002420Y1347500D01*
X17998490Y1395120D01*
X17986680Y1437460D01*
X17970930Y1469210D01*
X17947300Y1495670D01*
X17915810Y1506250D01*
G01X18230770Y1178170D02*
X18222890Y1183460D01*
Y1194040D01*
X18230770Y1199330D01*
X18238650Y1194040D01*
Y1183460D01*
X18230770Y1178170D01*
G01X18545730Y1506250D02*
X18514230Y1495670D01*
X18490610Y1469210D01*
X18474860Y1437460D01*
X18463050Y1395120D01*
X18459120Y1347500D01*
X18463050Y1299870D01*
X18474860Y1257540D01*
X18490610Y1225780D01*
X18514230Y1199330D01*
X18545730Y1188750D01*
X18577220Y1199330D01*
X18600850Y1225780D01*
X18616600Y1257540D01*
X18628410Y1299870D01*
X18632340Y1347500D01*
X18628410Y1395120D01*
X18616600Y1437460D01*
X18600850Y1469210D01*
X18577220Y1495670D01*
X18545730Y1506250D01*
G01X18860690D02*
X18829190Y1495670D01*
X18805570Y1469210D01*
X18789820Y1437460D01*
X18778010Y1395120D01*
X18774080Y1347500D01*
X18778010Y1299870D01*
X18789820Y1257540D01*
X18805570Y1225780D01*
X18829190Y1199330D01*
X18860690Y1188750D01*
X18892180Y1199330D01*
X18915810Y1225780D01*
X18931560Y1257540D01*
X18943370Y1299870D01*
X18947300Y1347500D01*
X18943370Y1395120D01*
X18931560Y1437460D01*
X18915810Y1469210D01*
X18892180Y1495670D01*
X18860690Y1506250D01*
G01X19175650D02*
X19144150Y1495670D01*
X19120530Y1469210D01*
X19104780Y1437460D01*
X19092970Y1395120D01*
X19089040Y1347500D01*
X19092970Y1299870D01*
X19104780Y1257540D01*
X19120530Y1225780D01*
X19144150Y1199330D01*
X19175650Y1188750D01*
X19207140Y1199330D01*
X19230770Y1225780D01*
X19246520Y1257540D01*
X19258330Y1299870D01*
X19262260Y1347500D01*
X19258330Y1395120D01*
X19246520Y1437460D01*
X19230770Y1469210D01*
X19207140Y1495670D01*
X19175650Y1506250D01*
G01X17915810Y2141250D02*
X17884310Y2130670D01*
X17860690Y2104210D01*
X17844940Y2072460D01*
X17833130Y2030120D01*
X17829200Y1982500D01*
X17833130Y1934870D01*
X17844940Y1892540D01*
X17860690Y1860780D01*
X17884310Y1834330D01*
X17915810Y1823750D01*
X17947300Y1834330D01*
X17970930Y1860780D01*
X17986680Y1892540D01*
X17998490Y1934870D01*
X18002420Y1982500D01*
X17998490Y2030120D01*
X17986680Y2072460D01*
X17970930Y2104210D01*
X17947300Y2130670D01*
X17915810Y2141250D01*
G01X18230770Y1813170D02*
X18222890Y1818460D01*
Y1829040D01*
X18230770Y1834330D01*
X18238650Y1829040D01*
Y1818460D01*
X18230770Y1813170D01*
G01X18545730Y2141250D02*
X18514230Y2130670D01*
X18490610Y2104210D01*
X18474860Y2072460D01*
X18463050Y2030120D01*
X18459120Y1982500D01*
X18463050Y1934870D01*
X18474860Y1892540D01*
X18490610Y1860780D01*
X18514230Y1834330D01*
X18545730Y1823750D01*
X18577220Y1834330D01*
X18600850Y1860780D01*
X18616600Y1892540D01*
X18628410Y1934870D01*
X18632340Y1982500D01*
X18628410Y2030120D01*
X18616600Y2072460D01*
X18600850Y2104210D01*
X18577220Y2130670D01*
X18545730Y2141250D01*
G01X18860690D02*
X18829190Y2130670D01*
X18805570Y2104210D01*
X18789820Y2072460D01*
X18778010Y2030120D01*
X18774080Y1982500D01*
X18778010Y1934870D01*
X18789820Y1892540D01*
X18805570Y1860780D01*
X18829190Y1834330D01*
X18860690Y1823750D01*
X18892180Y1834330D01*
X18915810Y1860780D01*
X18931560Y1892540D01*
X18943370Y1934870D01*
X18947300Y1982500D01*
X18943370Y2030120D01*
X18931560Y2072460D01*
X18915810Y2104210D01*
X18892180Y2130670D01*
X18860690Y2141250D01*
G01X19175650D02*
X19144150Y2130670D01*
X19120530Y2104210D01*
X19104780Y2072460D01*
X19092970Y2030120D01*
X19089040Y1982500D01*
X19092970Y1934870D01*
X19104780Y1892540D01*
X19120530Y1860780D01*
X19144150Y1834330D01*
X19175650Y1823750D01*
X19207140Y1834330D01*
X19230770Y1860780D01*
X19246520Y1892540D01*
X19258330Y1934870D01*
X19262260Y1982500D01*
X19258330Y2030120D01*
X19246520Y2072460D01*
X19230770Y2104210D01*
X19207140Y2130670D01*
X19175650Y2141250D01*
G01X18494550Y2564580D02*
X18596910D01*
G01X18494550Y3199580D02*
X18596910D01*
G01X18494550Y3834580D02*
X18596910D01*
G01X18494550Y4469580D02*
X18596910D01*
G01X18494550Y5104580D02*
X18596910D01*
G01X18494550Y5739580D02*
X18596910D01*
G01X18494550Y6374580D02*
X18596910D01*
G01X18494550Y7009580D02*
X18596910D01*
G01X19488070Y-398750D02*
Y-716250D01*
G01X19397520Y-398750D02*
X19578620D01*
G01X19803030Y-716250D02*
X19771530Y-710960D01*
X19743980Y-689800D01*
X19720350Y-658040D01*
X19704600Y-621000D01*
X19696730Y-578670D01*
Y-536330D01*
X19704600Y-494000D01*
X19720350Y-456960D01*
X19743980Y-425210D01*
X19771530Y-404040D01*
X19803030Y-398750D01*
X19834520Y-404040D01*
X19862080Y-425210D01*
X19885710Y-456960D01*
X19901460Y-494000D01*
X19909330Y-536330D01*
Y-578670D01*
X19901460Y-621000D01*
X19885710Y-658040D01*
X19862080Y-689800D01*
X19834520Y-710960D01*
X19803030Y-716250D01*
G01X20117990Y-398750D02*
Y-716250D01*
G01X20027440Y-398750D02*
X20208540D01*
G01X20334520Y-716250D02*
X20432950Y-398750D01*
X20531380Y-716250D01*
G01X20495940Y-605130D02*
X20369950D01*
G01X20669170Y-398750D02*
Y-716250D01*
X20826650D01*
G01X21295150D02*
Y-398750D01*
G01X21460510D02*
Y-716250D01*
G01Y-557500D02*
X21295150D01*
G01X21692790Y-716250D02*
X21661290Y-710960D01*
X21633740Y-689800D01*
X21610110Y-658040D01*
X21594360Y-621000D01*
X21586490Y-578670D01*
Y-536330D01*
X21594360Y-494000D01*
X21610110Y-456960D01*
X21633740Y-425210D01*
X21661290Y-404040D01*
X21692790Y-398750D01*
X21724280Y-404040D01*
X21751840Y-425210D01*
X21775470Y-456960D01*
X21791220Y-494000D01*
X21799090Y-536330D01*
Y-578670D01*
X21791220Y-621000D01*
X21775470Y-658040D01*
X21751840Y-689800D01*
X21724280Y-710960D01*
X21692790Y-716250D01*
G01X21929010Y-398750D02*
Y-716250D01*
X22086490D01*
G01X22401450D02*
X22243970D01*
Y-398750D01*
X22401450D01*
G01X22338460Y-552200D02*
X22243970D01*
G01X22554990Y-673930D02*
X22586490Y-700380D01*
X22621920Y-716250D01*
X22653420D01*
X22684910Y-700380D01*
X22708540Y-673930D01*
X22720350Y-636870D01*
X22712480Y-599840D01*
X22692790Y-568090D01*
X22657350Y-546910D01*
X22610110Y-536330D01*
X22582550Y-515170D01*
X22570740Y-478130D01*
X22578620Y-441080D01*
X22598300Y-414630D01*
X22625860Y-398750D01*
X22653420D01*
X22680980Y-409330D01*
X22704600Y-435790D01*
G01X22952630Y-726830D02*
X22944750Y-721540D01*
Y-710960D01*
X22952630Y-705670D01*
X22960510Y-710960D01*
Y-721540D01*
X22952630Y-726830D01*
G01Y-583970D02*
X22944750Y-578670D01*
Y-568090D01*
X22952630Y-562800D01*
X22960510Y-568090D01*
Y-578670D01*
X22952630Y-583970D01*
G01X20907930Y-81250D02*
Y236250D01*
X21002420D01*
X21033910Y220370D01*
X21057540Y183330D01*
X21065410Y141000D01*
X21057540Y98670D01*
X21037850Y66910D01*
X21002420Y51030D01*
X20907930D01*
G01X21222890Y236250D02*
Y-81250D01*
X21380370D01*
G01X21518160D02*
X21616590Y236250D01*
X21715020Y-81250D01*
G01X21679580Y29870D02*
X21553590D01*
G01X21931550Y236250D02*
Y-81250D01*
G01X21841000Y236250D02*
X22022100D01*
G01X22325250Y-81250D02*
X22167770D01*
Y236250D01*
X22325250D01*
G01X22262260Y82800D02*
X22167770D01*
G01X22474860Y-81250D02*
Y236250D01*
X22553590D01*
X22585090Y220370D01*
X22608710Y199210D01*
X22628400Y167460D01*
X22644150Y130410D01*
X22648080Y77500D01*
X22644150Y24580D01*
X22628400Y-12460D01*
X22608710Y-44220D01*
X22585090Y-65380D01*
X22553590Y-81250D01*
X22474860D01*
G01X20907930Y553750D02*
Y871250D01*
X21002420D01*
X21033910Y855370D01*
X21057540Y818330D01*
X21065410Y776000D01*
X21057540Y733670D01*
X21037850Y701910D01*
X21002420Y686030D01*
X20907930D01*
G01X21222890Y871250D02*
Y553750D01*
X21380370D01*
G01X21518160D02*
X21616590Y871250D01*
X21715020Y553750D01*
G01X21679580Y664870D02*
X21553590D01*
G01X21931550Y871250D02*
Y553750D01*
G01X21841000Y871250D02*
X22022100D01*
G01X22325250Y553750D02*
X22167770D01*
Y871250D01*
X22325250D01*
G01X22262260Y717800D02*
X22167770D01*
G01X22474860Y553750D02*
Y871250D01*
X22553590D01*
X22585090Y855370D01*
X22608710Y834210D01*
X22628400Y802460D01*
X22644150Y765410D01*
X22648080Y712500D01*
X22644150Y659580D01*
X22628400Y622540D01*
X22608710Y590780D01*
X22585090Y569620D01*
X22553590Y553750D01*
X22474860D01*
G01X20907930Y1188750D02*
Y1506250D01*
X21002420D01*
X21033910Y1490370D01*
X21057540Y1453330D01*
X21065410Y1411000D01*
X21057540Y1368670D01*
X21037850Y1336910D01*
X21002420Y1321030D01*
X20907930D01*
G01X21222890Y1506250D02*
Y1188750D01*
X21380370D01*
G01X21518160D02*
X21616590Y1506250D01*
X21715020Y1188750D01*
G01X21679580Y1299870D02*
X21553590D01*
G01X21931550Y1506250D02*
Y1188750D01*
G01X21841000Y1506250D02*
X22022100D01*
G01X22325250Y1188750D02*
X22167770D01*
Y1506250D01*
X22325250D01*
G01X22262260Y1352800D02*
X22167770D01*
G01X22474860Y1188750D02*
Y1506250D01*
X22553590D01*
X22585090Y1490370D01*
X22608710Y1469210D01*
X22628400Y1437460D01*
X22644150Y1400410D01*
X22648080Y1347500D01*
X22644150Y1294580D01*
X22628400Y1257540D01*
X22608710Y1225780D01*
X22585090Y1204620D01*
X22553590Y1188750D01*
X22474860D01*
G01X20907930Y1823750D02*
Y2141250D01*
X21002420D01*
X21033910Y2125370D01*
X21057540Y2088330D01*
X21065410Y2046000D01*
X21057540Y2003670D01*
X21037850Y1971910D01*
X21002420Y1956030D01*
X20907930D01*
G01X21222890Y2141250D02*
Y1823750D01*
X21380370D01*
G01X21518160D02*
X21616590Y2141250D01*
X21715020Y1823750D01*
G01X21679580Y1934870D02*
X21553590D01*
G01X21931550Y2141250D02*
Y1823750D01*
G01X21841000Y2141250D02*
X22022100D01*
G01X22325250Y1823750D02*
X22167770D01*
Y2141250D01*
X22325250D01*
G01X22262260Y1987800D02*
X22167770D01*
G01X22474860Y1823750D02*
Y2141250D01*
X22553590D01*
X22585090Y2125370D01*
X22608710Y2104210D01*
X22628400Y2072460D01*
X22644150Y2035410D01*
X22648080Y1982500D01*
X22644150Y1929580D01*
X22628400Y1892540D01*
X22608710Y1860780D01*
X22585090Y1839620D01*
X22553590Y1823750D01*
X22474860D01*
G01X20907930Y2458750D02*
Y2776250D01*
X21002420D01*
X21033910Y2760370D01*
X21057540Y2723330D01*
X21065410Y2681000D01*
X21057540Y2638670D01*
X21037850Y2606910D01*
X21002420Y2591030D01*
X20907930D01*
G01X21222890Y2776250D02*
Y2458750D01*
X21380370D01*
G01X21518160D02*
X21616590Y2776250D01*
X21715020Y2458750D01*
G01X21679580Y2569870D02*
X21553590D01*
G01X21931550Y2776250D02*
Y2458750D01*
G01X21841000Y2776250D02*
X22022100D01*
G01X22325250Y2458750D02*
X22167770D01*
Y2776250D01*
X22325250D01*
G01X22262260Y2622800D02*
X22167770D01*
G01X22474860Y2458750D02*
Y2776250D01*
X22553590D01*
X22585090Y2760370D01*
X22608710Y2739210D01*
X22628400Y2707460D01*
X22644150Y2670410D01*
X22648080Y2617500D01*
X22644150Y2564580D01*
X22628400Y2527540D01*
X22608710Y2495780D01*
X22585090Y2474620D01*
X22553590Y2458750D01*
X22474860D01*
G01X20907930Y3093750D02*
Y3411250D01*
X21002420D01*
X21033910Y3395370D01*
X21057540Y3358330D01*
X21065410Y3316000D01*
X21057540Y3273670D01*
X21037850Y3241910D01*
X21002420Y3226030D01*
X20907930D01*
G01X21222890Y3411250D02*
Y3093750D01*
X21380370D01*
G01X21518160D02*
X21616590Y3411250D01*
X21715020Y3093750D01*
G01X21679580Y3204870D02*
X21553590D01*
G01X21931550Y3411250D02*
Y3093750D01*
G01X21841000Y3411250D02*
X22022100D01*
G01X22325250Y3093750D02*
X22167770D01*
Y3411250D01*
X22325250D01*
G01X22262260Y3257800D02*
X22167770D01*
G01X22474860Y3093750D02*
Y3411250D01*
X22553590D01*
X22585090Y3395370D01*
X22608710Y3374210D01*
X22628400Y3342460D01*
X22644150Y3305410D01*
X22648080Y3252500D01*
X22644150Y3199580D01*
X22628400Y3162540D01*
X22608710Y3130780D01*
X22585090Y3109620D01*
X22553590Y3093750D01*
X22474860D01*
G01X20907930Y3728750D02*
Y4046250D01*
X21002420D01*
X21033910Y4030370D01*
X21057540Y3993330D01*
X21065410Y3951000D01*
X21057540Y3908670D01*
X21037850Y3876910D01*
X21002420Y3861030D01*
X20907930D01*
G01X21222890Y4046250D02*
Y3728750D01*
X21380370D01*
G01X21518160D02*
X21616590Y4046250D01*
X21715020Y3728750D01*
G01X21679580Y3839870D02*
X21553590D01*
G01X21931550Y4046250D02*
Y3728750D01*
G01X21841000Y4046250D02*
X22022100D01*
G01X22325250Y3728750D02*
X22167770D01*
Y4046250D01*
X22325250D01*
G01X22262260Y3892800D02*
X22167770D01*
G01X22474860Y3728750D02*
Y4046250D01*
X22553590D01*
X22585090Y4030370D01*
X22608710Y4009210D01*
X22628400Y3977460D01*
X22644150Y3940410D01*
X22648080Y3887500D01*
X22644150Y3834580D01*
X22628400Y3797540D01*
X22608710Y3765780D01*
X22585090Y3744620D01*
X22553590Y3728750D01*
X22474860D01*
G01X20907930Y4363750D02*
Y4681250D01*
X21002420D01*
X21033910Y4665370D01*
X21057540Y4628330D01*
X21065410Y4586000D01*
X21057540Y4543670D01*
X21037850Y4511910D01*
X21002420Y4496030D01*
X20907930D01*
G01X21222890Y4681250D02*
Y4363750D01*
X21380370D01*
G01X21518160D02*
X21616590Y4681250D01*
X21715020Y4363750D01*
G01X21679580Y4474870D02*
X21553590D01*
G01X21931550Y4681250D02*
Y4363750D01*
G01X21841000Y4681250D02*
X22022100D01*
G01X22325250Y4363750D02*
X22167770D01*
Y4681250D01*
X22325250D01*
G01X22262260Y4527800D02*
X22167770D01*
G01X22474860Y4363750D02*
Y4681250D01*
X22553590D01*
X22585090Y4665370D01*
X22608710Y4644210D01*
X22628400Y4612460D01*
X22644150Y4575410D01*
X22648080Y4522500D01*
X22644150Y4469580D01*
X22628400Y4432540D01*
X22608710Y4400780D01*
X22585090Y4379620D01*
X22553590Y4363750D01*
X22474860D01*
G01X20907930Y4998750D02*
Y5316250D01*
X21002420D01*
X21033910Y5300370D01*
X21057540Y5263330D01*
X21065410Y5221000D01*
X21057540Y5178670D01*
X21037850Y5146910D01*
X21002420Y5131030D01*
X20907930D01*
G01X21222890Y5316250D02*
Y4998750D01*
X21380370D01*
G01X21518160D02*
X21616590Y5316250D01*
X21715020Y4998750D01*
G01X21679580Y5109870D02*
X21553590D01*
G01X21931550Y5316250D02*
Y4998750D01*
G01X21841000Y5316250D02*
X22022100D01*
G01X22325250Y4998750D02*
X22167770D01*
Y5316250D01*
X22325250D01*
G01X22262260Y5162800D02*
X22167770D01*
G01X22474860Y4998750D02*
Y5316250D01*
X22553590D01*
X22585090Y5300370D01*
X22608710Y5279210D01*
X22628400Y5247460D01*
X22644150Y5210410D01*
X22648080Y5157500D01*
X22644150Y5104580D01*
X22628400Y5067540D01*
X22608710Y5035780D01*
X22585090Y5014620D01*
X22553590Y4998750D01*
X22474860D01*
G01X20907930Y5633750D02*
Y5951250D01*
X21002420D01*
X21033910Y5935370D01*
X21057540Y5898330D01*
X21065410Y5856000D01*
X21057540Y5813670D01*
X21037850Y5781910D01*
X21002420Y5766030D01*
X20907930D01*
G01X21222890Y5951250D02*
Y5633750D01*
X21380370D01*
G01X21518160D02*
X21616590Y5951250D01*
X21715020Y5633750D01*
G01X21679580Y5744870D02*
X21553590D01*
G01X21931550Y5951250D02*
Y5633750D01*
G01X21841000Y5951250D02*
X22022100D01*
G01X22325250Y5633750D02*
X22167770D01*
Y5951250D01*
X22325250D01*
G01X22262260Y5797800D02*
X22167770D01*
G01X22474860Y5633750D02*
Y5951250D01*
X22553590D01*
X22585090Y5935370D01*
X22608710Y5914210D01*
X22628400Y5882460D01*
X22644150Y5845410D01*
X22648080Y5792500D01*
X22644150Y5739580D01*
X22628400Y5702540D01*
X22608710Y5670780D01*
X22585090Y5649620D01*
X22553590Y5633750D01*
X22474860D01*
G01X20907930Y6268750D02*
Y6586250D01*
X21002420D01*
X21033910Y6570370D01*
X21057540Y6533330D01*
X21065410Y6491000D01*
X21057540Y6448670D01*
X21037850Y6416910D01*
X21002420Y6401030D01*
X20907930D01*
G01X21222890Y6586250D02*
Y6268750D01*
X21380370D01*
G01X21518160D02*
X21616590Y6586250D01*
X21715020Y6268750D01*
G01X21679580Y6379870D02*
X21553590D01*
G01X21931550Y6586250D02*
Y6268750D01*
G01X21841000Y6586250D02*
X22022100D01*
G01X22325250Y6268750D02*
X22167770D01*
Y6586250D01*
X22325250D01*
G01X22262260Y6432800D02*
X22167770D01*
G01X22474860Y6268750D02*
Y6586250D01*
X22553590D01*
X22585090Y6570370D01*
X22608710Y6549210D01*
X22628400Y6517460D01*
X22644150Y6480410D01*
X22648080Y6427500D01*
X22644150Y6374580D01*
X22628400Y6337540D01*
X22608710Y6305780D01*
X22585090Y6284620D01*
X22553590Y6268750D01*
X22474860D01*
G01X20907930Y6903750D02*
Y7221250D01*
X21002420D01*
X21033910Y7205370D01*
X21057540Y7168330D01*
X21065410Y7126000D01*
X21057540Y7083670D01*
X21037850Y7051910D01*
X21002420Y7036030D01*
X20907930D01*
G01X21222890Y7221250D02*
Y6903750D01*
X21380370D01*
G01X21518160D02*
X21616590Y7221250D01*
X21715020Y6903750D01*
G01X21679580Y7014870D02*
X21553590D01*
G01X21931550Y7221250D02*
Y6903750D01*
G01X21841000Y7221250D02*
X22022100D01*
G01X22325250Y6903750D02*
X22167770D01*
Y7221250D01*
X22325250D01*
G01X22262260Y7067800D02*
X22167770D01*
G01X22474860Y6903750D02*
Y7221250D01*
X22553590D01*
X22585090Y7205370D01*
X22608710Y7184210D01*
X22628400Y7152460D01*
X22644150Y7115410D01*
X22648080Y7062500D01*
X22644150Y7009580D01*
X22628400Y6972540D01*
X22608710Y6940780D01*
X22585090Y6919620D01*
X22553590Y6903750D01*
X22474860D01*
G01X20907930Y7538750D02*
Y7856250D01*
X21002420D01*
X21033910Y7840370D01*
X21057540Y7803330D01*
X21065410Y7761000D01*
X21057540Y7718670D01*
X21037850Y7686910D01*
X21002420Y7671030D01*
X20907930D01*
G01X21222890Y7856250D02*
Y7538750D01*
X21380370D01*
G01X21518160D02*
X21616590Y7856250D01*
X21715020Y7538750D01*
G01X21679580Y7649870D02*
X21553590D01*
G01X21931550Y7856250D02*
Y7538750D01*
G01X21841000Y7856250D02*
X22022100D01*
G01X22325250Y7538750D02*
X22167770D01*
Y7856250D01*
X22325250D01*
G01X22262260Y7702800D02*
X22167770D01*
G01X22474860Y7538750D02*
Y7856250D01*
X22553590D01*
X22585090Y7840370D01*
X22608710Y7819210D01*
X22628400Y7787460D01*
X22644150Y7750410D01*
X22648080Y7697500D01*
X22644150Y7644580D01*
X22628400Y7607540D01*
X22608710Y7575780D01*
X22585090Y7554620D01*
X22553590Y7538750D01*
X22474860D01*
G01X23970920Y-652750D02*
X23994530Y-689800D01*
X24026030Y-710960D01*
X24061470Y-716250D01*
X24092970Y-710960D01*
X24124460Y-684510D01*
X24144140Y-652750D01*
X24148080Y-621000D01*
X24140210Y-583970D01*
X24112650Y-557500D01*
X24085090Y-546910D01*
X24049650D01*
G01X24085090D02*
X24108710Y-531040D01*
X24128400Y-504590D01*
X24136270Y-472840D01*
X24128400Y-441080D01*
X24108710Y-414630D01*
X24073280Y-398750D01*
X24037850Y-404040D01*
X24002410Y-425210D01*
G01X24285880Y-668640D02*
X24309490Y-695090D01*
X24337050Y-710960D01*
X24372490Y-716250D01*
X24407930Y-705670D01*
X24435480Y-684510D01*
X24455170Y-647460D01*
X24459100Y-605130D01*
X24451230Y-562800D01*
X24431540Y-536330D01*
X24403980Y-515170D01*
X24376430Y-509880D01*
X24348870Y-515170D01*
X24313440Y-536330D01*
X24325250Y-398750D01*
X24431540D01*
G01X24600840Y-668640D02*
X24624450Y-695090D01*
X24652010Y-710960D01*
X24687450Y-716250D01*
X24722890Y-705670D01*
X24750440Y-684510D01*
X24770130Y-647460D01*
X24774060Y-605130D01*
X24766190Y-562800D01*
X24746500Y-536330D01*
X24718940Y-515170D01*
X24691390Y-509880D01*
X24663830Y-515170D01*
X24628400Y-536330D01*
X24640210Y-398750D01*
X24746500D01*
G01X24297680Y183330D02*
X24321310Y215080D01*
X24348870Y230960D01*
X24380370Y236250D01*
X24419730Y225670D01*
X24447300Y199210D01*
X24455170Y167460D01*
X24451230Y135700D01*
X24435480Y109250D01*
X24356740Y56330D01*
X24321310Y19290D01*
X24297680Y-33640D01*
X24289810Y-81250D01*
X24455170D01*
G01X24372490Y553750D02*
Y871250D01*
X24325250Y807750D01*
G01Y553750D02*
X24419730D01*
G01X24297680Y1453330D02*
X24321310Y1485080D01*
X24348870Y1500960D01*
X24380370Y1506250D01*
X24419730Y1495670D01*
X24447300Y1469210D01*
X24455170Y1437460D01*
X24451230Y1405700D01*
X24435480Y1379250D01*
X24356740Y1326330D01*
X24321310Y1289290D01*
X24297680Y1236360D01*
X24289810Y1188750D01*
X24455170D01*
G01X24297680Y2088330D02*
X24321310Y2120080D01*
X24348870Y2135960D01*
X24380370Y2141250D01*
X24419730Y2130670D01*
X24447300Y2104210D01*
X24455170Y2072460D01*
X24451230Y2040700D01*
X24435480Y2014250D01*
X24356740Y1961330D01*
X24321310Y1924290D01*
X24297680Y1871360D01*
X24289810Y1823750D01*
X24455170D01*
G01X24297680Y2591030D02*
X24325250Y2628090D01*
X24348870Y2649250D01*
X24380370Y2659830D01*
X24407930Y2649250D01*
X24427610Y2628090D01*
X24443360Y2596330D01*
X24447300Y2559290D01*
X24443360Y2527540D01*
X24427610Y2495780D01*
X24403980Y2469330D01*
X24376430Y2458750D01*
X24344930Y2469330D01*
X24317370Y2501070D01*
X24301620Y2548710D01*
X24297680Y2601620D01*
X24305560Y2670410D01*
X24317370Y2707460D01*
X24337050Y2744500D01*
X24364610Y2770960D01*
X24392170Y2776250D01*
X24419730Y2765670D01*
X24439420Y2739210D01*
G01X24297680Y3226030D02*
X24325250Y3263090D01*
X24348870Y3284250D01*
X24380370Y3294830D01*
X24407930Y3284250D01*
X24427610Y3263090D01*
X24443360Y3231330D01*
X24447300Y3194290D01*
X24443360Y3162540D01*
X24427610Y3130780D01*
X24403980Y3104330D01*
X24376430Y3093750D01*
X24344930Y3104330D01*
X24317370Y3136070D01*
X24301620Y3183710D01*
X24297680Y3236620D01*
X24305560Y3305410D01*
X24317370Y3342460D01*
X24337050Y3379500D01*
X24364610Y3405960D01*
X24392170Y3411250D01*
X24419730Y3400670D01*
X24439420Y3374210D01*
G01X24297680Y3993330D02*
X24321310Y4025080D01*
X24348870Y4040960D01*
X24380370Y4046250D01*
X24419730Y4035670D01*
X24447300Y4009210D01*
X24455170Y3977460D01*
X24451230Y3945700D01*
X24435480Y3919250D01*
X24356740Y3866330D01*
X24321310Y3829290D01*
X24297680Y3776360D01*
X24289810Y3728750D01*
X24455170D01*
G01X24297680Y4496030D02*
X24325250Y4533090D01*
X24348870Y4554250D01*
X24380370Y4564830D01*
X24407930Y4554250D01*
X24427610Y4533090D01*
X24443360Y4501330D01*
X24447300Y4464290D01*
X24443360Y4432540D01*
X24427610Y4400780D01*
X24403980Y4374330D01*
X24376430Y4363750D01*
X24344930Y4374330D01*
X24317370Y4406070D01*
X24301620Y4453710D01*
X24297680Y4506620D01*
X24305560Y4575410D01*
X24317370Y4612460D01*
X24337050Y4649500D01*
X24364610Y4675960D01*
X24392170Y4681250D01*
X24419730Y4670670D01*
X24439420Y4644210D01*
G01X24215010Y4998750D02*
Y5316250D01*
X24167770Y5252750D01*
G01Y4998750D02*
X24262250D01*
G01X24455160Y5263330D02*
X24478790Y5295080D01*
X24506350Y5310960D01*
X24537850Y5316250D01*
X24577210Y5305670D01*
X24604780Y5279210D01*
X24612650Y5247460D01*
X24608710Y5215700D01*
X24592960Y5189250D01*
X24514220Y5136330D01*
X24478790Y5099290D01*
X24455160Y5046360D01*
X24447290Y4998750D01*
X24612650D01*
G01X24215010Y5633750D02*
Y5951250D01*
X24167770Y5887750D01*
G01Y5633750D02*
X24262250D01*
G01X24455160Y5898330D02*
X24478790Y5930080D01*
X24506350Y5945960D01*
X24537850Y5951250D01*
X24577210Y5940670D01*
X24604780Y5914210D01*
X24612650Y5882460D01*
X24608710Y5850700D01*
X24592960Y5824250D01*
X24514220Y5771330D01*
X24478790Y5734290D01*
X24455160Y5681360D01*
X24447290Y5633750D01*
X24612650D01*
G01X24215010Y6268750D02*
Y6586250D01*
X24167770Y6522750D01*
G01Y6268750D02*
X24262250D01*
G01X24455160Y6401030D02*
X24482730Y6438090D01*
X24506350Y6459250D01*
X24537850Y6469830D01*
X24565410Y6459250D01*
X24585090Y6438090D01*
X24600840Y6406330D01*
X24604780Y6369290D01*
X24600840Y6337540D01*
X24585090Y6305780D01*
X24561460Y6279330D01*
X24533910Y6268750D01*
X24502410Y6279330D01*
X24474850Y6311070D01*
X24459100Y6358710D01*
X24455160Y6411620D01*
X24463040Y6480410D01*
X24474850Y6517460D01*
X24494530Y6554500D01*
X24522090Y6580960D01*
X24549650Y6586250D01*
X24577210Y6575670D01*
X24596900Y6549210D01*
G01X23982720Y7168330D02*
X24006350Y7200080D01*
X24033910Y7215960D01*
X24065410Y7221250D01*
X24104770Y7210670D01*
X24132340Y7184210D01*
X24140210Y7152460D01*
X24136270Y7120700D01*
X24120520Y7094250D01*
X24041780Y7041330D01*
X24006350Y7004290D01*
X23982720Y6951360D01*
X23974850Y6903750D01*
X24140210D01*
G01X24372490D02*
X24400050Y6909040D01*
X24431540Y6924910D01*
X24451230Y6951360D01*
X24459100Y6988420D01*
X24451230Y7025450D01*
X24427610Y7057200D01*
X24392170Y7073090D01*
X24352810D01*
X24329180Y7083670D01*
X24309490Y7110120D01*
X24301620Y7147160D01*
X24313440Y7184210D01*
X24340990Y7210670D01*
X24372490Y7221250D01*
X24403980Y7210670D01*
X24431540Y7184210D01*
X24443360Y7147160D01*
X24435480Y7110120D01*
X24415800Y7083670D01*
X24392170Y7073090D01*
X24352810D01*
X24317370Y7057200D01*
X24293750Y7025450D01*
X24285880Y6988420D01*
X24293750Y6951360D01*
X24313440Y6924910D01*
X24344930Y6909040D01*
X24372490Y6903750D01*
G01X24687450D02*
X24715010Y6909040D01*
X24746500Y6924910D01*
X24766190Y6951360D01*
X24774060Y6988420D01*
X24766190Y7025450D01*
X24742570Y7057200D01*
X24707130Y7073090D01*
X24667770D01*
X24644140Y7083670D01*
X24624450Y7110120D01*
X24616580Y7147160D01*
X24628400Y7184210D01*
X24655950Y7210670D01*
X24687450Y7221250D01*
X24718940Y7210670D01*
X24746500Y7184210D01*
X24758320Y7147160D01*
X24750440Y7110120D01*
X24730760Y7083670D01*
X24707130Y7073090D01*
X24667770D01*
X24632330Y7057200D01*
X24608710Y7025450D01*
X24600840Y6988420D01*
X24608710Y6951360D01*
X24628400Y6924910D01*
X24659890Y6909040D01*
X24687450Y6903750D01*
G01X24057530Y7538750D02*
X24026030Y7544040D01*
X23998480Y7565200D01*
X23974850Y7596960D01*
X23959100Y7634000D01*
X23951230Y7676330D01*
Y7718670D01*
X23959100Y7761000D01*
X23974850Y7798040D01*
X23998480Y7829790D01*
X24026030Y7850960D01*
X24057530Y7856250D01*
X24089020Y7850960D01*
X24116580Y7829790D01*
X24140210Y7798040D01*
X24155960Y7761000D01*
X24163830Y7718670D01*
Y7676330D01*
X24155960Y7634000D01*
X24140210Y7596960D01*
X24116580Y7565200D01*
X24089020Y7544040D01*
X24057530Y7538750D01*
G01X24089020Y7623420D02*
X24136270Y7538750D01*
G01X24372490Y7856250D02*
Y7538750D01*
G01X24281940Y7856250D02*
X24463040D01*
G01X24687450Y7538750D02*
Y7681620D01*
X24608710Y7856250D01*
G01X24766190D02*
X24687450Y7681620D01*
G01X-250000Y0D02*
X-1530000D01*
G01X-1280000Y2324260D02*
Y0D01*
G01X-1342500Y400000D02*
X-1280000Y0D01*
X-1217500Y400000D01*
X-1342500D01*
G01X-1280000Y2815740D02*
Y5400000D01*
G01X510000D02*
X-1530000D01*
G01X-1217500Y5000000D02*
X-1280000Y5400000D01*
X-1342500Y5000000D01*
X-1217500D01*
G01X110000Y360000D02*
X-520000D01*
G01X-250000Y0D02*
X-520000D01*
G01X-250000D02*
X-870000D01*
G01X-620000Y1734260D02*
Y0D01*
G01X-682500Y400000D02*
X-620000Y0D01*
X-557500Y400000D01*
X-682500D01*
G01X-800000Y-190000D02*
X0D01*
G01X-620000Y2225740D02*
Y5040000D01*
G01X-557500Y4640000D02*
X-620000Y5040000D01*
X-682500Y4640000D01*
X-557500D01*
G01X110000Y5040000D02*
X-870000D01*
G01X0Y-250000D02*
Y-920000D01*
G01X-270000Y-800000D02*
Y0D01*
G01X3323140Y-670000D02*
X0D01*
G01X400000Y-607500D02*
X0Y-670000D01*
X400000Y-732500D01*
Y-607500D01*
G01X-207500Y-400000D02*
X-270000Y0D01*
X-332500Y-400000D01*
X-207500D01*
G01X0Y-250000D02*
Y-440000D01*
G01X-400000Y-252500D02*
X0Y-190000D01*
X-400000Y-127500D01*
Y-252500D01*
G01X0Y-250000D02*
Y-670000D01*
G01X1862640Y-420000D02*
X0D01*
G01X400000Y-357500D02*
X0Y-420000D01*
X400000Y-482500D01*
Y-357500D01*
G01X-270000Y784260D02*
Y360000D01*
G01X-332500Y760000D02*
X-270000Y360000D01*
X-207500Y760000D01*
X-332500D01*
G01X-40000Y5787500D02*
X360000Y5850000D01*
X-40000Y5912500D01*
Y5787500D01*
G01X360000Y110000D02*
Y-440000D01*
G01X760000Y-127500D02*
X360000Y-190000D01*
X760000Y-252500D01*
Y-127500D01*
G01X617890Y-190000D02*
X360000D01*
G01Y5290000D02*
Y6100000D01*
G01X448390Y5850000D02*
X360000D01*
G01X1060000Y5290000D02*
Y6100000D01*
G01X891610Y5850000D02*
X1060000D01*
G01X1460000Y5912500D02*
X1060000Y5850000D01*
X1460000Y5787500D01*
Y5912500D01*
G01X2877360Y-420000D02*
X8140000D01*
G01X3956860Y-670000D02*
X8500000D01*
G01X7740000Y-482500D02*
X8140000Y-420000D01*
X7740000Y-357500D01*
Y-482500D01*
G01X8500000Y50000D02*
Y-920000D01*
G01X8100000Y-732500D02*
X8500000Y-670000D01*
X8100000Y-607500D01*
Y-732500D01*
G01X8140000Y110000D02*
Y-670000D01*
G01X9530000Y-240000D02*
Y9300000D01*
X25356740D01*
Y-240000D01*
X9530000D01*
G01Y395000D02*
X25356740D01*
G01X9530000Y1030000D02*
X25356740D01*
G01X9530000Y1665000D02*
X25356740D01*
G01X9530000Y2300000D02*
X25356740D01*
G01X9530000Y2935000D02*
X25356740D01*
G01X9530000Y3570000D02*
X25356740D01*
G01X9530000Y4205000D02*
X25356740D01*
G01X9530000Y4840000D02*
X25356740D01*
G01X9530000Y5475000D02*
X25356740D01*
G01X9530000Y6110000D02*
X25356740D01*
G01X9530000Y6745000D02*
X25356740D01*
G01X9530000Y7380000D02*
X25356740D01*
G01X9530000Y8015000D02*
X25356740D01*
G01X9530000Y8650000D02*
X25356740D01*
G01X11813460Y8015000D02*
Y-240000D01*
G01X16931560Y8015000D02*
Y-240000D01*
G01X20159900Y8015000D02*
Y-240000D01*
G01X23388240Y8015000D02*
Y-240000D01*
G54D13*
X770000Y3676000D03*
X1390000D03*
X10671730Y77500D03*
G54D14*
X163800Y4296200D03*
X630000Y4390000D03*
X1240000Y2400000D03*
X1250000Y2700000D03*
X1000000Y2860000D03*
Y2790000D03*
Y2960000D03*
X1085000Y3040000D03*
X1660000Y270000D03*
Y180000D03*
X1730000D03*
Y270000D03*
X1800000Y180000D03*
Y270000D03*
X1590000Y2050000D03*
X1660000D03*
X1590000Y1990000D03*
X1660000D03*
X1590000Y1930000D03*
X1660000D03*
X1530000Y2485000D03*
X1790000Y2180000D03*
X1530000Y2395000D03*
X1770000Y2640000D03*
X1620000Y2584120D03*
X1800000Y2760000D03*
X1373800Y4273800D03*
X1480000Y4160000D03*
X1530000Y4710000D03*
X1370000Y4390000D03*
X1595000Y4531900D03*
X1465000D03*
X1770000Y5030000D03*
X1630000D03*
X1870000Y180000D03*
Y270000D03*
X1880000Y1060000D03*
X2370000Y1860000D03*
X2250000D03*
X2130000D03*
X2020000D03*
Y2030000D03*
Y2180000D03*
X2250000D03*
X2100000Y2560000D03*
X2220000Y2310000D03*
X2370000Y2640000D03*
X1960000Y2530000D03*
X2010000Y2870000D03*
X2050000Y2700000D03*
X1900000Y3840000D03*
X1960000Y4490000D03*
Y4400000D03*
X1900000Y5030000D03*
X2570000Y1420000D03*
X2630000D03*
X2690000D03*
X2760000Y1280000D03*
X2910000Y1390000D03*
X2785000Y1085000D03*
X2630000Y1860000D03*
X2890000D03*
X2688800Y1589190D03*
Y1528730D03*
X2716480Y1648390D03*
X2779980Y1649200D03*
X2700000Y2026500D03*
Y1960000D03*
X2479520Y1650010D03*
X2543020Y1649200D03*
X2570700Y1529540D03*
Y1590000D03*
X2560000Y2026500D03*
Y1960000D03*
X2950000Y2250000D03*
X2700000Y2153500D03*
Y2090000D03*
X2560000Y2153500D03*
Y2090000D03*
X2460000Y2580000D03*
X2530000Y2520000D03*
X2510000Y2310000D03*
X2700000D03*
X2580000Y3080000D03*
X2950000Y2840000D03*
X2810000D03*
X2690000D03*
X2943000Y3460000D03*
X2816000D03*
X2689000D03*
X2510000Y3850000D03*
X2465000Y5230000D03*
X3340000Y220000D03*
X3110000D03*
Y460000D03*
Y680000D03*
X2980000Y1860000D03*
Y1960000D03*
Y2060000D03*
X3120000Y1930000D03*
Y1870000D03*
X3190000D03*
Y1930000D03*
X3260000Y1870000D03*
Y1930000D03*
X3330000Y1870000D03*
Y1930000D03*
X3120000Y2300000D03*
X3210000D03*
X3310000D03*
X3420000D03*
X3470000Y2820000D03*
X3370000D03*
X3070000Y2840000D03*
X3420000Y3470000D03*
X3070000Y3460000D03*
Y4210000D03*
X2970000Y4025000D03*
X3400000Y5020000D03*
X3690000Y220000D03*
X3530000D03*
X4030000Y330000D03*
X3760000Y910000D03*
X4030000Y845000D03*
Y560000D03*
Y920000D03*
X3760000Y1030000D03*
Y1200000D03*
Y1340000D03*
X4030000Y1070000D03*
Y1210000D03*
Y1478400D03*
Y986180D03*
Y1681600D03*
X3760000Y2390000D03*
X3670000D03*
X3530000Y2150000D03*
X4060000Y2330000D03*
X4030000Y2380000D03*
X3930000D03*
X3870000D03*
X3930000Y2320000D03*
X3870000D03*
X3930000Y2260000D03*
X3870000D03*
X3930000Y2200000D03*
X3870000D03*
Y2820000D03*
X3970000D03*
X3920000Y3470000D03*
X3535000Y5230000D03*
X4398000Y95000D03*
X4530000Y270000D03*
X4330000Y281570D03*
X4580000Y180000D03*
Y110000D03*
X4330000Y218070D03*
X4498110Y952980D03*
Y802980D03*
Y652980D03*
Y1102980D03*
X4536260Y1473740D03*
X4120000Y1143500D03*
Y1080000D03*
X4460000Y2030000D03*
X4400000Y1680000D03*
X4089200Y1580800D03*
X4460000Y2380000D03*
Y2210000D03*
X4150000Y2380000D03*
X4090000D03*
X4120000Y2330000D03*
X4350000Y2380000D03*
X4620000Y2640000D03*
X4560000Y2580000D03*
X4490000Y2820000D03*
X4390000D03*
X4440000Y3470000D03*
X4295000Y5220000D03*
X4430000Y5020000D03*
X5170000Y240000D03*
X4840000Y270000D03*
X4760000Y180000D03*
Y116500D03*
X5110000Y290000D03*
X4948110Y952980D03*
X4798110D03*
X4648110D03*
X4948110Y802980D03*
X4798110D03*
X4648110D03*
X4948110Y652980D03*
X4798110D03*
X4648110D03*
X4948110Y1102980D03*
X4798110D03*
X4648110D03*
X5118360Y1493800D03*
X4670000Y1680000D03*
X4900000D03*
X5170000Y1980000D03*
X4735230Y1882370D03*
Y1990630D03*
X4940000Y2240000D03*
X4840000Y2340000D03*
X4940000D03*
X5040000D03*
Y2240000D03*
X4840000D03*
Y2140000D03*
X4940000D03*
X5040000D03*
X4710000Y2980000D03*
X4820000Y2820000D03*
X5140000Y2760000D03*
X5060000Y2700000D03*
X4820000Y2925000D03*
X5033000Y3460000D03*
X4906000D03*
X4930000Y4010000D03*
X5125000Y4115000D03*
X5340000Y70000D03*
X5321120Y270000D03*
X5250000D03*
X5390000Y810000D03*
X5640000Y550000D03*
X5390000D03*
X5340000Y730000D03*
X5390000Y670000D03*
X5340000Y610000D03*
X5530000Y710000D03*
Y650000D03*
X5600000Y710000D03*
Y650000D03*
X5650000Y1200800D03*
X5390000Y1200000D03*
Y1120000D03*
X5355000Y1475000D03*
X5600000Y1680000D03*
X5650000Y1940000D03*
X5555000Y2195000D03*
X5465000Y2385000D03*
X5555000D03*
X5650000Y2580000D03*
X5720000D03*
X5650000Y2500000D03*
X5720000D03*
X5650000Y2190000D03*
X5710000D03*
X5650000Y2120000D03*
X5710000D03*
X5340000Y3190000D03*
X5450000Y3640000D03*
X5330000D03*
X5340000Y3480000D03*
X5680000Y3920000D03*
X5615000D03*
X5745000D03*
X5365000Y5220000D03*
X6310000Y810000D03*
X5944000Y536000D03*
X6245000Y810000D03*
X6310000Y1320000D03*
X6245000D03*
X6165000Y2945000D03*
X6081670Y3174130D03*
Y3065870D03*
X6080000Y3270000D03*
X6165000Y3605000D03*
X6080000Y3365550D03*
Y3473810D03*
Y3780000D03*
Y3900000D03*
X5980000Y5010000D03*
X6250000D03*
X6110000D03*
X6375000Y810000D03*
Y1320000D03*
X6480000Y1690000D03*
X6540000Y1800000D03*
X6380000Y5010000D03*
X7860000Y2510000D03*
Y2800000D03*
Y2940000D03*
Y2650000D03*
X8336200Y2136200D03*
X8330000Y2800000D03*
X8336200Y3033800D03*
X10671730Y7062500D03*
G54D15*
X1029000Y738000D03*
Y1942000D03*
X6870000Y745000D03*
Y2075000D03*
X7450000Y745000D03*
Y2075000D03*
X10671730Y3252500D03*
G54D16*
X1300000Y1215000D03*
Y1465000D03*
X1500000D03*
Y1215000D03*
X6480000Y205000D03*
Y455000D03*
X6920000Y1065000D03*
Y1515000D03*
Y1315000D03*
Y1765000D03*
X7160000Y205000D03*
Y455000D03*
X7180000Y1065000D03*
Y1515000D03*
Y1315000D03*
Y1765000D03*
X10671730Y6427500D03*
G54D17*
X1090000Y3206000D03*
X10671730Y712500D03*
G54D18*
X2120000Y360000D03*
X2374000D03*
X2090000Y4670000D03*
X2344000D03*
X2882000Y360000D03*
X2628000D03*
X2852000Y4670000D03*
X2598000D03*
X5010000D03*
X5264000D03*
X5772000D03*
X5518000D03*
X10671730Y5157500D03*
G54D19*
X3290000Y4510000D03*
X3544000D03*
X3798000D03*
X4052000D03*
X4306000D03*
X4560000D03*
X10671730Y4522500D03*
M02*
