M48
METRIC,TZ
T01C.254
T02C.8
T03C.9
T04C1.1
T05C1.4
T06C1.8
T07C2.3
T08C3.3
;LEADER: 12 
;HEADER: 
;CODE  : ASCII 
;FILE  : HY_UART_DBUG_V20_230103-1-4.drl for board G:/github/MBED-TOOLS/HARDWARE/HY_UART_DBUG_V20_230103/PCB/#Taaaaah12420.tmp ... layers TOP and BOTTOM
;T01 Holesize 1. = 0.254000 Tolerance = +0.000000/-0.000000 PLATED MM Quantity = 288
;T02 Holesize 2. = 0.800000 Tolerance = +0.000000/-0.000000 PLATED MM Quantity = 16
;T03 Holesize 3. = 0.900000 Tolerance = +0.000000/-0.000000 PLATED MM Quantity = 12
;T04 Holesize 4. = 1.100000 Tolerance = +0.000000/-0.000000 PLATED MM Quantity = 12
;T05 Holesize 5. = 1.400000 Tolerance = +0.000000/-0.000000 PLATED MM Quantity = 6
;T06 Holesize 6. = 1.800000 Tolerance = +0.000000/-0.000000 PLATED MM Quantity = 2
;T07 Holesize 7. = 2.300000 Tolerance = +0.000000/-0.000000 PLATED MM Quantity = 6
;T08 Holesize 8. = 3.300000 Tolerance = +0.000000/-0.000000 PLATED MM Quantity = 6
%
G90
T01
X1660000Y180000
X1660000Y270000
X1730000Y180000
X1730000Y270000
X1800000Y180000
X1800000Y270000
X1870000Y180000
X1870000Y270000
X3110000Y220000
X3110000Y460000
X3110000Y680000
X3340000Y220000
X3530000Y220000
X3690000Y220000
X4030000Y330000
X4030000Y560000
X4330000Y218070
X4330000Y281570
X4398000Y95000
X4498110Y652980
X4530000Y270000
X4580000Y110000
X4580000Y180000
X4648110Y652980
X4760000Y116500
X4760000Y180000
X4798110Y652980
X4840000Y270000
X4948110Y652980
X5110000Y290000
X5170000Y240000
X5250000Y270000
X5321120Y270000
X5340000Y70000
X5340000Y610000
X5340000Y730000
X5390000Y550000
X5390000Y670000
X5530000Y650000
X5530000Y710000
X5600000Y650000
X5600000Y710000
X5640000Y550000
X5944000Y536000
X6375000Y1320000
X6375000Y810000
X6310000Y1320000
X6310000Y810000
X6245000Y1320000
X6245000Y810000
X5650000Y1200800
X5390000Y1200000
X5390000Y1120000
X5390000Y810000
X5355000Y1475000
X5118360Y1493800
X4948110Y1102980
X4948110Y952980
X4948110Y802980
X4798110Y1102980
X4798110Y952980
X4798110Y802980
X4648110Y1102980
X4648110Y952980
X4648110Y802980
X4536260Y1473740
X4498110Y1102980
X4498110Y952980
X4498110Y802980
X4120000Y1143500
X4120000Y1080000
X4030000Y1478400
X4030000Y1210000
X4030000Y1070000
X4030000Y986180
X4030000Y920000
X4030000Y845000
X3760000Y1340000
X3760000Y1200000
X3760000Y1030000
X3760000Y910000
X2910000Y1390000
X2785000Y1085000
X2760000Y1280000
X2690000Y1420000
X2630000Y1420000
X2570000Y1420000
X1880000Y1060000
X1590000Y1930000
X1590000Y1990000
X1590000Y2050000
X1660000Y1930000
X1660000Y1990000
X1660000Y2050000
X1790000Y2180000
X2020000Y1860000
X2020000Y2030000
X2020000Y2180000
X2130000Y1860000
X2250000Y1860000
X2250000Y2180000
X2370000Y1860000
X2479520Y1650010
X2543020Y1649200
X2560000Y1960000
X2560000Y2026500
X2560000Y2090000
X2560000Y2153500
X2570700Y1529540
X2570700Y1590000
X2630000Y1860000
X2688800Y1528730
X2688800Y1589190
X2700000Y1960000
X2700000Y2026500
X2700000Y2090000
X2700000Y2153500
X2716480Y1648390
X2779980Y1649200
X2890000Y1860000
X2950000Y2250000
X2980000Y1860000
X2980000Y1960000
X2980000Y2060000
X3120000Y1870000
X3120000Y1930000
X3190000Y1870000
X3190000Y1930000
X3260000Y1870000
X3260000Y1930000
X3330000Y1870000
X3330000Y1930000
X3530000Y2150000
X3870000Y2200000
X3870000Y2260000
X3930000Y2200000
X3930000Y2260000
X4030000Y1681600
X4089200Y1580800
X4400000Y1680000
X4460000Y2030000
X4460000Y2210000
X4670000Y1680000
X4735230Y1882370
X4735230Y1990630
X4840000Y2140000
X4840000Y2240000
X4900000Y1680000
X4940000Y2140000
X4940000Y2240000
X5040000Y2140000
X5040000Y2240000
X5170000Y1980000
X5555000Y2195000
X5600000Y1680000
X5650000Y1940000
X5650000Y2120000
X5650000Y2190000
X5710000Y2120000
X5710000Y2190000
X6480000Y1690000
X6540000Y1800000
X8336200Y2136200
X8336200Y3033800
X8330000Y2800000
X7860000Y2940000
X7860000Y2800000
X7860000Y2650000
X7860000Y2510000
X6165000Y2945000
X5720000Y2580000
X5720000Y2500000
X5650000Y2580000
X5650000Y2500000
X5555000Y2385000
X5465000Y2385000
X5140000Y2760000
X5060000Y2700000
X5040000Y2340000
X4940000Y2340000
X4840000Y2340000
X4820000Y2925000
X4820000Y2820000
X4710000Y2980000
X4620000Y2640000
X4560000Y2580000
X4490000Y2820000
X4460000Y2380000
X4390000Y2820000
X4350000Y2380000
X4150000Y2380000
X4120000Y2330000
X4090000Y2380000
X4060000Y2330000
X4030000Y2380000
X3970000Y2820000
X3930000Y2380000
X3930000Y2320000
X3870000Y2820000
X3870000Y2380000
X3870000Y2320000
X3760000Y2390000
X3670000Y2390000
X3470000Y2820000
X3420000Y2300000
X3370000Y2820000
X3310000Y2300000
X3210000Y2300000
X3120000Y2300000
X3070000Y2840000
X2950000Y2840000
X2810000Y2840000
X2700000Y2310000
X2690000Y2840000
X2530000Y2520000
X2510000Y2310000
X2460000Y2580000
X2370000Y2640000
X2220000Y2310000
X2100000Y2560000
X2050000Y2700000
X2010000Y2870000
X1960000Y2530000
X1800000Y2760000
X1770000Y2640000
X1620000Y2584120
X1530000Y2485000
X1530000Y2395000
X1250000Y2700000
X1240000Y2400000
X1085000Y3040000
X1000000Y2960000
X1000000Y2860000
X1000000Y2790000
X2580000Y3080000
X2689000Y3460000
X2816000Y3460000
X2943000Y3460000
X3070000Y3460000
X3420000Y3470000
X3920000Y3470000
X4440000Y3470000
X4906000Y3460000
X5033000Y3460000
X5330000Y3640000
X5340000Y3190000
X5340000Y3480000
X5450000Y3640000
X6081670Y3065870
X6081670Y3174130
X6080000Y3270000
X6080000Y3365550
X6080000Y3473810
X6080000Y3780000
X6165000Y3605000
X6080000Y3900000
X5745000Y3920000
X5680000Y3920000
X5615000Y3920000
X5125000Y4115000
X4930000Y4010000
X3070000Y4210000
X2970000Y4025000
X2510000Y3850000
X1960000Y4490000
X1960000Y4400000
X1900000Y3840000
X1595000Y4531900
X1480000Y4160000
X1465000Y4531900
X1373800Y4273800
X1370000Y4390000
X630000Y4390000
X163800Y4296200
X1530000Y4710000
X1630000Y5030000
X1770000Y5030000
X1900000Y5030000
X2465000Y5230000
X3400000Y5020000
X3535000Y5230000
X4295000Y5220000
X4430000Y5020000
X5365000Y5220000
X5980000Y5010000
X6110000Y5010000
X6250000Y5010000
X6380000Y5010000
T02
X1300000Y1215000
X1500000Y1215000
X1300000Y1465000
X1500000Y1465000
X6480000Y205000
X6480000Y455000
X6920000Y1065000
X6920000Y1315000
X6920000Y1515000
X6920000Y1765000
X7180000Y1765000
X7180000Y1515000
X7180000Y1315000
X7180000Y1065000
X7160000Y455000
X7160000Y205000
T03
X6521000Y3532000
X6521000Y3786000
X6521000Y4040000
X6521000Y4294000
X6775000Y4167000
X6775000Y3913000
X6775000Y3659000
X6775000Y3405000
X7900000Y3187500
X7900000Y3441500
X7900000Y4258500
X7900000Y4512500
T04
X2120000Y360000
X2374000Y360000
X2628000Y360000
X2882000Y360000
X2090000Y4670000
X2344000Y4670000
X2598000Y4670000
X2852000Y4670000
X5010000Y4670000
X5264000Y4670000
X5518000Y4670000
X5772000Y4670000
T05
X3290000Y4510000
X3544000Y4510000
X3798000Y4510000
X4052000Y4510000
X4306000Y4510000
X4560000Y4510000
T06
X7105000Y3075500
X7105000Y4624500
T07
X1029000Y738000
X1029000Y1942000
X6870000Y745000
X7450000Y745000
X7450000Y2075000
X6870000Y2075000
T08
X360000Y360000
X360000Y5040000
X1060000Y5040000
X7440000Y5040000
X8140000Y5040000
X8140000Y360000
M30
