G04 ================== begin FILE IDENTIFICATION RECORD ==================*
G04 Layout Name:  HY_UART_DBUG_V20_230103.brd*
G04 Film Name:    L02_GND*
G04 File Format:  Gerber RS274X*
G04 File Origin:  Cadence Allegro 17.2-S079*
G04 Origin Date:  Tue Jan 31 14:16:27 2023*
G04 *
G04 Layer:  VIA CLASS/L02_GND*
G04 Layer:  PIN/L02_GND*
G04 Layer:  ETCH/L02_GND*
G04 *
G04 Offset:    (0.0000 0.0000)*
G04 Mirror:    No*
G04 Mode:      Positive*
G04 Rotation:  0*
G04 FullContactRelief:  No*
G04 UndefLineWidth:     0.1524*
G04 ================== end FILE IDENTIFICATION RECORD ====================*
%FSLAX55Y55*MOMM*%
%IR0*IPPOS*OFA0.00000B0.00000*MIA0B0*SFA1.00000B1.00000*%
%ADD14C,.508*%
%ADD12O,2.1X1.*%
%ADD17O,4.X2.*%
%ADD13O,2.X4.*%
%ADD11O,1.6X1.*%
%ADD16C,1.3*%
%ADD15C,3.3*%
%ADD23C,2.5*%
%ADD22C,1.6*%
%ADD20C,1.8*%
%ADD21C,1.9*%
%ADD18R,1.3X1.3*%
%ADD10C,6.9*%
%ADD19R,1.8X1.8*%
%ADD24C,.254*%
%ADD25C,.7112*%
%ADD26C,1.27*%
%ADD28C,1.0004*%
%ADD31C,1.4228*%
%ADD30C,2.2148*%
%ADD29C,4.2148*%
%ADD27O,2.9148X4.9148*%
G75*
%LPD*%
G75*
G36*
G01X1330310Y5370000D02*
X7169690D01*
G02X7183050Y5334370I-1J-20320D01*
G03X7049260Y5040000I256947J-294370D01*
G03X7112780Y4826440I390742J-7D01*
G02X7096750Y4795040I-17015J-11105D01*
G03X6939790Y4667600I8250J-170540D01*
G01X6937810Y4660000D01*
X6360000D01*
Y3040000D01*
X6937810D01*
X6939790Y3032400D01*
G03X7270210I165210J43099D01*
G01X7272190Y3040000D01*
X8264670D01*
X8265140Y3030340D01*
G03X8407260I71060J3464D01*
G01X8407730Y3040000D01*
X8470000D01*
Y630310D01*
G02X8434370Y616950I-20320J1D01*
G03X8140000Y750740I-294370J-256947D01*
G03X7749260Y360000I0J-390740D01*
G03X7883050Y65630I390737J0D01*
G02X7869690Y30000I-13361J-15310D01*
G01X4823130D01*
G02X4809100Y65020I-2J20319D01*
G03X4831140Y116500I-49102J51480D01*
G03X4823660Y148250I-71139J-4D01*
G03X4831140Y179420I-63658J31759D01*
G02X4848910Y199420I20318J-158D01*
G03X4911140Y270000I-8910J70580D01*
G03X4840000Y341140I-71140J0D01*
G03X4768860Y270580I0J-71142D01*
G02X4751090Y250580I-20318J158D01*
G03X4688860Y180000I8910J-70580D01*
G03X4696340Y148250I71139J4D01*
G03X4688860Y116500I63659J-31754D01*
G03X4710900Y65020I71142J0D01*
G02X4696870Y30000I-14028J-14701D01*
G01X4649300D01*
G02X4633910Y63580I6J20319D01*
G03X4651140Y110000I-53916J46420D01*
G03X4641930Y145000I-71138J-8D01*
G03X4651140Y180000I-61928J35008D01*
G03X4606260Y246120I-71146J0D01*
G02X4600010Y257360I3747J9441D01*
G03X4601140Y270000I-70011J12629D01*
G03X4458860I-71140J0D01*
G03X4503740Y203880I71146J0D01*
G02X4509990Y192640I-3747J-9441D01*
G03X4508860Y180000I70011J-12629D01*
G03X4518070Y145000I71138J8D01*
G03X4508860Y110000I61928J-35008D01*
G03X4526090Y63580I71146J0D01*
G02X4510700Y30000I-15396J-13261D01*
G01X630310D01*
G02X616950Y65630I1J20320D01*
G03X750740Y360000I-256947J294370D01*
G03X360000Y750740I-390740J0D01*
G03X65630Y616950I0J-390737D01*
G02X30000Y630310I-15310J13361D01*
G01Y4769690D01*
G02X65630Y4783050I20320J-1D01*
G03X360000Y4649260I294370J256947D01*
G03X692700Y4835090I0J390739D01*
G02X727300I17300J-10659D01*
G03X1060000Y4649260I332700J204909D01*
G03X1450740Y5040000I0J390740D01*
G03X1316950Y5334370I-390737J0D01*
G02X1330310Y5370000I13361J15310D01*
G37*
%LPC*%
G75*
G36*
G01X178000Y3101740D02*
X238000D01*
G02Y2910260I0J-95740D01*
G01X178000D01*
G02Y3101740I0J95740D01*
G37*
G36*
G01Y2237740D02*
X238000D01*
G02Y2046260I0J-95740D01*
G01X178000D01*
G02Y2237740I0J95740D01*
G37*
G36*
G01X7069260Y1000000D02*
Y1130000D01*
G02X7115000Y1175740I45740J0D01*
G01X7245000D01*
G02X7290740Y1130000I0J-45740D01*
G01Y1000000D01*
G02X7245000Y954260I-45740J0D01*
G01X7115000D01*
G02X7069260Y1000000I0J45740D01*
G37*
G36*
G01X1695000Y331930D02*
G02X1730000Y341140I35008J-61928D01*
G02X1765000Y331930I-8J-71138D01*
G02X1800000Y341140I35008J-61928D01*
G02X1835000Y331930I-8J-71138D01*
G02X1870000Y341140I35008J-61928D01*
G02X1941140Y270000I0J-71140D01*
G02X1925100Y225000I-71143J0D01*
G02X1941140Y180000I-55103J-45000D01*
G02X1870000Y108860I-71140J0D01*
G02X1835000Y118070I8J71138D01*
G02X1800000Y108860I-35008J61928D01*
G02X1765000Y118070I8J71138D01*
G02X1730000Y108860I-35008J61928D01*
G02X1695000Y118070I8J71138D01*
G02X1660000Y108860I-35008J61928D01*
G02X1588860Y180000I0J71140D01*
G02X1604900Y225000I71143J0D01*
G02X1588860Y270000I55103J45000D01*
G02X1660000Y341140I71140J0D01*
G02X1695000Y331930I-8J-71138D01*
G37*
G36*
G01X4393660Y249820D02*
G02X4401140Y218070I-63659J-31754D01*
G02X4258860I-71140J0D01*
G02X4266340Y249820I71139J-4D01*
G02X4258860Y281570I63659J31754D01*
G02X4401140I71140J0D01*
G02X4393660Y249820I-71139J4D01*
G37*
G36*
G01X5229970Y201740D02*
G02X5170000Y168860I-59970J38250D01*
G02X5101930Y219320I0J71143D01*
G02X5038860Y290000I8069J70680D01*
G02X5110000Y361140I71140J0D01*
G02X5176200Y316060I0J-71147D01*
G01X5178230Y310880D01*
X5189910Y308590D01*
X5193750Y313550D01*
G02X5250000Y341140I56250J-43546D01*
G02X5285560Y331610I-8J-71138D01*
G02X5321120Y341140I35568J-61608D01*
G02Y198860I0J-71140D01*
G02X5285560Y208390I8J71138D01*
G02X5250000Y198860I-35568J61608D01*
G02X5229970Y201740I7J71139D01*
G37*
G36*
G01X2484460Y438890D02*
G03X2517540I16540J11805D01*
G02X2628000Y495740I110460J-78887D01*
G02X2738460Y438890I0J-135737D01*
G03X2771540I16540J11805D01*
G02X2882000Y495740I110460J-78887D01*
G02Y224260I0J-135740D01*
G02X2771540Y281110I0J135737D01*
G03X2738460I-16540J-11805D01*
G02X2628000Y224260I-110460J78887D01*
G02X2517540Y281110I0J135737D01*
G03X2484460I-16540J-11805D01*
G02X2374000Y224260I-110460J78887D01*
G02X2283900Y258470I-5J135742D01*
G03X2251830Y251500I-13490J-15195D01*
G02X2210000Y224260I-41830J18497D01*
G01X2030000D01*
G02X1984260Y270000I0J45740D01*
G01Y450000D01*
G02X2030000Y495740I45740J0D01*
G01X2210000D01*
G02X2251830Y468500I0J-45737D01*
G03X2283900Y461530I18580J8225D01*
G02X2374000Y495740I90095J-101532D01*
G02X2484460Y438890I0J-135737D01*
G37*
G36*
G01X5286310Y656670D02*
G03Y683330I-15338J13330D01*
G02X5268860Y730000I53684J46670D01*
G02X5340000Y801140I71140J0D01*
G02X5410680Y738070I0J-71139D01*
G02X5432620Y726960I-20685J-68067D01*
G03X5463720Y735850I12169J16271D01*
G02X5530000Y781140I66280J-25854D01*
G02X5565000Y771930I-8J-71138D01*
G02X5600000Y781140I35008J-61928D01*
G02X5671140Y710000I0J-71140D01*
G02X5664510Y680000I-71142J-10D01*
G02X5671140Y650000I-64512J-29990D01*
G02X5600000Y578860I-71140J0D01*
G02X5565000Y588070I8J71138D01*
G02X5530000Y578860I-35008J61928D01*
G02X5469170Y613110I0J71144D01*
G03X5438070Y617560I-17376J-10534D01*
G02X5438000Y617500I-46331J53982D01*
G03Y602500I6860J-7500D01*
G02X5461140Y550000I-47986J-52500D01*
G02X5390000Y478860I-71140J0D01*
G02X5319320Y541930I0J71139D01*
G02X5268860Y610000I20683J68070D01*
G02X5286310Y656670I71134J0D01*
G37*
G36*
G01X6324440Y759950D02*
G03X6295560I-14440J-14292D01*
G02X6245000Y738860I-50560J50060D01*
G02Y881140I0J71140D01*
G02X6295560Y860050I0J-71150D01*
G03X6324440I14440J14292D01*
G02X6375000Y881140I50560J-50060D01*
G02Y738860I0J-71140D01*
G02X6324440Y759950I0J71150D01*
G37*
G36*
G01X6809260Y1000000D02*
Y1130000D01*
G02X6855000Y1175740I45740J0D01*
G01X6985000D01*
G02X7030740Y1130000I0J-45740D01*
G01Y1000000D01*
G02X6985000Y954260I-45740J0D01*
G01X6955530D01*
Y937710D01*
X6961290Y934940D01*
G02X7080740Y745000I-91289J-189940D01*
G02X6659260I-210740J0D01*
G02X6805280Y945560I210746J0D01*
G03X6816250Y975690I-6242J19334D01*
G02X6809260Y1000000I38752J24303D01*
G37*
G36*
G01X5448830Y1160000D02*
G02X5461140Y1120000I-58833J-40000D01*
G02X5318860I-71140J0D01*
G02X5331170Y1160000I71143J0D01*
G02X5318860Y1200000I58833J40000D01*
G02X5461140I71140J0D01*
G02X5448830Y1160000I-71143J0D01*
G37*
G36*
G01X3984210Y1124450D02*
G03Y1155550I-13073J15550D01*
G02X3958860Y1210000I45802J54450D01*
G02X4030000Y1281140I71140J0D01*
G02X4100050Y1222420I0J-71143D01*
G03X4111300Y1214110I10002J1771D01*
G02X4120000Y1214640I8668J-70612D01*
G02X4191140Y1143500I0J-71140D01*
G02X4183660Y1111750I-71139J4D01*
G02X4191140Y1080000I-63659J-31754D01*
G02X4121110Y1008870I-71139J0D01*
G03X4101120Y988020I322J-20316D01*
G02X4101140Y986180I-71122J-1693D01*
G02X4092980Y953090I-71142J-8D01*
G02X4101140Y920000I-62982J-33082D01*
G02X4090450Y882500I-71138J6D01*
G02X4101140Y845000I-60448J-37506D01*
G02X3958860I-71140J0D01*
G02X3969550Y882500I71138J-6D01*
G02X3958860Y920000I60448J37506D01*
G02X3967020Y953090I71142J8D01*
G02X3958860Y986180I62982J33082D01*
G02X3972520Y1028090I71138J-5D01*
G02X3958860Y1070000I57478J41915D01*
G02X3984210Y1124450I71152J0D01*
G37*
G36*
G01X1368430Y1302060D02*
G03X1397600Y1306340I12555J15978D01*
G02X1435000Y1325740I37400J-26351D01*
G01X1565000D01*
G02X1610740Y1280000I0J-45740D01*
G01Y1150000D01*
G02X1565000Y1104260I-45740J0D01*
G01X1435000D01*
G02X1397600Y1123660I0J45751D01*
G03X1368430Y1127940I-16615J-11698D01*
G02X1300000Y1104260I-68438J87057D01*
G02Y1325740I0J110740D01*
G02X1368430Y1302060I-8J-110737D01*
G37*
G36*
G01X6324440Y1269950D02*
G03X6295560I-14440J-14292D01*
G02X6245000Y1248860I-50560J50060D01*
G02Y1391140I0J71140D01*
G02X6295560Y1370050I0J-71150D01*
G03X6324440I14440J14292D01*
G02X6375000Y1391140I50560J-50060D01*
G02Y1248860I0J-71140D01*
G02X6324440Y1269950I0J71150D01*
G37*
G36*
G01X1415500Y1393420D02*
G03X1384500I-15500J-13135D01*
G02X1300000Y1354260I-84500J71588D01*
G02Y1575740I0J110740D01*
G02X1384500Y1536580I0J-110748D01*
G03X1415500I15500J13135D01*
G02X1500000Y1575740I84500J-71588D01*
G02Y1354260I0J-110740D01*
G02X1415500Y1393420I0J110748D01*
G37*
G36*
G01X6848420Y1399500D02*
G03Y1430500I-13135J15500D01*
G02X6809260Y1515000I71588J84500D01*
G02X7030740I110740J0D01*
G02X6991580Y1430500I-110748J0D01*
G03Y1399500I13135J-15500D01*
G02X7030740Y1315000I-71588J-84500D01*
G02X6809260I-110740J0D01*
G02X6848420Y1399500I110748J0D01*
G37*
G36*
G01X7108420D02*
G03Y1430500I-13135J15500D01*
G02X7069260Y1515000I71588J84500D01*
G02X7290740I110740J0D01*
G02X7251580Y1430500I-110748J0D01*
G03Y1399500I13135J-15500D01*
G02X7290740Y1315000I-71588J-84500D01*
G02X7069260I-110740J0D01*
G02X7108420Y1399500I110748J0D01*
G37*
G36*
G01X2501820Y1572210D02*
G03X2490430Y1579710I-9837J-2540D01*
G02X2479520Y1578870I-10900J70301D01*
G02Y1721150I0J71140D01*
G02X2512080Y1713260I0J-71128D01*
G02X2543020Y1720340I30940J-64065D01*
G02X2614160Y1649200I0J-71140D01*
G02X2614100Y1646370I-71138J93D01*
G02X2622710Y1638540I-43398J-56371D01*
G03X2637460Y1638440I7422J6935D01*
G02X2645400Y1645560I51332J-49256D01*
G02X2645340Y1648390I71078J2923D01*
G02X2716480Y1719530I71140J0D01*
G02X2747420Y1712450I0J-71145D01*
G02X2779980Y1720340I32560J-63238D01*
G02Y1578060I0J-71140D01*
G02X2769070Y1578900I-10J71141D01*
G03X2757680Y1571400I-1553J-10040D01*
G02X2753200Y1558960I-68883J17780D01*
G02X2759940Y1528730I-64401J-30225D01*
G02X2688800Y1457590I-71140J0D01*
G02X2642500Y1474720I0J71136D01*
G03X2616260Y1474900I-13226J-15425D01*
G02X2570700Y1458400I-45560J54650D01*
G02X2499560Y1529540I0J71140D01*
G02X2506300Y1559770I71141J5D01*
G02X2501820Y1572210I64403J30220D01*
G37*
G36*
G01X4018990Y1592290D02*
G03X4005840Y1614690I-20051J3289D01*
G02X3958860Y1681600I24157J66910D01*
G02X4101140I71140J0D01*
G02X4100210Y1670110I-71142J-24D01*
G03X4113360Y1647710I20051J-3289D01*
G02X4160340Y1580800I-24157J-66910D01*
G02X4113160Y1513810I-71149J0D01*
G03X4100000Y1491060I6835J-19135D01*
G02X4101140Y1478400I-69998J-12684D01*
G02X3958860I-71140J0D01*
G02X4006040Y1545390I71149J0D01*
G03X4019200Y1568140I-6835J19135D01*
G02X4018060Y1580800I69998J12684D01*
G02X4018990Y1592290I71142J24D01*
G37*
G36*
G01X6457830Y1757600D02*
G03X6471170Y1782040I-6323J19312D01*
G02X6468860Y1800000I68827J17981D01*
G02X6611140I71140J0D01*
G02X6562170Y1732400I-71144J0D01*
G03X6548830Y1707960I6323J-19312D01*
G02X6551140Y1690000I-68827J-17981D01*
G02X6408860I-71140J0D01*
G02X6457830Y1757600I71144J0D01*
G37*
G36*
G01X3155000Y1991930D02*
G02X3190000Y2001140I35008J-61928D01*
G02X3225000Y1991930I-8J-71138D01*
G02X3260000Y2001140I35008J-61928D01*
G02X3295000Y1991930I-8J-71138D01*
G02X3330000Y2001140I35008J-61928D01*
G02X3401140Y1930000I0J-71140D01*
G02X3394510Y1900000I-71142J-10D01*
G02X3401140Y1870000I-64512J-29990D01*
G02X3330000Y1798860I-71140J0D01*
G02X3295000Y1808070I8J71138D01*
G02X3260000Y1798860I-35008J61928D01*
G02X3225000Y1808070I8J71138D01*
G02X3190000Y1798860I-35008J61928D01*
G02X3155000Y1808070I8J71138D01*
G02X3120000Y1798860I-35008J61928D01*
G02X3048860Y1870000I0J71140D01*
G02X3055490Y1900000I71142J10D01*
G02X3048860Y1930000I64512J29990D01*
G02X3120000Y2001140I71140J0D01*
G02X3155000Y1991930I-8J-71138D01*
G37*
G36*
G01X4682150Y1929740D02*
G03Y1943260I-7580J6760D01*
G02X4664090Y1990630I53094J47370D01*
G02X4806370I71140J0D01*
G02X4788310Y1943260I-71154J0D01*
G03Y1929740I7580J-6760D01*
G02X4806370Y1882370I-53094J-47370D01*
G02X4664090I-71140J0D01*
G02X4682150Y1929740I71154J0D01*
G37*
G36*
G01X1525490Y1960000D02*
G02X1518860Y1990000I64512J29990D01*
G02X1525490Y2020000I71142J10D01*
G02X1518860Y2050000I64512J29990D01*
G02X1590000Y2121140I71140J0D01*
G02X1625000Y2111930I-8J-71138D01*
G02X1660000Y2121140I35008J-61928D01*
G02X1731140Y2050000I0J-71140D01*
G02X1724510Y2020000I-71142J-10D01*
G02X1731140Y1990000I-64512J-29990D01*
G02X1724510Y1960000I-71142J-10D01*
G02X1731140Y1930000I-64512J-29990D01*
G02X1660000Y1858860I-71140J0D01*
G02X1625000Y1868070I8J71138D01*
G02X1590000Y1858860I-35008J61928D01*
G02X1518860Y1930000I0J71140D01*
G02X1525490Y1960000I71142J10D01*
G37*
G36*
G01X5680000Y2055490D02*
G02X5650000Y2048860I-29990J64512D01*
G02X5578860Y2120000I0J71140D01*
G02X5588070Y2155000I71138J-8D01*
G02X5578860Y2190000I61928J35008D01*
G02X5650000Y2261140I71140J0D01*
G02X5680000Y2254510I10J-71142D01*
G02X5710000Y2261140I29990J-64512D01*
G02X5781140Y2190000I0J-71140D01*
G02X5771930Y2155000I-71138J8D01*
G02X5781140Y2120000I-61928J-35008D01*
G02X5710000Y2048860I-71140J0D01*
G02X5680000Y2055490I-10J71142D01*
G37*
G36*
G01X6835320Y1836370D02*
G03X6824200Y1869300I-15535J13096D01*
G02X6659260Y2075000I45796J205700D01*
G02X7080740I210740J0D01*
G02X6978150Y1894130I-210735J0D01*
G03X6977940Y1859370I10425J-17444D01*
G02X7030740Y1765000I-57934J-94370D01*
G02X6809260I-110740J0D01*
G02X6835320Y1836370I110742J6D01*
G37*
G36*
G01X3980000Y2430610D02*
G02X4030000Y2451140I50000J-50622D01*
G02X4060000Y2444510I10J-71142D01*
G02X4090000Y2451140I29990J-64512D01*
G02X4120000Y2444510I10J-71142D01*
G02X4150000Y2451140I29990J-64512D01*
G02X4221140Y2380000I0J-71140D01*
G02X4190640Y2321610I-71142J0D01*
G02X4120000Y2258860I-70640J8386D01*
G02X4090000Y2265490I-10J71142D01*
G02X4060000Y2258860I-29990J64512D01*
G02X4029350Y2265800I0J71152D01*
G03X4000470Y2250250I-8753J-18337D01*
G02X3994510Y2230000I-70472J9739D01*
G02X4001140Y2200000I-64512J-29990D01*
G02X3930000Y2128860I-71140J0D01*
G02X3900000Y2135490I-10J71142D01*
G02X3870000Y2128860I-29990J64512D01*
G02X3798860Y2200000I0J71140D01*
G02X3805490Y2230000I71142J10D01*
G02X3798860Y2260000I64512J29990D01*
G02X3805490Y2290000I71142J10D01*
G02X3798860Y2320000I64512J29990D01*
G02X3805490Y2350000I71142J10D01*
G02X3798860Y2380000I64512J29990D01*
G02X3870000Y2451140I71140J0D01*
G02X3900000Y2444510I10J-71142D01*
G02X3930000Y2451140I29990J-64512D01*
G02X3980000Y2430610I0J-71152D01*
G37*
G36*
G01X2391160Y2562060D02*
G03X2379910Y2569550I-9829J-2569D01*
G02X2370000Y2568860I-9884J70452D01*
G02Y2711140I0J71140D01*
G02X2438840Y2657940I0J-71139D01*
G03X2450090Y2650450I9829J2569D01*
G02X2460000Y2651140I9884J-70452D01*
G02X2530260Y2591140I0J-71137D01*
G02X2601140Y2520000I-260J-71140D01*
G02X2530000Y2448860I-71140J0D01*
G02X2459740Y2508860I0J71137D01*
G02X2391160Y2562060I261J71139D01*
G37*
G36*
G01X4549620Y2650380D02*
G02X4620000Y2711140I70380J-10382D01*
G02X4691140Y2640000I0J-71140D01*
G02X4630380Y2569620I-71142J0D01*
G02X4560000Y2508860I-70380J10382D01*
G02X4488860Y2580000I0J71140D01*
G02X4549620Y2650380I71142J0D01*
G37*
G36*
G01X5069640Y2770480D02*
G02X5140000Y2831140I70360J-10476D01*
G02Y2688860I0J-71140D01*
G02X5130360Y2689520I28J71138D01*
G02X5060000Y2628860I-70360J10476D01*
G02Y2771140I0J71140D01*
G02X5069640Y2770480I-28J-71138D01*
G37*
G36*
G01X3420000Y2870610D02*
G02X3470000Y2891140I50000J-50622D01*
G02Y2748860I0J-71140D01*
G02X3420000Y2769390I0J71152D01*
G02X3370000Y2748860I-50000J50622D01*
G02Y2891140I0J71140D01*
G02X3420000Y2870610I0J-71152D01*
G37*
G36*
G01X3920000D02*
G02X3970000Y2891140I50000J-50622D01*
G02Y2748860I0J-71140D01*
G02X3920000Y2769390I0J71152D01*
G02X3870000Y2748860I-50000J50622D01*
G02Y2891140I0J71140D01*
G02X3920000Y2870610I0J-71152D01*
G37*
G36*
G01X4440000D02*
G02X4490000Y2891140I50000J-50622D01*
G02Y2748860I0J-71140D01*
G02X4440000Y2769390I0J71152D01*
G02X4390000Y2748860I-50000J50622D01*
G02Y2891140I0J71140D01*
G02X4440000Y2870610I0J-71152D01*
G37*
G36*
G01X1014490Y3060260D02*
X990000D01*
G02Y3351740I0J145740D01*
G01X1190000D01*
G02Y3060260I0J-145740D01*
G01X1176460D01*
G03X1156140Y3039950I0J-20320D01*
G02X1089480Y2969000I-71140J49D01*
G03X1070600Y2951230I1283J-20278D01*
G02X1050610Y2910000I-70600J8769D01*
G02X1071140Y2860000I-50622J-50000D01*
G02X1061930Y2825000I-71138J8D01*
G02X1071140Y2790000I-61928J-35008D01*
G02X928860I-71140J0D01*
G02X938070Y2825000I71138J-8D01*
G02X928860Y2860000I61928J35008D01*
G02X949390Y2910000I71152J0D01*
G02X928860Y2960000I50622J50000D01*
G02X995520Y3031000I71141J0D01*
G03X1014400Y3048770I-1283J20278D01*
G01X1014410Y3048840D01*
X1014490Y3049470D01*
Y3060260D01*
G37*
G36*
G01X1544440Y4481850D02*
G03X1515560I-14440J-14292D01*
G02X1465000Y4460760I-50560J50060D01*
G02Y4603040I0J71140D01*
G02X1515560Y4581950I0J-71150D01*
G03X1544440I14440J14292D01*
G02X1595000Y4603040I50560J-50060D01*
G02Y4460760I0J-71140D01*
G02X1544440Y4481850I0J71150D01*
G37*
G36*
G01X3908980Y4596560D02*
G03X3941020I16020J12492D01*
G02X4162980I110980J-86573D01*
G03X4195020I16020J12492D01*
G02X4306000Y4650740I110980J-86573D01*
G02X4398510Y4616060I0J-140727D01*
G03X4429750Y4621730I13355J15316D01*
G02X4470000Y4645740I40250J-21732D01*
G01X4650000D01*
G02X4695740Y4600000I0J-45740D01*
G01Y4420000D01*
G02X4650000Y4374260I-45740J0D01*
G01X4470000D01*
G02X4429750Y4398270I0J45742D01*
G03X4398510Y4403940I-17885J-9646D01*
G02X4306000Y4369260I-92510J106047D01*
G02X4195020Y4423440I0J140753D01*
G03X4162980I-16020J-12492D01*
G02X3941020I-110980J86573D01*
G03X3908980I-16020J-12492D01*
G02X3687020I-110980J86573D01*
G03X3654980I-16020J-12492D01*
G02X3433020I-110980J86573D01*
G03X3400980I-16020J-12492D01*
G02X3290000Y4369260I-110980J86573D01*
G02Y4650740I0J140740D01*
G02X3400980Y4596560I0J-140753D01*
G03X3433020I16020J12492D01*
G02X3654980I110980J-86573D01*
G03X3687020I16020J12492D01*
G02X3908980I110980J-86573D01*
G37*
G36*
G01X2454460Y4748890D02*
G03X2487540I16540J11805D01*
G02X2598000Y4805740I110460J-78887D01*
G02X2708460Y4748890I0J-135737D01*
G03X2741540I16540J11805D01*
G02X2852000Y4805740I110460J-78887D01*
G02Y4534260I0J-135740D01*
G02X2741540Y4591110I0J135737D01*
G03X2708460I-16540J-11805D01*
G02X2598000Y4534260I-110460J78887D01*
G02X2487540Y4591110I0J135737D01*
G03X2454460I-16540J-11805D01*
G02X2344000Y4534260I-110460J78887D01*
G02X2253900Y4568470I-5J135742D01*
G03X2221830Y4561500I-13490J-15195D01*
G02X2180000Y4534260I-41830J18497D01*
G01X2048270D01*
G03X2028660Y4508620I1J-20320D01*
G02X2031140Y4490000I-68660J-18620D01*
G02X2015100Y4445000I-71143J0D01*
G02X2031140Y4400000I-55103J-45000D01*
G02X1888860I-71140J0D01*
G02X1904900Y4445000I71143J0D01*
G02X1888860Y4490000I55103J45000D01*
G02X1946890Y4559920I71138J0D01*
G03X1955010Y4571740I-1873J9986D01*
G02X1954260Y4580000I44991J8249D01*
G01Y4760000D01*
G02X2000000Y4805740I45740J0D01*
G01X2180000D01*
G02X2221830Y4778500I0J-45737D01*
G03X2253900Y4771530I18580J8225D01*
G02X2344000Y4805740I90095J-101532D01*
G02X2454460Y4748890I0J-135737D01*
G37*
G36*
G01X5374460D02*
G03X5407540I16540J11805D01*
G02X5628460I110460J-78887D01*
G03X5661540I16540J11805D01*
G02X5772000Y4805740I110460J-78887D01*
G02Y4534260I0J-135740D01*
G02X5661540Y4591110I0J135737D01*
G03X5628460I-16540J-11805D01*
G02X5407540I-110460J78887D01*
G03X5374460I-16540J-11805D01*
G02X5264000Y4534260I-110460J78887D01*
G02X5173900Y4568470I-5J135742D01*
G03X5141830Y4561500I-13490J-15195D01*
G02X5100000Y4534260I-41830J18497D01*
G01X4920000D01*
G02X4874260Y4580000I0J45740D01*
G01Y4760000D01*
G02X4920000Y4805740I45740J0D01*
G01X5100000D01*
G02X5141830Y4778500I0J-45737D01*
G03X5173900Y4771530I18580J8225D01*
G02X5264000Y4805740I90095J-101532D01*
G02X5374460Y4748890I0J-135737D01*
G37*
G36*
G01X6164450Y5055790D02*
G03X6195550I15550J13073D01*
G02X6250000Y5081140I54450J-45802D01*
G02X6300560Y5060050I0J-71150D01*
G03X6329440I14440J14292D01*
G02X6380000Y5081140I50560J-50060D01*
G02Y4938860I0J-71140D01*
G02X6329440Y4959950I0J71150D01*
G03X6300560I-14440J-14292D01*
G02X6250000Y4938860I-50560J50060D01*
G02X6195550Y4964210I0J71152D01*
G03X6164450I-15550J-13073D01*
G02X6110000Y4938860I-54450J45802D01*
G02X6059440Y4959950I0J71150D01*
G03X6030560I-14440J-14292D01*
G02X5980000Y4938860I-50560J50060D01*
G02Y5081140I0J71140D01*
G02X6030560Y5060050I0J-71150D01*
G03X6059440I14440J14292D01*
G02X6110000Y5081140I50560J-50060D01*
G02X6164450Y5055790I0J-71152D01*
G37*
G36*
G01X1684450Y5075790D02*
G03X1715550I15550J13073D01*
G02X1770000Y5101140I54450J-45802D01*
G02X1820560Y5080050I0J-71150D01*
G03X1849440I14440J14292D01*
G02X1900000Y5101140I50560J-50060D01*
G02Y4958860I0J-71140D01*
G02X1849440Y4979950I0J71150D01*
G03X1820560I-14440J-14292D01*
G02X1770000Y4958860I-50560J50060D01*
G02X1715550Y4984210I0J71152D01*
G03X1684450I-15550J-13073D01*
G02X1630000Y4958860I-54450J45802D01*
G02Y5101140I0J71140D01*
G02X1684450Y5075790I0J-71152D01*
G37*
G36*
G01X541120Y2260810D02*
G02X532980Y2285000I31873J24190D01*
G02X613020I40020J0D01*
G02X608810Y2267130I-40031J0D01*
G03X626990Y2237740I18182J-9071D01*
G01X681000D01*
G02Y2046260I0J-95740D01*
G01X571000D01*
G02X475260Y2142000I0J95740D01*
G02X533000Y2229870I95731J0D01*
G03X541120Y2260810I-8066J18652D01*
G37*
G36*
G01X2663170Y2249130D02*
G02X2628860Y2310000I36840J60870D01*
G02X2771140I71140J0D01*
G02X2736830Y2249130I-71150J0D01*
G03Y2214370I10518J-17380D01*
G02X2771140Y2153500I-36840J-60870D01*
G02X2763660Y2121750I-71139J4D01*
G02X2771140Y2090000I-63659J-31754D01*
G02X2763660Y2058250I-71139J4D01*
G02X2771140Y2026500I-63659J-31754D01*
G02X2762890Y1993250I-71129J0D01*
G02X2771140Y1960000I-62879J-33250D01*
G02X2700000Y1888860I-71140J0D01*
G02X2645550Y1914210I0J71152D01*
G03X2614450I-15550J-13073D01*
G02X2560000Y1888860I-54450J45802D01*
G02X2488860Y1960000I0J71140D01*
G02X2497110Y1993250I71129J0D01*
G02X2488860Y2026500I62879J33250D01*
G02X2496340Y2058250I71139J-4D01*
G02X2488860Y2090000I63659J31754D01*
G02X2496340Y2121750I71139J-4D01*
G02X2488860Y2153500I63659J31754D01*
G02X2560000Y2224640I71140J0D01*
G02X2614450Y2199290I0J-71152D01*
G03X2645550I15550J13073D01*
G02X2663170Y2214370I54450J-45788D01*
G03Y2249130I-10518J17380D01*
G37*
G36*
G01X5591170Y2540000D02*
G02X5578860Y2580000I58833J40000D01*
G02X5650000Y2651140I71140J0D01*
G02X5685000Y2641930I-8J-71138D01*
G02X5720000Y2651140I35008J-61928D01*
G02X5791140Y2580000I0J-71140D01*
G02X5778830Y2540000I-71143J0D01*
G02X5791140Y2500000I-58833J-40000D01*
G02X5720000Y2428860I-71140J0D01*
G02X5685000Y2438070I8J71138D01*
G02X5650000Y2428860I-35008J61928D01*
G02X5644800Y2429050I-4J71140D01*
G03X5623690Y2403500I-1489J-20266D01*
G02X5626140Y2385000I-68689J-18509D01*
G02X5555000Y2456140I-71140J0D01*
G02X5560200Y2455950I4J-71140D01*
G03X5581310Y2481500I1489J20266D01*
G02X5578860Y2500000I68689J18509D01*
G02X5591170Y2540000I71143J0D01*
G37*
G36*
G01X1737490Y2726040D02*
G02X1728860Y2760000I62503J33960D01*
G02X1871140I71140J0D01*
G02X1839180Y2700620I-71142J0D01*
G03X1832510Y2673960I11187J-16963D01*
G02X1841140Y2640000I-62503J-33960D01*
G02X1770000Y2568860I-71140J0D01*
G02X1723680Y2586000I-6J71142D01*
G03X1690360Y2573590I-13227J-15421D01*
G02X1620000Y2512980I-70360J10534D01*
G02Y2655260I0J71140D01*
G02X1666320Y2638120I6J-71142D01*
G03X1699640Y2650530I13227J15421D01*
G02X1730820Y2699380I70358J-10532D01*
G03X1737490Y2726040I-11187J16963D01*
G37*
G36*
G01X7814210Y2885550D02*
G02X7788860Y2940000I45802J54450D01*
G02X7931140I71140J0D01*
G02X7905790Y2885550I-71152J0D01*
G03Y2854450I13073J-15550D01*
G02X7931140Y2800000I-45802J-54450D01*
G02X7900710Y2741660I-71139J0D01*
G03Y2708340I11634J-16660D01*
G02X7931140Y2650000I-40709J-58340D01*
G02X7905790Y2595550I-71152J0D01*
G03Y2564450I13073J-15550D01*
G02X7931140Y2510000I-45802J-54450D01*
G02X7788860I-71140J0D01*
G02X7814210Y2564450I71152J0D01*
G03Y2595550I-13073J15550D01*
G02X7788860Y2650000I45802J54450D01*
G02X7819290Y2708340I71139J0D01*
G03Y2741660I-11634J16660D01*
G02X7788860Y2800000I40709J58340D01*
G02X7814210Y2854450I71152J0D01*
G03Y2885550I-13073J15550D01*
G37*
G36*
G01X533000Y2918130D02*
G02X475260Y3006000I37991J87870D01*
G02X571000Y3101740I95740J0D01*
G01X681000D01*
G02Y2910260I0J-95740D01*
G01X626990D01*
G03X608810Y2880870I2J-20319D01*
G02X613020Y2863000I-35821J-17870D01*
G02X532980I-40020J0D01*
G02X541120Y2887190I40013J0D01*
G03X533000Y2918130I-16186J12288D01*
G37*
G36*
G01X6100940Y3574070D02*
G02X6093860Y3605000I64058J30938D01*
G02X6165000Y3533860I71140J0D01*
G02X6162950Y3533890I16J71140D01*
G03X6144060Y3504740I-591J-20313D01*
G02X6151140Y3473810I-64058J-30938D01*
G02X6133080Y3426440I-71154J0D01*
G03Y3412920I7580J-6760D01*
G02X6151140Y3365550I-53094J-47370D01*
G02X6132710Y3317780I-71138J5D01*
G02X6151140Y3270000I-52720J-47780D01*
G02X6133390Y3222980I-71153J0D01*
G02X6152810Y3174130I-51730J-48850D01*
G02X6134750Y3126760I-71154J0D01*
G03Y3113240I7580J-6760D01*
G02X6152810Y3065870I-53094J-47370D01*
G02X6149020Y3042950I-71142J-10D01*
G03X6167530Y3016100I19234J-6546D01*
G02X6236140Y2945000I-2535J-71100D01*
G02X6093860I-71140J0D01*
G02X6097650Y2967920I71142J10D01*
G03X6079140Y2994770I-19234J6546D01*
G02X6010530Y3065870I2535J71100D01*
G02X6028590Y3113240I71154J0D01*
G03Y3126760I-7580J6760D01*
G02X6010530Y3174130I53094J47370D01*
G02X6028280Y3221150I71153J0D01*
G02X6008860Y3270000I51730J48850D01*
G02X6027290Y3317780I71150J0D01*
G02X6008860Y3365550I52708J47775D01*
G02X6026920Y3412920I71154J0D01*
G03Y3426440I-7580J6760D01*
G02X6008860Y3473810I53094J47370D01*
G02X6080000Y3544950I71140J0D01*
G02X6082050Y3544920I-16J-71140D01*
G03X6100940Y3574070I591J20313D01*
G37*
G36*
G01X1714260Y4238950D02*
X1781050Y4305740D01*
X5438950D01*
X5525740Y4218950D01*
Y3980100D01*
G03X5561380Y3966750I20320J0D01*
G02X5615000Y3991140I53620J-46745D01*
G02X5665560Y3970050I0J-71150D01*
G03X5694440I14440J14292D01*
G02X5745000Y3991140I50560J-50060D01*
G02Y3848860I0J-71140D01*
G02X5694440Y3869950I0J71150D01*
G03X5665560I-14440J-14292D01*
G02X5615000Y3848860I-50560J50060D01*
G02X5561380Y3873250I0J71135D01*
G03X5525740Y3859900I-15320J-13350D01*
G01Y3091050D01*
X5448950Y3014260D01*
X4880100D01*
G03X4866750Y2978620I0J-20320D01*
G02X4891140Y2925000I-46745J-53620D01*
G02X4748860I-71140J0D01*
G02X4773250Y2978620I71135J0D01*
G03X4759900Y3014260I-13350J15320D01*
G01X3105740D01*
Y2901510D01*
G02X3141140Y2840000I-35739J-61510D01*
G02X3070000Y2768860I-71140J0D01*
G02X3068060Y2768890I130J71138D01*
G01X3063690Y2769010D01*
X3058950Y2764260D01*
X2721050D01*
X2712910Y2772400D01*
X2707320Y2771000D01*
G02X2690000Y2768860I-17318J69000D01*
G02X2618860Y2840000I0J71140D01*
G02X2667340Y2907430I71134J0D01*
G01X2674260Y2909760D01*
Y3261050D01*
X2651050Y3284260D01*
X1801050D01*
X1714260Y3371050D01*
Y4238950D01*
G37*
G36*
G01X1387780Y4204050D02*
G02X1373800Y4202660I-13994J69749D01*
G02X1444940Y4273800I0J71140D01*
G02X1442420Y4255030I-71140J-3D01*
G03X1466020Y4229750I19602J-5357D01*
G02X1480000Y4231140I13994J-69749D01*
G02X1408860Y4160000I0J-71140D01*
G02X1411380Y4178770I71140J3D01*
G03X1387780Y4204050I-19602J5357D01*
G37*
G54D28*
X4580000Y5220000D03*
X5080000D03*
X2750000D03*
X3250000D03*
G54D31*
X630000Y4390000D03*
X5650000Y1940000D03*
X2220000Y2310000D03*
X5355000Y1475000D03*
X4030000Y560000D03*
X2510000Y2310000D03*
X1960000Y2530000D03*
X1530000Y2395000D03*
X4536260Y1473740D03*
X2050000Y2700000D03*
X4350000Y2380000D03*
X4430000Y5020000D03*
X8330000Y2800000D03*
X5118360Y1493800D03*
X5170000Y1980000D03*
X4030000Y330000D03*
X6080000Y3900000D03*
X3400000Y5020000D03*
G54D30*
X7180000Y1765000D03*
X6480000Y455000D03*
Y205000D03*
X7160000D03*
Y455000D03*
G54D29*
X7450000Y745000D03*
Y2075000D03*
X1029000Y1942000D03*
Y738000D03*
G54D27*
X1390000Y3676000D03*
X770000D03*
%LPD*%
G75*
G36*
G01X1800000Y4260000D02*
X5420000D01*
X5480000Y4200000D01*
Y3730950D01*
G02X5457530Y3710740I-20320J-4D01*
G03X5450000Y3711140I-7533J-70740D01*
G03X5403330Y3693690I0J-71134D01*
G02X5376670I-13330J15338D01*
G03X5330000Y3711140I-46670J-53684D01*
G03Y3568860I0J-71140D01*
G03X5376670Y3586310I0J71134D01*
G02X5403330I13330J-15338D01*
G03X5450000Y3568860I46670J53684D01*
G03X5457530Y3569260I-3J71140D01*
G02X5480000Y3549050I2150J-20206D01*
G01Y3110000D01*
X5430000Y3060000D01*
X3070000D01*
X3060000Y3050000D01*
Y2910870D01*
X3052360Y2908920D01*
G03X2998860Y2840000I17642J-68920D01*
G03X2999260Y2832470I71140J3D01*
G02X2979050Y2810000I-20206J-2150D01*
G01X2780950D01*
G02X2760740Y2832470I-4J20320D01*
G03X2761140Y2840000I-70740J7533D01*
G03X2720000Y2904510I-71148J0D01*
G01Y3280000D01*
X2670000Y3330000D01*
X1820000D01*
X1760000Y3390000D01*
Y4220000D01*
X1800000Y4260000D01*
G37*
%LPC*%
G75*
G36*
G01X2865390Y3511200D02*
G03X2893610I14110J14623D01*
G02X2992390I49390J-51198D01*
G03X3020610I14110J14623D01*
G02X3070000Y3531140I49390J-51198D01*
G02Y3388860I0J-71140D01*
G02X3020610Y3408800I0J71138D01*
G03X2992390I-14110J-14623D01*
G02X2893610I-49390J51198D01*
G03X2865390I-14110J-14623D01*
G02X2766610I-49390J51198D01*
G03X2738390I-14110J-14623D01*
G02X2689000Y3388860I-49390J51198D01*
G02Y3531140I0J71140D01*
G02X2738390Y3511200I0J-71138D01*
G03X2766610I14110J14623D01*
G02X2865390I49390J-51198D01*
G37*
G36*
G01X4983610Y3408800D02*
G03X4955390I-14110J-14623D01*
G02X4906000Y3388860I-49390J51198D01*
G02Y3531140I0J71140D01*
G02X4955390Y3511200I0J-71138D01*
G03X4983610I14110J14623D01*
G02X5033000Y3531140I49390J-51198D01*
G02Y3388860I0J-71140D01*
G02X4983610Y3408800I0J71138D01*
G37*
G54D31*
X2970000Y4025000D03*
X5340000Y3190000D03*
X5125000Y4115000D03*
%LPD*%
G75*
G54D10*
X360000Y360000D03*
Y5040000D03*
X1060000D03*
X7440000D03*
X8140000Y360000D03*
Y5040000D03*
G54D20*
X2374000Y360000D03*
X2344000Y4670000D03*
X2882000Y360000D03*
X2628000D03*
X2852000Y4670000D03*
X2598000D03*
X5264000D03*
X5772000D03*
X5518000D03*
G54D11*
X208000Y2142000D03*
Y3006000D03*
G54D21*
X3290000Y4510000D03*
X3544000D03*
X3798000D03*
X4052000D03*
X4306000D03*
G54D12*
X626000Y2142000D03*
Y3006000D03*
G54D22*
X6521000Y3786000D03*
Y3532000D03*
X6775000Y3659000D03*
Y3405000D03*
X6521000Y4294000D03*
Y4040000D03*
X6775000Y4167000D03*
Y3913000D03*
X7900000Y3187500D03*
Y3441500D03*
Y4258500D03*
Y4512500D03*
G54D13*
X770000Y3676000D03*
X1390000D03*
G54D23*
X7105000Y3075500D03*
Y4624500D03*
G54D14*
X163800Y4296200D03*
X630000Y4390000D03*
X1240000Y2400000D03*
X1250000Y2700000D03*
X1000000Y2860000D03*
Y2790000D03*
Y2960000D03*
X1085000Y3040000D03*
X1660000Y270000D03*
Y180000D03*
X1730000D03*
Y270000D03*
X1800000Y180000D03*
Y270000D03*
X1590000Y2050000D03*
X1660000D03*
X1590000Y1990000D03*
X1660000D03*
X1590000Y1930000D03*
X1660000D03*
X1530000Y2485000D03*
X1790000Y2180000D03*
X1530000Y2395000D03*
X1770000Y2640000D03*
X1620000Y2584120D03*
X1800000Y2760000D03*
X1373800Y4273800D03*
X1480000Y4160000D03*
X1530000Y4710000D03*
X1370000Y4390000D03*
X1595000Y4531900D03*
X1465000D03*
X1770000Y5030000D03*
X1630000D03*
X1870000Y180000D03*
Y270000D03*
X1880000Y1060000D03*
X2370000Y1860000D03*
X2250000D03*
X2130000D03*
X2020000D03*
Y2030000D03*
Y2180000D03*
X2250000D03*
X2100000Y2560000D03*
X2220000Y2310000D03*
X2370000Y2640000D03*
X1960000Y2530000D03*
X2010000Y2870000D03*
X2050000Y2700000D03*
X1900000Y3840000D03*
X1960000Y4490000D03*
Y4400000D03*
X1900000Y5030000D03*
X2570000Y1420000D03*
X2630000D03*
X2690000D03*
X2760000Y1280000D03*
X2910000Y1390000D03*
X2785000Y1085000D03*
X2630000Y1860000D03*
X2890000D03*
X2688800Y1589190D03*
Y1528730D03*
X2716480Y1648390D03*
X2779980Y1649200D03*
X2700000Y2026500D03*
Y1960000D03*
X2479520Y1650010D03*
X2543020Y1649200D03*
X2570700Y1529540D03*
Y1590000D03*
X2560000Y2026500D03*
Y1960000D03*
X2950000Y2250000D03*
X2700000Y2153500D03*
Y2090000D03*
X2560000Y2153500D03*
Y2090000D03*
X2460000Y2580000D03*
X2530000Y2520000D03*
X2510000Y2310000D03*
X2700000D03*
X2580000Y3080000D03*
X2950000Y2840000D03*
X2810000D03*
X2690000D03*
X2943000Y3460000D03*
X2816000D03*
X2689000D03*
X2510000Y3850000D03*
X2465000Y5230000D03*
X3340000Y220000D03*
X3110000D03*
Y460000D03*
Y680000D03*
X2980000Y1860000D03*
Y1960000D03*
Y2060000D03*
X3120000Y1930000D03*
Y1870000D03*
X3190000D03*
Y1930000D03*
X3260000Y1870000D03*
Y1930000D03*
X3330000Y1870000D03*
Y1930000D03*
X3120000Y2300000D03*
X3210000D03*
X3310000D03*
X3420000D03*
X3470000Y2820000D03*
X3370000D03*
X3070000Y2840000D03*
X3420000Y3470000D03*
X3070000Y3460000D03*
Y4210000D03*
X2970000Y4025000D03*
X3400000Y5020000D03*
X3690000Y220000D03*
X3530000D03*
X4030000Y330000D03*
X3760000Y910000D03*
X4030000Y845000D03*
Y560000D03*
Y920000D03*
X3760000Y1030000D03*
Y1200000D03*
Y1340000D03*
X4030000Y1070000D03*
Y1210000D03*
Y1478400D03*
Y986180D03*
Y1681600D03*
X3760000Y2390000D03*
X3670000D03*
X3530000Y2150000D03*
X4060000Y2330000D03*
X4030000Y2380000D03*
X3930000D03*
X3870000D03*
X3930000Y2320000D03*
X3870000D03*
X3930000Y2260000D03*
X3870000D03*
X3930000Y2200000D03*
X3870000D03*
Y2820000D03*
X3970000D03*
X3920000Y3470000D03*
X3535000Y5230000D03*
X4398000Y95000D03*
X4530000Y270000D03*
X4330000Y281570D03*
X4580000Y180000D03*
Y110000D03*
X4330000Y218070D03*
X4498110Y952980D03*
Y802980D03*
Y652980D03*
Y1102980D03*
X4536260Y1473740D03*
X4120000Y1143500D03*
Y1080000D03*
X4460000Y2030000D03*
X4400000Y1680000D03*
X4089200Y1580800D03*
X4460000Y2380000D03*
Y2210000D03*
X4150000Y2380000D03*
X4090000D03*
X4120000Y2330000D03*
X4350000Y2380000D03*
X4620000Y2640000D03*
X4560000Y2580000D03*
X4490000Y2820000D03*
X4390000D03*
X4440000Y3470000D03*
X4295000Y5220000D03*
X4430000Y5020000D03*
X5170000Y240000D03*
X4840000Y270000D03*
X4760000Y180000D03*
Y116500D03*
X5110000Y290000D03*
X4948110Y952980D03*
X4798110D03*
X4648110D03*
X4948110Y802980D03*
X4798110D03*
X4648110D03*
X4948110Y652980D03*
X4798110D03*
X4648110D03*
X4948110Y1102980D03*
X4798110D03*
X4648110D03*
X5118360Y1493800D03*
X4670000Y1680000D03*
X4900000D03*
X5170000Y1980000D03*
X4735230Y1882370D03*
Y1990630D03*
X4940000Y2240000D03*
X4840000Y2340000D03*
X4940000D03*
X5040000D03*
Y2240000D03*
X4840000D03*
Y2140000D03*
X4940000D03*
X5040000D03*
X4710000Y2980000D03*
X4820000Y2820000D03*
X5140000Y2760000D03*
X5060000Y2700000D03*
X4820000Y2925000D03*
X5033000Y3460000D03*
X4906000D03*
X4930000Y4010000D03*
X5125000Y4115000D03*
X5340000Y70000D03*
X5321120Y270000D03*
X5250000D03*
X5390000Y810000D03*
X5640000Y550000D03*
X5390000D03*
X5340000Y730000D03*
X5390000Y670000D03*
X5340000Y610000D03*
X5530000Y710000D03*
Y650000D03*
X5600000Y710000D03*
Y650000D03*
X5650000Y1200800D03*
X5390000Y1200000D03*
Y1120000D03*
X5355000Y1475000D03*
X5600000Y1680000D03*
X5650000Y1940000D03*
X5555000Y2195000D03*
X5465000Y2385000D03*
X5555000D03*
X5650000Y2580000D03*
X5720000D03*
X5650000Y2500000D03*
X5720000D03*
X5650000Y2190000D03*
X5710000D03*
X5650000Y2120000D03*
X5710000D03*
X5340000Y3190000D03*
X5450000Y3640000D03*
X5330000D03*
X5340000Y3480000D03*
X5680000Y3920000D03*
X5615000D03*
X5745000D03*
X5365000Y5220000D03*
X6310000Y810000D03*
X5944000Y536000D03*
X6245000Y810000D03*
X6310000Y1320000D03*
X6245000D03*
X6165000Y2945000D03*
X6081670Y3174130D03*
Y3065870D03*
X6080000Y3270000D03*
X6165000Y3605000D03*
X6080000Y3365550D03*
Y3473810D03*
Y3780000D03*
Y3900000D03*
X5980000Y5010000D03*
X6250000D03*
X6110000D03*
X6375000Y810000D03*
Y1320000D03*
X6480000Y1690000D03*
X6540000Y1800000D03*
X6380000Y5010000D03*
X7860000Y2510000D03*
Y2800000D03*
Y2940000D03*
Y2650000D03*
X8336200Y2136200D03*
X8330000Y2800000D03*
X8336200Y3033800D03*
G54D24*
G01X4900000Y60000D02*
X4890000Y50000D01*
X4480000D01*
G01X5680000Y3920000D02*
Y3850000D01*
G01Y3920000D02*
Y3980000D01*
G01X6310000Y810000D02*
Y730000D01*
G01Y810000D02*
Y880000D01*
G01Y1320000D02*
Y1260000D01*
G01Y1320000D02*
Y1390000D01*
G54D15*
X1029000Y738000D03*
Y1942000D03*
X6870000Y745000D03*
Y2075000D03*
X7450000Y745000D03*
Y2075000D03*
G54D25*
G01X72100Y2142000D02*
X208000D01*
G01X72100Y3006000D02*
X208000D01*
G01X360000Y360000D02*
Y760900D01*
G01Y360000D02*
X760900D01*
G01X626000Y2036100D02*
Y2142000D01*
G01X208000Y2036100D02*
Y2142000D01*
G01X465100D02*
X626000D01*
G01D02*
X786900D01*
G01X208000D02*
Y2247900D01*
G01Y2142000D02*
X343900D01*
G01X626000Y3006000D02*
Y3111900D01*
G01X465100Y3006000D02*
X626000D01*
G01D02*
X786900D01*
G01X208000Y2900100D02*
Y3006000D01*
G01D02*
Y3111900D01*
G01Y3006000D02*
X343900D01*
G01X614100Y3676000D02*
X770000D01*
G01X1029000Y517100D02*
Y738000D01*
G01D02*
Y958900D01*
G01X808100Y738000D02*
X1029000D01*
G01D02*
X1249900D01*
G01X1179100Y1215000D02*
X1300000D01*
G01X1029000Y1721100D02*
Y1942000D01*
G01D02*
Y2162900D01*
G01X808100Y1942000D02*
X1029000D01*
G01D02*
X1249900D01*
G01X1090000Y3206000D02*
Y3361900D01*
G01X834100Y3206000D02*
X1090000D01*
G01D02*
X1345900D01*
G01X770000Y3420100D02*
Y3676000D01*
G01D02*
Y3931900D01*
G01Y3676000D02*
X925900D01*
G01X1060000Y4639100D02*
Y5040000D01*
G01D02*
X1460900D01*
G01X1300000Y1094100D02*
Y1215000D01*
G01D02*
Y1335900D01*
G01X2120000Y214100D02*
Y360000D01*
G01D02*
Y505900D01*
G01X1974100Y360000D02*
X2120000D01*
G01X2090000Y4524100D02*
Y4670000D01*
G01D02*
Y4815900D01*
G01X1944100Y4670000D02*
X2090000D01*
G01X5010000Y4524100D02*
Y4670000D01*
G01D02*
Y4815900D01*
G01X4864100Y4670000D02*
X5010000D01*
G01X6480000Y84100D02*
Y205000D01*
G01D02*
Y325900D01*
G01X6359100Y205000D02*
X6480000D01*
G01D02*
X6600900D01*
G01X6870000Y524100D02*
Y745000D01*
G01X6649100D02*
X6870000D01*
G01D02*
X7090900D01*
G01X6799100Y1765000D02*
X6920000D01*
G01X6870000Y2075000D02*
Y2295900D01*
G01X6649100Y2075000D02*
X6870000D01*
G01D02*
X7090900D01*
G01X7160000Y84100D02*
Y205000D01*
G01D02*
Y325900D01*
G01X7039100Y205000D02*
X7160000D01*
G01D02*
X7280900D01*
G01X7450000Y524100D02*
Y745000D01*
G01D02*
Y965900D01*
G01X7229100Y745000D02*
X7450000D01*
G01D02*
X7670900D01*
G01X7180000Y1644100D02*
Y1765000D01*
G01D02*
Y1885900D01*
G01X7059100Y1765000D02*
X7180000D01*
G01D02*
X7300900D01*
G01X6920000Y1644100D02*
Y1765000D01*
G01D02*
X7040900D01*
G01X7450000Y1854100D02*
Y2075000D01*
G01D02*
Y2295900D01*
G01X7229100Y2075000D02*
X7450000D01*
G01D02*
X7670900D01*
G01X7739100Y360000D02*
X8140000D01*
G01D02*
Y760900D01*
G54D16*
X1300000Y1215000D03*
Y1465000D03*
X1500000D03*
X6480000Y205000D03*
Y455000D03*
X6920000Y1515000D03*
Y1315000D03*
Y1765000D03*
X7160000Y205000D03*
Y455000D03*
X7180000Y1515000D03*
Y1315000D03*
Y1765000D03*
G54D26*
G01X360000Y5040000D02*
Y4600000D01*
G01X7440000Y5040000D02*
X7010000D01*
G01X8140000D02*
X7440000D01*
G54D17*
X1090000Y3206000D03*
G54D18*
X1500000Y1215000D03*
X6920000Y1065000D03*
X7180000D03*
G54D19*
X2120000Y360000D03*
X2090000Y4670000D03*
X4560000Y4510000D03*
X5010000Y4670000D03*
M02*
