G04 ================== begin FILE IDENTIFICATION RECORD ==================*
G04 Layout Name:  HY_UART_DBUG_V20_230103.brd*
G04 Film Name:    L03_VCC*
G04 File Format:  Gerber RS274X*
G04 File Origin:  Cadence Allegro 17.2-S079*
G04 Origin Date:  Tue Jan 31 14:16:27 2023*
G04 *
G04 Layer:  VIA CLASS/L03_VCC*
G04 Layer:  PIN/L03_VCC*
G04 Layer:  ETCH/L03_VCC*
G04 *
G04 Offset:    (0.0000 0.0000)*
G04 Mirror:    No*
G04 Mode:      Positive*
G04 Rotation:  0*
G04 FullContactRelief:  No*
G04 UndefLineWidth:     0.1524*
G04 ================== end FILE IDENTIFICATION RECORD ====================*
%FSLAX55Y55*MOMM*%
%IR0*IPPOS*OFA0.00000B0.00000*MIA0B0*SFA1.00000B1.00000*%
%ADD14C,.508*%
%ADD12O,2.1X1.*%
%ADD17O,4.X2.*%
%ADD13O,2.X4.*%
%ADD11O,1.6X1.*%
%ADD16C,1.3*%
%ADD15C,3.3*%
%ADD23C,2.5*%
%ADD22C,1.6*%
%ADD20C,1.8*%
%ADD21C,1.9*%
%ADD18R,1.3X1.3*%
%ADD10C,6.9*%
%ADD19R,1.8X1.8*%
%ADD24C,.254*%
%ADD25C,.762*%
%ADD27C,1.0004*%
%ADD30C,1.4228*%
%ADD29C,2.2148*%
%ADD28C,4.2148*%
%ADD26O,2.9148X4.9148*%
G75*
%LPD*%
G75*
G36*
G01X1330310Y5370000D02*
X7169690D01*
G02X7183050Y5334370I-1J-20320D01*
G03X7049260Y5040000I256947J-294370D01*
G03X7112780Y4826440I390742J-7D01*
G02X7096750Y4795040I-17015J-11105D01*
G03X6939790Y4667600I8250J-170540D01*
G01X6937810Y4660000D01*
X6360000D01*
Y3040000D01*
X6937810D01*
X6939790Y3032400D01*
G03X7270210I165210J43099D01*
G01X7272190Y3040000D01*
X8264670D01*
X8265140Y3030340D01*
G03X8407260I71060J3464D01*
G01X8407730Y3040000D01*
X8470000D01*
Y630310D01*
G02X8434370Y616950I-20320J1D01*
G03X8140000Y750740I-294370J-256947D01*
G03X7749260Y360000I0J-390740D01*
G03X7883050Y65630I390737J0D01*
G02X7869690Y30000I-13361J-15310D01*
G01X5429320D01*
G02X5409470Y54690I-5J20321D01*
G03X5411140Y70000I-69469J15324D01*
G03X5268860I-71140J0D01*
G03X5270530Y54690I71139J14D01*
G02X5250680Y30000I-19845J-4369D01*
G01X4823130D01*
G02X4809100Y65020I-2J20319D01*
G03X4831140Y116500I-49102J51480D01*
G03X4823660Y148250I-71139J-4D01*
G03X4831050Y176510I-63663J31744D01*
G02X4841070Y186170I10150J-502D01*
G03X4923840Y270000I-1067J83830D01*
G03X4840000Y353840I-83840J0D01*
G01X4564730D01*
X4493890Y424670D01*
G03X4434610Y449230I-59287J-59277D01*
G01X4181140D01*
Y765000D01*
G03X4160300Y815300I-71123J0D01*
G01X4091710Y883900D01*
X4094660Y890320D01*
G03X4101140Y920000I-64663J29665D01*
G03X4092980Y953090I-71142J8D01*
G03X4101140Y986180I-62982J33082D01*
G03X4101120Y988020I-71142J147D01*
G02X4121110Y1008870I20312J534D01*
G03X4191140Y1080000I-1109J71130D01*
G03X4183660Y1111750I-71139J-4D01*
G03X4191140Y1143500I-63659J31754D01*
G03X4123500Y1214550I-71136J0D01*
G02X4113840Y1224700I501J10149D01*
G01Y1478400D01*
G03X4110260Y1502620I-83837J-18D01*
G02X4116140Y1514960I9729J2935D01*
G03X4160340Y1580800I-26937J65840D01*
G03X4089200Y1651940I-71140J0D01*
G01X3900800D01*
G03X3850500Y1631100I6J-71137D01*
G01X3789700Y1570300D01*
G03X3768860Y1520000I50283J-50300D01*
G01Y1421290D01*
G02X3758860Y1411130I-10160J-1D01*
G03X3688860Y1340000I1139J-71130D01*
G03X3714210Y1285550I71152J0D01*
G02Y1254450I-13073J-15550D01*
G03X3688860Y1200000I45802J-54450D01*
G03X3758860Y1128870I71139J0D01*
G02X3768860Y1118710I-160J-10159D01*
G01Y1111290D01*
G02X3758860Y1101130I-10160J-1D01*
G03X3688860Y1030000I1139J-71130D01*
G03X3706310Y983330I71134J0D01*
G02Y956670I-15338J-13330D01*
G03X3688860Y910000I53684J-46670D01*
G03X3758860Y838870I71139J0D01*
G02X3768860Y828710I-160J-10159D01*
G01Y640000D01*
G03X3789700Y589700I71123J0D01*
G01X3869700Y509700D01*
G03X3920000Y488860I50306J50297D01*
G01X4038860D01*
Y445210D01*
X4032670Y442580D01*
G03X4006110Y424670I32729J-77185D01*
G01X3970720Y389280D01*
G03X3946160Y330000I59277J-59287D01*
G03X4030000Y246160I83840J0D01*
G03X4089280Y270720I-7J83837D01*
G01X4100120Y281550D01*
X4258300D01*
X4259420Y272660D01*
G03X4266340Y249820I70579J8915D01*
G03X4258860Y218070I63659J-31754D01*
G03X4316620Y148200I71139J0D01*
G02X4331730Y120860I-3823J-19958D01*
G03X4326860Y95000I66268J-25868D01*
G03X4335930Y60250I71138J9D01*
G02X4318200Y30000I-17731J-9929D01*
G01X630310D01*
G02X616950Y65630I1J20320D01*
G03X750740Y360000I-256947J294370D01*
G03X360000Y750740I-390740J0D01*
G03X65630Y616950I0J-390737D01*
G02X30000Y630310I-15310J13361D01*
G01Y4769690D01*
G02X65630Y4783050I20320J-1D01*
G03X360000Y4649260I294370J256947D01*
G03X692700Y4835090I0J390739D01*
G02X727300I17300J-10659D01*
G03X1060000Y4649260I332700J204909D01*
G03X1450740Y5040000I0J390740D01*
G03X1316950Y5334370I-390737J0D01*
G02X1330310Y5370000I13361J15310D01*
G37*
G36*
G01X4393660Y249820D02*
G03X4398340Y261790I-63646J31784D01*
G01X4399060Y264300D01*
X4408100Y273340D01*
X4470720Y210720D01*
G03X4509400Y188730I59290J59276D01*
G03X4508860Y180000I70599J-8749D01*
G03X4518070Y145000I71138J8D01*
G03X4508860Y110000I61928J-35008D01*
G03X4526090Y63580I71146J0D01*
G02X4510700Y30000I-15396J-13261D01*
G01X4477800D01*
G02X4460070Y60250I1J20321D01*
G03X4469140Y95000I-62068J34759D01*
G03X4411380Y164870I-71139J0D01*
G02X4396270Y192210I3823J19958D01*
G03X4401140Y218070I-66268J25868D01*
G03X4393660Y249820I-71139J-4D01*
G37*
%LPC*%
G75*
G36*
G01X178000Y3101740D02*
X238000D01*
G02Y2910260I0J-95740D01*
G01X178000D01*
G02Y3101740I0J95740D01*
G37*
G36*
G01Y2237740D02*
X238000D01*
G02Y2046260I0J-95740D01*
G01X178000D01*
G02Y2237740I0J95740D01*
G37*
G36*
G01X1695000Y331930D02*
G02X1730000Y341140I35008J-61928D01*
G02X1765000Y331930I-8J-71138D01*
G02X1800000Y341140I35008J-61928D01*
G02X1835000Y331930I-8J-71138D01*
G02X1870000Y341140I35008J-61928D01*
G02X1941140Y270000I0J-71140D01*
G02X1925100Y225000I-71143J0D01*
G02X1941140Y180000I-55103J-45000D01*
G02X1870000Y108860I-71140J0D01*
G02X1835000Y118070I8J71138D01*
G02X1800000Y108860I-35008J61928D01*
G02X1765000Y118070I8J71138D01*
G02X1730000Y108860I-35008J61928D01*
G02X1695000Y118070I8J71138D01*
G02X1660000Y108860I-35008J61928D01*
G02X1588860Y180000I0J71140D01*
G02X1604900Y225000I71143J0D01*
G02X1588860Y270000I55103J45000D01*
G02X1660000Y341140I71140J0D01*
G02X1695000Y331930I-8J-71138D01*
G37*
G36*
G01X6277500Y746720D02*
G02X6245000Y738860I-32504J63279D01*
G02Y881140I0J71140D01*
G02X6277500Y873280I-4J-71139D01*
G02X6310000Y881140I32504J-63279D01*
G02X6342500Y873280I-4J-71139D01*
G02X6375000Y881140I32504J-63279D01*
G02Y738860I0J-71140D01*
G02X6342500Y746720I4J71139D01*
G02X6310000Y738860I-32504J63279D01*
G02X6277500Y746720I4J71139D01*
G37*
G36*
G01X4856450Y1143690D02*
G03X4889770I16660J11634D01*
G02X4948110Y1174120I58340J-40709D01*
G02X5019250Y1102980I0J-71140D01*
G02X4988820Y1044640I-71139J0D01*
G03Y1011320I11634J-16660D01*
G02Y894640I-40709J-58340D01*
G03Y861320I11634J-16660D01*
G02Y744640I-40709J-58340D01*
G03Y711320I11634J-16660D01*
G02X5019250Y652980I-40709J-58340D01*
G02X4948110Y581840I-71140J0D01*
G02X4889770Y612270I0J71139D01*
G03X4856450I-16660J-11634D01*
G02X4739770I-58340J40709D01*
G03X4706450I-16660J-11634D01*
G02X4589770I-58340J40709D01*
G03X4556450I-16660J-11634D01*
G02X4498110Y581840I-58340J40709D01*
G02X4426970Y652980I0J71140D01*
G02X4457400Y711320I71139J0D01*
G03Y744640I-11634J16660D01*
G02Y861320I40709J58340D01*
G03Y894640I-11634J16660D01*
G02Y1011320I40709J58340D01*
G03Y1044640I-11634J16660D01*
G02X4426970Y1102980I40709J58340D01*
G02X4498110Y1174120I71140J0D01*
G02X4556450Y1143690I0J-71139D01*
G03X4589770I16660J11634D01*
G02X4706450I58340J-40709D01*
G03X4739770I16660J11634D01*
G02X4856450I58340J-40709D01*
G37*
G36*
G01X1368430Y1302060D02*
G03X1397600Y1306340I12555J15978D01*
G02X1435000Y1325740I37400J-26351D01*
G01X1565000D01*
G02X1610740Y1280000I0J-45740D01*
G01Y1150000D01*
G02X1565000Y1104260I-45740J0D01*
G01X1435000D01*
G02X1397600Y1123660I0J45751D01*
G03X1368430Y1127940I-16615J-11698D01*
G02X1300000Y1104260I-68438J87057D01*
G02Y1325740I0J110740D01*
G02X1368430Y1302060I-8J-110737D01*
G37*
G36*
G01X6277500Y1256720D02*
G02X6245000Y1248860I-32504J63279D01*
G02Y1391140I0J71140D01*
G02X6277500Y1383280I-4J-71139D01*
G02X6310000Y1391140I32504J-63279D01*
G02X6342500Y1383280I-4J-71139D01*
G02X6375000Y1391140I32504J-63279D01*
G02Y1248860I0J-71140D01*
G02X6342500Y1256720I4J71139D01*
G02X6310000Y1248860I-32504J63279D01*
G02X6277500Y1256720I4J71139D01*
G37*
G36*
G01X5063250Y356650D02*
G02X5047220Y401640I55120J44990D01*
G01Y1493800D01*
G02X5189500I71140J0D01*
G01Y431110D01*
X5249180Y371420D01*
G02X5254010Y366080I-50276J-50328D01*
G01X5254340Y365680D01*
X5287140Y332870D01*
X5293440Y335540D01*
G02X5321120Y341140I27667J-65543D01*
G02Y198860I0J-71140D01*
G02X5285560Y208390I8J71138D01*
G02X5250000Y198860I-35568J61608D01*
G02X5199700Y219700I6J71137D01*
G01X5195970Y223420D01*
X5195570Y223750D01*
G02X5190230Y228580I44988J55106D01*
G01X5183880Y234920D01*
G03X5156290Y235980I-14367J-14368D01*
G02X5110000Y218860I-46290J54021D01*
G02X5038860Y290000I0J71140D01*
G02X5062210Y342700I71146J0D01*
G03X5063250Y356650I-6827J7523D01*
G37*
G36*
G01X1415500Y1393420D02*
G03X1384500I-15500J-13135D01*
G02X1300000Y1354260I-84500J71588D01*
G02Y1575740I0J110740D01*
G02X1384500Y1536580I0J-110748D01*
G03X1415500I15500J13135D01*
G02X1500000Y1575740I84500J-71588D01*
G02Y1354260I0J-110740D01*
G02X1415500Y1393420I0J110748D01*
G37*
G36*
G01X6457830Y1757600D02*
G03X6471170Y1782040I-6323J19312D01*
G02X6468860Y1800000I68827J17981D01*
G02X6611140I71140J0D01*
G02X6562170Y1732400I-71144J0D01*
G03X6548830Y1707960I6323J-19312D01*
G02X6551140Y1690000I-68827J-17981D01*
G02X6408860I-71140J0D01*
G02X6457830Y1757600I71144J0D01*
G37*
G36*
G01X2176670Y1913690D02*
G03X2203330I13330J15338D01*
G02X2296670I46670J-53684D01*
G03X2323330I13330J15338D01*
G02X2370000Y1931140I46670J-53684D01*
G02Y1788860I0J-71140D01*
G02X2323330Y1806310I0J71134D01*
G03X2296670I-13330J-15338D01*
G02X2203330I-46670J53684D01*
G03X2176670I-13330J-15338D01*
G02X2130000Y1788860I-46670J53684D01*
G02X2081870Y1807610I0J71148D01*
G03X2068130I-6870J-7482D01*
G02X2020000Y1788860I-48130J52398D01*
G02Y1931140I0J71140D01*
G02X2068130Y1912390I0J-71148D01*
G03X2081870I6870J7482D01*
G02X2130000Y1931140I48130J-52398D01*
G02X2176670Y1913690I0J-71134D01*
G37*
G36*
G01X1525490Y1960000D02*
G02X1518860Y1990000I64512J29990D01*
G02X1525490Y2020000I71142J10D01*
G02X1518860Y2050000I64512J29990D01*
G02X1590000Y2121140I71140J0D01*
G02X1625000Y2111930I-8J-71138D01*
G02X1660000Y2121140I35008J-61928D01*
G02X1731140Y2050000I0J-71140D01*
G02X1724510Y2020000I-71142J-10D01*
G02X1731140Y1990000I-64512J-29990D01*
G02X1724510Y1960000I-71142J-10D01*
G02X1731140Y1930000I-64512J-29990D01*
G02X1660000Y1858860I-71140J0D01*
G02X1625000Y1868070I8J71138D01*
G02X1590000Y1858860I-35008J61928D01*
G02X1518860Y1930000I0J71140D01*
G02X1525490Y1960000I71142J10D01*
G37*
G36*
G01X2909170Y1953350D02*
G02X2908860Y1960000I70831J6634D01*
G02X2929390Y2010000I71152J0D01*
G02X2908860Y2060000I50622J50000D01*
G02X3051140I71140J0D01*
G02X3030610Y2010000I-71152J0D01*
G02Y1910000I-50622J-50000D01*
G02X3051140Y1860000I-50622J-50000D01*
G02X2980000Y1788860I-71140J0D01*
G02X2935000Y1804900I0J71143D01*
G02X2890000Y1788860I-45000J55103D01*
G02X2818860Y1860000I0J71140D01*
G02X2889180Y1931140I71145J0D01*
G03X2909170Y1953350I-239J20316D01*
G37*
G36*
G01X5566160Y2113710D02*
G03X5555880Y2123870I-10161J-1D01*
G02X5555000Y2123860I-1248J71126D01*
G02Y2266140I0J71140D01*
G02X5590960Y2256380I0J-71126D01*
G01X5597730Y2252420D01*
X5611050Y2265740D01*
X5748950D01*
X5785740Y2228950D01*
Y2081050D01*
X5748950Y2044260D01*
X5733840D01*
Y1870000D01*
G02X5709280Y1810720I-83837J7D01*
G01X5653850Y1755280D01*
G03X5653060Y1727380I14370J-14368D01*
G02X5671140Y1680000I-53058J-47386D01*
G02X5600000Y1608860I-71140J0D01*
G02X5528930Y1676760I0J71144D01*
G03X5508630Y1696160I-20298J-918D01*
G01X4991370D01*
G03X4971070Y1676760I-2J-20318D01*
G02X4828930I-71070J3244D01*
G03X4808630Y1696160I-20298J-918D01*
G01X4761370D01*
G03X4741070Y1676760I-2J-20318D01*
G02X4598930I-71070J3244D01*
G03X4578630Y1696160I-20298J-918D01*
G01X4491370D01*
G03X4471070Y1676760I-2J-20318D01*
G02X4328930I-71070J3244D01*
G03X4308630Y1696160I-20298J-918D01*
G01X3684730D01*
X3643840Y1655270D01*
Y886200D01*
G02X3619280Y826920I-83837J7D01*
G01X3543080Y750720D01*
G02X3483800Y726160I-59287J59277D01*
G01X3197730D01*
G03X3178240Y700100I3J-20320D01*
G02X3181140Y680000I-68239J-20105D01*
G02X3038860I-71140J0D01*
G02X3041760Y700100I71139J-5D01*
G03X3022270Y726160I-19493J5740D01*
G01X2514730D01*
X2453840Y665270D01*
Y469780D01*
G02X2484460Y438890I-79848J-109771D01*
G03X2517540I16540J11805D01*
G02X2628000Y495740I110460J-78887D01*
G02X2738460Y438890I0J-135737D01*
G03X2771540I16540J11805D01*
G02X2882000Y495740I110460J-78887D01*
G02Y224260I0J-135740D01*
G02X2771540Y281110I0J135737D01*
G03X2738460I-16540J-11805D01*
G02X2628000Y224260I-110460J78887D01*
G02X2517540Y281110I0J135737D01*
G03X2484460I-16540J-11805D01*
G02X2374000Y224260I-110460J78887D01*
G02X2283900Y258470I-5J135742D01*
G03X2251830Y251500I-13490J-15195D01*
G02X2210000Y224260I-41830J18497D01*
G01X2030000D01*
G02X1984260Y270000I0J45740D01*
G01Y450000D01*
G02X2030000Y495740I45740J0D01*
G01X2210000D01*
G02X2255330Y456080I0J-45735D01*
G03X2272970Y450650I10072J1352D01*
G02X2286160Y463490I101060J-90620D01*
G01Y700000D01*
G02X2310720Y759280I83837J-7D01*
G01X2420720Y869280D01*
G02X2480000Y893840I59287J-59277D01*
G01X3449070D01*
X3476160Y920930D01*
Y1690000D01*
G02X3500720Y1749280I83837J-7D01*
G01X3590720Y1839280D01*
G02X3650000Y1863840I59287J-59277D01*
G01X4643790D01*
G03X4664100Y1883760I-5J20318D01*
G02X4682150Y1929740I71129J-1390D01*
G03Y1943260I-7580J6760D01*
G02X4664090Y1990630I53094J47370D01*
G02X4806370I71140J0D01*
G02X4788310Y1943260I-71154J0D01*
G03Y1929740I7580J-6760D01*
G02X4806360Y1883760I-53079J-47370D01*
G03X4826670Y1863840I20315J398D01*
G01X5525270D01*
X5566160Y1904730D01*
Y2113710D01*
G37*
G36*
G01X6835320Y1836370D02*
G03X6824200Y1869300I-15535J13096D01*
G02X6659260Y2075000I45796J205700D01*
G02X7080740I210740J0D01*
G02X6978150Y1894130I-210735J0D01*
G03X6977940Y1859370I10425J-17444D01*
G02X7030740Y1765000I-57934J-94370D01*
G02X6809260I-110740J0D01*
G02X6835320Y1836370I110742J6D01*
G37*
G36*
G01X3165000Y2355100D02*
G02X3210000Y2371140I45000J-55103D01*
G02X3260000Y2350610I0J-71152D01*
G02X3310000Y2371140I50000J-50622D01*
G02X3358130Y2352390I0J-71148D01*
G03X3371870I6870J7482D01*
G02X3420000Y2371140I48130J-52398D01*
G02Y2228860I0J-71140D01*
G02X3371870Y2247610I0J71148D01*
G03X3358130I-6870J-7482D01*
G02X3310000Y2228860I-48130J52398D01*
G02X3260000Y2249390I0J71152D01*
G02X3210000Y2228860I-50000J50622D01*
G02X3165000Y2244900I0J71143D01*
G02X3120000Y2228860I-45000J55103D01*
G02Y2371140I0J71140D01*
G02X3165000Y2355100I0J-71143D01*
G37*
G36*
G01X4440000Y2870610D02*
G02X4490000Y2891140I50000J-50622D01*
G02Y2748860I0J-71140D01*
G02X4440000Y2769390I0J71152D01*
G02X4390000Y2748860I-50000J50622D01*
G02Y2891140I0J71140D01*
G02X4440000Y2870610I0J-71152D01*
G37*
G36*
G01X6028590Y3113240D02*
G03Y3126760I-7580J6760D01*
G02X6010530Y3174130I53094J47370D01*
G02X6152810I71140J0D01*
G02X6134750Y3126760I-71154J0D01*
G03Y3113240I7580J-6760D01*
G02X6152810Y3065870I-53094J-47370D01*
G02X6010530I-71140J0D01*
G02X6028590Y3113240I71154J0D01*
G37*
G36*
G01X6026920Y3412920D02*
G03Y3426440I-7580J6760D01*
G02X6008860Y3473810I53094J47370D01*
G02X6151140I71140J0D01*
G02X6133080Y3426440I-71154J0D01*
G03Y3412920I7580J-6760D01*
G02X6151140Y3365550I-53094J-47370D01*
G02X6008860I-71140J0D01*
G02X6026920Y3412920I71154J0D01*
G37*
G36*
G01X5647500Y3856720D02*
G02X5615000Y3848860I-32504J63279D01*
G02Y3991140I0J71140D01*
G02X5647500Y3983280I-4J-71139D01*
G02X5680000Y3991140I32504J-63279D01*
G02X5712500Y3983280I-4J-71139D01*
G02X5745000Y3991140I32504J-63279D01*
G02Y3848860I0J-71140D01*
G02X5712500Y3856720I4J71139D01*
G02X5680000Y3848860I-32504J63279D01*
G02X5647500Y3856720I4J71139D01*
G37*
G36*
G01X1544440Y4481850D02*
G03X1515560I-14440J-14292D01*
G02X1465000Y4460760I-50560J50060D01*
G02Y4603040I0J71140D01*
G02X1515560Y4581950I0J-71150D01*
G03X1544440I14440J14292D01*
G02X1595000Y4603040I50560J-50060D01*
G02Y4460760I0J-71140D01*
G02X1544440Y4481850I0J71150D01*
G37*
G36*
G01X3908980Y4596560D02*
G03X3941020I16020J12492D01*
G02X4162980I110980J-86573D01*
G03X4195020I16020J12492D01*
G02X4306000Y4650740I110980J-86573D01*
G02X4398510Y4616060I0J-140727D01*
G03X4429750Y4621730I13355J15316D01*
G02X4470000Y4645740I40250J-21732D01*
G01X4650000D01*
G02X4695740Y4600000I0J-45740D01*
G01Y4420000D01*
G02X4650000Y4374260I-45740J0D01*
G01X4470000D01*
G02X4429750Y4398270I0J45742D01*
G03X4398510Y4403940I-17885J-9646D01*
G02X4306000Y4369260I-92510J106047D01*
G02X4195020Y4423440I0J140753D01*
G03X4162980I-16020J-12492D01*
G02X3941020I-110980J86573D01*
G03X3908980I-16020J-12492D01*
G02X3687020I-110980J86573D01*
G03X3654980I-16020J-12492D01*
G02X3433020I-110980J86573D01*
G03X3400980I-16020J-12492D01*
G02X3290000Y4369260I-110980J86573D01*
G02Y4650740I0J140740D01*
G02X3400980Y4596560I0J-140753D01*
G03X3433020I16020J12492D01*
G02X3654980I110980J-86573D01*
G03X3687020I16020J12492D01*
G02X3908980I110980J-86573D01*
G37*
G36*
G01X2454460Y4748890D02*
G03X2487540I16540J11805D01*
G02X2598000Y4805740I110460J-78887D01*
G02X2708460Y4748890I0J-135737D01*
G03X2741540I16540J11805D01*
G02X2852000Y4805740I110460J-78887D01*
G02Y4534260I0J-135740D01*
G02X2741540Y4591110I0J135737D01*
G03X2708460I-16540J-11805D01*
G02X2598000Y4534260I-110460J78887D01*
G02X2487540Y4591110I0J135737D01*
G03X2454460I-16540J-11805D01*
G02X2344000Y4534260I-110460J78887D01*
G02X2253900Y4568470I-5J135742D01*
G03X2221830Y4561500I-13490J-15195D01*
G02X2180000Y4534260I-41830J18497D01*
G01X2000000D01*
G02X1954260Y4580000I0J45740D01*
G01Y4760000D01*
G02X2000000Y4805740I45740J0D01*
G01X2180000D01*
G02X2221830Y4778500I0J-45737D01*
G03X2253900Y4771530I18580J8225D01*
G02X2344000Y4805740I90095J-101532D01*
G02X2454460Y4748890I0J-135737D01*
G37*
G36*
G01X5374460D02*
G03X5407540I16540J11805D01*
G02X5628460I110460J-78887D01*
G03X5661540I16540J11805D01*
G02X5772000Y4805740I110460J-78887D01*
G02Y4534260I0J-135740D01*
G02X5661540Y4591110I0J135737D01*
G03X5628460I-16540J-11805D01*
G02X5407540I-110460J78887D01*
G03X5374460I-16540J-11805D01*
G02X5264000Y4534260I-110460J78887D01*
G02X5173900Y4568470I-5J135742D01*
G03X5141830Y4561500I-13490J-15195D01*
G02X5100000Y4534260I-41830J18497D01*
G01X4920000D01*
G02X4874260Y4580000I0J45740D01*
G01Y4760000D01*
G02X4920000Y4805740I45740J0D01*
G01X5100000D01*
G02X5141830Y4778500I0J-45737D01*
G03X5173900Y4771530I18580J8225D01*
G02X5264000Y4805740I90095J-101532D01*
G02X5374460Y4748890I0J-135737D01*
G37*
G36*
G01X6195550Y4964210D02*
G03X6164450I-15550J-13073D01*
G02X6110000Y4938860I-54450J45802D01*
G02Y5081140I0J71140D01*
G02X6164450Y5055790I0J-71152D01*
G03X6195550I15550J13073D01*
G02X6250000Y5081140I54450J-45802D01*
G02Y4938860I0J-71140D01*
G02X6195550Y4964210I0J71152D01*
G37*
G36*
G01X1715550Y4984210D02*
G03X1684450I-15550J-13073D01*
G02X1630000Y4958860I-54450J45802D01*
G02Y5101140I0J71140D01*
G02X1684450Y5075790I0J-71152D01*
G03X1715550I15550J13073D01*
G02X1770000Y5101140I54450J-45802D01*
G02Y4958860I0J-71140D01*
G02X1715550Y4984210I0J71152D01*
G37*
G36*
G01X3592230Y185520D02*
G02X3530000Y148860I-62230J34487D01*
G02Y291140I0J71140D01*
G02X3592230Y254480I0J-71147D01*
G03X3627770I17770J9847D01*
G02X3690000Y291140I62230J-34487D01*
G02Y148860I0J-71140D01*
G02X3627770Y185520I0J71147D01*
G03X3592230I-17770J-9847D01*
G37*
G36*
G01X2490430Y1579710D02*
G02X2479520Y1578870I-10900J70301D01*
G02Y1721150I0J71140D01*
G02X2512080Y1713260I0J-71128D01*
G02X2543020Y1720340I30940J-64065D01*
G02X2614160Y1649200I0J-71140D01*
G02X2614100Y1646370I-71138J93D01*
G02X2622710Y1638540I-43398J-56371D01*
G03X2637460Y1638440I7422J6935D01*
G02X2645400Y1645560I51332J-49256D01*
G02X2645340Y1648390I71078J2923D01*
G02X2716480Y1719530I71140J0D01*
G02X2747420Y1712450I0J-71145D01*
G02X2779980Y1720340I32560J-63238D01*
G02Y1578060I0J-71140D01*
G02X2769070Y1578900I-10J71141D01*
G03X2757680Y1571400I-1553J-10040D01*
G02X2753200Y1558960I-68883J17780D01*
G02X2759940Y1528730I-64401J-30225D01*
G02X2742210Y1481740I-71134J0D01*
G03X2742360Y1468150I7631J-6712D01*
G02X2761140Y1420000I-52357J-48158D01*
G02X2750150Y1382020I-71139J5D01*
G03X2765700Y1350910I17179J-10854D01*
G02X2831140Y1280000I-5699J-70910D01*
G02X2688860I-71140J0D01*
G02X2699850Y1317980I71139J-5D01*
G03X2684300Y1349090I-17179J10854D01*
G02X2660000Y1355490I5684J70914D01*
G02X2630000Y1348860I-29990J64512D01*
G02X2600000Y1355490I-10J71142D01*
G02X2570000Y1348860I-29990J64512D01*
G02X2498860Y1420000I0J71140D01*
G02X2517730Y1468260I71147J0D01*
G03X2517820Y1481950I-7461J6894D01*
G02X2499560Y1529540I52886J47590D01*
G02X2506300Y1559770I71141J5D01*
G02X2501820Y1572210I64403J30220D01*
G03X2490430Y1579710I-9837J-2540D01*
G37*
G36*
G01X1979290Y2121660D02*
G02X1948860Y2180000I40709J58340D01*
G02X2091140I71140J0D01*
G02X2060710Y2121660I-71139J0D01*
G03Y2088340I11634J-16660D01*
G02X2091140Y2030000I-40709J-58340D01*
G02X1948860I-71140J0D01*
G02X1979290Y2088340I71139J0D01*
G03Y2121660I-11634J16660D01*
G37*
G36*
G01X541120Y2260810D02*
G02X532980Y2285000I31873J24190D01*
G02X613020I40020J0D01*
G02X608810Y2267130I-40031J0D01*
G03X626990Y2237740I18182J-9071D01*
G01X681000D01*
G02Y2046260I0J-95740D01*
G01X571000D01*
G02X475260Y2142000I0J95740D01*
G02X533000Y2229870I95731J0D01*
G03X541120Y2260810I-8066J18652D01*
G37*
G36*
G01X2663170Y2249130D02*
G02X2628860Y2310000I36840J60870D01*
G02X2771140I71140J0D01*
G02X2736830Y2249130I-71150J0D01*
G03Y2214370I10518J-17380D01*
G02X2771140Y2153500I-36840J-60870D01*
G02X2763660Y2121750I-71139J4D01*
G02X2771140Y2090000I-63659J-31754D01*
G02X2763660Y2058250I-71139J4D01*
G02X2771140Y2026500I-63659J-31754D01*
G02X2762890Y1993250I-71129J0D01*
G02X2771140Y1960000I-62879J-33250D01*
G02X2716180Y1890720I-71146J0D01*
G03X2700630Y1868510I4623J-19785D01*
G02X2701140Y1860000I-70630J-8503D01*
G02X2558860I-71140J0D01*
G02X2559370Y1868510I71140J7D01*
G03X2543820Y1890720I-20173J2425D01*
G02X2488860Y1960000I16186J69280D01*
G02X2497110Y1993250I71129J0D01*
G02X2488860Y2026500I62879J33250D01*
G02X2496340Y2058250I71139J-4D01*
G02X2488860Y2090000I63659J31754D01*
G02X2496340Y2121750I71139J-4D01*
G02X2488860Y2153500I63659J31754D01*
G02X2560000Y2224640I71140J0D01*
G02X2614450Y2199290I0J-71152D01*
G03X2645550I15550J13073D01*
G02X2663170Y2214370I54450J-45788D01*
G03Y2249130I-10518J17380D01*
G37*
G36*
G01X2030410Y2631610D02*
G02X1978860Y2700000I19591J68390D01*
G02X2121140I71140J0D01*
G02X2108480Y2659490I-71143J0D01*
G03X2119590Y2628390I16706J-11566D01*
G02X2171140Y2560000I-19591J-68390D01*
G02X2100000Y2488860I-71140J0D01*
G02X2054830Y2505040I0J71141D01*
G03X2023720Y2498380I-12908J-15696D01*
G02X1960000Y2458860I-63720J31609D01*
G02Y2601140I0J71140D01*
G02X2005170Y2584960I0J-71141D01*
G03X2036280Y2591620I12908J15696D01*
G02X2041520Y2600510I63742J-31582D01*
G03X2030410Y2631610I-16706J11566D01*
G37*
G36*
G01X1737490Y2726040D02*
G02X1728860Y2760000I62503J33960D01*
G02X1871140I71140J0D01*
G02X1839180Y2700620I-71142J0D01*
G03X1832510Y2673960I11187J-16963D01*
G02X1841140Y2640000I-62503J-33960D01*
G02X1770000Y2568860I-71140J0D01*
G02X1723680Y2586000I-6J71142D01*
G03X1690360Y2573590I-13227J-15421D01*
G02X1620880Y2512990I-70355J10534D01*
G03X1600890Y2490960I259J-20320D01*
G02X1601140Y2485000I-70890J-5959D01*
G02X1458860I-71140J0D01*
G02X1529120Y2556130I71135J0D01*
G03X1549110Y2578160I-259J20320D01*
G02X1548860Y2584120I70890J5959D01*
G02X1620000Y2655260I71140J0D01*
G02X1666320Y2638120I6J-71142D01*
G03X1699640Y2650530I13227J15421D01*
G02X1730820Y2699380I70358J-10532D01*
G03X1737490Y2726040I-11187J16963D01*
G37*
G36*
G01X7814210Y2885550D02*
G02X7788860Y2940000I45802J54450D01*
G02X7931140I71140J0D01*
G02X7905790Y2885550I-71152J0D01*
G03Y2854450I13073J-15550D01*
G02X7931140Y2800000I-45802J-54450D01*
G02X7900710Y2741660I-71139J0D01*
G03Y2708340I11634J-16660D01*
G02X7910300Y2700300I-40731J-58323D01*
G01X8070300Y2540300D01*
G02X8091140Y2490000I-50283J-50300D01*
G01Y1210000D01*
G02X8070300Y1159700I-71123J0D01*
G01X7930300Y1019700D01*
G02X7880000Y998860I-50306J50297D01*
G01X7291470D01*
X7289800Y990750D01*
G02X7245000Y954260I-44800J9256D01*
G01X7115000D01*
G02X7069260Y1000000I0J45740D01*
G01Y1064600D01*
G03X7034570Y1078960I-20319J-4D01*
G01X7030740Y1075130D01*
Y1000000D01*
G02X6985000Y954260I-45740J0D01*
G01X6955530D01*
Y937710D01*
X6961290Y934940D01*
G02X7080740Y745000I-91289J-189940D01*
G02X6659260I-210740J0D01*
G02X6805280Y945560I210746J0D01*
G03X6816250Y975690I-6242J19334D01*
G02X6809260Y1000000I38752J24303D01*
G01Y1130000D01*
G02X6855000Y1175740I45740J0D01*
G01X6930130D01*
X6949440Y1195040D01*
X6938740Y1205740D01*
X6933800Y1205120D01*
G02X6920000Y1204260I-13774J109882D01*
G02X6809260Y1315000I0J110740D01*
G02X6848420Y1399500I110748J0D01*
G03Y1430500I-13135J15500D01*
G02X6809260Y1515000I71588J84500D01*
G02X7030740I110740J0D01*
G02X6991580Y1430500I-110748J0D01*
G03Y1399500I13135J-15500D01*
G02X7030740Y1315000I-71588J-84500D01*
G02X7022900Y1274060I-110743J-14D01*
G03X7033920Y1260270I9439J-3755D01*
G02X7045000Y1261140I11092J-70269D01*
G01X7053300D01*
G03X7072950Y1286660I6J20320D01*
G02X7069260Y1315000I107049J28348D01*
G02X7108420Y1399500I110748J0D01*
G03Y1430500I-13135J15500D01*
G02X7069260Y1515000I71588J84500D01*
G02X7290740I110740J0D01*
G02X7251580Y1430500I-110748J0D01*
G03Y1399500I13135J-15500D01*
G02X7290740Y1315000I-71588J-84500D01*
G02X7287050Y1286660I-110739J8D01*
G03X7306700Y1261140I19644J-5200D01*
G01X7790530D01*
X7859980Y1330590D01*
Y2409410D01*
X7809700Y2459700D01*
G02X7788860Y2510000I50283J50300D01*
G02X7814010Y2564280I71150J0D01*
G03X7815240Y2594150I-13135J15501D01*
G01X7809700Y2599700D01*
G02X7788860Y2650000I50297J50306D01*
G02X7819290Y2708340I71139J0D01*
G03Y2741660I-11634J16660D01*
G02X7788860Y2800000I40709J58340D01*
G02X7814210Y2854450I71152J0D01*
G03Y2885550I-13073J15550D01*
G37*
G36*
G01X533000Y2918130D02*
G02X475260Y3006000I37991J87870D01*
G02X571000Y3101740I95740J0D01*
G01X681000D01*
G02Y2910260I0J-95740D01*
G01X626990D01*
G03X608810Y2880870I2J-20319D01*
G02X613020Y2863000I-35821J-17870D01*
G02X532980I-40020J0D01*
G02X541120Y2887190I40013J0D01*
G03X533000Y2918130I-16186J12288D01*
G37*
G36*
G01X1314360Y4345670D02*
G02X1298860Y4390000I55642J44330D01*
G02X1441140I71140J0D01*
G02X1428420Y4349400I-71154J0D01*
G03X1429950Y4336060I8340J-5801D01*
G02X1449450Y4309940I-56151J-62259D01*
G01X1450200Y4308360D01*
X1649730Y4108840D01*
X2935270D01*
X3000720Y4174280D01*
G02X3005930Y4179080I59362J-59205D01*
G02X2998860Y4210000I64078J30920D01*
G02X3141140I71140J0D01*
G02X3141130Y4209120I-71136J368D01*
G01Y4198840D01*
X5125000D01*
G02X5184280Y4174280I-7J-83837D01*
G01X5249280Y4109280D01*
G02X5273840Y4050000I-59277J-59287D01*
G01Y3559140D01*
G03X5304340Y3541560I20319J4D01*
G02X5340000Y3551140I35655J-61561D01*
G02Y3408860I0J-71140D01*
G02X5304340Y3418440I-5J71141D01*
G03X5273840Y3400860I-10181J-17584D01*
G01Y3374730D01*
X5399280Y3249280D01*
G02X5423840Y3190000I-59277J-59287D01*
G01Y3001200D01*
G02X5399280Y2941920I-83837J7D01*
G01X5323080Y2865720D01*
G02X5263800Y2841160I-59287J59277D01*
G01X5208290D01*
G03X5193120Y2807320I-1J-20320D01*
G02X5211140Y2760000I-53120J-47320D01*
G02X5140000Y2688860I-71140J0D01*
G02X5130360Y2689520I28J71138D01*
G02X5060000Y2628860I-70360J10476D01*
G02Y2771140I0J71140D01*
G02X5069640Y2770480I-28J-71138D01*
G02X5086880Y2807320I70363J-10474D01*
G03X5071710Y2841160I-15169J13520D01*
G01X4911460D01*
G03X4891140Y2820650I-2J-20319D01*
G01Y2820000D01*
G02X4748860I-71140J0D01*
G02X4763420Y2863130I71142J6D01*
G02X4738940Y2903580I56578J61873D01*
G03X4726730Y2910860I-9823J-2596D01*
G02X4710000Y2908860I-16750J69138D01*
G02Y3051140I0J71140D01*
G02X4775350Y3008100I0J-71132D01*
G03X4788500Y3002700I9333J4016D01*
G02X4820000Y3008840I31494J-77701D01*
G01X5229070D01*
X5256160Y3035930D01*
Y3155270D01*
X5130720Y3280720D01*
G02X5106160Y3340000I59277J59287D01*
G01Y3385350D01*
G03X5074100Y3401930I-20319J-3D01*
G02X5033000Y3388860I-41095J58072D01*
G02X4983610Y3408800I0J71138D01*
G03X4955390I-14110J-14623D01*
G02X4906000Y3388860I-49390J51198D01*
G02Y3531140I0J71140D01*
G02X4955390Y3511200I0J-71138D01*
G03X4983610I14110J14623D01*
G02X5033000Y3531140I49390J-51198D01*
G02X5074100Y3518070I5J-71142D01*
G03X5106160Y3534650I11741J16583D01*
G01Y4015270D01*
X5090270Y4031160D01*
X5021460D01*
G03X5001140Y4010650I-2J-20319D01*
G01Y4010000D01*
G02X4858860I-71140J0D01*
G01Y4010650D01*
G03X4838540Y4031160I-20318J191D01*
G01X3131460D01*
G03X3117100Y3996470I5J-20319D01*
G01X3239280Y3874280D01*
G02X3263840Y3815000I-59277J-59287D01*
G01Y2950000D01*
G02X3239280Y2890720I-83837J7D01*
G01X3189000Y2840430D01*
G03X3203360Y2805740I14365J-14371D01*
G01X3278740D01*
G03X3299020Y2824710I4J20321D01*
G02X3370000Y2891140I70980J-4706D01*
G02X3420000Y2870610I0J-71152D01*
G02X3470000Y2891140I50000J-50622D01*
G02X3540980Y2824710I0J-71136D01*
G03X3561260Y2805740I20276J1351D01*
G01X3778740D01*
G03X3799020Y2824710I4J20321D01*
G02X3870000Y2891140I70980J-4706D01*
G02X3920000Y2870610I0J-71152D01*
G02X3970000Y2891140I50000J-50622D01*
G02X4041140Y2820000I0J-71140D01*
G02X4005740Y2758490I-71139J0D01*
G01Y2578950D01*
X4008950Y2575740D01*
X4488360D01*
X4489050Y2585160D01*
G02X4549620Y2650380I70952J-5158D01*
G02X4620000Y2711140I70380J-10382D01*
G02X4691140Y2640000I0J-71140D01*
G02X4682390Y2605820I-71133J0D01*
G03X4700210Y2575740I17823J-9760D01*
G01X5574260D01*
Y2618950D01*
X5611050Y2655740D01*
X6018950D01*
X6075740Y2598950D01*
Y631050D01*
X6009390Y564710D01*
X6011410Y558740D01*
G02X6015140Y536000I-67411J-22733D01*
G02X5872860I-71140J0D01*
G02X5874240Y549950I71141J6D01*
G03X5854320Y574260I-19924J3991D01*
G01X5731370D01*
G03X5711070Y553060I2J-20321D01*
G02X5711140Y550000I-71068J-3157D01*
G02X5568860I-71140J0D01*
G02X5568930Y553060I71138J-97D01*
G03X5548630Y574260I-20302J879D01*
G01X5491050D01*
X5443330Y621990D01*
X5436190Y615890D01*
G02X5410680Y601930I-46186J54111D01*
G02X5340000Y538860I-70680J8069D01*
G02X5268860Y610000I0J71140D01*
G02X5286310Y656670I71134J0D01*
G03Y683330I-15338J13330D01*
G02X5268860Y730000I53684J46670D01*
G02X5319840Y798220I71135J0D01*
G02X5318860Y810000I70161J11768D01*
G02X5461140I71140J0D01*
G02X5451740Y774660I-71132J0D01*
G01X5447880Y767920D01*
X5460560Y755250D01*
X5491050Y785740D01*
X5864260D01*
Y2391050D01*
X5861050Y2394260D01*
X5536250D01*
X5536140Y2384210D01*
G02X5393860I-71140J794D01*
G01X5393750Y2394260D01*
X5124930D01*
G03X5106060Y2366400I-1J-20320D01*
G02X5111140Y2340000I-66058J-26400D01*
G02X5090610Y2290000I-71152J0D01*
G02Y2190000I-50622J-50000D01*
G02X5111140Y2140000I-50622J-50000D01*
G02X5040000Y2068860I-71140J0D01*
G02X4990000Y2089390I0J71152D01*
G02X4890000I-50000J50622D01*
G02X4840000Y2068860I-50000J50622D01*
G02X4768860Y2140000I0J71140D01*
G02X4789390Y2190000I71152J0D01*
G02Y2290000I50622J50000D01*
G02X4768860Y2340000I50622J50000D01*
G02X4773940Y2366400I71138J0D01*
G03X4755070Y2394260I-18869J7540D01*
G01X4551260D01*
G03X4530980Y2375290I-4J-20321D01*
G02X4460000Y2308860I-70980J4706D01*
G02X4411870Y2327610I0J71148D01*
G03X4398130I-6870J-7482D01*
G02X4350000Y2308860I-48130J52398D01*
G02X4279020Y2375290I0J71136D01*
G03X4258740Y2394260I-20276J-1351D01*
G01X4241260D01*
G03X4220980Y2375290I-4J-20321D01*
G02X4190640Y2321610I-70983J4706D01*
G02X4120000Y2258860I-70640J8386D01*
G02X4090000Y2265490I-10J71142D01*
G02X4060000Y2258860I-29990J64512D01*
G02X4033600Y2263940I0J71138D01*
G03X4005740Y2245070I-7540J-18869D01*
G01Y2161050D01*
X3968950Y2124260D01*
X3831050D01*
X3794260Y2161050D01*
Y2299610D01*
G03X3770840Y2319690I-20319J-1D01*
G02X3760000Y2318860I-10835J70310D01*
G02X3715000Y2334900I0J71143D01*
G02X3670000Y2318860I-45000J55103D01*
G02Y2461140I0J71140D01*
G02X3715000Y2445100I0J-71143D01*
G02X3760000Y2461140I45000J-55103D01*
G02X3770840Y2460310I5J-71140D01*
G03X3794260Y2480390I3101J20081D01*
G01Y2594260D01*
X2603860D01*
G03X2587450Y2561960I1J-20319D01*
G02X2601140Y2520000I-57459J-41960D01*
G02X2530000Y2448860I-71140J0D01*
G02X2459740Y2508860I0J71137D01*
G02X2391160Y2562060I261J71139D01*
G03X2379910Y2569550I-9829J-2569D01*
G02X2370000Y2568860I-9884J70452D01*
G02Y2711140I0J71140D01*
G02X2388620Y2708660I0J-71140D01*
G03X2414260Y2728270I5320J19611D01*
G01Y2884260D01*
X2101260D01*
G03X2080980Y2865290I-4J-20321D01*
G02X1939020I-70980J4706D01*
G03X1918740Y2884260I-20276J-1351D01*
G01X961050D01*
X924260Y2921050D01*
Y3075930D01*
G02X844260Y3206000I65739J130070D01*
G02X990000Y3351740I145740J0D01*
G01X1190000D01*
G02X1335740Y3206000I0J-145740D01*
G02X1325910Y3153390I-145739J7D01*
G03X1344860Y3125740I18953J-7329D01*
G01X2525510D01*
G02X2580000Y3151140I54490J-45748D01*
G02X2648880Y3097800I0J-71144D01*
G01X2649570Y3095120D01*
X2665740Y3078950D01*
Y2983360D01*
G03X2700430Y2969000I20319J5D01*
G01X2714540Y2983100D01*
G02X2773820Y3007660I59287J-59277D01*
G01X2986180D01*
G02X3045460Y2983100I-7J-83837D01*
G01X3070000Y2958570D01*
X3096160Y2984730D01*
Y3368730D01*
G03X3074540Y3389010I-20321J0D01*
G02X3070000Y3388860I-4618J70987D01*
G02X3020610Y3408800I0J71138D01*
G03X2992390I-14110J-14623D01*
G02X2893610I-49390J51198D01*
G03X2865390I-14110J-14623D01*
G02X2766610I-49390J51198D01*
G03X2738390I-14110J-14623D01*
G02X2689000Y3388860I-49390J51198D01*
G02Y3531140I0J71140D01*
G02X2738390Y3511200I0J-71138D01*
G03X2766610I14110J14623D01*
G02X2865390I49390J-51198D01*
G03X2893610I14110J14623D01*
G02X2992390I49390J-51198D01*
G03X3020610I14110J14623D01*
G02X3070000Y3531140I49390J-51198D01*
G02X3074540Y3530990I-78J-71137D01*
G03X3096160Y3551270I1299J20280D01*
G01Y3780270D01*
X2935270Y3941160D01*
X2567850D01*
G03X2555000Y3905100I0J-20319D01*
G02X2581140Y3850000I-45002J-55100D01*
G02X2438860I-71140J0D01*
G02X2465000Y3905100I71142J0D01*
G03X2452150Y3941160I-12850J15741D01*
G01X1615000D01*
G02X1555720Y3965720I7J83837D01*
G01X1314520Y4206920D01*
G02X1289960Y4266200I59277J59287D01*
G01Y4273800D01*
G02X1313700Y4332250I83838J-5D01*
G03X1314360Y4345670I-7284J7084D01*
G37*
G54D27*
X4580000Y5220000D03*
X5080000D03*
X2750000D03*
X3250000D03*
G54D30*
X5365000D03*
X3920000Y3470000D03*
X5650000Y1200800D03*
X2510000Y2310000D03*
X1530000Y4710000D03*
X163800Y4296200D03*
X4440000Y3470000D03*
X1880000Y1060000D03*
X2250000Y2180000D03*
X8336200Y2136200D03*
X2465000Y5230000D03*
X3110000Y460000D03*
X3340000Y220000D03*
X3110000D03*
X3530000Y2150000D03*
X1900000Y3840000D03*
X3420000Y3470000D03*
X1250000Y2700000D03*
X1240000Y2400000D03*
X3535000Y5230000D03*
X2950000Y2250000D03*
X2910000Y1390000D03*
X4460000Y2030000D03*
X1790000Y2180000D03*
X2785000Y1085000D03*
X4460000Y2210000D03*
X4295000Y5220000D03*
X6080000Y3780000D03*
G54D29*
X7180000Y1765000D03*
X6480000Y455000D03*
Y205000D03*
X7160000D03*
Y455000D03*
G54D28*
X7450000Y745000D03*
Y2075000D03*
X1029000Y1942000D03*
Y738000D03*
G54D26*
X1390000Y3676000D03*
X770000D03*
%LPD*%
G75*
G36*
G01X1263240Y3080000D02*
X2508300D01*
X2509420Y3071110D01*
G03X2580000Y3008860I70580J8887D01*
G03X2595310Y3010530I-14J71139D01*
G02X2620000Y2990680I4369J-19845D01*
G01Y2886140D01*
G03X2606160Y2840000I69991J-46140D01*
G03X2618500Y2796210I83842J-7D01*
G01X2620000Y2793770D01*
Y2790000D01*
X2650000Y2760000D01*
X2664870D01*
X2666280Y2759580D01*
G03X2690000Y2756160I23702J80423D01*
G03X2713720Y2759580I18J83843D01*
G01X2715130Y2760000D01*
X3044870D01*
X3046280Y2759580D01*
G03X3070000Y2756160I23702J80423D01*
G03X3093720Y2759580I18J83843D01*
G01X3095130Y2760000D01*
X3331780D01*
G03X3370000Y2748860I38220J59994D01*
G03X3405940Y2758610I-6J71138D01*
G01X3408320Y2760000D01*
X3431680D01*
X3434060Y2758610D01*
G03X3470000Y2748860I35946J61388D01*
G03X3508220Y2760000I0J71134D01*
G01X3831780D01*
G03X3870000Y2748860I38220J59994D01*
G03X3905940Y2758610I-6J71138D01*
G01X3908320Y2760000D01*
X3931680D01*
X3934060Y2758610D01*
G03X3945440Y2753230I35976J61373D01*
G01X3947540Y2752460D01*
X3960000Y2740000D01*
Y2560000D01*
X3990000Y2530000D01*
X4509390D01*
G03X4610610I50610J50011D01*
G01X5600000D01*
X5620000Y2550000D01*
Y2600000D01*
X5630000Y2610000D01*
X6000000D01*
X6030000Y2580000D01*
Y650000D01*
X6000000Y620000D01*
X5510000D01*
X5500000Y630000D01*
Y730000D01*
X5510000Y740000D01*
X5890000D01*
X5910000Y760000D01*
Y2410000D01*
X5880000Y2440000D01*
X5600120D01*
G03X5555000Y2456140I-45120J-54997D01*
G03X5510000Y2440100I0J-71143D01*
G03X5465000Y2456140I-45000J-55103D01*
G03X5419880Y2440000I0J-71137D01*
G01X4498220D01*
G03X4460000Y2451140I-38220J-59994D01*
G03X4424060Y2441390I6J-71138D01*
G01X4421680Y2440000D01*
X4388320D01*
X4385940Y2441390D01*
G03X4350000Y2451140I-35946J-61388D01*
G03X4311780Y2440000I0J-71134D01*
G01X4188220D01*
G03X4150000Y2451140I-38220J-59994D01*
G03X4120000Y2444510I-10J-71142D01*
G03X4090000Y2451140I-29990J-64512D01*
G03X4060000Y2444510I-10J-71142D01*
G03X4030000Y2451140I-29990J-64512D01*
G03X3974800Y2424880I0J-71147D01*
G01X3974470Y2424470D01*
X3960000Y2410000D01*
Y2392710D01*
X3959860Y2391870D01*
G03X3958860Y2380000I70139J-11886D01*
G03X3959860Y2368130I71139J16D01*
G01X3960000Y2367290D01*
Y2180000D01*
X3950000Y2170000D01*
X3850000D01*
X3840000Y2180000D01*
Y2620000D01*
X3820000Y2640000D01*
X2498220D01*
G03X2484560Y2646770I-38239J-59990D01*
G01X2482460Y2647540D01*
X2460000Y2670000D01*
Y2910000D01*
X2440000Y2930000D01*
X2048220D01*
G03X1971780I-38220J-59994D01*
G01X1012710D01*
X1011870Y2930140D01*
G03X1000000Y2931140I-11886J-70139D01*
G03X988130Y2930140I16J-71139D01*
G01X987290Y2930000D01*
X980000D01*
X970000Y2940000D01*
Y3050410D01*
G02X980800Y3060550I10160J1D01*
G03X990000Y3060260I9189J145450D01*
G01X1190000D01*
G03X1263240Y3080000I0J145739D01*
G37*
G36*
G01X5620000Y2210000D02*
X5630000Y2220000D01*
X5730000D01*
X5740000Y2210000D01*
Y2100000D01*
X5730000Y2090000D01*
X5630000D01*
X5620000Y2100000D01*
Y2210000D01*
G37*
G54D10*
X360000Y360000D03*
Y5040000D03*
X1060000D03*
X7440000D03*
X8140000Y360000D03*
Y5040000D03*
G54D20*
X2374000Y360000D03*
X2344000Y4670000D03*
X2882000Y360000D03*
X2628000D03*
X2852000Y4670000D03*
X2598000D03*
X5264000D03*
X5772000D03*
X5518000D03*
G54D11*
X208000Y2142000D03*
Y3006000D03*
G54D21*
X3290000Y4510000D03*
X3544000D03*
X3798000D03*
X4052000D03*
X4306000D03*
G54D12*
X626000Y2142000D03*
Y3006000D03*
G54D22*
X6521000Y3786000D03*
Y3532000D03*
X6775000Y3659000D03*
Y3405000D03*
X6521000Y4294000D03*
Y4040000D03*
X6775000Y4167000D03*
Y3913000D03*
X7900000Y3187500D03*
Y3441500D03*
Y4258500D03*
Y4512500D03*
G54D13*
X770000Y3676000D03*
X1390000D03*
G54D23*
X7105000Y3075500D03*
Y4624500D03*
G54D14*
G01X4030000Y845000D02*
X3955000D01*
X3924070Y875930D01*
Y1034070D01*
X3960000Y1070000D01*
X4030000D01*
G01X4110000Y365390D02*
Y765000D01*
X4030000Y845000D01*
G01X4089200Y1580800D02*
X3900800D01*
X3840000Y1520000D01*
Y1370590D01*
X3841120Y1369470D01*
Y1310530D01*
X3840000Y1309410D01*
Y640000D01*
X3920000Y560000D01*
X4030000D01*
G01X5118360Y1493800D02*
Y401640D01*
X5198880Y321120D01*
Y320530D01*
X5240530Y278880D01*
X5241120D01*
X5250000Y270000D01*
G01X6920000Y1065000D02*
X7045000Y1190000D01*
X7820000D01*
X7931120Y1301120D01*
Y2438880D01*
X7860000Y2510000D01*
G01Y2650000D02*
X8020000Y2490000D01*
Y1210000D01*
X7880000Y1070000D01*
X7185000D01*
X7180000Y1065000D01*
G01X7900000Y3187500D02*
Y3030000D01*
X163800Y4296200D03*
X630000Y4390000D03*
X1240000Y2400000D03*
X1250000Y2700000D03*
X1000000Y2860000D03*
Y2790000D03*
Y2960000D03*
X1085000Y3040000D03*
X1660000Y270000D03*
Y180000D03*
X1730000D03*
Y270000D03*
X1800000Y180000D03*
Y270000D03*
X1590000Y2050000D03*
X1660000D03*
X1590000Y1990000D03*
X1660000D03*
X1590000Y1930000D03*
X1660000D03*
X1530000Y2485000D03*
X1790000Y2180000D03*
X1530000Y2395000D03*
X1770000Y2640000D03*
X1620000Y2584120D03*
X1800000Y2760000D03*
X1373800Y4273800D03*
X1480000Y4160000D03*
X1530000Y4710000D03*
X1370000Y4390000D03*
X1595000Y4531900D03*
X1465000D03*
X1770000Y5030000D03*
X1630000D03*
X1870000Y180000D03*
Y270000D03*
X1880000Y1060000D03*
X2370000Y1860000D03*
X2250000D03*
X2130000D03*
X2020000D03*
Y2030000D03*
Y2180000D03*
X2250000D03*
X2100000Y2560000D03*
X2220000Y2310000D03*
X2370000Y2640000D03*
X1960000Y2530000D03*
X2010000Y2870000D03*
X2050000Y2700000D03*
X1900000Y3840000D03*
X1960000Y4490000D03*
Y4400000D03*
X1900000Y5030000D03*
X2570000Y1420000D03*
X2630000D03*
X2690000D03*
X2760000Y1280000D03*
X2910000Y1390000D03*
X2785000Y1085000D03*
X2630000Y1860000D03*
X2890000D03*
X2688800Y1589190D03*
Y1528730D03*
X2716480Y1648390D03*
X2779980Y1649200D03*
X2700000Y2026500D03*
Y1960000D03*
X2479520Y1650010D03*
X2543020Y1649200D03*
X2570700Y1529540D03*
Y1590000D03*
X2560000Y2026500D03*
Y1960000D03*
X2950000Y2250000D03*
X2700000Y2153500D03*
Y2090000D03*
X2560000Y2153500D03*
Y2090000D03*
X2460000Y2580000D03*
X2530000Y2520000D03*
X2510000Y2310000D03*
X2700000D03*
X2580000Y3080000D03*
X2950000Y2840000D03*
X2810000D03*
X2690000D03*
X2943000Y3460000D03*
X2816000D03*
X2689000D03*
X2510000Y3850000D03*
X2465000Y5230000D03*
X3340000Y220000D03*
X3110000D03*
Y460000D03*
Y680000D03*
X2980000Y1860000D03*
Y1960000D03*
Y2060000D03*
X3120000Y1930000D03*
Y1870000D03*
X3190000D03*
Y1930000D03*
X3260000Y1870000D03*
Y1930000D03*
X3330000Y1870000D03*
Y1930000D03*
X3120000Y2300000D03*
X3210000D03*
X3310000D03*
X3420000D03*
X3470000Y2820000D03*
X3370000D03*
X3070000Y2840000D03*
X3420000Y3470000D03*
X3070000Y3460000D03*
Y4210000D03*
X2970000Y4025000D03*
X3400000Y5020000D03*
X3690000Y220000D03*
X3530000D03*
X4030000Y330000D03*
X3760000Y910000D03*
X4030000Y845000D03*
Y560000D03*
Y920000D03*
X3760000Y1030000D03*
Y1200000D03*
Y1340000D03*
X4030000Y1070000D03*
Y1210000D03*
Y1478400D03*
Y986180D03*
Y1681600D03*
X3760000Y2390000D03*
X3670000D03*
X3530000Y2150000D03*
X4060000Y2330000D03*
X4030000Y2380000D03*
X3930000D03*
X3870000D03*
X3930000Y2320000D03*
X3870000D03*
X3930000Y2260000D03*
X3870000D03*
X3930000Y2200000D03*
X3870000D03*
Y2820000D03*
X3970000D03*
X3920000Y3470000D03*
X3535000Y5230000D03*
X4398000Y95000D03*
X4530000Y270000D03*
X4330000Y281570D03*
X4580000Y180000D03*
Y110000D03*
X4330000Y218070D03*
X4498110Y952980D03*
Y802980D03*
Y652980D03*
Y1102980D03*
X4536260Y1473740D03*
X4120000Y1143500D03*
Y1080000D03*
X4460000Y2030000D03*
X4400000Y1680000D03*
X4089200Y1580800D03*
X4460000Y2380000D03*
Y2210000D03*
X4150000Y2380000D03*
X4090000D03*
X4120000Y2330000D03*
X4350000Y2380000D03*
X4620000Y2640000D03*
X4560000Y2580000D03*
X4490000Y2820000D03*
X4390000D03*
X4440000Y3470000D03*
X4295000Y5220000D03*
X4430000Y5020000D03*
X5170000Y240000D03*
X4840000Y270000D03*
X4760000Y180000D03*
Y116500D03*
X5110000Y290000D03*
X4948110Y952980D03*
X4798110D03*
X4648110D03*
X4948110Y802980D03*
X4798110D03*
X4648110D03*
X4948110Y652980D03*
X4798110D03*
X4648110D03*
X4948110Y1102980D03*
X4798110D03*
X4648110D03*
X5118360Y1493800D03*
X4670000Y1680000D03*
X4900000D03*
X5170000Y1980000D03*
X4735230Y1882370D03*
Y1990630D03*
X4940000Y2240000D03*
X4840000Y2340000D03*
X4940000D03*
X5040000D03*
Y2240000D03*
X4840000D03*
Y2140000D03*
X4940000D03*
X5040000D03*
X4710000Y2980000D03*
X4820000Y2820000D03*
X5140000Y2760000D03*
X5060000Y2700000D03*
X4820000Y2925000D03*
X5033000Y3460000D03*
X4906000D03*
X4930000Y4010000D03*
X5125000Y4115000D03*
X5340000Y70000D03*
X5321120Y270000D03*
X5250000D03*
X5390000Y810000D03*
X5640000Y550000D03*
X5390000D03*
X5340000Y730000D03*
X5390000Y670000D03*
X5340000Y610000D03*
X5530000Y710000D03*
Y650000D03*
X5600000Y710000D03*
Y650000D03*
X5650000Y1200800D03*
X5390000Y1200000D03*
Y1120000D03*
X5355000Y1475000D03*
X5600000Y1680000D03*
X5650000Y1940000D03*
X5555000Y2195000D03*
X5465000Y2385000D03*
X5555000D03*
X5650000Y2580000D03*
X5720000D03*
X5650000Y2500000D03*
X5720000D03*
X5650000Y2190000D03*
X5710000D03*
X5650000Y2120000D03*
X5710000D03*
X5340000Y3190000D03*
X5450000Y3640000D03*
X5330000D03*
X5340000Y3480000D03*
X5680000Y3920000D03*
X5615000D03*
X5745000D03*
X5365000Y5220000D03*
X6310000Y810000D03*
X5944000Y536000D03*
X6245000Y810000D03*
X6310000Y1320000D03*
X6245000D03*
X6165000Y2945000D03*
X6081670Y3174130D03*
Y3065870D03*
X6080000Y3270000D03*
X6165000Y3605000D03*
X6080000Y3365550D03*
Y3473810D03*
Y3780000D03*
Y3900000D03*
X5980000Y5010000D03*
X6250000D03*
X6110000D03*
X6375000Y810000D03*
Y1320000D03*
X6480000Y1690000D03*
X6540000Y1800000D03*
X6380000Y5010000D03*
X7860000Y2510000D03*
Y2800000D03*
Y2940000D03*
Y2650000D03*
X8336200Y2136200D03*
X8330000Y2800000D03*
X8336200Y3033800D03*
G54D24*
G01X4510000Y50000D02*
X4830000D01*
G01X4240000Y140000D02*
X4360000D01*
X4410000Y190000D01*
G54D15*
X1029000Y738000D03*
Y1942000D03*
X6870000Y745000D03*
Y2075000D03*
X7450000Y745000D03*
Y2075000D03*
G54D25*
G01X1373800Y4273800D02*
Y4266200D01*
X1480000Y4160000D01*
G01D02*
X1615000Y4025000D01*
X2970000D01*
G01X5650000Y1940000D02*
Y1870000D01*
X5560000Y1780000D01*
X3650000D01*
X3560000Y1690000D01*
Y886200D01*
X3483800Y810000D01*
X2480000D01*
X2370000Y700000D01*
Y364000D01*
X2374000Y360000D01*
G01X2690000Y2840000D02*
X2773820Y2923820D01*
X2986180D01*
X3070000Y2840000D01*
G01X5125000Y4115000D02*
X3060000D01*
X2970000Y4025000D01*
G01D02*
X3180000Y3815000D01*
Y2950000D01*
X3070000Y2840000D01*
G01X4110000Y365390D02*
X4065390D01*
X4030000Y330000D01*
G01Y1070000D02*
Y1210000D01*
G01D02*
Y1478400D01*
G01X4840000Y270000D02*
X4530000D01*
G01D02*
X4434610Y365390D01*
X4110000D01*
G01X4820000Y2925000D02*
X5263800D01*
X5340000Y3001200D01*
Y3190000D01*
G01X5125000Y4115000D02*
X5190000Y4050000D01*
Y3340000D01*
X5340000Y3190000D01*
G01X5650000Y1940000D02*
Y2120000D01*
G54D16*
X1300000Y1215000D03*
Y1465000D03*
X1500000D03*
X6480000Y205000D03*
Y455000D03*
X6920000Y1515000D03*
Y1315000D03*
Y1765000D03*
X7160000Y205000D03*
Y455000D03*
X7180000Y1515000D03*
Y1315000D03*
Y1765000D03*
G54D17*
X1090000Y3206000D03*
G54D18*
X1500000Y1215000D03*
X6920000Y1065000D03*
X7180000D03*
G54D19*
X2120000Y360000D03*
X2090000Y4670000D03*
X4560000Y4510000D03*
X5010000Y4670000D03*
M02*
