G04 ================== begin FILE IDENTIFICATION RECORD ==================*
G04 Layout Name:  HY_UART_DBUG_V20_230103.brd*
G04 Film Name:    PasteMask_Top*
G04 File Format:  Gerber RS274X*
G04 File Origin:  Cadence Allegro 17.2-S079*
G04 Origin Date:  Tue Jan 31 14:16:27 2023*
G04 *
G04 Layer:  PIN/PASTEMASK_TOP*
G04 Layer:  PACKAGE GEOMETRY/PASTEMASK_TOP*
G04 *
G04 Offset:    (0.0000 0.0000)*
G04 Mirror:    No*
G04 Mode:      Positive*
G04 Rotation:  0*
G04 FullContactRelief:  No*
G04 UndefLineWidth:     0.1524*
G04 ================== end FILE IDENTIFICATION RECORD ====================*
%FSLAX55Y55*MOMM*%
%IR0*IPPOS*OFA0.00000B0.00000*MIA0B0*SFA1.00000B1.00000*%
%ADD12R,1.2X.3*%
%ADD30R,.6X1.1*%
%ADD11R,1.2X.6*%
%ADD31R,.7X1.1*%
%ADD19R,.25X1.2*%
%ADD27R,.6X1.5*%
%ADD23R,.25X1.4*%
%ADD20R,.6X1.8*%
%ADD22R,.25X1.7*%
%ADD29C,.75*%
%ADD13R,.8X.8*%
%ADD16R,1.2X1.*%
%ADD28R,1.2X1.4*%
%ADD32R,2.8X1.1*%
%ADD26R,1.5X2.5*%
%ADD21R,.4X.6*%
%ADD15R,1.8X1.6*%
%ADD14R,.5X.6*%
%ADD18R,.6X.5*%
%ADD17R,1.6X1.8*%
%ADD37R,2.7X2.7*%
%ADD33R,.4X.9*%
%ADD24R,.7X.25*%
%ADD34R,.8X.25*%
%ADD25R,.25X.7*%
%ADD35R,.25X.8*%
%ADD10C,6.9*%
%ADD36R,7.3X7.3*%
%LPD*%
G75*
G54D10*
X360000Y360000D03*
Y5040000D03*
X1060000D03*
X7440000D03*
X8140000Y360000D03*
Y5040000D03*
G54D20*
X1615500Y3080000D03*
X1742500D03*
X1615500Y4080000D03*
X1742500D03*
X1869500Y3080000D03*
X2123500D03*
X1996500D03*
X2377500D03*
X2250500D03*
X1869500Y4080000D03*
X2123500D03*
X1996500D03*
X2377500D03*
X2250500D03*
X2504500Y3080000D03*
Y4080000D03*
G54D11*
X730000Y2254000D03*
Y2334000D03*
Y2814000D03*
Y2894000D03*
G54D21*
X1530000Y4600000D03*
Y4820000D03*
X1880000Y950000D03*
Y1170000D03*
X5680000Y4030000D03*
Y3810000D03*
X6310000Y700000D03*
Y920000D03*
Y1210000D03*
Y1430000D03*
G54D30*
X3365000Y2690000D03*
X3460000Y2430000D03*
X3365000D03*
X3470000Y2927500D03*
X3370000D03*
Y3192500D03*
X3470000D03*
X3555000Y2690000D03*
Y2430000D03*
X3970000Y2927500D03*
X3870000D03*
Y3192500D03*
X3970000D03*
X4490000Y2927500D03*
X4390000D03*
Y3192500D03*
X4490000D03*
G54D12*
X730000Y2399000D03*
Y2449000D03*
Y2499000D03*
Y2549000D03*
Y2599000D03*
Y2649000D03*
Y2699000D03*
Y2749000D03*
G54D13*
X316200Y4390000D03*
X163800D03*
X1480000Y2846200D03*
Y2693800D03*
Y4273800D03*
Y4426200D03*
X1630000Y5276200D03*
Y5123800D03*
X1770000Y5276200D03*
Y5123800D03*
X2393800Y1740000D03*
X2546200D03*
X2866200D03*
X2713800D03*
X3120000Y2033800D03*
X3270000D03*
X3420000D03*
X3120000Y2186200D03*
X3270000D03*
X3420000D03*
X3760000Y2636200D03*
Y2483800D03*
X5020000Y1493800D03*
X5170000Y1723800D03*
Y1876200D03*
X5020000Y1646200D03*
X4910000Y2623800D03*
Y2776200D03*
X5470000Y1723800D03*
Y1876200D03*
X5320000Y1723800D03*
Y1876200D03*
X6110000Y5266200D03*
Y5113800D03*
X6250000Y5266200D03*
Y5113800D03*
X8183800Y2230000D03*
X8336200D03*
X8183800Y2370000D03*
X8336200D03*
X8183800Y2510000D03*
X8336200D03*
X8183800Y2650000D03*
X8336200D03*
X8183800Y2940000D03*
X8336200D03*
G54D22*
X2630000Y1535000D03*
G54D31*
X3320000Y3590000D03*
X3520000D03*
X3420000Y3350000D03*
X3820000Y3590000D03*
X4020000D03*
X3920000Y3350000D03*
X4340000Y3590000D03*
X4540000D03*
X4440000Y3350000D03*
G54D14*
X455000Y4390000D03*
X545000D03*
X1085000Y2400000D03*
X1175000D03*
Y2700000D03*
X1085000D03*
Y2960000D03*
X1175000D03*
X1085000Y2830000D03*
X1175000D03*
X1815000Y950000D03*
Y1170000D03*
X1595000Y4600000D03*
X1465000D03*
Y4820000D03*
X1595000D03*
X1945000Y950000D03*
Y1170000D03*
X2795000Y3130000D03*
X2705000D03*
X2965000D03*
X3055000D03*
X3855000Y320000D03*
X3945000D03*
X3685000D03*
X3595000D03*
X3855000Y910000D03*
X3945000D03*
X3855000Y560000D03*
X3945000D03*
X3685000Y640000D03*
X3595000D03*
X3945000Y440000D03*
X3855000D03*
Y1200000D03*
X3945000D03*
X3855000Y1340000D03*
X3945000D03*
X3855000Y1030000D03*
X3945000D03*
X3605000Y1270000D03*
X3695000D03*
X5015000Y3130000D03*
X4925000D03*
X4860000Y4010000D03*
X4780000D03*
X4820000Y4130000D03*
X5555000Y810000D03*
X5465000D03*
X5555000Y550000D03*
X5465000D03*
X5555000Y1200000D03*
X5465000D03*
X5555000Y1570000D03*
X5465000D03*
X5555000Y2480000D03*
X5465000D03*
X5555000Y2110000D03*
X5465000D03*
X5555000Y2290000D03*
X5465000D03*
X5615000Y4030000D03*
X5745000D03*
Y3810000D03*
X5615000D03*
X6245000Y700000D03*
Y920000D03*
Y1210000D03*
Y1430000D03*
X6255000Y3210000D03*
X6165000D03*
X6255000Y3030000D03*
X6165000D03*
X6255000Y3780000D03*
X6165000D03*
X6255000Y3510000D03*
X6165000D03*
X6255000Y3330000D03*
X6165000D03*
Y3900000D03*
X6255000D03*
X6375000Y700000D03*
Y920000D03*
Y1210000D03*
Y1430000D03*
X7945000Y2230000D03*
Y2650000D03*
Y2510000D03*
Y2370000D03*
Y2940000D03*
Y2800000D03*
X8035000Y2230000D03*
Y2650000D03*
Y2510000D03*
Y2370000D03*
Y2940000D03*
Y2800000D03*
X8165000D03*
X8255000D03*
G54D32*
X3670000Y2010000D03*
Y2270000D03*
G54D23*
X2580000Y1550000D03*
X2680000D03*
G54D24*
X2485000Y1385000D03*
Y1435000D03*
Y1485000D03*
X2775000D03*
Y1435000D03*
Y1385000D03*
X2485000Y1535000D03*
X2775000D03*
G54D33*
X4015000Y2000000D03*
Y2490000D03*
Y2220000D03*
Y2710000D03*
X4080000Y2000000D03*
X4145000D03*
X4080000Y2490000D03*
X4145000D03*
X4080000Y2220000D03*
X4145000D03*
X4080000Y2710000D03*
X4145000D03*
G54D15*
X1500000Y220000D03*
Y500000D03*
X1800000Y4730000D03*
Y4450000D03*
X3290000Y3780000D03*
X3540000D03*
X3290000Y4060000D03*
X3540000D03*
X4050000Y3780000D03*
X3800000D03*
X4050000Y4060000D03*
X3800000D03*
X4560000Y3780000D03*
X4310000D03*
X4560000Y4060000D03*
X4310000D03*
X5390000Y3780000D03*
Y4060000D03*
X6690000Y4900000D03*
X6940000D03*
X6690000Y5180000D03*
X6940000D03*
G54D25*
X2705000Y1335000D03*
X2655000D03*
X2605000D03*
X2555000D03*
G54D34*
X4270000Y495000D03*
Y545000D03*
Y595000D03*
Y645000D03*
Y695000D03*
Y745000D03*
Y795000D03*
Y845000D03*
Y895000D03*
Y945000D03*
Y995000D03*
Y1045000D03*
Y1095000D03*
Y1145000D03*
Y1195000D03*
Y1245000D03*
X5170000Y945000D03*
Y895000D03*
Y845000D03*
Y795000D03*
Y745000D03*
Y695000D03*
Y645000D03*
Y595000D03*
Y545000D03*
Y495000D03*
Y1245000D03*
Y1195000D03*
Y1145000D03*
Y1095000D03*
Y1045000D03*
Y995000D03*
X4740000Y2115000D03*
Y2165000D03*
Y2215000D03*
Y2265000D03*
Y2315000D03*
Y2365000D03*
X5140000D03*
Y2315000D03*
Y2265000D03*
Y2215000D03*
Y2165000D03*
Y2115000D03*
G54D16*
X1800000Y1538400D03*
Y1741600D03*
X2220000Y1538400D03*
X2010000D03*
X2220000Y1741600D03*
X2010000D03*
X3040000Y1538400D03*
X3420000D03*
X3230000D03*
X3040000Y1741600D03*
X3420000D03*
X3230000D03*
X3900000Y1478400D03*
Y1681600D03*
X4190000Y1478400D03*
Y1681600D03*
G54D35*
X4595000Y420000D03*
X4545000D03*
X4495000D03*
X4445000D03*
X4395000D03*
X4345000D03*
Y1320000D03*
X4395000D03*
X4445000D03*
X4495000D03*
X4545000D03*
X4595000D03*
X5095000Y420000D03*
X5045000D03*
X4995000D03*
X4945000D03*
X4895000D03*
X4845000D03*
X4795000D03*
X4745000D03*
X4695000D03*
X4645000D03*
Y1320000D03*
X4695000D03*
X4745000D03*
X4795000D03*
X4845000D03*
X4895000D03*
X4945000D03*
X4995000D03*
X5045000D03*
X5095000D03*
X5065000Y2040000D03*
X5015000D03*
X4965000D03*
X4915000D03*
X4865000D03*
X4815000D03*
Y2440000D03*
X4865000D03*
X4915000D03*
X4965000D03*
X5015000D03*
X5065000D03*
G54D17*
X1850000Y1990000D03*
X2230000D03*
G54D26*
X2815000Y2060000D03*
X2445000D03*
G54D36*
X4720000Y870000D03*
G54D18*
X1620000Y2485000D03*
Y2395000D03*
X1610000Y2855000D03*
Y2765000D03*
Y4255000D03*
Y4345000D03*
X1500000Y5195000D03*
Y5105000D03*
X2250000Y1285000D03*
Y1375000D03*
X2220000Y2485000D03*
Y2395000D03*
X2100000D03*
Y2485000D03*
X1900000Y5195000D03*
Y5105000D03*
X2690000Y1085000D03*
Y1175000D03*
X2570000D03*
Y1085000D03*
X2700000Y2395000D03*
Y2485000D03*
X2690000Y3015000D03*
Y2925000D03*
X2810000D03*
Y3015000D03*
X2950000Y2925000D03*
Y3015000D03*
X2690000Y4115000D03*
Y4025000D03*
X3010000Y1375000D03*
Y1285000D03*
X3130000D03*
Y1375000D03*
X3210000Y2395000D03*
Y2485000D03*
Y2615000D03*
Y2705000D03*
X3070000Y3015000D03*
Y2925000D03*
Y4115000D03*
Y4025000D03*
X3600000Y435000D03*
Y525000D03*
X4480000Y95000D03*
Y185000D03*
X4340000Y1475000D03*
X4460000D03*
X4340000Y1565000D03*
X4460000D03*
X4840000Y95000D03*
Y185000D03*
X4960000D03*
Y95000D03*
X5080000Y185000D03*
Y95000D03*
X4770000Y1475000D03*
X4890000D03*
X4650000D03*
X4770000Y1565000D03*
X5020000Y1795000D03*
Y1885000D03*
X4890000Y1565000D03*
X4650000D03*
X5030000Y2925000D03*
Y3015000D03*
X4910000D03*
Y2925000D03*
X5030000Y4115000D03*
Y4025000D03*
X5250000Y95000D03*
Y185000D03*
X5260000Y1475000D03*
Y1565000D03*
X5340000Y3375000D03*
Y3285000D03*
X5980000Y5185000D03*
Y5095000D03*
X6380000Y5185000D03*
Y5095000D03*
G54D27*
X2943000Y3310000D03*
X2816000D03*
X2689000D03*
Y3850000D03*
X2816000D03*
X2943000D03*
X3070000Y3310000D03*
Y3850000D03*
X5160000Y3310000D03*
X5033000D03*
X4906000D03*
X4779000D03*
Y3850000D03*
X4906000D03*
X5033000D03*
X5160000D03*
X5690000Y150000D03*
Y690000D03*
Y1000000D03*
Y1540000D03*
Y1800000D03*
Y2340000D03*
X6071000Y150000D03*
X5944000D03*
X5817000D03*
Y690000D03*
X5944000D03*
X6071000D03*
Y1000000D03*
X5944000D03*
X5817000D03*
Y1540000D03*
X5944000D03*
X6071000D03*
Y1800000D03*
X5944000D03*
X5817000D03*
Y2340000D03*
X5944000D03*
X6071000D03*
G54D37*
X4940000Y2240000D03*
G54D28*
X3235000Y360000D03*
X3425000D03*
X3235000Y600000D03*
X3425000D03*
G54D19*
X1810000Y2410000D03*
X1760000D03*
Y2870000D03*
X1810000D03*
X2360000Y2410000D03*
X1960000D03*
X1910000D03*
X1860000D03*
X2360000Y2870000D03*
X1860000D03*
X1910000D03*
X1960000D03*
X2560000Y2410000D03*
X2510000D03*
X2460000D03*
X2410000D03*
Y2870000D03*
X2460000D03*
X2510000D03*
X2560000D03*
G54D29*
X3420000Y1370000D03*
Y1900000D03*
M02*
