G04 ================== begin FILE IDENTIFICATION RECORD ==================*
G04 Layout Name:  HY_UART_DBUG_V20_230103.brd*
G04 Film Name:    SilkScreen_Bottom*
G04 File Format:  Gerber RS274X*
G04 File Origin:  Cadence Allegro 17.2-S079*
G04 Origin Date:  Tue Jan 31 14:16:27 2023*
G04 *
G04 Layer:  PACKAGE GEOMETRY/SILKSCREEN_BOTTOM*
G04 Layer:  BOARD GEOMETRY/SILKSCREEN_BOTTOM*
G04 *
G04 Offset:    (0.0000 0.0000)*
G04 Mirror:    No*
G04 Mode:      Positive*
G04 Rotation:  0*
G04 FullContactRelief:  No*
G04 UndefLineWidth:     0.1524*
G04 ================== end FILE IDENTIFICATION RECORD ====================*
%FSLAX55Y55*MOMM*%
%IR0*IPPOS*OFA0.00000B0.00000*MIA0B0*SFA1.00000B1.00000*%
%ADD10C,.2*%
%ADD11C,.1524*%
G75*
%LPD*%
G75*
G54D10*
G01X2540000Y5370000D02*
X3020000D01*
Y5520000D01*
X3180000D01*
Y5370000D01*
X3460000D01*
G01X2920000Y5070000D02*
X3080000D01*
G01X2540000D02*
X2630000D01*
G01X2500000Y5170000D02*
Y5270000D01*
G01X3370000Y5070000D02*
X3460000D01*
G01X3500000Y5170000D02*
Y5270000D01*
G01X4370000Y5370000D02*
X4850000D01*
Y5520000D01*
X5010000D01*
Y5370000D01*
X5290000D01*
G01X4370000Y5070000D02*
X4460000D01*
G01X4330000Y5170000D02*
Y5270000D01*
G01X4750000Y5070000D02*
X4910000D01*
G01X5330000Y5170000D02*
Y5270000D01*
G01X5200000Y5070000D02*
X5290000D01*
G54D11*
G01X2280000Y5300000D02*
X2370000D01*
G01X2280000Y5323000D02*
Y5277000D01*
G01Y5230000D02*
X2370000D01*
G01X2280000Y5253000D02*
Y5207000D01*
G01Y5180000D02*
X2370000D01*
Y5140000D01*
G01X3710000Y5288000D02*
X3620000D01*
X3684500Y5325000D01*
Y5275000D01*
G01X3635000Y5249000D02*
X3626000Y5243000D01*
X3621500Y5236000D01*
X3620000Y5228000D01*
X3623000Y5218000D01*
X3630500Y5211000D01*
X3639500Y5209000D01*
X3648500Y5210000D01*
X3656000Y5214000D01*
X3671000Y5234000D01*
X3681500Y5243000D01*
X3696500Y5249000D01*
X3710000Y5251000D01*
Y5209000D01*
G01X3635000Y5179000D02*
X3626000Y5173000D01*
X3621500Y5166000D01*
X3620000Y5158000D01*
X3623000Y5148000D01*
X3630500Y5141000D01*
X3639500Y5139000D01*
X3648500Y5140000D01*
X3656000Y5144000D01*
X3671000Y5164000D01*
X3681500Y5173000D01*
X3696500Y5179000D01*
X3710000Y5181000D01*
Y5139000D01*
G01X4200000Y5298000D02*
X4110000D01*
X4174500Y5335000D01*
Y5285000D01*
G01X4200000Y5240000D02*
X4198500Y5233000D01*
X4194000Y5225000D01*
X4186500Y5220000D01*
X4176000Y5218000D01*
X4165500Y5220000D01*
X4156500Y5226000D01*
X4152000Y5235000D01*
Y5245000D01*
X4149000Y5251000D01*
X4141500Y5256000D01*
X4131000Y5258000D01*
X4120500Y5255000D01*
X4113000Y5248000D01*
X4110000Y5240000D01*
X4113000Y5232000D01*
X4120500Y5225000D01*
X4131000Y5222000D01*
X4141500Y5224000D01*
X4149000Y5229000D01*
X4152000Y5235000D01*
Y5245000D01*
X4156500Y5254000D01*
X4165500Y5260000D01*
X4176000Y5262000D01*
X4186500Y5260000D01*
X4194000Y5255000D01*
X4198500Y5247000D01*
X4200000Y5240000D01*
G01X4186500Y5192000D02*
X4194000Y5186000D01*
X4198500Y5179000D01*
X4200000Y5170000D01*
X4197000Y5161000D01*
X4191000Y5154000D01*
X4180500Y5149000D01*
X4168500Y5148000D01*
X4156500Y5150000D01*
X4149000Y5155000D01*
X4143000Y5162000D01*
X4141500Y5169000D01*
X4143000Y5176000D01*
X4149000Y5185000D01*
X4110000Y5182000D01*
Y5155000D01*
G01X5450000Y5310000D02*
X5540000D01*
G01X5450000Y5333000D02*
Y5287000D01*
G01Y5240000D02*
X5540000D01*
G01X5450000Y5263000D02*
Y5217000D01*
G01Y5190000D02*
X5540000D01*
Y5150000D01*
M02*
