G04 ================== begin FILE IDENTIFICATION RECORD ==================*
G04 Layout Name:  HY_UART_DBUG_V20_230103.brd*
G04 Film Name:    SilkScreen_Top*
G04 File Format:  Gerber RS274X*
G04 File Origin:  Cadence Allegro 17.2-S079*
G04 Origin Date:  Tue Jan 31 14:21:40 2023*
G04 *
G04 Layer:  PACKAGE GEOMETRY/SILKSCREEN_TOP*
G04 Layer:  BOARD GEOMETRY/SILKSCREEN_TOP*
G04 *
G04 Offset:    (0.0000 0.0000)*
G04 Mirror:    No*
G04 Mode:      Positive*
G04 Rotation:  0*
G04 FullContactRelief:  No*
G04 UndefLineWidth:     0.1524*
G04 ================== end FILE IDENTIFICATION RECORD ====================*
%FSLAX55Y55*MOMM*%
%IR0*IPPOS*OFA0.00000B0.00000*MIA0B0*SFA1.00000B1.00000*%
%ADD10C,.2*%
%ADD11C,.18*%
%ADD12C,.127*%
%ADD13C,.1524*%
G75*
%LPD*%
G75*
G36*
G01X260000Y4350000D02*
Y4430000D01*
X220000Y4390000D01*
X260000Y4350000D01*
G37*
G36*
G01X1790000Y2310000D02*
G03I-30000J0D01*
G37*
G36*
G01X1645000Y2950000D02*
G03I-30000J0D01*
G37*
G36*
G01X1621600Y4887800D02*
G03I-25400J0D01*
G37*
G36*
G01X1670000Y5220000D02*
X1590000D01*
X1630000Y5180000D01*
X1670000Y5220000D01*
G37*
G36*
G01X1810000D02*
X1730000D01*
X1770000Y5180000D01*
X1810000Y5220000D01*
G37*
G36*
G01X2120000Y230000D02*
X2070000Y180000D01*
X2170000D01*
X2120000Y230000D01*
G37*
G36*
G01X1971600Y1237800D02*
G03I-25400J0D01*
G37*
G36*
G01X2390000Y2310000D02*
G03I-30000J0D01*
G37*
G36*
G01X2090000Y4540000D02*
X2040000Y4490000D01*
X2140000D01*
X2090000Y4540000D01*
G37*
G36*
G01X2585000Y1255000D02*
G03I-30000J0D01*
G37*
G36*
G01X3150000Y610000D02*
G03I-30000J0D01*
G37*
G36*
G01X3403000Y2318700D02*
G03I-38100J0D01*
G37*
G36*
G01X3500000Y3290000D02*
G03I-30000J0D01*
G37*
G36*
G01X3100000Y3970000D02*
G03I-30000J0D01*
G37*
G36*
G01X4039200Y1922200D02*
G03I-25400J0D01*
G37*
G36*
G01Y2412200D02*
G03I-25400J0D01*
G37*
G36*
G01X4000000Y3290000D02*
G03I-30000J0D01*
G37*
G36*
G01X4375000Y340000D02*
G03I-30000J0D01*
G37*
G36*
G01X4520000Y3290000D02*
G03I-30000J0D01*
G37*
G36*
G01X4150000Y4390000D02*
Y4180000D01*
X4210000D01*
Y4390000D01*
Y5380000D01*
X4150000D01*
Y4390000D01*
G37*
G36*
G01X4670000Y4350000D02*
G03I-30000J0D01*
G37*
G36*
G01X4845000Y1955000D02*
G03I-30000J0D01*
G37*
G36*
G01X5190000Y3970000D02*
G03I-30000J0D01*
G37*
G36*
G01X5010000Y4540000D02*
X4960000Y4490000D01*
X5060000D01*
X5010000Y4540000D01*
G37*
G36*
G01X5720000Y30000D02*
G03I-30000J0D01*
G37*
G36*
G01Y880000D02*
G03I-30000J0D01*
G37*
G36*
G01Y1680000D02*
G03I-30000J0D01*
G37*
G36*
G01X5639200Y3742200D02*
G03I-25400J0D01*
G37*
G36*
G01X6150000Y5210000D02*
X6070000D01*
X6110000Y5170000D01*
X6150000Y5210000D01*
G37*
G36*
G01X6290000D02*
X6210000D01*
X6250000Y5170000D01*
X6290000Y5210000D01*
G37*
G36*
G01X6401600Y987800D02*
G03I-25400J0D01*
G37*
G36*
G01Y1497800D02*
G03I-25400J0D01*
G37*
G36*
G01X8240000Y2270000D02*
Y2190000D01*
X8280000Y2230000D01*
X8240000Y2270000D01*
G37*
G36*
G01Y2410000D02*
Y2330000D01*
X8280000Y2370000D01*
X8240000Y2410000D01*
G37*
G36*
G01Y2550000D02*
Y2470000D01*
X8280000Y2510000D01*
X8240000Y2550000D01*
G37*
G36*
G01Y2690000D02*
Y2610000D01*
X8280000Y2650000D01*
X8240000Y2690000D01*
G37*
G36*
G01Y2980000D02*
Y2900000D01*
X8280000Y2940000D01*
X8240000Y2980000D01*
G37*
G54D10*
G01X840000Y1940000D02*
X0D01*
Y740000D01*
X840000D01*
G01X110000Y3024000D02*
X0D01*
Y2124000D01*
X110000D01*
G01X870000Y3226000D02*
X0D01*
Y4126000D01*
X1420000D01*
Y3886000D01*
G01X100000Y4330000D02*
X70000D01*
Y4450000D01*
X100000D01*
G01X380000Y4330000D02*
Y4450000D01*
X100000D01*
Y4330000D01*
X380000D01*
G01X310000Y2124000D02*
X500000D01*
G01Y3024000D02*
X310000D01*
G01X410000Y4440000D02*
X590000D01*
Y4340000D01*
X410000D01*
Y4440000D01*
G01X1220000Y1940000D02*
X1600000D01*
Y740000D01*
X1220000D01*
G01X1040000Y2450000D02*
X1220000D01*
Y2350000D01*
X1040000D01*
Y2450000D01*
G01X750000Y2124000D02*
Y2194000D01*
G01X1220000Y2650000D02*
X1040000D01*
Y2750000D01*
X1220000D01*
Y2650000D01*
G01X1040000Y3010000D02*
X1220000D01*
Y2910000D01*
X1040000D01*
Y3010000D01*
G01Y2880000D02*
X1220000D01*
Y2780000D01*
X1040000D01*
Y2880000D01*
G01X750000Y3024000D02*
Y2954000D01*
G01X1390000Y120000D02*
Y600000D01*
X1610000D01*
Y120000D01*
X1390000D01*
G01X1720000Y1470000D02*
G03X1880000I80000J147500D01*
G01X1720000D02*
Y1810000D01*
G01X1994300Y1085400D02*
Y1110800D01*
X1765700D01*
Y1009200D01*
X1994300D01*
Y1034600D01*
G01X1750000Y1850000D02*
X1720000D01*
Y2130000D01*
X1750000D01*
G01X2330000Y1850000D02*
X1750000D01*
Y2130000D01*
X2330000D01*
Y1850000D01*
G01X1880000Y1810000D02*
G03X1720000I-80000J-147500D01*
G01X1670000Y2520000D02*
Y2360000D01*
G01X1570000D02*
Y2520000D01*
G01X1670000D02*
G03X1570000I-50000J-50000D01*
G01Y2360000D02*
G03X1670000I50000J50000D01*
G01X1710000Y2680000D02*
G02Y2600000I0J-40000D01*
G01D02*
Y2490000D01*
X2010000D01*
Y2790000D01*
X1710000D01*
Y2680000D01*
G01X1420000Y2640000D02*
G03X1540000I60000J77500D01*
G01X1660000Y2890000D02*
Y2730000D01*
G01X1560000D02*
Y2890000D01*
G01X1660000D02*
G03X1560000I-50000J-50000D01*
G01Y2730000D02*
G03X1660000I50000J50000D01*
G01X1540000Y2900000D02*
G03X1420000I-60000J-77500D01*
G01X1540000Y2640000D02*
Y2900000D01*
G01X1420000D02*
Y2640000D01*
G01X1530000Y3650000D02*
G02Y3510000I0J-70000D01*
G01Y3650000D02*
Y3930000D01*
X2580000D01*
Y3220000D01*
X1530000D01*
Y3510000D01*
G01X1420000Y3466000D02*
Y3226000D01*
X1310000D01*
G01X1560000Y4220000D02*
Y4380000D01*
G01X1660000D02*
Y4220000D01*
G01X1560000D02*
G03X1660000I50000J50000D01*
G01X1420000D02*
G03X1540000I60000J77500D01*
G01X1420000Y4480000D02*
Y4220000D01*
G01X1540000D02*
Y4480000D01*
G01X4180000Y4370000D02*
Y4180000D01*
X1960000D01*
Y4880000D01*
X1450000D01*
Y5390000D01*
G01X1690000Y4350000D02*
Y4830000D01*
X1910000D01*
Y4350000D01*
X1690000D01*
G01X1660000Y4380000D02*
G03X1560000I-50000J-50000D01*
G01X1644300Y4684600D02*
G02Y4735400I0J25400D01*
G01D02*
Y4760800D01*
X1415700D01*
Y4659200D01*
X1644300D01*
Y4684600D01*
G01X1540000Y4480000D02*
G03X1420000I-60000J-77500D01*
G01X1460000Y4900000D02*
X1510000Y4950000D01*
X1560000Y4900000D01*
G01Y4960000D02*
X1510000Y5010000D01*
X1460000Y4960000D01*
G01X1690000Y5060000D02*
Y5030000D01*
X1570000D01*
Y5060000D01*
G01X1690000Y5340000D02*
X1570000D01*
Y5060000D01*
X1690000D01*
Y5340000D01*
G01X1830000Y5060000D02*
Y5030000D01*
X1710000D01*
Y5060000D01*
G01X1830000Y5340000D02*
X1710000D01*
Y5060000D01*
X1830000D01*
Y5340000D01*
G01X1550000Y5240000D02*
Y5060000D01*
X1450000D01*
Y5240000D01*
X1550000D01*
G01X1987000Y490000D02*
Y230000D01*
X3017000D01*
Y490000D01*
X1987000D01*
G01X2200000Y1240000D02*
Y1420000D01*
X2300000D01*
Y1240000D01*
X2200000D01*
G01X2140000Y1470000D02*
G03X2300000I80000J147500D01*
G01X2140000D02*
Y1810000D01*
G01X2300000D02*
Y1470000D01*
G01X1930000D02*
G03X2090000I80000J147500D01*
G01X1930000D02*
Y1810000D01*
G01X2090000D02*
Y1470000D01*
G01X1880000Y1810000D02*
Y1470000D01*
G01X1994300Y1034600D02*
G02Y1085400I0J25400D01*
G01X2300000Y1810000D02*
G03X2140000I-80000J-147500D01*
G01X2090000D02*
G03X1930000I-80000J-147500D01*
G01X2340000Y1800000D02*
G03Y1680000I77500J-60000D01*
G01X2600000Y1800000D02*
X2340000D01*
G01Y1680000D02*
X2600000D01*
G01X2270000Y2520000D02*
Y2360000D01*
G01X2170000D02*
Y2520000D01*
G01X2270000D02*
G03X2170000I-50000J-50000D01*
G01Y2360000D02*
G03X2270000I50000J50000D01*
G01X2050000Y2350000D02*
Y2530000D01*
X2150000D01*
Y2350000D01*
X2050000D01*
G01X2310000Y2680000D02*
G02Y2600000I0J-40000D01*
G01D02*
Y2490000D01*
X2610000D01*
Y2790000D01*
X2310000D01*
Y2680000D01*
G01X2050000Y4800000D02*
Y5370000D01*
X2080000Y5400000D01*
X2100000D01*
X2130000Y5370000D01*
Y4800000D01*
G01X2304000D02*
Y5370000D01*
X2334000Y5400000D01*
X2354000D01*
X2384000Y5370000D01*
Y4800000D01*
G01X1957000D02*
Y4540000D01*
X2987000D01*
Y4800000D01*
X1957000D01*
G01X1950000Y5010000D02*
X1900000Y4960000D01*
X1850000Y5010000D01*
G01X1950000Y4950000D02*
X1900000Y4900000D01*
X1850000Y4950000D01*
G01X1950000Y5240000D02*
Y5060000D01*
X1850000D01*
Y5240000D01*
X1950000D01*
G01X2640000Y1050000D02*
Y1210000D01*
G01X2740000D02*
Y1050000D01*
G01X2640000D02*
G03X2740000I50000J50000D01*
G01Y1210000D02*
G03X2640000I-50000J-50000D01*
G01X2620000Y1220000D02*
Y1040000D01*
X2520000D01*
Y1220000D01*
X2620000D01*
G01X2740000Y1320000D02*
X2790000D01*
Y1350000D01*
G01X2470000D02*
Y1320000D01*
X2520000D01*
G01X2860000Y1910000D02*
Y1840000D01*
X2400000D01*
Y1910000D01*
G01X2540000Y1600000D02*
X2470000D01*
Y1570000D01*
G01X2790000D02*
Y1600000D01*
X2720000D01*
G01X2600000Y1680000D02*
G03Y1800000I-77500J60000D01*
G01X2660000D02*
G03Y1680000I77500J-60000D01*
G01X2920000D02*
G03Y1800000I-77500J60000D01*
G01X2660000Y1680000D02*
X2920000D01*
G01Y1800000D02*
X2660000D01*
G01X2400000Y2210000D02*
Y2280000D01*
X2860000D01*
Y2210000D01*
G01X2650000Y2350000D02*
Y2530000D01*
X2750000D01*
Y2350000D01*
X2650000D01*
G01X2740000Y3060000D02*
Y2880000D01*
X2640000D01*
Y3060000D01*
X2740000D01*
G01X2840000Y3080000D02*
X2660000D01*
Y3180000D01*
X2840000D01*
Y3080000D01*
G01X2920000Y3180000D02*
X3100000D01*
Y3080000D01*
X2920000D01*
Y3180000D01*
G01X2760000Y2880000D02*
Y3060000D01*
X2860000D01*
Y2880000D01*
X2760000D01*
G01X2900000D02*
Y3060000D01*
X3000000D01*
Y2880000D01*
X2900000D01*
G01X2630000Y3740000D02*
X3130000D01*
Y3620000D01*
G01Y3540000D02*
Y3420000D01*
X2630000D01*
Y3740000D01*
G01X2740000Y4160000D02*
Y3980000D01*
X2640000D01*
Y4160000D01*
X2740000D01*
G01X2558000Y4800000D02*
Y5370000D01*
X2588000Y5400000D01*
X2608000D01*
X2638000Y5370000D01*
Y4800000D01*
G01X2812000D02*
Y5370000D01*
X2842000Y5400000D01*
X2862000D01*
X2892000Y5370000D01*
Y4800000D01*
G01X3510000Y690000D02*
X3150000D01*
Y270000D01*
X3510000D01*
Y690000D01*
G01X3483500Y1370000D02*
G03I-63500J0D01*
G01X3060000Y1420000D02*
Y1240000D01*
X2960000D01*
Y1420000D01*
X3060000D01*
G01X3080000Y1240000D02*
Y1420000D01*
X3180000D01*
Y1240000D01*
X3080000D01*
G01X2960000Y1470000D02*
G03X3120000I80000J147500D01*
G01X2960000D02*
Y1810000D01*
G01X3120000D02*
Y1470000D01*
G01X3340000D02*
G03X3500000I80000J147500D01*
G01X3340000D02*
Y1810000D01*
G01X3150000Y1470000D02*
G03X3310000I80000J147500D01*
G01X3150000D02*
Y1810000D01*
G01X3310000D02*
Y1470000D01*
G01X3483500Y1900000D02*
G03I-63500J0D01*
G01X3120000Y1810000D02*
G03X2960000I-80000J-147500D01*
G01X3500000D02*
G03X3340000I-80000J-147500D01*
G01X3310000D02*
G03X3150000I-80000J-147500D01*
G01X3060000Y1980000D02*
G03X3180000I60000J77500D01*
G01X3060000Y2240000D02*
Y1980000D01*
G01X3180000D02*
Y2240000D01*
G01X3210000Y1980000D02*
G03X3330000I60000J77500D01*
G01X3210000Y2240000D02*
Y1980000D01*
G01X3330000D02*
Y2240000D01*
G01X3360000Y1980000D02*
G03X3480000I60000J77500D01*
G01X3360000Y2240000D02*
Y1980000D01*
G01X3480000D02*
Y2240000D01*
G01X3307600Y2585400D02*
G02Y2534600I0J-25400D01*
G01X3320300Y2610800D02*
X3307600D01*
Y2585400D01*
G01X3320300Y2610800D02*
X3612400D01*
Y2509200D01*
X3307600D01*
Y2534600D01*
G01X3160000Y2350000D02*
Y2530000D01*
X3260000D01*
Y2350000D01*
X3160000D01*
G01Y2570000D02*
Y2750000D01*
X3260000D01*
Y2570000D01*
X3160000D01*
G01X3180000Y2240000D02*
G03X3060000I-60000J-77500D01*
G01X3330000D02*
G03X3210000I-60000J-77500D01*
G01X3480000D02*
G03X3360000I-60000J-77500D01*
G01X3120000Y3060000D02*
Y2880000D01*
X3020000D01*
Y3060000D01*
X3120000D01*
G01X3320000Y3220000D02*
Y2900000D01*
G01X3370000Y3390000D02*
X3260000D01*
Y3550000D01*
G01X3470000D02*
X3370000D01*
G01X3470000Y3390000D02*
X3580000D01*
Y3550000D01*
G01X3180000Y3680000D02*
Y4160000D01*
X3400000D01*
Y3680000D01*
X3180000D01*
G01X3430000D02*
Y4160000D01*
X3650000D01*
Y3680000D01*
X3430000D01*
G01X3130000Y3620000D02*
G03Y3540000I4108J-40000D01*
G01X3300000Y4280000D02*
Y4200000D01*
G01X3260000Y4240000D02*
X3340000D01*
G01X3120000Y4150000D02*
Y3990000D01*
G01X3020000D02*
Y4150000D01*
G01X3120000D02*
G03X3020000I-50000J-50000D01*
G01Y3990000D02*
G03X3120000I50000J50000D01*
G01X4780000Y4390000D02*
X3070000D01*
Y5400000D01*
X4780000D01*
Y4390000D01*
G01X3820000Y370000D02*
X3980000D01*
G01Y270000D02*
X3820000D01*
G01Y370000D02*
G03Y270000I50000J-50000D01*
G01X3980000D02*
G03Y370000I-50000J50000D01*
G01X3720000Y270000D02*
X3560000D01*
G01Y370000D02*
X3720000D01*
G01Y270000D02*
G03Y370000I-50000J50000D01*
G01X3560000D02*
G03Y270000I50000J-50000D01*
G01X3980000Y860000D02*
X3820000D01*
G01Y960000D02*
G03Y860000I50000J-50000D01*
G01X3980000D02*
G03Y960000I-50000J50000D01*
G01X3820000Y610000D02*
X3980000D01*
G01Y510000D02*
X3820000D01*
G01Y610000D02*
G03Y510000I50000J-50000D01*
G01X3980000D02*
G03Y610000I-50000J50000D01*
G01X3720000Y590000D02*
X3560000D01*
G01Y690000D02*
X3720000D01*
G01Y590000D02*
G03Y690000I-50000J50000D01*
G01X3560000D02*
G03Y590000I50000J-50000D01*
G01X3990000Y390000D02*
X3810000D01*
Y490000D01*
X3990000D01*
Y390000D01*
G01X3550000D02*
Y570000D01*
X3650000D01*
Y390000D01*
X3550000D01*
G01X3820000Y960000D02*
X3980000D01*
G01X3820000Y1250000D02*
X3980000D01*
G01Y1150000D02*
X3820000D01*
G01Y1250000D02*
G03Y1150000I50000J-50000D01*
G01X3980000D02*
G03Y1250000I-50000J50000D01*
G01X3820000Y1390000D02*
X3980000D01*
G01Y1290000D02*
X3820000D01*
G01Y1390000D02*
G03Y1290000I50000J-50000D01*
G01X3980000D02*
G03Y1390000I-50000J50000D01*
G01X3820000Y1080000D02*
X3980000D01*
G01Y980000D02*
X3820000D01*
G01Y1080000D02*
G03Y980000I50000J-50000D01*
G01X3980000D02*
G03Y1080000I-50000J50000D01*
G01X3560000Y1320000D02*
X3740000D01*
Y1220000D01*
X3560000D01*
Y1320000D01*
G01X3500000Y1810000D02*
Y1470000D01*
G01X3980000Y1750000D02*
Y1410000D01*
X3820000D01*
Y1750000D01*
X3980000D01*
G01X3510000Y2300000D02*
Y1980000D01*
G01X3830000Y2300000D02*
Y1980000D01*
G01X3965700Y2084600D02*
Y2059200D01*
X4194300D01*
Y2160800D01*
X3965700D01*
Y2135400D01*
G01X3950000Y1580000D02*
X3850000D01*
G01X3620000Y2140000D02*
G03X3570000I-25000J0D01*
G01X3510000D01*
G01X3670000D02*
G03X3620000I-25000J0D01*
G01X3720000D02*
G03X3670000I-25000J0D01*
G01X3720000D02*
G02X3770000I25000J0D01*
G01X3820000D01*
G01X3965700Y2625400D02*
G02Y2574600I0J-25400D01*
G01D02*
Y2549200D01*
X4194300D01*
Y2650800D01*
X3965700D01*
Y2625400D01*
G01Y2135400D02*
G02Y2084600I0J-25400D01*
G01X3700000Y2430000D02*
G03X3820000I60000J77500D01*
G01D02*
Y2690000D01*
G01X3700000D02*
Y2430000D01*
G01X3820000Y3220000D02*
Y2900000D01*
G01X4020000Y3220000D02*
Y2900000D01*
G01X3520000Y3220000D02*
Y2900000D01*
G01X3820000Y2690000D02*
G03X3700000I-60000J-77500D01*
G01X3870000Y3390000D02*
X3760000D01*
Y3550000D01*
G01X3970000D02*
X3870000D01*
G01X3970000Y3390000D02*
X4080000D01*
Y3550000D01*
G01X3940000Y3680000D02*
Y4160000D01*
X4160000D01*
Y3680000D01*
X3940000D01*
G01X3690000D02*
Y4160000D01*
X3910000D01*
Y3680000D01*
X3690000D01*
G01X3550000Y4280000D02*
Y4200000D01*
G01X3810000Y4280000D02*
Y4200000D01*
G01X4020000Y4240000D02*
X4100000D01*
G01X4430000Y60000D02*
Y220000D01*
G01X4530000D02*
Y60000D01*
G01X4430000D02*
G03X4530000I50000J50000D01*
G01Y220000D02*
G03X4430000I-50000J-50000D01*
G01X4260000Y460000D02*
Y410000D01*
X4310000D01*
G01X4390000Y1600000D02*
Y1440000D01*
G01X4290000D02*
Y1600000D01*
G01Y1440000D02*
G03X4390000I50000J50000D01*
G01X4510000Y1600000D02*
Y1440000D01*
G01X4410000D02*
Y1600000D01*
G01Y1440000D02*
G03X4510000I50000J50000D01*
G01X4700000Y1610000D02*
Y1430000D01*
X4600000D01*
Y1610000D01*
X4700000D01*
G01X4310000Y1330000D02*
X4260000D01*
Y1280000D01*
G01X4270000Y1750000D02*
Y1410000D01*
X4110000D01*
Y1750000D01*
X4270000D01*
G01X4390000Y1600000D02*
G03X4290000I-50000J-50000D01*
G01X4510000D02*
G03X4410000I-50000J-50000D01*
G01X4240000Y1580000D02*
X4140000D01*
G01X4340000Y3220000D02*
Y2900000D01*
G01X4540000Y3220000D02*
Y2900000D01*
G01X4390000Y3390000D02*
X4280000D01*
Y3550000D01*
G01X4490000D02*
X4390000D01*
G01X4490000Y3390000D02*
X4600000D01*
Y3550000D01*
G01X4450000Y3680000D02*
Y4160000D01*
X4670000D01*
Y3680000D01*
X4450000D01*
G01X4200000D02*
Y4160000D01*
X4420000D01*
Y3680000D01*
X4200000D01*
G01X4180000Y4180000D02*
X5910000D01*
Y4800000D01*
X6430000D01*
Y5390000D01*
G01X4060000Y4280000D02*
Y4200000D01*
G01X4790000Y60000D02*
Y220000D01*
G01X4890000D02*
Y60000D01*
G01X4790000D02*
G03X4890000I50000J50000D01*
G01Y220000D02*
G03X4790000I-50000J-50000D01*
G01X5010000Y230000D02*
Y50000D01*
X4910000D01*
Y230000D01*
X5010000D01*
G01X5130000D02*
Y50000D01*
X5030000D01*
Y230000D01*
X5130000D01*
G01Y410000D02*
X5180000D01*
Y460000D01*
G01X4820000Y1600000D02*
Y1440000D01*
G01X4720000D02*
Y1600000D01*
G01Y1440000D02*
G03X4820000I50000J50000D01*
G01X4940000Y1600000D02*
Y1440000D01*
G01X4840000D02*
Y1600000D01*
G01Y1440000D02*
G03X4940000I50000J50000D01*
G01X4960000D02*
G03X5080000I60000J77500D01*
G01D02*
Y1700000D01*
G01X4960000D02*
Y1440000D01*
G01X5180000Y1280000D02*
Y1330000D01*
X5130000D01*
G01X4820000Y1600000D02*
G03X4720000I-50000J-50000D01*
G01X4970000Y1760000D02*
Y1920000D01*
G01X5070000D02*
Y1760000D01*
G01X4970000D02*
G03X5070000I50000J50000D01*
G01Y1920000D02*
G03X4970000I-50000J-50000D01*
G01X4940000Y1600000D02*
G03X4840000I-50000J-50000D01*
G01X5100000Y2030000D02*
X5150000D01*
Y2080000D01*
G01X4730000D02*
Y2030000D01*
X4780000D01*
G01X5230000Y1930000D02*
G03X5110000I-60000J-77500D01*
G01Y1670000D02*
G03X5230000I60000J77500D01*
G01X5110000Y1930000D02*
Y1670000D01*
G01X5080000Y1700000D02*
G03X4960000I-60000J-77500D01*
G01X5150000Y2400000D02*
Y2450000D01*
X5100000D01*
G01X4780000D02*
X4730000D01*
Y2400000D01*
G01X4850000Y2570000D02*
G03X4970000I60000J77500D01*
G01X4850000Y2830000D02*
Y2570000D01*
G01X4970000D02*
Y2830000D01*
G01X4980000Y2880000D02*
Y3060000D01*
X5080000D01*
Y2880000D01*
X4980000D01*
G01X4960000Y3060000D02*
Y2880000D01*
X4860000D01*
Y3060000D01*
X4960000D01*
G01X5060000Y3080000D02*
X4880000D01*
Y3180000D01*
X5060000D01*
Y3080000D01*
G01X4970000Y2830000D02*
G03X4850000I-60000J-77500D01*
G01X4720000Y3740000D02*
X5220000D01*
Y3620000D01*
G01Y3540000D02*
Y3420000D01*
X4720000D01*
Y3740000D01*
G01X5220000Y3620000D02*
G03Y3540000I4108J-40000D01*
G01X5080000Y4160000D02*
Y3980000D01*
X4980000D01*
Y4160000D01*
X5080000D01*
G01X4970000Y4800000D02*
Y5370000D01*
X5000000Y5400000D01*
X5020000D01*
X5050000Y5370000D01*
Y4800000D01*
G01X4877000D02*
Y4540000D01*
X5907000D01*
Y4800000D01*
X4877000D01*
G01X5200000Y60000D02*
Y220000D01*
G01X5300000D02*
Y60000D01*
G01X5200000D02*
G03X5300000I50000J50000D01*
G01Y220000D02*
G03X5200000I-50000J-50000D01*
G01X6130000Y260000D02*
X5630000D01*
Y380000D01*
G01D02*
G03Y460000I-4108J40000D01*
G01X5590000Y760000D02*
X5430000D01*
G01Y860000D02*
X5590000D01*
G01Y760000D02*
G03Y860000I-50000J50000D01*
G01X5430000D02*
G03Y760000I50000J-50000D01*
G01X5590000Y500000D02*
X5430000D01*
G01Y600000D02*
X5590000D01*
G01Y500000D02*
G03Y600000I-50000J50000D01*
G01X5430000D02*
G03Y500000I50000J-50000D01*
G01X5630000Y460000D02*
Y580000D01*
X6130000D01*
Y260000D01*
G01X5310000Y1600000D02*
Y1440000D01*
G01X5210000D02*
Y1600000D01*
G01Y1440000D02*
G03X5310000I50000J50000D01*
G01X5590000Y1150000D02*
X5430000D01*
G01Y1250000D02*
X5590000D01*
G01Y1150000D02*
G03Y1250000I-50000J50000D01*
G01X5430000D02*
G03Y1150000I50000J-50000D01*
G01X6130000Y1110000D02*
X5630000D01*
Y1230000D01*
G01Y1310000D02*
Y1430000D01*
X6130000D01*
Y1110000D01*
G01X5630000Y1230000D02*
G03Y1310000I-4108J40000D01*
G01X5310000Y1600000D02*
G03X5210000I-50000J-50000D01*
G01X5590000Y2060000D02*
X5430000D01*
G01X5590000D02*
G03Y2160000I-50000J50000D01*
G01X5430000D02*
G03Y2060000I50000J-50000D01*
G01X5590000Y1520000D02*
X5430000D01*
G01Y1620000D02*
X5590000D01*
G01Y1520000D02*
G03Y1620000I-50000J50000D01*
G01X5430000D02*
G03Y1520000I50000J-50000D01*
G01X5530000Y1930000D02*
G03X5410000I-60000J-77500D01*
G01Y1670000D02*
G03X5530000I60000J77500D01*
G01X5410000Y1930000D02*
Y1670000D01*
G01X5530000D02*
Y1930000D01*
G01X5380000D02*
G03X5260000I-60000J-77500D01*
G01Y1670000D02*
G03X5380000I60000J77500D01*
G01X5260000Y1930000D02*
Y1670000D01*
G01X5380000D02*
Y1930000D01*
G01X5230000Y1670000D02*
Y1930000D01*
G01X6130000Y1910000D02*
X5630000D01*
Y2030000D01*
G01D02*
G03Y2110000I-4108J40000D01*
G01X5590000Y2430000D02*
X5430000D01*
G01Y2530000D02*
X5590000D01*
G01Y2430000D02*
G03Y2530000I-50000J50000D01*
G01X5430000D02*
G03Y2430000I50000J-50000D01*
G01Y2160000D02*
X5590000D01*
G01X5600000Y2240000D02*
X5420000D01*
Y2340000D01*
X5600000D01*
Y2240000D01*
G01X5630000Y2110000D02*
Y2230000D01*
X6130000D01*
Y1910000D01*
G01X5280000Y3680000D02*
Y4160000D01*
X5500000D01*
Y3680000D01*
X5280000D01*
G01X5390000Y3410000D02*
Y3250000D01*
G01X5290000D02*
Y3410000D01*
G01X5390000D02*
G03X5290000I-50000J-50000D01*
G01Y3250000D02*
G03X5390000I50000J50000D01*
G01X5565700Y3945400D02*
G02Y3894600I0J-25400D01*
G01D02*
Y3869200D01*
X5794300D01*
Y3970800D01*
X5565700D01*
Y3945400D01*
G01X5224000Y4800000D02*
Y5370000D01*
X5254000Y5400000D01*
X5274000D01*
X5304000Y5370000D01*
Y4800000D01*
G01X5478000D02*
Y5370000D01*
X5508000Y5400000D01*
X5528000D01*
X5558000Y5370000D01*
Y4800000D01*
G01X5732000D02*
Y5370000D01*
X5762000Y5400000D01*
X5782000D01*
X5812000Y5370000D01*
Y4800000D01*
G01X6800000Y330000D02*
G03I-320000J0D01*
G01X6424300Y835400D02*
Y860800D01*
X6195700D01*
Y759200D01*
X6424300D01*
Y784600D01*
G01Y1345400D02*
Y1370800D01*
X6195700D01*
Y1269200D01*
X6424300D01*
Y1294600D01*
G01X6210000Y2090000D02*
Y1540000D01*
X6610000D01*
Y2090000D01*
X6210000D01*
G01X6300000Y3160000D02*
X6120000D01*
Y3260000D01*
X6300000D01*
Y3160000D01*
G01Y2980000D02*
X6120000D01*
Y3080000D01*
X6300000D01*
Y2980000D01*
G01X6290000Y3730000D02*
X6130000D01*
G01X6290000D02*
G03Y3830000I-50000J50000D01*
G01X6130000D02*
G03Y3730000I50000J-50000D01*
G01X6300000Y3460000D02*
X6120000D01*
Y3560000D01*
X6300000D01*
Y3460000D01*
G01Y3280000D02*
X6120000D01*
Y3380000D01*
X6300000D01*
Y3280000D01*
G01X6130000Y3830000D02*
X6290000D01*
G01X6120000Y3950000D02*
X6300000D01*
Y3850000D01*
X6120000D01*
Y3950000D01*
G01X5940000Y4880000D02*
X5990000Y4930000D01*
X6040000Y4880000D01*
G01Y4940000D02*
X5990000Y4990000D01*
X5940000Y4940000D01*
G01X6170000Y5050000D02*
Y5020000D01*
X6050000D01*
Y5050000D01*
G01X6170000Y5330000D02*
X6050000D01*
Y5050000D01*
X6170000D01*
Y5330000D01*
G01X6310000Y5050000D02*
Y5020000D01*
X6190000D01*
Y5050000D01*
G01X6310000Y5330000D02*
X6190000D01*
Y5050000D01*
X6310000D01*
Y5330000D01*
G01X6030000Y5230000D02*
Y5050000D01*
X5930000D01*
Y5230000D01*
X6030000D01*
G01X7480000Y330000D02*
G03I-320000J0D01*
G01X6480000Y735000D02*
Y655000D01*
G01X6440000Y695000D02*
X6520000D01*
G01X6570000Y455000D02*
X6650000D01*
G01X6610000Y495000D02*
Y415000D01*
G01X6720000Y895000D02*
Y1925000D01*
G01X6424300Y784600D02*
G02Y835400I0J25400D01*
G01Y1294600D02*
G02Y1345400I0J25400D01*
G01X6410000Y2090000D02*
Y1540000D01*
G01X6960000Y4650000D02*
X6370000D01*
Y3050000D01*
X6960000D01*
G01X6430000Y4930000D02*
X6380000Y4880000D01*
X6330000Y4930000D01*
G01X6800000Y4800000D02*
G02X6580000I-110000J292500D01*
G01D02*
Y5280000D01*
G01X6800000D02*
Y4800000D01*
G01X6830000D02*
Y5280000D01*
X7050000D01*
Y4800000D01*
X6830000D01*
G01X6430000Y4990000D02*
X6380000Y4940000D01*
X6330000Y4990000D01*
G01X6430000Y5230000D02*
Y5050000D01*
X6330000D01*
Y5230000D01*
X6430000D01*
G01X6580000Y5280000D02*
G02X6800000I110000J-292500D01*
G01X7160000Y735000D02*
Y655000D01*
G01X7120000Y695000D02*
X7200000D01*
G01X7250000Y455000D02*
X7330000D01*
G01X7290000Y495000D02*
Y415000D01*
G01X7260000Y745000D02*
X7060000D01*
G01X7260000Y2085000D02*
X7060000D01*
G01X7250000Y3050000D02*
X8500000D01*
Y4650000D01*
X7250000D01*
G01X7640000Y745000D02*
X8500000D01*
Y2085000D01*
X7640000D01*
G01X7637200Y1307800D02*
X8246800Y1257000D01*
Y1104600D01*
X7637200Y1053800D01*
X8196000Y1155400D01*
Y1206200D01*
X7637200Y1307800D01*
G01Y1511000D02*
X8196000Y1612600D01*
Y1663400D01*
X7637200Y1765000D01*
X8246800Y1714200D01*
Y1561800D01*
X7637200Y1511000D01*
G01X8080000Y2180000D02*
X7900000D01*
Y2280000D01*
X8080000D01*
Y2180000D01*
G01Y2600000D02*
X7900000D01*
Y2700000D01*
X8080000D01*
Y2600000D01*
G01Y2460000D02*
X7900000D01*
Y2560000D01*
X8080000D01*
Y2460000D01*
G01Y2320000D02*
X7900000D01*
Y2420000D01*
X8080000D01*
Y2320000D01*
G01X7900000Y2990000D02*
X8080000D01*
Y2890000D01*
X7900000D01*
Y2990000D01*
G01Y2850000D02*
X8080000D01*
Y2750000D01*
X7900000D01*
Y2850000D01*
G01X8400000Y2290000D02*
X8430000D01*
Y2170000D01*
X8400000D01*
G01X8120000Y2290000D02*
Y2170000D01*
X8400000D01*
Y2290000D01*
X8120000D01*
G01X8400000Y2430000D02*
X8430000D01*
Y2310000D01*
X8400000D01*
G01X8120000Y2430000D02*
Y2310000D01*
X8400000D01*
Y2430000D01*
X8120000D01*
G01X8400000Y2570000D02*
X8430000D01*
Y2450000D01*
X8400000D01*
G01X8120000Y2570000D02*
Y2450000D01*
X8400000D01*
Y2570000D01*
X8120000D01*
G01X8400000Y2710000D02*
X8430000D01*
Y2590000D01*
X8400000D01*
G01X8120000Y2710000D02*
Y2590000D01*
X8400000D01*
Y2710000D01*
X8120000D01*
G01X8400000Y3000000D02*
X8430000D01*
Y2880000D01*
X8400000D01*
G01X8120000Y3000000D02*
Y2880000D01*
X8400000D01*
Y3000000D01*
X8120000D01*
G01Y2850000D02*
X8300000D01*
Y2750000D01*
X8120000D01*
Y2850000D01*
G54D11*
G01X4860000Y4120000D02*
X4900000D01*
Y4030000D01*
G01X4780000Y4120000D02*
X4740000D01*
Y4030000D01*
G54D12*
G01X2427480Y-2887120D02*
X2447800D01*
G01X2830480Y882880D02*
X2850800D01*
G01X2825400Y877800D02*
X2855880D01*
G01X2820320Y872720D02*
X2860960D01*
G01X2820320Y867640D02*
X2866040D01*
G01X2820320Y862560D02*
X2866040D01*
G01X2820320Y857480D02*
X2866040D01*
G01X2820320Y852400D02*
X2871120D01*
G01X2815240Y847320D02*
X2871120D01*
G01X2815240Y842240D02*
X2876200D01*
G01X2815240Y837160D02*
X2876200D01*
G01X2815240Y832080D02*
X2876200D01*
G01X2815240Y827000D02*
X2881280D01*
G01X2927000D02*
X2993040D01*
G01X2815240Y821920D02*
X2881280D01*
G01X2927000D02*
X2993040D01*
G01X2815240Y816840D02*
X2886360D01*
G01X2921920D02*
X2993040D01*
G01X2815240Y811760D02*
X2886360D01*
G01X2921920D02*
X2993040D01*
G01X2815240Y806680D02*
X2845720D01*
G01X2850800D02*
X2886360D01*
G01X2921920D02*
X2957480D01*
G01X2815240Y801600D02*
X2845720D01*
G01X2850800D02*
X2891440D01*
G01X2916840D02*
X2957480D01*
G01X2810160Y796520D02*
X2845720D01*
G01X2855880D02*
X2891440D01*
G01X2916840D02*
X2952400D01*
G01X2810160Y791440D02*
X2845720D01*
G01X2855880D02*
X2896520D01*
G01X2911760D02*
X2952400D01*
G01X2810160Y786360D02*
X2845720D01*
G01X2860960D02*
X2896520D01*
G01X2911760D02*
X2947320D01*
G01X2810160Y781280D02*
X2845720D01*
G01X2860960D02*
X2896520D01*
G01X2911760D02*
X2947320D01*
G01X2810160Y776200D02*
X2845720D01*
G01X2860960D02*
X2901600D01*
G01X2906680D02*
X2947320D01*
G01X2810160Y771120D02*
X2845720D01*
G01X2866040D02*
X2901600D01*
G01X2906680D02*
X2942240D01*
G01X2810160Y766040D02*
X2840640D01*
G01X2866040D02*
X2942240D01*
G01X2810160Y760960D02*
X2840640D01*
G01X2866040D02*
X2942240D01*
G01X2810160Y755880D02*
X2840640D01*
G01X2871120D02*
X2937160D01*
G01X2805080Y750800D02*
X2840640D01*
G01X2871120D02*
X2937160D01*
G01X2805080Y745720D02*
X2840640D01*
G01X2876200D02*
X2932080D01*
G01X2805080Y740640D02*
X2840640D01*
G01X2876200D02*
X2932080D01*
G01X2805080Y735560D02*
X2840640D01*
G01X2876200D02*
X2932080D01*
G01X2805080Y730480D02*
X2840640D01*
G01X2881280D02*
X2927000D01*
G01X2805080Y725400D02*
X2840640D01*
G01X2881280D02*
X2927000D01*
G01X2805080Y720320D02*
X2840640D01*
G01X2886360D02*
X2921920D01*
G01X2805080Y715240D02*
X2840640D01*
G01X2886360D02*
X2921920D01*
G01X2805080Y710160D02*
X2840640D01*
G01X2891440D02*
X2916840D01*
G01X2800000Y705080D02*
X2835560D01*
G01X2805080Y700000D02*
X2835560D01*
G01X3262280Y938760D02*
X3506120D01*
G01X3267360Y933680D02*
X3501040D01*
G01X3277520Y928600D02*
X3490880D01*
G01X3287680Y923520D02*
X3480720D01*
G01X3297840Y918440D02*
X3470560D01*
G01X3308000Y913360D02*
X3455320D01*
G01X3328320Y908280D02*
X3435000D01*
G01X3358800Y903200D02*
X3409600D01*
G01X2952400Y877800D02*
X2982880D01*
G01X2947320Y872720D02*
X2987960D01*
G01X2942240Y867640D02*
X2987960D01*
G01X2942240Y862560D02*
X2987960D01*
G01X2942240Y857480D02*
X2987960D01*
G01X2937160Y852400D02*
X2987960D01*
G01X2937160Y847320D02*
X2993040D01*
G01X2932080Y842240D02*
X2993040D01*
G01X2932080Y837160D02*
X2993040D01*
G01X3023520D02*
X3059080D01*
G01X3094640D02*
X3191160D01*
G01X3216560D02*
X3328320D01*
G01X3374040D02*
X3470560D01*
G01X2932080Y832080D02*
X2993040D01*
G01X3023520D02*
X3059080D01*
G01X3084480D02*
X3196240D01*
G01X3216560D02*
X3333400D01*
G01X3368960D02*
X3480720D01*
G01X3023520Y827000D02*
X3059080D01*
G01X3079400D02*
X3196240D01*
G01X3216560D02*
X3333400D01*
G01X3363880D02*
X3480720D01*
G01X3023520Y821920D02*
X3059080D01*
G01X3079400D02*
X3196240D01*
G01X3216560D02*
X3338480D01*
G01X3363880D02*
X3485800D01*
G01X3023520Y816840D02*
X3059080D01*
G01X3079400D02*
X3196240D01*
G01X3216560D02*
X3338480D01*
G01X3358800D02*
X3485800D01*
G01X3023520Y811760D02*
X3059080D01*
G01X3074320D02*
X3196240D01*
G01X3216560D02*
X3338480D01*
G01X3358800D02*
X3485800D01*
G01X2962560Y806680D02*
X2993040D01*
G01X3023520D02*
X3059080D01*
G01X3074320D02*
X3196240D01*
G01X3216560D02*
X3338480D01*
G01X3358800D02*
X3490880D01*
G01X2962560Y801600D02*
X2998120D01*
G01X3023520D02*
X3059080D01*
G01X3074320D02*
X3114960D01*
G01X3216560D02*
X3247040D01*
G01X3308000D02*
X3338480D01*
G01X3358800D02*
X3394360D01*
G01X3450240D02*
X3490880D01*
G01X2962560Y796520D02*
X2998120D01*
G01X3023520D02*
X3059080D01*
G01X3074320D02*
X3109880D01*
G01X3216560D02*
X3247040D01*
G01X3308000D02*
X3338480D01*
G01X3358800D02*
X3389280D01*
G01X3455320D02*
X3490880D01*
G01X2962560Y791440D02*
X2998120D01*
G01X3023520D02*
X3059080D01*
G01X3074320D02*
X3104800D01*
G01X3216560D02*
X3247040D01*
G01X3313080D02*
X3338480D01*
G01X3358800D02*
X3389280D01*
G01X3455320D02*
X3490880D01*
G01X2962560Y786360D02*
X2998120D01*
G01X3023520D02*
X3059080D01*
G01X3074320D02*
X3104800D01*
G01X3216560D02*
X3247040D01*
G01X3313080D02*
X3338480D01*
G01X3358800D02*
X3389280D01*
G01X3460400D02*
X3490880D01*
G01X2962560Y781280D02*
X2998120D01*
G01X3023520D02*
X3059080D01*
G01X3074320D02*
X3104800D01*
G01X3216560D02*
X3247040D01*
G01X3313080D02*
X3338480D01*
G01X3358800D02*
X3389280D01*
G01X3460400D02*
X3490880D01*
G01X2962560Y776200D02*
X2998120D01*
G01X3023520D02*
X3059080D01*
G01X3074320D02*
X3104800D01*
G01X3216560D02*
X3247040D01*
G01X3308000D02*
X3338480D01*
G01X3358800D02*
X3389280D01*
G01X3460400D02*
X3490880D01*
G01X2967640Y771120D02*
X2998120D01*
G01X3023520D02*
X3059080D01*
G01X3074320D02*
X3104800D01*
G01X3216560D02*
X3247040D01*
G01X3252120D02*
X3338480D01*
G01X3358800D02*
X3389280D01*
G01X3460400D02*
X3490880D01*
G01X2967640Y766040D02*
X2998120D01*
G01X3023520D02*
X3059080D01*
G01X3074320D02*
X3104800D01*
G01X3216560D02*
X3338480D01*
G01X3358800D02*
X3389280D01*
G01X3460400D02*
X3490880D01*
G01X2967640Y760960D02*
X2998120D01*
G01X3023520D02*
X3059080D01*
G01X3074320D02*
X3104800D01*
G01X3216560D02*
X3333400D01*
G01X3358800D02*
X3389280D01*
G01X3460400D02*
X3490880D01*
G01X2967640Y755880D02*
X3003200D01*
G01X3023520D02*
X3059080D01*
G01X3074320D02*
X3104800D01*
G01X3216560D02*
X3328320D01*
G01X3358800D02*
X3389280D01*
G01X3460400D02*
X3490880D01*
G01X2967640Y750800D02*
X3003200D01*
G01X3023520D02*
X3059080D01*
G01X3074320D02*
X3104800D01*
G01X3216560D02*
X3333400D01*
G01X3358800D02*
X3389280D01*
G01X3460400D02*
X3490880D01*
G01X2967640Y745720D02*
X3003200D01*
G01X3023520D02*
X3059080D01*
G01X3074320D02*
X3104800D01*
G01X3216560D02*
X3333400D01*
G01X3358800D02*
X3389280D01*
G01X3455320D02*
X3490880D01*
G01X2967640Y740640D02*
X3003200D01*
G01X3023520D02*
X3059080D01*
G01X3074320D02*
X3109880D01*
G01X3216560D02*
X3338480D01*
G01X3358800D02*
X3389280D01*
G01X3455320D02*
X3490880D01*
G01X2967640Y735560D02*
X3003200D01*
G01X3023520D02*
X3059080D01*
G01X3074320D02*
X3114960D01*
G01X3216560D02*
X3247040D01*
G01X3302920D02*
X3338480D01*
G01X3358800D02*
X3399440D01*
G01X3450240D02*
X3490880D01*
G01X2967640Y730480D02*
X3003200D01*
G01X3023520D02*
X3059080D01*
G01X3074320D02*
X3201320D01*
G01X3216560D02*
X3247040D01*
G01X3308000D02*
X3338480D01*
G01X3358800D02*
X3485800D01*
G01X2967640Y725400D02*
X3003200D01*
G01X3023520D02*
X3059080D01*
G01X3074320D02*
X3201320D01*
G01X3216560D02*
X3247040D01*
G01X3308000D02*
X3338480D01*
G01X3358800D02*
X3485800D01*
G01X2967640Y720320D02*
X3003200D01*
G01X3023520D02*
X3059080D01*
G01X3079400D02*
X3201320D01*
G01X3216560D02*
X3247040D01*
G01X3308000D02*
X3338480D01*
G01X3358800D02*
X3485800D01*
G01X2967640Y715240D02*
X3003200D01*
G01X3023520D02*
X3059080D01*
G01X3079400D02*
X3201320D01*
G01X3216560D02*
X3247040D01*
G01X3308000D02*
X3338480D01*
G01X3363880D02*
X3480720D01*
G01X2972720Y710160D02*
X3003200D01*
G01X3023520D02*
X3059080D01*
G01X3084480D02*
X3196240D01*
G01X3216560D02*
X3247040D01*
G01X3308000D02*
X3338480D01*
G01X3363880D02*
X3480720D01*
G01X2972720Y705080D02*
X3008280D01*
G01X3023520D02*
X3059080D01*
G01X3089560D02*
X3196240D01*
G01X3216560D02*
X3247040D01*
G01X3308000D02*
X3338480D01*
G01X3368960D02*
X3475640D01*
G01X2972720Y700000D02*
X3003200D01*
G01X3023520D02*
X3054000D01*
G01X3099720D02*
X3186080D01*
G01X3216560D02*
X3247040D01*
G01X3313080D02*
X3338480D01*
G01X3379120D02*
X3465480D01*
G01X3338480Y1299440D02*
X3424840D01*
G01X3318160Y1294360D02*
X3445160D01*
G01X3302920Y1289280D02*
X3460400D01*
G01X3292760Y1284200D02*
X3470560D01*
G01X3282600Y1279120D02*
X3470560D01*
G01X3272440Y1274040D02*
X3475640D01*
G01X3262280Y1268960D02*
X3480720D01*
G01X3257200Y1263880D02*
X3485800D01*
G01X3252120Y1258800D02*
X3485800D01*
G01X3247040Y1253720D02*
X3490880D01*
G01X3236880Y1248640D02*
X3495960D01*
G01X3231800Y1243560D02*
X3495960D01*
G01X3226720Y1238480D02*
X3501040D01*
G01X3221640Y1233400D02*
X3506120D01*
G01X3216560Y1228320D02*
X3506120D01*
G01X3216560Y1223240D02*
X3302920D01*
G01X3323240D02*
X3445160D01*
G01X3465480D02*
X3511200D01*
G01X3211480Y1218160D02*
X3297840D01*
G01X3328320D02*
X3440080D01*
G01X3475640D02*
X3511200D01*
G01X3206400Y1213080D02*
X3292760D01*
G01X3333400D02*
X3435000D01*
G01X3475640D02*
X3516280D01*
G01X3201320Y1208000D02*
X3287680D01*
G01X3338480D02*
X3435000D01*
G01X3480720D02*
X3521360D01*
G01X3201320Y1202920D02*
X3287680D01*
G01X3338480D02*
X3429920D01*
G01X3485800D02*
X3521360D01*
G01X3196240Y1197840D02*
X3282600D01*
G01X3343560D02*
X3424840D01*
G01X3485800D02*
X3526440D01*
G01X3191160Y1192760D02*
X3277520D01*
G01X3348640D02*
X3424840D01*
G01X3490880D02*
X3531520D01*
G01X3191160Y1187680D02*
X3272440D01*
G01X3348640D02*
X3419760D01*
G01X3490880D02*
X3531520D01*
G01X3191160Y1182600D02*
X3272440D01*
G01X3353720D02*
X3414680D01*
G01X3186080Y1177520D02*
X3267360D01*
G01X3353720D02*
X3414680D01*
G01X3186080Y1172440D02*
X3262280D01*
G01X3358800D02*
X3409600D01*
G01X3181000Y1167360D02*
X3262280D01*
G01X3363880D02*
X3404520D01*
G01X3181000Y1162280D02*
X3257200D01*
G01X3363880D02*
X3404520D01*
G01X3181000Y1157200D02*
X3257200D01*
G01X3368960D02*
X3404520D01*
G01X3175920Y1152120D02*
X3262280D01*
G01X3368960D02*
X3409600D01*
G01X3175920Y1147040D02*
X3267360D01*
G01X3374040D02*
X3409600D01*
G01X3175920Y1141960D02*
X3267360D01*
G01X3379120D02*
X3414680D01*
G01X3175920Y1136880D02*
X3272440D01*
G01X3384200D02*
X3414680D01*
G01X3175920Y1131800D02*
X3236880D01*
G01X3241960D02*
X3277520D01*
G01X3384200D02*
X3419760D01*
G01X3175920Y1126720D02*
X3231800D01*
G01X3247040D02*
X3277520D01*
G01X3389280D02*
X3424840D01*
G01X3170840Y1121640D02*
X3226720D01*
G01X3247040D02*
X3282600D01*
G01X3389280D02*
X3424840D01*
G01X3170840Y1116560D02*
X3226720D01*
G01X3252120D02*
X3287680D01*
G01X3394360D02*
X3429920D01*
G01X3170840Y1111480D02*
X3221640D01*
G01X3257200D02*
X3287680D01*
G01X3399440D02*
X3435000D01*
G01X3170840Y1106400D02*
X3216560D01*
G01X3257200D02*
X3292760D01*
G01X3399440D02*
X3435000D01*
G01X3170840Y1101320D02*
X3211480D01*
G01X3262280D02*
X3292760D01*
G01X3404520D02*
X3440080D01*
G01X3170840Y1096240D02*
X3211480D01*
G01X3262280D02*
X3297840D01*
G01X3404520D02*
X3440080D01*
G01X3170840Y1091160D02*
X3206400D01*
G01X3267360D02*
X3302920D01*
G01X3409600D02*
X3445160D01*
G01X3170840Y1086080D02*
X3201320D01*
G01X3272440D02*
X3308000D01*
G01X3414680D02*
X3450240D01*
G01X3175920Y1081000D02*
X3201320D01*
G01X3272440D02*
X3308000D01*
G01X3419760D02*
X3450240D01*
G01X3175920Y1075920D02*
X3196240D01*
G01X3277520D02*
X3313080D01*
G01X3419760D02*
X3455320D01*
G01X3175920Y1070840D02*
X3191160D01*
G01X3282600D02*
X3313080D01*
G01X3424840D02*
X3460400D01*
G01X3175920Y1065760D02*
X3186080D01*
G01X3282600D02*
X3318160D01*
G01X3424840D02*
X3460400D01*
G01X3175920Y1060680D02*
X3186080D01*
G01X3287680D02*
X3323240D01*
G01X3429920D02*
X3465480D01*
G01X3175920Y1055600D02*
X3181000D01*
G01X3287680D02*
X3323240D01*
G01X3435000D02*
X3465480D01*
G01X3287680Y1050520D02*
X3328320D01*
G01X3435000D02*
X3470560D01*
G01X3282600Y1045440D02*
X3333400D01*
G01X3440080D02*
X3475640D01*
G01X3282600Y1040360D02*
X3333400D01*
G01X3440080D02*
X3475640D01*
G01X3277520Y1035280D02*
X3338480D01*
G01X3440080D02*
X3480720D01*
G01X3272440Y1030200D02*
X3343560D01*
G01X3435000D02*
X3485800D01*
G01X3272440Y1025120D02*
X3343560D01*
G01X3435000D02*
X3485800D01*
G01X3267360Y1020040D02*
X3348640D01*
G01X3429920D02*
X3490880D01*
G01X3262280Y1014960D02*
X3348640D01*
G01X3424840D02*
X3490880D01*
G01X3262280Y1009880D02*
X3353720D01*
G01X3419760D02*
X3495960D01*
G01X3257200Y1004800D02*
X3358800D01*
G01X3414680D02*
X3501040D01*
G01X3252120Y999720D02*
X3358800D01*
G01X3414680D02*
X3501040D01*
G01X3247040Y994640D02*
X3363880D01*
G01X3409600D02*
X3506120D01*
G01X3247040Y989560D02*
X3363880D01*
G01X3409600D02*
X3511200D01*
G01X3241960Y984480D02*
X3368960D01*
G01X3404520D02*
X3511200D01*
G01X3236880Y979400D02*
X3374040D01*
G01X3399440D02*
X3516280D01*
G01X3231800Y974320D02*
X3379120D01*
G01X3394360D02*
X3521360D01*
G01X3231800Y969240D02*
X3521360D01*
G01X3231800Y964160D02*
X3526440D01*
G01X3231800Y959080D02*
X3526440D01*
G01X3241960Y954000D02*
X3526440D01*
G01X3247040Y948920D02*
X3521360D01*
G01X3252120Y943840D02*
X3511200D01*
G01X3521360Y837160D02*
X3622960D01*
G01X3648360D02*
X3678840D01*
G01X3739800D02*
X3770280D01*
G01X3790600D02*
X3821080D01*
G01X3841400D02*
X3948080D01*
G01X3516280Y832080D02*
X3628040D01*
G01X3648360D02*
X3678840D01*
G01X3739800D02*
X3770280D01*
G01X3790600D02*
X3821080D01*
G01X3841400D02*
X3953160D01*
G01X3511200Y827000D02*
X3628040D01*
G01X3648360D02*
X3678840D01*
G01X3739800D02*
X3770280D01*
G01X3790600D02*
X3821080D01*
G01X3841400D02*
X3958240D01*
G01X3511200Y821920D02*
X3628040D01*
G01X3648360D02*
X3678840D01*
G01X3739800D02*
X3770280D01*
G01X3790600D02*
X3821080D01*
G01X3841400D02*
X3963320D01*
G01X3506120Y816840D02*
X3628040D01*
G01X3648360D02*
X3678840D01*
G01X3739800D02*
X3770280D01*
G01X3790600D02*
X3821080D01*
G01X3841400D02*
X3963320D01*
G01X3506120Y811760D02*
X3628040D01*
G01X3648360D02*
X3678840D01*
G01X3739800D02*
X3770280D01*
G01X3790600D02*
X3821080D01*
G01X3841400D02*
X3963320D01*
G01X3506120Y806680D02*
X3628040D01*
G01X3648360D02*
X3678840D01*
G01X3739800D02*
X3770280D01*
G01X3790600D02*
X3821080D01*
G01X3841400D02*
X3963320D01*
G01X3506120Y801600D02*
X3541680D01*
G01X3648360D02*
X3678840D01*
G01X3739800D02*
X3770280D01*
G01X3790600D02*
X3821080D01*
G01X3841400D02*
X3871880D01*
G01X3932840D02*
X3963320D01*
G01X3506120Y796520D02*
X3536600D01*
G01X3648360D02*
X3678840D01*
G01X3739800D02*
X3770280D01*
G01X3790600D02*
X3821080D01*
G01X3841400D02*
X3871880D01*
G01X3932840D02*
X3963320D01*
G01X3506120Y791440D02*
X3536600D01*
G01X3648360D02*
X3678840D01*
G01X3734720D02*
X3770280D01*
G01X3790600D02*
X3821080D01*
G01X3841400D02*
X3871880D01*
G01X3932840D02*
X3963320D01*
G01X3506120Y786360D02*
X3536600D01*
G01X3648360D02*
X3770280D01*
G01X3790600D02*
X3821080D01*
G01X3841400D02*
X3871880D01*
G01X3932840D02*
X3963320D01*
G01X3506120Y781280D02*
X3536600D01*
G01X3648360D02*
X3770280D01*
G01X3790600D02*
X3821080D01*
G01X3841400D02*
X3871880D01*
G01X3932840D02*
X3963320D01*
G01X3506120Y776200D02*
X3536600D01*
G01X3648360D02*
X3770280D01*
G01X3790600D02*
X3821080D01*
G01X3841400D02*
X3871880D01*
G01X3932840D02*
X3963320D01*
G01X3506120Y771120D02*
X3536600D01*
G01X3648360D02*
X3770280D01*
G01X3790600D02*
X3821080D01*
G01X3841400D02*
X3871880D01*
G01X3927760D02*
X3963320D01*
G01X3506120Y766040D02*
X3536600D01*
G01X3648360D02*
X3770280D01*
G01X3790600D02*
X3821080D01*
G01X3841400D02*
X3963320D01*
G01X3506120Y760960D02*
X3536600D01*
G01X3648360D02*
X3770280D01*
G01X3790600D02*
X3821080D01*
G01X3841400D02*
X3963320D01*
G01X3506120Y755880D02*
X3536600D01*
G01X3648360D02*
X3770280D01*
G01X3790600D02*
X3821080D01*
G01X3841400D02*
X3963320D01*
G01X3506120Y750800D02*
X3536600D01*
G01X3648360D02*
X3678840D01*
G01X3734720D02*
X3770280D01*
G01X3790600D02*
X3821080D01*
G01X3841400D02*
X3963320D01*
G01X3506120Y745720D02*
X3536600D01*
G01X3648360D02*
X3678840D01*
G01X3739800D02*
X3770280D01*
G01X3790600D02*
X3821080D01*
G01X3841400D02*
X3958240D01*
G01X3506120Y740640D02*
X3541680D01*
G01X3648360D02*
X3678840D01*
G01X3739800D02*
X3770280D01*
G01X3790600D02*
X3821080D01*
G01X3841400D02*
X3953160D01*
G01X3506120Y735560D02*
X3546760D01*
G01X3648360D02*
X3678840D01*
G01X3739800D02*
X3770280D01*
G01X3790600D02*
X3821080D01*
G01X3841400D02*
X3943000D01*
G01X3506120Y730480D02*
X3628040D01*
G01X3648360D02*
X3678840D01*
G01X3739800D02*
X3770280D01*
G01X3790600D02*
X3821080D01*
G01X3841400D02*
X3871880D01*
G01X3506120Y725400D02*
X3628040D01*
G01X3648360D02*
X3678840D01*
G01X3739800D02*
X3770280D01*
G01X3790600D02*
X3821080D01*
G01X3841400D02*
X3871880D01*
G01X3506120Y720320D02*
X3628040D01*
G01X3648360D02*
X3678840D01*
G01X3739800D02*
X3770280D01*
G01X3790600D02*
X3821080D01*
G01X3841400D02*
X3871880D01*
G01X3511200Y715240D02*
X3628040D01*
G01X3648360D02*
X3678840D01*
G01X3739800D02*
X3770280D01*
G01X3790600D02*
X3821080D01*
G01X3841400D02*
X3871880D01*
G01X3511200Y710160D02*
X3628040D01*
G01X3648360D02*
X3678840D01*
G01X3739800D02*
X3770280D01*
G01X3790600D02*
X3821080D01*
G01X3841400D02*
X3871880D01*
G01X3516280Y705080D02*
X3622960D01*
G01X3648360D02*
X3678840D01*
G01X3739800D02*
X3770280D01*
G01X3790600D02*
X3821080D01*
G01X3841400D02*
X3871880D01*
G01X3526440Y700000D02*
X3617880D01*
G01X3648360D02*
X3673760D01*
G01X3739800D02*
X3765200D01*
G01X3790600D02*
X3821080D01*
G01X3841400D02*
X3866800D01*
G01X3516280Y1289280D02*
X3531520D01*
G01X3511200Y1284200D02*
X3536600D01*
G01X3506120Y1279120D02*
X3511200D01*
G01X3516280D02*
X3521360D01*
G01X3526440D02*
X3536600D01*
G01X3506120Y1274040D02*
X3511200D01*
G01X3516280D02*
X3526440D01*
G01X3536600D02*
X3541680D01*
G01X3506120Y1268960D02*
X3511200D01*
G01X3531520D02*
X3541680D01*
G01X3511200Y1263880D02*
X3516280D01*
G01X3526440D02*
X3536600D01*
G01X3516280Y1258800D02*
X3526440D01*
G01X3495960Y1182600D02*
X3536600D01*
G01X3501040Y1177520D02*
X3536600D01*
G01X3501040Y1172440D02*
X3541680D01*
G01X3506120Y1167360D02*
X3546760D01*
G01X3511200Y1162280D02*
X3546760D01*
G01X3511200Y1157200D02*
X3551840D01*
G01X3516280Y1152120D02*
X3556920D01*
G01X3521360Y1147040D02*
X3556920D01*
G01X3521360Y1141960D02*
X3562000D01*
G01X3526440Y1136880D02*
X3562000D01*
G01X3526440Y1131800D02*
X3567080D01*
G01X3531520Y1126720D02*
X3572160D01*
G01X3536600Y1121640D02*
X3572160D01*
G01X3536600Y1116560D02*
X3577240D01*
G01X3541680Y1111480D02*
X3582320D01*
G01X3546760Y1106400D02*
X3582320D01*
G01X3546760Y1101320D02*
X3587400D01*
G01X3551840Y1096240D02*
X3592480D01*
G01X3551840Y1091160D02*
X3592480D01*
G01X3556920Y1086080D02*
X3597560D01*
G01X3562000Y1081000D02*
X3597560D01*
G01X3562000Y1075920D02*
X3597560D01*
G01X3567080Y1070840D02*
X3597560D01*
G01X3572160Y1065760D02*
X3592480D01*
G01X3572160Y1060680D02*
X3592480D01*
G01X3577240Y1055600D02*
X3592480D01*
G01X3577240Y1050520D02*
X3587400D01*
G01X3582320Y1045440D02*
X3587400D01*
G01X4980000Y2626360D02*
X5002860D01*
G01X5101920D02*
X5119700D01*
G01X5165420D02*
X5185740D01*
G01X4980000Y2623820D02*
X5007940D01*
G01X5101920D02*
X5119700D01*
G01X5165420D02*
X5185740D01*
G01X4982540Y2621280D02*
X5013020D01*
G01X5101920D02*
X5119700D01*
G01X5165420D02*
X5185740D01*
G01X4982540Y2618740D02*
X5018100D01*
G01X5101920D02*
X5119700D01*
G01X5165420D02*
X5185740D01*
G01X4985080Y2616200D02*
X5023180D01*
G01X5101920D02*
X5119700D01*
G01X5165420D02*
X5185740D01*
G01X4987620Y2613660D02*
X5028260D01*
G01X5101920D02*
X5119700D01*
G01X5165420D02*
X5185740D01*
G01X4990160Y2611120D02*
X5033340D01*
G01X5101920D02*
X5119700D01*
G01X5165420D02*
X5185740D01*
G01X4992700Y2608580D02*
X5038420D01*
G01X5101920D02*
X5119700D01*
G01X5165420D02*
X5185740D01*
G01X4997780Y2606040D02*
X5043500D01*
G01X5101920D02*
X5119700D01*
G01X5165420D02*
X5185740D01*
G01X5002860Y2603500D02*
X5046040D01*
G01X5101920D02*
X5119700D01*
G01X5165420D02*
X5185740D01*
G01X5007940Y2600960D02*
X5051120D01*
G01X5101920D02*
X5119700D01*
G01X5165420D02*
X5185740D01*
G01X5013020Y2598420D02*
X5051120D01*
G01X5101920D02*
X5119700D01*
G01X5165420D02*
X5185740D01*
G01X5018100Y2595880D02*
X5053660D01*
G01X5101920D02*
X5119700D01*
G01X5165420D02*
X5185740D01*
G01X5023180Y2593340D02*
X5053660D01*
G01X5101920D02*
X5119700D01*
G01X5165420D02*
X5185740D01*
G01X5028260Y2590800D02*
X5053660D01*
G01X5101920D02*
X5119700D01*
G01X5165420D02*
X5185740D01*
G01X5033340Y2588260D02*
X5056200D01*
G01X5101920D02*
X5119700D01*
G01X5165420D02*
X5185740D01*
G01X5035880Y2585720D02*
X5056200D01*
G01X5101920D02*
X5119700D01*
G01X5165420D02*
X5185740D01*
G01X5035880Y2583180D02*
X5056200D01*
G01X5101920D02*
X5119700D01*
G01X5165420D02*
X5185740D01*
G01X5035880Y2580640D02*
X5056200D01*
G01X5101920D02*
X5119700D01*
G01X5165420D02*
X5185740D01*
G01X5035880Y2578100D02*
X5056200D01*
G01X5101920D02*
X5119700D01*
G01X5165420D02*
X5185740D01*
G01X5035880Y2575560D02*
X5056200D01*
G01X5101920D02*
X5119700D01*
G01X5165420D02*
X5185740D01*
G01X4980000Y2573020D02*
X5000320D01*
G01X5035880D02*
X5056200D01*
G01X5101920D02*
X5119700D01*
G01X5165420D02*
X5185740D01*
G01X4980000Y2570480D02*
X5000320D01*
G01X5035880D02*
X5056200D01*
G01X5101920D02*
X5119700D01*
G01X5165420D02*
X5185740D01*
G01X4980000Y2567940D02*
X5000320D01*
G01X5035880D02*
X5056200D01*
G01X5101920D02*
X5119700D01*
G01X5165420D02*
X5185740D01*
G01X4980000Y2565400D02*
X5000320D01*
G01X5035880D02*
X5056200D01*
G01X5101920D02*
X5119700D01*
G01X5165420D02*
X5185740D01*
G01X4980000Y2562860D02*
X5000320D01*
G01X5035880D02*
X5056200D01*
G01X5101920D02*
X5119700D01*
G01X5165420D02*
X5185740D01*
G01X4980000Y2560320D02*
X5000320D01*
G01X5035880D02*
X5056200D01*
G01X5101920D02*
X5119700D01*
G01X5165420D02*
X5185740D01*
G01X4980000Y2557780D02*
X5000320D01*
G01X5035880D02*
X5056200D01*
G01X5101920D02*
X5119700D01*
G01X5165420D02*
X5185740D01*
G01X4980000Y2555240D02*
X5056200D01*
G01X5101920D02*
X5119700D01*
G01X5165420D02*
X5231460D01*
G01X4980000Y2552700D02*
X5053660D01*
G01X5101920D02*
X5119700D01*
G01X5165420D02*
X5231460D01*
G01X4982540Y2550160D02*
X5053660D01*
G01X5101920D02*
X5119700D01*
G01X5165420D02*
X5231460D01*
G01X4982540Y2547620D02*
X5051120D01*
G01X5101920D02*
X5119700D01*
G01X5165420D02*
X5231460D01*
G01X4985080Y2545080D02*
X5051120D01*
G01X5101920D02*
X5119700D01*
G01X5165420D02*
X5231460D01*
G01X4987620Y2542540D02*
X5048580D01*
G01X5101920D02*
X5119700D01*
G01X5165420D02*
X5231460D01*
G01X4992700Y2540000D02*
X5043500D01*
G01X5101920D02*
X5119700D01*
G01X5165420D02*
X5231460D01*
G01X5180660Y3004820D02*
X5236540D01*
G01X5175580Y3002280D02*
X5234000D01*
G01X5170500Y2999740D02*
X5228920D01*
G01X5165420Y2997200D02*
X5226380D01*
G01X5160340Y2994660D02*
X5223840D01*
G01X5152720Y2992120D02*
X5218760D01*
G01X5147640Y2989580D02*
X5216220D01*
G01X5142560Y2987040D02*
X5213680D01*
G01X5137480Y2984500D02*
X5211140D01*
G01X5134940Y2981960D02*
X5208600D01*
G01X5127320Y2979420D02*
X5203520D01*
G01X5122240Y2976880D02*
X5203520D01*
G01X5119700Y2974340D02*
X5200980D01*
G01X5114620Y2971800D02*
X5198440D01*
G01X5109540Y2969260D02*
X5195900D01*
G01X5104460Y2966720D02*
X5193360D01*
G01X5101920Y2964180D02*
X5190820D01*
G01X5096840Y2961640D02*
X5188280D01*
G01X5091760Y2959100D02*
X5188280D01*
G01X5086680Y2956560D02*
X5185740D01*
G01X5084140Y2954020D02*
X5185740D01*
G01X5079060Y2951480D02*
X5183200D01*
G01X5076520Y2948940D02*
X5183200D01*
G01X5071440Y2946400D02*
X5180660D01*
G01X5068900Y2943860D02*
X5180660D01*
G01X5063820Y2941320D02*
X5180660D01*
G01X5061280Y2938780D02*
X5178120D01*
G01X5058740Y2936240D02*
X5178120D01*
G01X5053660Y2933700D02*
X5178120D01*
G01X5051120Y2931160D02*
X5178120D01*
G01X5048580Y2928620D02*
X5178120D01*
G01X5046040Y2926080D02*
X5180660D01*
G01X5040960Y2923540D02*
X5180660D01*
G01X5038420Y2921000D02*
X5180660D01*
G01X5035880Y2918460D02*
X5180660D01*
G01X5033340Y2915920D02*
X5183200D01*
G01X5030800Y2913380D02*
X5183200D01*
G01X5028260Y2910840D02*
X5185740D01*
G01X5025720Y2908300D02*
X5188280D01*
G01X5023180Y2905760D02*
X5188280D01*
G01X5020640Y2903220D02*
X5190820D01*
G01X5018100Y2900680D02*
X5193360D01*
G01X5015560Y2898140D02*
X5195900D01*
G01X5013020Y2895600D02*
X5198440D01*
G01X5010480Y2893060D02*
X5203520D01*
G01X5007940Y2890520D02*
X5206060D01*
G01X5005400Y2887980D02*
X5211140D01*
G01X5005400Y2885440D02*
X5213680D01*
G01X5002860Y2882900D02*
X5218760D01*
G01X5000320Y2880360D02*
X5223840D01*
G01X5000320Y2877820D02*
X5228920D01*
G01X4997780Y2875280D02*
X5236540D01*
G01X4995240Y2872740D02*
X5241620D01*
G01X4995240Y2870200D02*
X5249240D01*
G01X4992700Y2867660D02*
X5259400D01*
G01X4992700Y2865120D02*
X5269560D01*
G01X4990160Y2862580D02*
X5279720D01*
G01X4990160Y2860040D02*
X5289880D01*
G01X4987620Y2857500D02*
X5300040D01*
G01X4987620Y2854960D02*
X5317820D01*
G01X4985080Y2852420D02*
X5333060D01*
G01X4985080Y2849880D02*
X5363540D01*
G01X4985080Y2847340D02*
X5411800D01*
G01X4982540Y2844800D02*
X5752160D01*
G01X4982540Y2842260D02*
X5749620D01*
G01X4982540Y2839720D02*
X5749620D01*
G01X4982540Y2837180D02*
X5749620D01*
G01X4982540Y2834640D02*
X5203520D01*
G01X4982540Y2832100D02*
X5198440D01*
G01X4982540Y2829560D02*
X5193360D01*
G01X4982540Y2827020D02*
X5188280D01*
G01X4982540Y2824480D02*
X5183200D01*
G01X4982540Y2821940D02*
X5178120D01*
G01X4982540Y2819400D02*
X5175580D01*
G01X4982540Y2816860D02*
X5170500D01*
G01X4982540Y2814320D02*
X5165420D01*
G01X4982540Y2811780D02*
X5162880D01*
G01X4982540Y2809240D02*
X5157800D01*
G01X4985080Y2806700D02*
X5155260D01*
G01X4985080Y2804160D02*
X5150180D01*
G01X4985080Y2801620D02*
X5147640D01*
G01X4987620Y2799080D02*
X5142560D01*
G01X4987620Y2796540D02*
X5140020D01*
G01X4990160Y2794000D02*
X5134940D01*
G01X4990160Y2791460D02*
X5132400D01*
G01X4992700Y2788920D02*
X5129860D01*
G01X4992700Y2786380D02*
X5127320D01*
G01X4995240Y2783840D02*
X5122240D01*
G01X4997780Y2781300D02*
X5119700D01*
G01X5000320Y2778760D02*
X5117160D01*
G01X5002860Y2776220D02*
X5114620D01*
G01X5002860Y2773680D02*
X5112080D01*
G01X5005400Y2771140D02*
X5112080D01*
G01X5007940Y2768600D02*
X5109540D01*
G01X5010480Y2766060D02*
X5109540D01*
G01X5013020Y2763520D02*
X5109540D01*
G01X5018100Y2760980D02*
X5107000D01*
G01X5020640Y2758440D02*
X5107000D01*
G01X5023180Y2755900D02*
X5107000D01*
G01X5025720Y2753360D02*
X5107000D01*
G01X5030800Y2750820D02*
X5107000D01*
G01X5035880Y2748280D02*
X5107000D01*
G01X5038420Y2745740D02*
X5109540D01*
G01X5043500Y2743200D02*
X5109540D01*
G01X5048580Y2740660D02*
X5109540D01*
G01X5051120Y2738120D02*
X5112080D01*
G01X5058740Y2735580D02*
X5114620D01*
G01X5063820Y2733040D02*
X5117160D01*
G01X5068900Y2730500D02*
X5119700D01*
G01X5073980Y2727960D02*
X5122240D01*
G01X5081600Y2725420D02*
X5124780D01*
G01X5089220Y2722880D02*
X5129860D01*
G01X5096840Y2720340D02*
X5134940D01*
G01X5101920Y2717800D02*
X5140020D01*
G01X5112080Y2715260D02*
X5142560D01*
G01X5122240Y2712720D02*
X5147640D01*
G01X5129860Y2710180D02*
X5155260D01*
G01X5140020Y2707640D02*
X5162880D01*
G01X5150180Y2705100D02*
X5170500D01*
G01X5167960Y2702560D02*
X5175580D01*
G01X4992700Y2667000D02*
X5043500D01*
G01X5101920D02*
X5119700D01*
G01X5167960D02*
X5183200D01*
G01X4987620Y2664460D02*
X5048580D01*
G01X5101920D02*
X5119700D01*
G01X5165420D02*
X5185740D01*
G01X4985080Y2661920D02*
X5051120D01*
G01X5101920D02*
X5119700D01*
G01X5165420D02*
X5185740D01*
G01X4985080Y2659380D02*
X5053660D01*
G01X5101920D02*
X5119700D01*
G01X5165420D02*
X5185740D01*
G01X4982540Y2656840D02*
X5053660D01*
G01X5101920D02*
X5119700D01*
G01X5165420D02*
X5185740D01*
G01X4980000Y2654300D02*
X5053660D01*
G01X5101920D02*
X5119700D01*
G01X5165420D02*
X5185740D01*
G01X4980000Y2651760D02*
X5056200D01*
G01X5101920D02*
X5119700D01*
G01X5165420D02*
X5185740D01*
G01X4980000Y2649220D02*
X5056200D01*
G01X5101920D02*
X5119700D01*
G01X5165420D02*
X5185740D01*
G01X4980000Y2646680D02*
X5000320D01*
G01X5035880D02*
X5056200D01*
G01X5101920D02*
X5119700D01*
G01X5165420D02*
X5185740D01*
G01X4980000Y2644140D02*
X5000320D01*
G01X5035880D02*
X5056200D01*
G01X5101920D02*
X5119700D01*
G01X5165420D02*
X5185740D01*
G01X4980000Y2641600D02*
X5000320D01*
G01X5035880D02*
X5056200D01*
G01X5101920D02*
X5119700D01*
G01X5165420D02*
X5185740D01*
G01X4980000Y2639060D02*
X5000320D01*
G01X5035880D02*
X5056200D01*
G01X5101920D02*
X5119700D01*
G01X5165420D02*
X5185740D01*
G01X4980000Y2636520D02*
X5000320D01*
G01X5035880D02*
X5056200D01*
G01X5101920D02*
X5119700D01*
G01X5165420D02*
X5185740D01*
G01X4980000Y2633980D02*
X5000320D01*
G01X5101920D02*
X5119700D01*
G01X5165420D02*
X5185740D01*
G01X4980000Y2631440D02*
X5000320D01*
G01X5101920D02*
X5119700D01*
G01X5165420D02*
X5185740D01*
G01X4980000Y2628900D02*
X5000320D01*
G01X5101920D02*
X5119700D01*
G01X5165420D02*
X5185740D01*
G01X5259400Y2626360D02*
X5277180D01*
G01X5322900D02*
X5343220D01*
G01X5434660D02*
X5452440D01*
G01X5490540D02*
X5508320D01*
G01X5546420D02*
X5584520D01*
G01X5602300D02*
X5620080D01*
G01X5259400Y2623820D02*
X5277180D01*
G01X5322900D02*
X5343220D01*
G01X5434660D02*
X5452440D01*
G01X5490540D02*
X5508320D01*
G01X5546420D02*
X5584520D01*
G01X5602300D02*
X5620080D01*
G01X5259400Y2621280D02*
X5277180D01*
G01X5322900D02*
X5343220D01*
G01X5434660D02*
X5452440D01*
G01X5490540D02*
X5508320D01*
G01X5546420D02*
X5587060D01*
G01X5602300D02*
X5620080D01*
G01X5259400Y2618740D02*
X5277180D01*
G01X5322900D02*
X5343220D01*
G01X5434660D02*
X5452440D01*
G01X5490540D02*
X5508320D01*
G01X5546420D02*
X5587060D01*
G01X5602300D02*
X5620080D01*
G01X5259400Y2616200D02*
X5277180D01*
G01X5322900D02*
X5343220D01*
G01X5434660D02*
X5452440D01*
G01X5490540D02*
X5508320D01*
G01X5546420D02*
X5587060D01*
G01X5602300D02*
X5620080D01*
G01X5259400Y2613660D02*
X5277180D01*
G01X5322900D02*
X5343220D01*
G01X5434660D02*
X5452440D01*
G01X5490540D02*
X5508320D01*
G01X5546420D02*
X5564200D01*
G01X5566740D02*
X5589600D01*
G01X5602300D02*
X5620080D01*
G01X5259400Y2611120D02*
X5277180D01*
G01X5322900D02*
X5343220D01*
G01X5434660D02*
X5452440D01*
G01X5490540D02*
X5508320D01*
G01X5546420D02*
X5564200D01*
G01X5569280D02*
X5589600D01*
G01X5602300D02*
X5620080D01*
G01X5259400Y2608580D02*
X5277180D01*
G01X5322900D02*
X5343220D01*
G01X5434660D02*
X5452440D01*
G01X5490540D02*
X5508320D01*
G01X5546420D02*
X5564200D01*
G01X5569280D02*
X5592140D01*
G01X5602300D02*
X5620080D01*
G01X5259400Y2606040D02*
X5277180D01*
G01X5322900D02*
X5343220D01*
G01X5434660D02*
X5452440D01*
G01X5490540D02*
X5508320D01*
G01X5546420D02*
X5564200D01*
G01X5571820D02*
X5592140D01*
G01X5602300D02*
X5620080D01*
G01X5259400Y2603500D02*
X5277180D01*
G01X5322900D02*
X5343220D01*
G01X5434660D02*
X5452440D01*
G01X5490540D02*
X5508320D01*
G01X5546420D02*
X5564200D01*
G01X5571820D02*
X5594680D01*
G01X5602300D02*
X5620080D01*
G01X5259400Y2600960D02*
X5277180D01*
G01X5322900D02*
X5343220D01*
G01X5434660D02*
X5452440D01*
G01X5490540D02*
X5508320D01*
G01X5546420D02*
X5564200D01*
G01X5574360D02*
X5594680D01*
G01X5602300D02*
X5620080D01*
G01X5259400Y2598420D02*
X5277180D01*
G01X5322900D02*
X5343220D01*
G01X5434660D02*
X5452440D01*
G01X5490540D02*
X5508320D01*
G01X5546420D02*
X5564200D01*
G01X5574360D02*
X5594680D01*
G01X5602300D02*
X5620080D01*
G01X5259400Y2595880D02*
X5277180D01*
G01X5322900D02*
X5343220D01*
G01X5434660D02*
X5452440D01*
G01X5490540D02*
X5508320D01*
G01X5546420D02*
X5564200D01*
G01X5576900D02*
X5597220D01*
G01X5602300D02*
X5620080D01*
G01X5259400Y2593340D02*
X5277180D01*
G01X5322900D02*
X5343220D01*
G01X5434660D02*
X5452440D01*
G01X5490540D02*
X5508320D01*
G01X5546420D02*
X5564200D01*
G01X5576900D02*
X5597220D01*
G01X5602300D02*
X5620080D01*
G01X5259400Y2590800D02*
X5277180D01*
G01X5322900D02*
X5343220D01*
G01X5434660D02*
X5452440D01*
G01X5490540D02*
X5508320D01*
G01X5546420D02*
X5564200D01*
G01X5576900D02*
X5599760D01*
G01X5602300D02*
X5620080D01*
G01X5259400Y2588260D02*
X5277180D01*
G01X5322900D02*
X5343220D01*
G01X5434660D02*
X5452440D01*
G01X5490540D02*
X5508320D01*
G01X5546420D02*
X5564200D01*
G01X5579440D02*
X5620080D01*
G01X5259400Y2585720D02*
X5277180D01*
G01X5322900D02*
X5343220D01*
G01X5434660D02*
X5452440D01*
G01X5490540D02*
X5508320D01*
G01X5546420D02*
X5564200D01*
G01X5579440D02*
X5620080D01*
G01X5259400Y2583180D02*
X5277180D01*
G01X5322900D02*
X5343220D01*
G01X5434660D02*
X5452440D01*
G01X5490540D02*
X5508320D01*
G01X5546420D02*
X5564200D01*
G01X5581980D02*
X5620080D01*
G01X5259400Y2580640D02*
X5277180D01*
G01X5322900D02*
X5343220D01*
G01X5434660D02*
X5452440D01*
G01X5490540D02*
X5508320D01*
G01X5546420D02*
X5564200D01*
G01X5581980D02*
X5620080D01*
G01X5259400Y2578100D02*
X5277180D01*
G01X5322900D02*
X5343220D01*
G01X5434660D02*
X5452440D01*
G01X5490540D02*
X5508320D01*
G01X5546420D02*
X5564200D01*
G01X5584520D02*
X5620080D01*
G01X5259400Y2575560D02*
X5277180D01*
G01X5322900D02*
X5343220D01*
G01X5434660D02*
X5452440D01*
G01X5490540D02*
X5508320D01*
G01X5546420D02*
X5564200D01*
G01X5584520D02*
X5620080D01*
G01X5259400Y2573020D02*
X5277180D01*
G01X5322900D02*
X5343220D01*
G01X5378780D02*
X5396560D01*
G01X5434660D02*
X5452440D01*
G01X5490540D02*
X5508320D01*
G01X5546420D02*
X5564200D01*
G01X5587060D02*
X5620080D01*
G01X5259400Y2570480D02*
X5277180D01*
G01X5322900D02*
X5343220D01*
G01X5378780D02*
X5396560D01*
G01X5434660D02*
X5452440D01*
G01X5490540D02*
X5508320D01*
G01X5546420D02*
X5564200D01*
G01X5587060D02*
X5620080D01*
G01X5259400Y2567940D02*
X5277180D01*
G01X5322900D02*
X5343220D01*
G01X5378780D02*
X5396560D01*
G01X5434660D02*
X5452440D01*
G01X5490540D02*
X5508320D01*
G01X5546420D02*
X5564200D01*
G01X5587060D02*
X5620080D01*
G01X5259400Y2565400D02*
X5277180D01*
G01X5322900D02*
X5343220D01*
G01X5378780D02*
X5396560D01*
G01X5434660D02*
X5452440D01*
G01X5490540D02*
X5508320D01*
G01X5546420D02*
X5564200D01*
G01X5589600D02*
X5620080D01*
G01X5259400Y2562860D02*
X5277180D01*
G01X5322900D02*
X5343220D01*
G01X5378780D02*
X5396560D01*
G01X5434660D02*
X5452440D01*
G01X5490540D02*
X5508320D01*
G01X5546420D02*
X5564200D01*
G01X5589600D02*
X5620080D01*
G01X5259400Y2560320D02*
X5277180D01*
G01X5322900D02*
X5343220D01*
G01X5378780D02*
X5396560D01*
G01X5434660D02*
X5452440D01*
G01X5490540D02*
X5508320D01*
G01X5546420D02*
X5564200D01*
G01X5592140D02*
X5620080D01*
G01X5259400Y2557780D02*
X5277180D01*
G01X5322900D02*
X5343220D01*
G01X5378780D02*
X5396560D01*
G01X5434660D02*
X5454980D01*
G01X5490540D02*
X5508320D01*
G01X5546420D02*
X5564200D01*
G01X5592140D02*
X5620080D01*
G01X5259400Y2555240D02*
X5277180D01*
G01X5322900D02*
X5396560D01*
G01X5434660D02*
X5508320D01*
G01X5546420D02*
X5564200D01*
G01X5594680D02*
X5620080D01*
G01X5259400Y2552700D02*
X5277180D01*
G01X5325440D02*
X5396560D01*
G01X5434660D02*
X5508320D01*
G01X5546420D02*
X5564200D01*
G01X5594680D02*
X5620080D01*
G01X5259400Y2550160D02*
X5277180D01*
G01X5325440D02*
X5396560D01*
G01X5437200D02*
X5508320D01*
G01X5546420D02*
X5564200D01*
G01X5597220D02*
X5620080D01*
G01X5259400Y2547620D02*
X5277180D01*
G01X5325440D02*
X5394020D01*
G01X5437200D02*
X5505780D01*
G01X5546420D02*
X5564200D01*
G01X5597220D02*
X5620080D01*
G01X5259400Y2545080D02*
X5277180D01*
G01X5327980D02*
X5394020D01*
G01X5439740D02*
X5505780D01*
G01X5546420D02*
X5564200D01*
G01X5599760D02*
X5620080D01*
G01X5259400Y2542540D02*
X5277180D01*
G01X5330520D02*
X5391480D01*
G01X5442280D02*
X5503240D01*
G01X5546420D02*
X5564200D01*
G01X5599760D02*
X5620080D01*
G01X5259400Y2540000D02*
X5277180D01*
G01X5335600D02*
X5386400D01*
G01X5444820D02*
X5498160D01*
G01X5546420D02*
X5564200D01*
G01X5599760D02*
X5620080D01*
G01X5523560Y3101340D02*
X5526100D01*
G01X5462600Y3091180D02*
X5472760D01*
G01X5449900Y3088640D02*
X5460060D01*
G01X5442280Y3086100D02*
X5447360D01*
G01X5427040Y3083560D02*
X5439740D01*
G01X5688660D02*
X5736920D01*
G01X5414340Y3081020D02*
X5429580D01*
G01X5655640D02*
X5769940D01*
G01X5404180Y3078480D02*
X5419420D01*
G01X5635320D02*
X5790260D01*
G01X5394020Y3075940D02*
X5409260D01*
G01X5620080D02*
X5802960D01*
G01X5386400Y3073400D02*
X5399100D01*
G01X5607380D02*
X5813120D01*
G01X5373700Y3070860D02*
X5394020D01*
G01X5594680D02*
X5825820D01*
G01X5363540Y3068320D02*
X5383860D01*
G01X5584520D02*
X5835980D01*
G01X5355920Y3065780D02*
X5376240D01*
G01X5574360D02*
X5841060D01*
G01X5345760Y3063240D02*
X5366080D01*
G01X5566740D02*
X5848680D01*
G01X5338140Y3060700D02*
X5361000D01*
G01X5559120D02*
X5853760D01*
G01X5327980Y3058160D02*
X5353380D01*
G01X5548960D02*
X5858840D01*
G01X5317820Y3055620D02*
X5345760D01*
G01X5541340D02*
X5863920D01*
G01X5312740Y3053080D02*
X5338140D01*
G01X5536260D02*
X5866460D01*
G01X5302580Y3050540D02*
X5333060D01*
G01X5528640D02*
X5869000D01*
G01X5294960Y3048000D02*
X5325440D01*
G01X5523560D02*
X5871540D01*
G01X5287340Y3045460D02*
X5320360D01*
G01X5515940D02*
X5874080D01*
G01X5279720Y3042920D02*
X5312740D01*
G01X5510860D02*
X5876620D01*
G01X5272100Y3040380D02*
X5307660D01*
G01X5505780D02*
X5876620D01*
G01X5264480Y3037840D02*
X5302580D01*
G01X5498160D02*
X5879160D01*
G01X5256860Y3035300D02*
X5297500D01*
G01X5493080D02*
X5879160D01*
G01X5249240Y3032760D02*
X5292420D01*
G01X5488000D02*
X5881700D01*
G01X5244160Y3030220D02*
X5284800D01*
G01X5482920D02*
X5881700D01*
G01X5236540Y3027680D02*
X5279720D01*
G01X5480380D02*
X5881700D01*
G01X5228920Y3025140D02*
X5274640D01*
G01X5475300D02*
X5881700D01*
G01X5223840Y3022600D02*
X5269560D01*
G01X5470220D02*
X5881700D01*
G01X5216220Y3020060D02*
X5264480D01*
G01X5465140D02*
X5879160D01*
G01X5211140Y3017520D02*
X5259400D01*
G01X5462600D02*
X5879160D01*
G01X5206060Y3014980D02*
X5254320D01*
G01X5457520D02*
X5876620D01*
G01X5198440Y3012440D02*
X5251780D01*
G01X5454980D02*
X5874080D01*
G01X5193360Y3009900D02*
X5246700D01*
G01X5449900D02*
X5874080D01*
G01X5188280Y3007360D02*
X5241620D01*
G01X5447360D02*
X5869000D01*
G01X5442280Y3004820D02*
X5866460D01*
G01X5439740Y3002280D02*
X5861380D01*
G01X5437200Y2999740D02*
X5858840D01*
G01X5434660Y2997200D02*
X5853760D01*
G01X5432120Y2994660D02*
X5848680D01*
G01X5429580Y2992120D02*
X5843600D01*
G01X5427040Y2989580D02*
X5843600D01*
G01X5424500Y2987040D02*
X5853760D01*
G01X5421960Y2984500D02*
X5869000D01*
G01X5419420Y2981960D02*
X5884240D01*
G01X5419420Y2979420D02*
X5907100D01*
G01X5416880Y2976880D02*
X5922340D01*
G01X5416880Y2974340D02*
X5935040D01*
G01X5414340Y2971800D02*
X6145860D01*
G01X5414340Y2969260D02*
X6145860D01*
G01X5411800Y2966720D02*
X6145860D01*
G01X5411800Y2964180D02*
X6145860D01*
G01X5411800Y2961640D02*
X5663260D01*
G01X5739460D02*
X6145860D01*
G01X5411800Y2959100D02*
X5620080D01*
G01X5411800Y2956560D02*
X5589600D01*
G01X5411800Y2954020D02*
X5569280D01*
G01X5411800Y2951480D02*
X5541340D01*
G01X5411800Y2948940D02*
X5521020D01*
G01X5411800Y2946400D02*
X5508320D01*
G01X5411800Y2943860D02*
X5493080D01*
G01X5414340Y2941320D02*
X5477840D01*
G01X5414340Y2938780D02*
X5460060D01*
G01X5416880Y2936240D02*
X5454980D01*
G01X5419420Y2933700D02*
X5457520D01*
G01X5421960Y2931160D02*
X5462600D01*
G01X5421960Y2928620D02*
X5465140D01*
G01X5424500Y2926080D02*
X5472760D01*
G01X5429580Y2923540D02*
X5477840D01*
G01X5432120Y2921000D02*
X5488000D01*
G01X5437200Y2918460D02*
X5495620D01*
G01X5439740Y2915920D02*
X5508320D01*
G01X5444820Y2913380D02*
X5533720D01*
G01X5452440Y2910840D02*
X5602300D01*
G01X5457520Y2908300D02*
X5635320D01*
G01X5465140Y2905760D02*
X5653100D01*
G01X5472760Y2903220D02*
X5668340D01*
G01X5480380Y2900680D02*
X5683580D01*
G01X5490540Y2898140D02*
X5691200D01*
G01X5508320Y2895600D02*
X5698820D01*
G01X5541340Y2893060D02*
X5706440D01*
G01X5615000Y2890520D02*
X5711520D01*
G01X5640400Y2887980D02*
X5719140D01*
G01X5665800Y2885440D02*
X5724220D01*
G01X5675960Y2882900D02*
X5726760D01*
G01X5683580Y2880360D02*
X5731840D01*
G01X5691200Y2877820D02*
X5734380D01*
G01X5696280Y2875280D02*
X5739460D01*
G01X5701360Y2872740D02*
X5739460D01*
G01X5701360Y2870200D02*
X5742000D01*
G01X5683580Y2867660D02*
X5744540D01*
G01X5668340Y2865120D02*
X5747080D01*
G01X5653100Y2862580D02*
X5747080D01*
G01X5637860Y2860040D02*
X5749620D01*
G01X5620080Y2857500D02*
X5749620D01*
G01X5592140Y2854960D02*
X5752160D01*
G01X5566740Y2852420D02*
X5752160D01*
G01X5536260Y2849880D02*
X5752160D01*
G01X5480380Y2847340D02*
X5752160D01*
G01X5218760Y2834640D02*
X5747080D01*
G01X5228920Y2832100D02*
X5747080D01*
G01X5239080Y2829560D02*
X5744540D01*
G01X5251780Y2827020D02*
X5744540D01*
G01X5261940Y2824480D02*
X5742000D01*
G01X5272100Y2821940D02*
X5739460D01*
G01X5282260Y2819400D02*
X5739460D01*
G01X5294960Y2816860D02*
X5734380D01*
G01X5305120Y2814320D02*
X5731840D01*
G01X5305120Y2811780D02*
X5729300D01*
G01X5300040Y2809240D02*
X5726760D01*
G01X5297500Y2806700D02*
X5724220D01*
G01X5294960Y2804160D02*
X5719140D01*
G01X5292420Y2801620D02*
X5716600D01*
G01X5287340Y2799080D02*
X5714060D01*
G01X5284800Y2796540D02*
X5708980D01*
G01X5282260Y2794000D02*
X5706440D01*
G01X5282260Y2791460D02*
X5701360D01*
G01X5279720Y2788920D02*
X5698820D01*
G01X5279720Y2786380D02*
X5693740D01*
G01X5279720Y2783840D02*
X5688660D01*
G01X5279720Y2781300D02*
X5683580D01*
G01X5279720Y2778760D02*
X5678500D01*
G01X5282260Y2776220D02*
X5673420D01*
G01X5284800Y2773680D02*
X5665800D01*
G01X5284800Y2771140D02*
X5660720D01*
G01X5287340Y2768600D02*
X5653100D01*
G01X5292420Y2766060D02*
X5645480D01*
G01X5294960Y2763520D02*
X5640400D01*
G01X5297500Y2760980D02*
X5630240D01*
G01X5302580Y2758440D02*
X5622620D01*
G01X5307660Y2755900D02*
X5612460D01*
G01X5312740Y2753360D02*
X5604840D01*
G01X5317820Y2750820D02*
X5594680D01*
G01X5325440Y2748280D02*
X5581980D01*
G01X5333060Y2745740D02*
X5569280D01*
G01X5340680Y2743200D02*
X5559120D01*
G01X5353380Y2740660D02*
X5543880D01*
G01X5366080Y2738120D02*
X5526100D01*
G01X5383860Y2735580D02*
X5503240D01*
G01X5411800Y2733040D02*
X5472760D01*
G01X5259400Y2667000D02*
X5277180D01*
G01X5335600D02*
X5383860D01*
G01X5447360D02*
X5495620D01*
G01X5546420D02*
X5564200D01*
G01X5602300D02*
X5620080D01*
G01X5259400Y2664460D02*
X5277180D01*
G01X5330520D02*
X5388940D01*
G01X5442280D02*
X5500700D01*
G01X5546420D02*
X5566740D01*
G01X5602300D02*
X5620080D01*
G01X5259400Y2661920D02*
X5277180D01*
G01X5327980D02*
X5391480D01*
G01X5439740D02*
X5503240D01*
G01X5546420D02*
X5566740D01*
G01X5602300D02*
X5620080D01*
G01X5259400Y2659380D02*
X5277180D01*
G01X5327980D02*
X5394020D01*
G01X5437200D02*
X5505780D01*
G01X5546420D02*
X5569280D01*
G01X5602300D02*
X5620080D01*
G01X5259400Y2656840D02*
X5277180D01*
G01X5325440D02*
X5396560D01*
G01X5437200D02*
X5508320D01*
G01X5546420D02*
X5569280D01*
G01X5602300D02*
X5620080D01*
G01X5259400Y2654300D02*
X5277180D01*
G01X5325440D02*
X5396560D01*
G01X5434660D02*
X5508320D01*
G01X5546420D02*
X5571820D01*
G01X5602300D02*
X5620080D01*
G01X5259400Y2651760D02*
X5277180D01*
G01X5322900D02*
X5396560D01*
G01X5434660D02*
X5508320D01*
G01X5546420D02*
X5571820D01*
G01X5602300D02*
X5620080D01*
G01X5259400Y2649220D02*
X5277180D01*
G01X5322900D02*
X5396560D01*
G01X5434660D02*
X5508320D01*
G01X5546420D02*
X5574360D01*
G01X5602300D02*
X5620080D01*
G01X5259400Y2646680D02*
X5277180D01*
G01X5322900D02*
X5343220D01*
G01X5378780D02*
X5396560D01*
G01X5434660D02*
X5452440D01*
G01X5490540D02*
X5508320D01*
G01X5546420D02*
X5574360D01*
G01X5602300D02*
X5620080D01*
G01X5259400Y2644140D02*
X5277180D01*
G01X5322900D02*
X5343220D01*
G01X5378780D02*
X5396560D01*
G01X5434660D02*
X5452440D01*
G01X5490540D02*
X5508320D01*
G01X5546420D02*
X5574360D01*
G01X5602300D02*
X5620080D01*
G01X5259400Y2641600D02*
X5277180D01*
G01X5322900D02*
X5343220D01*
G01X5378780D02*
X5396560D01*
G01X5434660D02*
X5452440D01*
G01X5490540D02*
X5508320D01*
G01X5546420D02*
X5576900D01*
G01X5602300D02*
X5620080D01*
G01X5259400Y2639060D02*
X5277180D01*
G01X5322900D02*
X5343220D01*
G01X5378780D02*
X5396560D01*
G01X5434660D02*
X5452440D01*
G01X5490540D02*
X5508320D01*
G01X5546420D02*
X5576900D01*
G01X5602300D02*
X5620080D01*
G01X5259400Y2636520D02*
X5277180D01*
G01X5322900D02*
X5343220D01*
G01X5378780D02*
X5396560D01*
G01X5434660D02*
X5452440D01*
G01X5490540D02*
X5508320D01*
G01X5546420D02*
X5579440D01*
G01X5602300D02*
X5620080D01*
G01X5259400Y2633980D02*
X5277180D01*
G01X5322900D02*
X5343220D01*
G01X5434660D02*
X5452440D01*
G01X5490540D02*
X5508320D01*
G01X5546420D02*
X5579440D01*
G01X5602300D02*
X5620080D01*
G01X5259400Y2631440D02*
X5277180D01*
G01X5322900D02*
X5343220D01*
G01X5434660D02*
X5452440D01*
G01X5490540D02*
X5508320D01*
G01X5546420D02*
X5581980D01*
G01X5602300D02*
X5620080D01*
G01X5259400Y2628900D02*
X5277180D01*
G01X5322900D02*
X5343220D01*
G01X5434660D02*
X5452440D01*
G01X5490540D02*
X5508320D01*
G01X5546420D02*
X5581980D01*
G01X5602300D02*
X5620080D01*
G01X5759780Y2626360D02*
X5777560D01*
G01X5871540D02*
X5891860D01*
G01X5896940D02*
X5914720D01*
G01X5973140D02*
X5990920D01*
G01X6029020D02*
X6046800D01*
G01X6074740D02*
X6097600D01*
G01X5759780Y2623820D02*
X5777560D01*
G01X5871540D02*
X5889320D01*
G01X5896940D02*
X5914720D01*
G01X5973140D02*
X5990920D01*
G01X6029020D02*
X6046800D01*
G01X6074740D02*
X6102680D01*
G01X5759780Y2621280D02*
X5777560D01*
G01X5871540D02*
X5889320D01*
G01X5899480D02*
X5917260D01*
G01X5973140D02*
X5990920D01*
G01X6029020D02*
X6046800D01*
G01X6074740D02*
X6107760D01*
G01X5759780Y2618740D02*
X5777560D01*
G01X5869000D02*
X5889320D01*
G01X5899480D02*
X5917260D01*
G01X5973140D02*
X5990920D01*
G01X6029020D02*
X6046800D01*
G01X6077280D02*
X6112840D01*
G01X5759780Y2616200D02*
X5777560D01*
G01X5869000D02*
X5889320D01*
G01X5899480D02*
X5917260D01*
G01X5973140D02*
X5990920D01*
G01X6029020D02*
X6046800D01*
G01X6077280D02*
X6117920D01*
G01X5759780Y2613660D02*
X5777560D01*
G01X5869000D02*
X5886780D01*
G01X5899480D02*
X5919800D01*
G01X5973140D02*
X5990920D01*
G01X6026480D02*
X6044260D01*
G01X6079820D02*
X6123000D01*
G01X5759780Y2611120D02*
X5777560D01*
G01X5869000D02*
X5886780D01*
G01X5902020D02*
X5919800D01*
G01X5973140D02*
X6041720D01*
G01X6084900D02*
X6128080D01*
G01X5759780Y2608580D02*
X5777560D01*
G01X5866460D02*
X5886780D01*
G01X5902020D02*
X5919800D01*
G01X5973140D02*
X6039180D01*
G01X6087440D02*
X6133160D01*
G01X5759780Y2606040D02*
X5777560D01*
G01X5866460D02*
X5886780D01*
G01X5902020D02*
X5922340D01*
G01X5973140D02*
X6036640D01*
G01X6092520D02*
X6138240D01*
G01X5759780Y2603500D02*
X5777560D01*
G01X5866460D02*
X5884240D01*
G01X5902020D02*
X5922340D01*
G01X5973140D02*
X6034100D01*
G01X6097600D02*
X6140780D01*
G01X5759780Y2600960D02*
X5777560D01*
G01X5866460D02*
X5884240D01*
G01X5904560D02*
X5922340D01*
G01X5973140D02*
X6034100D01*
G01X6102680D02*
X6143320D01*
G01X5759780Y2598420D02*
X5777560D01*
G01X5863920D02*
X5884240D01*
G01X5904560D02*
X5922340D01*
G01X5973140D02*
X6036640D01*
G01X6107760D02*
X6145860D01*
G01X5759780Y2595880D02*
X5777560D01*
G01X5863920D02*
X5881700D01*
G01X5904560D02*
X5924880D01*
G01X5973140D02*
X6039180D01*
G01X6112840D02*
X6148400D01*
G01X5759780Y2593340D02*
X5777560D01*
G01X5863920D02*
X5881700D01*
G01X5904560D02*
X5924880D01*
G01X5973140D02*
X5993460D01*
G01X6026480D02*
X6041720D01*
G01X6117920D02*
X6148400D01*
G01X5759780Y2590800D02*
X5777560D01*
G01X5861380D02*
X5881700D01*
G01X5907100D02*
X5924880D01*
G01X5973140D02*
X5990920D01*
G01X6029020D02*
X6044260D01*
G01X6123000D02*
X6148400D01*
G01X5759780Y2588260D02*
X5777560D01*
G01X5861380D02*
X5881700D01*
G01X5907100D02*
X5927420D01*
G01X5973140D02*
X5990920D01*
G01X6029020D02*
X6046800D01*
G01X6125540D02*
X6148400D01*
G01X5759780Y2585720D02*
X5777560D01*
G01X5861380D02*
X5881700D01*
G01X5907100D02*
X5927420D01*
G01X5973140D02*
X5990920D01*
G01X6029020D02*
X6046800D01*
G01X6128080D02*
X6148400D01*
G01X5759780Y2583180D02*
X5777560D01*
G01X5861380D02*
X5927420D01*
G01X5973140D02*
X5990920D01*
G01X6029020D02*
X6046800D01*
G01X6130620D02*
X6148400D01*
G01X5759780Y2580640D02*
X5777560D01*
G01X5858840D02*
X5927420D01*
G01X5973140D02*
X5990920D01*
G01X6029020D02*
X6046800D01*
G01X6130620D02*
X6148400D01*
G01X5759780Y2578100D02*
X5777560D01*
G01X5858840D02*
X5929960D01*
G01X5973140D02*
X5990920D01*
G01X6029020D02*
X6046800D01*
G01X6130620D02*
X6148400D01*
G01X5759780Y2575560D02*
X5777560D01*
G01X5858840D02*
X5929960D01*
G01X5973140D02*
X5990920D01*
G01X6029020D02*
X6046800D01*
G01X6130620D02*
X6148400D01*
G01X5759780Y2573020D02*
X5777560D01*
G01X5856300D02*
X5929960D01*
G01X5973140D02*
X5990920D01*
G01X6029020D02*
X6046800D01*
G01X6074740D02*
X6092520D01*
G01X6130620D02*
X6148400D01*
G01X5759780Y2570480D02*
X5777560D01*
G01X5856300D02*
X5929960D01*
G01X5973140D02*
X5990920D01*
G01X6029020D02*
X6046800D01*
G01X6074740D02*
X6092520D01*
G01X6130620D02*
X6148400D01*
G01X5759780Y2567940D02*
X5777560D01*
G01X5856300D02*
X5932500D01*
G01X5973140D02*
X5990920D01*
G01X6029020D02*
X6046800D01*
G01X6074740D02*
X6092520D01*
G01X6130620D02*
X6148400D01*
G01X5759780Y2565400D02*
X5777560D01*
G01X5856300D02*
X5874080D01*
G01X5912180D02*
X5932500D01*
G01X5973140D02*
X5990920D01*
G01X6029020D02*
X6046800D01*
G01X6074740D02*
X6092520D01*
G01X6130620D02*
X6148400D01*
G01X5759780Y2562860D02*
X5777560D01*
G01X5853760D02*
X5874080D01*
G01X5914720D02*
X5932500D01*
G01X5973140D02*
X5990920D01*
G01X6029020D02*
X6046800D01*
G01X6074740D02*
X6092520D01*
G01X6130620D02*
X6148400D01*
G01X5759780Y2560320D02*
X5777560D01*
G01X5853760D02*
X5874080D01*
G01X5914720D02*
X5935040D01*
G01X5973140D02*
X5990920D01*
G01X6029020D02*
X6046800D01*
G01X6074740D02*
X6092520D01*
G01X6130620D02*
X6148400D01*
G01X5759780Y2557780D02*
X5780100D01*
G01X5853760D02*
X5871540D01*
G01X5914720D02*
X5935040D01*
G01X5973140D02*
X5990920D01*
G01X6026480D02*
X6046800D01*
G01X6074740D02*
X6095060D01*
G01X6128080D02*
X6148400D01*
G01X5759780Y2555240D02*
X5823280D01*
G01X5851220D02*
X5871540D01*
G01X5914720D02*
X5935040D01*
G01X5973140D02*
X6046800D01*
G01X6074740D02*
X6148400D01*
G01X5759780Y2552700D02*
X5823280D01*
G01X5851220D02*
X5871540D01*
G01X5917260D02*
X5935040D01*
G01X5973140D02*
X6046800D01*
G01X6074740D02*
X6148400D01*
G01X5759780Y2550160D02*
X5823280D01*
G01X5851220D02*
X5869000D01*
G01X5917260D02*
X5937580D01*
G01X5973140D02*
X6046800D01*
G01X6074740D02*
X6148400D01*
G01X5759780Y2547620D02*
X5823280D01*
G01X5848680D02*
X5869000D01*
G01X5917260D02*
X5937580D01*
G01X5973140D02*
X6044260D01*
G01X6077280D02*
X6145860D01*
G01X5759780Y2545080D02*
X5823280D01*
G01X5848680D02*
X5869000D01*
G01X5917260D02*
X5937580D01*
G01X5973140D02*
X6041720D01*
G01X6079820D02*
X6143320D01*
G01X5759780Y2542540D02*
X5823280D01*
G01X5848680D02*
X5869000D01*
G01X5919800D02*
X5940120D01*
G01X5973140D02*
X6039180D01*
G01X6082360D02*
X6140780D01*
G01X5759780Y2540000D02*
X5823280D01*
G01X5848680D02*
X5866460D01*
G01X5919800D02*
X5940120D01*
G01X5973140D02*
X6036640D01*
G01X6084900D02*
X6138240D01*
G01X6120460Y3114040D02*
X6130620D01*
G01X6112840Y3111500D02*
X6138240D01*
G01X6110300Y3108960D02*
X6140780D01*
G01X6107760Y3106420D02*
X6115380D01*
G01X6135700D02*
X6145860D01*
G01X6105220Y3103880D02*
X6112840D01*
G01X6138240D02*
X6145860D01*
G01X6102680Y3101340D02*
X6110300D01*
G01X6115380D02*
X6133160D01*
G01X6140780D02*
X6148400D01*
G01X6102680Y3098800D02*
X6107760D01*
G01X6115380D02*
X6135700D01*
G01X6143320D02*
X6148400D01*
G01X6100140Y3096260D02*
X6107760D01*
G01X6115380D02*
X6120460D01*
G01X6130620D02*
X6138240D01*
G01X6143320D02*
X6150940D01*
G01X6100140Y3093720D02*
X6105220D01*
G01X6115380D02*
X6120460D01*
G01X6130620D02*
X6138240D01*
G01X6145860D02*
X6150940D01*
G01X6018860Y3091180D02*
X6023940D01*
G01X6100140D02*
X6105220D01*
G01X6115380D02*
X6120460D01*
G01X6125540D02*
X6135700D01*
G01X6145860D02*
X6150940D01*
G01X6023940Y3088640D02*
X6031560D01*
G01X6100140D02*
X6105220D01*
G01X6115380D02*
X6135700D01*
G01X6145860D02*
X6150940D01*
G01X6026480Y3086100D02*
X6039180D01*
G01X6100140D02*
X6105220D01*
G01X6115380D02*
X6133160D01*
G01X6145860D02*
X6150940D01*
G01X6031560Y3083560D02*
X6046800D01*
G01X6100140D02*
X6105220D01*
G01X6115380D02*
X6120460D01*
G01X6128080D02*
X6133160D01*
G01X6145860D02*
X6150940D01*
G01X6034100Y3081020D02*
X6054420D01*
G01X6100140D02*
X6107760D01*
G01X6115380D02*
X6120460D01*
G01X6128080D02*
X6135700D01*
G01X6143320D02*
X6150940D01*
G01X6036640Y3078480D02*
X6059500D01*
G01X6102680D02*
X6107760D01*
G01X6115380D02*
X6120460D01*
G01X6130620D02*
X6138240D01*
G01X6143320D02*
X6150940D01*
G01X6039180Y3075940D02*
X6064580D01*
G01X6102680D02*
X6110300D01*
G01X6115380D02*
X6120460D01*
G01X6133160D02*
X6138240D01*
G01X6140780D02*
X6148400D01*
G01X6041720Y3073400D02*
X6069660D01*
G01X6105220D02*
X6112840D01*
G01X6135700D02*
X6145860D01*
G01X6044260Y3070860D02*
X6074740D01*
G01X6105220D02*
X6115380D01*
G01X6135700D02*
X6145860D01*
G01X6046800Y3068320D02*
X6079820D01*
G01X6110300D02*
X6140780D01*
G01X6049340Y3065780D02*
X6084900D01*
G01X6112840D02*
X6138240D01*
G01X6049340Y3063240D02*
X6089980D01*
G01X6120460D02*
X6130620D01*
G01X6051880Y3060700D02*
X6092520D01*
G01X6051880Y3058160D02*
X6097600D01*
G01X6051880Y3055620D02*
X6102680D01*
G01X6054420Y3053080D02*
X6105220D01*
G01X6054420Y3050540D02*
X6107760D01*
G01X6054420Y3048000D02*
X6112840D01*
G01X6054420Y3045460D02*
X6115380D01*
G01X6054420Y3042920D02*
X6117920D01*
G01X6054420Y3040380D02*
X6120460D01*
G01X6054420Y3037840D02*
X6123000D01*
G01X6054420Y3035300D02*
X6125540D01*
G01X6054420Y3032760D02*
X6128080D01*
G01X6051880Y3030220D02*
X6130620D01*
G01X6051880Y3027680D02*
X6133160D01*
G01X6049340Y3025140D02*
X6133160D01*
G01X6049340Y3022600D02*
X6135700D01*
G01X6046800Y3020060D02*
X6138240D01*
G01X6044260Y3017520D02*
X6138240D01*
G01X6041720Y3014980D02*
X6140780D01*
G01X6039180Y3012440D02*
X6140780D01*
G01X6039180Y3009900D02*
X6143320D01*
G01X6034100Y3007360D02*
X6143320D01*
G01X6031560Y3004820D02*
X6143320D01*
G01X6026480Y3002280D02*
X6145860D01*
G01X6023940Y2999740D02*
X6145860D01*
G01X6018860Y2997200D02*
X6145860D01*
G01X6013780Y2994660D02*
X6145860D01*
G01X6006160Y2992120D02*
X6148400D01*
G01X5998540Y2989580D02*
X6148400D01*
G01X5993460Y2987040D02*
X6148400D01*
G01X5985840Y2984500D02*
X6148400D01*
G01X5978220Y2981960D02*
X6148400D01*
G01X5968060Y2979420D02*
X6148400D01*
G01X5960440Y2976880D02*
X6148400D01*
G01X5952820Y2974340D02*
X6148400D01*
G01X5780100Y2959100D02*
X6143320D01*
G01X5805500Y2956560D02*
X6143320D01*
G01X5823280Y2954020D02*
X6143320D01*
G01X5846140Y2951480D02*
X6140780D01*
G01X5863920Y2948940D02*
X6140780D01*
G01X5874080Y2946400D02*
X6138240D01*
G01X5886780Y2943860D02*
X6138240D01*
G01X5896940Y2941320D02*
X6135700D01*
G01X5907100Y2938780D02*
X6135700D01*
G01X5914720Y2936240D02*
X6133160D01*
G01X5919800Y2933700D02*
X6133160D01*
G01X5927420Y2931160D02*
X6130620D01*
G01X5932500Y2928620D02*
X6128080D01*
G01X5937580Y2926080D02*
X6125540D01*
G01X5942660Y2923540D02*
X6125540D01*
G01X5945200Y2921000D02*
X6123000D01*
G01X5950280Y2918460D02*
X6120460D01*
G01X5955360Y2915920D02*
X6117920D01*
G01X5957900Y2913380D02*
X6117920D01*
G01X5960440Y2910840D02*
X6115380D01*
G01X5962980Y2908300D02*
X6112840D01*
G01X5965520Y2905760D02*
X6110300D01*
G01X5968060Y2903220D02*
X6107760D01*
G01X5970600Y2900680D02*
X6105220D01*
G01X5970600Y2898140D02*
X6102680D01*
G01X5973140Y2895600D02*
X6100140D01*
G01X5973140Y2893060D02*
X6097600D01*
G01X5975680Y2890520D02*
X6095060D01*
G01X5975680Y2887980D02*
X6092520D01*
G01X5978220Y2885440D02*
X6089980D01*
G01X5978220Y2882900D02*
X6084900D01*
G01X5978220Y2880360D02*
X6082360D01*
G01X5978220Y2877820D02*
X6079820D01*
G01X5978220Y2875280D02*
X6077280D01*
G01X5978220Y2872740D02*
X6072200D01*
G01X5978220Y2870200D02*
X6069660D01*
G01X5978220Y2867660D02*
X6067120D01*
G01X5975680Y2865120D02*
X6062040D01*
G01X5975680Y2862580D02*
X6059500D01*
G01X5975680Y2860040D02*
X6054420D01*
G01X5973140Y2857500D02*
X6049340D01*
G01X5973140Y2854960D02*
X6046800D01*
G01X5970600Y2852420D02*
X6041720D01*
G01X5970600Y2849880D02*
X6039180D01*
G01X5968060Y2847340D02*
X6034100D01*
G01X5968060Y2844800D02*
X6029020D01*
G01X5965520Y2842260D02*
X6026480D01*
G01X5962980Y2839720D02*
X6021400D01*
G01X5960440Y2837180D02*
X6016320D01*
G01X5957900Y2834640D02*
X6011240D01*
G01X5955360Y2832100D02*
X6008700D01*
G01X5952820Y2829560D02*
X6003620D01*
G01X5950280Y2827020D02*
X5998540D01*
G01X5947740Y2824480D02*
X5993460D01*
G01X5945200Y2821940D02*
X5988380D01*
G01X5940120Y2819400D02*
X5983300D01*
G01X5937580Y2816860D02*
X5978220D01*
G01X5935040Y2814320D02*
X5973140D01*
G01X5932500Y2811780D02*
X5968060D01*
G01X5927420Y2809240D02*
X5962980D01*
G01X5924880Y2806700D02*
X5955360D01*
G01X5919800Y2804160D02*
X5950280D01*
G01X5917260Y2801620D02*
X5945200D01*
G01X5912180Y2799080D02*
X5940120D01*
G01X5907100Y2796540D02*
X5935040D01*
G01X5904560Y2794000D02*
X5927420D01*
G01X5899480Y2791460D02*
X5919800D01*
G01X5894400Y2788920D02*
X5914720D01*
G01X5889320Y2786380D02*
X5907100D01*
G01X5884240Y2783840D02*
X5902020D01*
G01X5879160Y2781300D02*
X5891860D01*
G01X5874080Y2778760D02*
X5886780D01*
G01X5866460Y2776220D02*
X5879160D01*
G01X5861380Y2773680D02*
X5871540D01*
G01X5856300Y2771140D02*
X5863920D01*
G01X5851220Y2768600D02*
X5856300D01*
G01X5846140Y2766060D02*
X5848680D01*
G01X5835980Y2763520D02*
X5841060D01*
G01X5759780Y2667000D02*
X5777560D01*
G01X5884240D02*
X5902020D01*
G01X5973140D02*
X6034100D01*
G01X6087440D02*
X6138240D01*
G01X5759780Y2664460D02*
X5777560D01*
G01X5884240D02*
X5904560D01*
G01X5973140D02*
X6039180D01*
G01X6082360D02*
X6143320D01*
G01X5759780Y2661920D02*
X5777560D01*
G01X5881700D02*
X5904560D01*
G01X5973140D02*
X6041720D01*
G01X6079820D02*
X6145860D01*
G01X5759780Y2659380D02*
X5777560D01*
G01X5881700D02*
X5907100D01*
G01X5973140D02*
X6044260D01*
G01X6077280D02*
X6148400D01*
G01X5759780Y2656840D02*
X5777560D01*
G01X5881700D02*
X5907100D01*
G01X5973140D02*
X6044260D01*
G01X6077280D02*
X6148400D01*
G01X5759780Y2654300D02*
X5777560D01*
G01X5881700D02*
X5907100D01*
G01X5973140D02*
X6046800D01*
G01X6074740D02*
X6148400D01*
G01X5759780Y2651760D02*
X5777560D01*
G01X5879160D02*
X5907100D01*
G01X5973140D02*
X6046800D01*
G01X6074740D02*
X6148400D01*
G01X5759780Y2649220D02*
X5777560D01*
G01X5879160D02*
X5909640D01*
G01X5973140D02*
X6046800D01*
G01X6074740D02*
X6148400D01*
G01X5759780Y2646680D02*
X5777560D01*
G01X5879160D02*
X5909640D01*
G01X5973140D02*
X5990920D01*
G01X6029020D02*
X6046800D01*
G01X6074740D02*
X6092520D01*
G01X6130620D02*
X6148400D01*
G01X5759780Y2644140D02*
X5777560D01*
G01X5879160D02*
X5909640D01*
G01X5973140D02*
X5990920D01*
G01X6029020D02*
X6046800D01*
G01X6074740D02*
X6092520D01*
G01X6130620D02*
X6148400D01*
G01X5759780Y2641600D02*
X5777560D01*
G01X5876620D02*
X5912180D01*
G01X5973140D02*
X5990920D01*
G01X6029020D02*
X6046800D01*
G01X6074740D02*
X6092520D01*
G01X6130620D02*
X6148400D01*
G01X5759780Y2639060D02*
X5777560D01*
G01X5876620D02*
X5912180D01*
G01X5973140D02*
X5990920D01*
G01X6029020D02*
X6046800D01*
G01X6074740D02*
X6092520D01*
G01X6130620D02*
X6148400D01*
G01X5759780Y2636520D02*
X5777560D01*
G01X5876620D02*
X5912180D01*
G01X5973140D02*
X5990920D01*
G01X6029020D02*
X6046800D01*
G01X6074740D02*
X6092520D01*
G01X6130620D02*
X6148400D01*
G01X5759780Y2633980D02*
X5777560D01*
G01X5874080D02*
X5912180D01*
G01X5973140D02*
X5990920D01*
G01X6029020D02*
X6046800D01*
G01X6074740D02*
X6092520D01*
G01X5759780Y2631440D02*
X5777560D01*
G01X5874080D02*
X5891860D01*
G01X5894400D02*
X5914720D01*
G01X5973140D02*
X5990920D01*
G01X6029020D02*
X6046800D01*
G01X6074740D02*
X6092520D01*
G01X5759780Y2628900D02*
X5777560D01*
G01X5874080D02*
X5891860D01*
G01X5896940D02*
X5914720D01*
G01X5973140D02*
X5990920D01*
G01X6029020D02*
X6046800D01*
G01X6074740D02*
X6095060D01*
G54D13*
G01X68000Y4170000D02*
Y4260000D01*
X88000D01*
X96000Y4255500D01*
X102000Y4249500D01*
X107000Y4240500D01*
X111000Y4230000D01*
X112000Y4215000D01*
X111000Y4200000D01*
X107000Y4189500D01*
X102000Y4180500D01*
X96000Y4174500D01*
X88000Y4170000D01*
X68000D01*
G01X182000Y4252500D02*
X176000Y4257000D01*
X169000Y4260000D01*
X161000D01*
X152000Y4255500D01*
X145000Y4248000D01*
X140000Y4239000D01*
X136000Y4224000D01*
X135000Y4210500D01*
X137000Y4197000D01*
X140000Y4188000D01*
X146000Y4179000D01*
X153000Y4173000D01*
X160000Y4170000D01*
X167000D01*
X174000Y4173000D01*
X180000Y4177500D01*
X185000Y4183500D01*
G01X230000Y4167000D02*
X228000Y4168500D01*
Y4171500D01*
X230000Y4173000D01*
X232000Y4171500D01*
Y4168500D01*
X230000Y4167000D01*
G01Y4207500D02*
X228000Y4209000D01*
Y4212000D01*
X230000Y4213500D01*
X232000Y4212000D01*
Y4209000D01*
X230000Y4207500D01*
G01X278000Y4183500D02*
X284000Y4176000D01*
X291000Y4171500D01*
X300000Y4170000D01*
X309000Y4173000D01*
X316000Y4179000D01*
X321000Y4189500D01*
X322000Y4201500D01*
X320000Y4213500D01*
X315000Y4221000D01*
X308000Y4227000D01*
X301000Y4228500D01*
X294000Y4227000D01*
X285000Y4221000D01*
X288000Y4260000D01*
X315000D01*
G01X357000Y4200000D02*
X383000D01*
G01X440000Y4170000D02*
Y4260000D01*
X428000Y4242000D01*
G01Y4170000D02*
X452000D01*
G01X491000Y4245000D02*
X497000Y4254000D01*
X504000Y4258500D01*
X512000Y4260000D01*
X522000Y4257000D01*
X529000Y4249500D01*
X531000Y4240500D01*
X530000Y4231500D01*
X526000Y4224000D01*
X506000Y4209000D01*
X497000Y4198500D01*
X491000Y4183500D01*
X489000Y4170000D01*
X531000D01*
G01X555000Y4260000D02*
X580000Y4170000D01*
X605000Y4260000D01*
G01X628000Y4368000D02*
X634000Y4357500D01*
X642000Y4351500D01*
X651000Y4350000D01*
X659000Y4351500D01*
X667000Y4359000D01*
X672000Y4368000D01*
X673000Y4377000D01*
X671000Y4387500D01*
X664000Y4395000D01*
X657000Y4398000D01*
X648000D01*
G01X657000D02*
X663000Y4402500D01*
X668000Y4410000D01*
X670000Y4419000D01*
X668000Y4428000D01*
X663000Y4435500D01*
X654000Y4440000D01*
X645000Y4438500D01*
X636000Y4432500D01*
G01X695000Y4440000D02*
X720000Y4350000D01*
X745000Y4440000D01*
G01X768000Y4368000D02*
X774000Y4357500D01*
X782000Y4351500D01*
X791000Y4350000D01*
X799000Y4351500D01*
X807000Y4359000D01*
X812000Y4368000D01*
X813000Y4377000D01*
X811000Y4387500D01*
X804000Y4395000D01*
X797000Y4398000D01*
X788000D01*
G01X797000D02*
X803000Y4402500D01*
X808000Y4410000D01*
X810000Y4419000D01*
X808000Y4428000D01*
X803000Y4435500D01*
X794000Y4440000D01*
X785000Y4438500D01*
X776000Y4432500D01*
G01X1810000Y4950000D02*
X1720000D01*
Y4975000D01*
X1724500Y4983000D01*
X1730500Y4988000D01*
X1742500Y4990000D01*
X1754500Y4988000D01*
X1762000Y4982000D01*
X1766500Y4975000D01*
Y4950000D01*
G01Y4975000D02*
X1810000Y4990000D01*
G01X1590000Y4970000D02*
X1680000D01*
G01X1590000Y4947000D02*
Y4993000D01*
G01X2125000Y116000D02*
Y136000D01*
X2152000D01*
X2161000Y130000D01*
X2167000Y123000D01*
X2170000Y113000D01*
X2167000Y103000D01*
X2161000Y96000D01*
X2152000Y90000D01*
X2141500Y86000D01*
X2129500Y84000D01*
X2119000D01*
X2110000Y86000D01*
X2099500Y90000D01*
X2090500Y96000D01*
X2084500Y102000D01*
X2080000Y110000D01*
Y117000D01*
X2083000Y125000D01*
X2089000Y131000D01*
G01X2406500Y78000D02*
X2414000Y84000D01*
X2418500Y91000D01*
X2420000Y100000D01*
X2417000Y109000D01*
X2411000Y116000D01*
X2400500Y121000D01*
X2388500Y122000D01*
X2376500Y120000D01*
X2369000Y115000D01*
X2363000Y108000D01*
X2361500Y101000D01*
X2363000Y94000D01*
X2369000Y85000D01*
X2330000Y88000D01*
Y115000D01*
G01Y145000D02*
X2420000Y170000D01*
X2330000Y195000D01*
G01X2050000Y520000D02*
Y610000D01*
X2074000D01*
X2082000Y605500D01*
X2088000Y595000D01*
X2090000Y583000D01*
X2088000Y571000D01*
X2083000Y562000D01*
X2074000Y557500D01*
X2050000D01*
G01X2110000Y610000D02*
X2124000Y520000D01*
X2140000Y610000D01*
X2156000Y520000D01*
X2170000Y610000D01*
G01X2190000Y520000D02*
Y610000D01*
X2215000D01*
X2223000Y605500D01*
X2228000Y599500D01*
X2230000Y587500D01*
X2228000Y575500D01*
X2222000Y568000D01*
X2215000Y563500D01*
X2190000D01*
G01X2215000D02*
X2230000Y520000D01*
G01X2261000Y595000D02*
X2267000Y604000D01*
X2274000Y608500D01*
X2282000Y610000D01*
X2292000Y607000D01*
X2299000Y599500D01*
X2301000Y590500D01*
X2300000Y581500D01*
X2296000Y574000D01*
X2276000Y559000D01*
X2267000Y548500D01*
X2261000Y533500D01*
X2259000Y520000D01*
X2301000D01*
G01X2080000Y4220000D02*
X2040000D01*
Y4310000D01*
X2080000D01*
G01X2064000Y4266500D02*
X2040000D01*
G01X2107000Y4220000D02*
Y4310000D01*
X2153000Y4220000D01*
Y4310000D01*
G01X2179000Y4220000D02*
Y4310000D01*
G01X2221000D02*
Y4220000D01*
G01Y4265000D02*
X2179000D01*
G01X2245000Y4220000D02*
X2270000Y4310000D01*
X2295000Y4220000D01*
G01X2286000Y4251500D02*
X2254000D01*
G01X2317000Y4220000D02*
Y4310000D01*
X2363000Y4220000D01*
Y4310000D01*
G01X2432000Y4302500D02*
X2426000Y4307000D01*
X2419000Y4310000D01*
X2411000D01*
X2402000Y4305500D01*
X2395000Y4298000D01*
X2390000Y4289000D01*
X2386000Y4274000D01*
X2385000Y4260500D01*
X2387000Y4247000D01*
X2390000Y4238000D01*
X2396000Y4229000D01*
X2403000Y4223000D01*
X2410000Y4220000D01*
X2417000D01*
X2424000Y4223000D01*
X2430000Y4227500D01*
X2435000Y4233500D01*
G01X2500000Y4220000D02*
X2460000D01*
Y4310000D01*
X2500000D01*
G01X2484000Y4266500D02*
X2460000D01*
G01X2528000Y4220000D02*
Y4310000D01*
X2548000D01*
X2556000Y4305500D01*
X2562000Y4299500D01*
X2567000Y4290500D01*
X2571000Y4280000D01*
X2572000Y4265000D01*
X2571000Y4250000D01*
X2567000Y4239500D01*
X2562000Y4230500D01*
X2556000Y4224500D01*
X2548000Y4220000D01*
X2528000D01*
G01X2670000D02*
Y4310000D01*
X2694000D01*
X2702000Y4305500D01*
X2708000Y4295000D01*
X2710000Y4283000D01*
X2708000Y4271000D01*
X2703000Y4262000D01*
X2694000Y4257500D01*
X2670000D01*
G01X2760000Y4220000D02*
X2752000Y4221500D01*
X2745000Y4227500D01*
X2739000Y4236500D01*
X2735000Y4247000D01*
X2733000Y4259000D01*
Y4271000D01*
X2735000Y4283000D01*
X2739000Y4293500D01*
X2745000Y4302500D01*
X2752000Y4308500D01*
X2760000Y4310000D01*
X2768000Y4308500D01*
X2775000Y4302500D01*
X2781000Y4293500D01*
X2785000Y4283000D01*
X2787000Y4271000D01*
Y4259000D01*
X2785000Y4247000D01*
X2781000Y4236500D01*
X2775000Y4227500D01*
X2768000Y4221500D01*
X2760000Y4220000D01*
G01X2810000D02*
Y4310000D01*
X2835000D01*
X2843000Y4305500D01*
X2848000Y4299500D01*
X2850000Y4287500D01*
X2848000Y4275500D01*
X2842000Y4268000D01*
X2835000Y4263500D01*
X2810000D01*
G01X2835000D02*
X2850000Y4220000D01*
G01X2900000Y4310000D02*
Y4220000D01*
G01X2877000Y4310000D02*
X2923000D01*
G01X2095000Y4456000D02*
Y4476000D01*
X2122000D01*
X2131000Y4470000D01*
X2137000Y4463000D01*
X2140000Y4453000D01*
X2137000Y4443000D01*
X2131000Y4436000D01*
X2122000Y4430000D01*
X2111500Y4426000D01*
X2099500Y4424000D01*
X2089000D01*
X2080000Y4426000D01*
X2069500Y4430000D01*
X2060500Y4436000D01*
X2054500Y4442000D01*
X2050000Y4450000D01*
Y4457000D01*
X2053000Y4465000D01*
X2059000Y4471000D01*
G01X2310000Y4425000D02*
X2400000Y4450000D01*
X2310000Y4475000D01*
G01X2940000Y88000D02*
X2850000D01*
Y108000D01*
X2854500Y116000D01*
X2860500Y122000D01*
X2869500Y127000D01*
X2880000Y131000D01*
X2895000Y132000D01*
X2910000Y131000D01*
X2920500Y127000D01*
X2929500Y122000D01*
X2935500Y116000D01*
X2940000Y108000D01*
Y88000D01*
G01Y157000D02*
X2850000D01*
X2940000Y203000D01*
X2850000D01*
G01X2680000Y88000D02*
X2590000D01*
Y108000D01*
X2594500Y116000D01*
X2600500Y122000D01*
X2609500Y127000D01*
X2620000Y131000D01*
X2635000Y132000D01*
X2650000Y131000D01*
X2660500Y127000D01*
X2669500Y122000D01*
X2675500Y116000D01*
X2680000Y108000D01*
Y88000D01*
G01Y160000D02*
X2590000D01*
Y184000D01*
X2594500Y192000D01*
X2605000Y198000D01*
X2617000Y200000D01*
X2629000Y198000D01*
X2638000Y193000D01*
X2642500Y184000D01*
Y160000D01*
G01X2630000Y2030000D02*
G02Y1970000I0J-30000D01*
G01Y1920000D01*
G01Y2090000D02*
G02Y2030000I0J-30000D01*
G01Y2090000D02*
G03Y2150000I0J30000D01*
G01Y2200000D01*
G01X2660000Y4430000D02*
X2570000D01*
Y4455000D01*
X2574500Y4463000D01*
X2580500Y4468000D01*
X2592500Y4470000D01*
X2604500Y4468000D01*
X2612000Y4462000D01*
X2616500Y4455000D01*
Y4430000D01*
G01Y4455000D02*
X2660000Y4470000D01*
G01X2830000Y4450000D02*
X2920000D01*
G01X2830000Y4427000D02*
Y4473000D01*
G01X3128000Y250000D02*
Y185500D01*
X3132000Y172000D01*
X3140000Y163000D01*
X3150000Y160000D01*
X3160000Y163000D01*
X3168000Y172000D01*
X3172000Y185500D01*
Y250000D01*
G01X3195000Y160000D02*
X3220000Y250000D01*
X3245000Y160000D01*
G01X3236000Y191500D02*
X3204000D01*
G01X3270000Y160000D02*
Y250000D01*
X3295000D01*
X3303000Y245500D01*
X3308000Y239500D01*
X3310000Y227500D01*
X3308000Y215500D01*
X3302000Y208000D01*
X3295000Y203500D01*
X3270000D01*
G01X3295000D02*
X3310000Y160000D01*
G01X3360000Y250000D02*
Y160000D01*
G01X3337000Y250000D02*
X3383000D01*
G01X3400000Y130000D02*
X3460000D01*
G01X3478000Y160000D02*
Y250000D01*
X3498000D01*
X3506000Y245500D01*
X3512000Y239500D01*
X3517000Y230500D01*
X3521000Y220000D01*
X3522000Y205000D01*
X3521000Y190000D01*
X3517000Y179500D01*
X3512000Y170500D01*
X3506000Y164500D01*
X3498000Y160000D01*
X3478000D01*
G01X3578000Y208000D02*
X3582000Y212500D01*
X3585000Y220000D01*
X3587000Y230500D01*
X3585000Y239500D01*
X3581000Y245500D01*
X3574000Y250000D01*
X3547000D01*
Y160000D01*
X3580000D01*
X3587000Y166000D01*
X3591000Y175000D01*
X3593000Y185500D01*
X3591000Y196000D01*
X3585000Y205000D01*
X3578000Y208000D01*
X3547000D01*
G01X3618000Y250000D02*
Y185500D01*
X3622000Y172000D01*
X3630000Y163000D01*
X3640000Y160000D01*
X3650000Y163000D01*
X3658000Y172000D01*
X3662000Y185500D01*
Y250000D01*
G01X3716000Y205000D02*
X3736000D01*
Y178000D01*
X3730000Y169000D01*
X3723000Y163000D01*
X3713000Y160000D01*
X3703000Y163000D01*
X3696000Y169000D01*
X3690000Y178000D01*
X3686000Y188500D01*
X3684000Y200500D01*
Y211000D01*
X3686000Y220000D01*
X3690000Y230500D01*
X3696000Y239500D01*
X3702000Y245500D01*
X3710000Y250000D01*
X3717000D01*
X3725000Y247000D01*
X3731000Y241000D01*
G01X3750000Y130000D02*
X3810000D01*
G01X3825000Y250000D02*
X3850000Y160000D01*
X3875000Y250000D01*
G01X3901000Y235000D02*
X3907000Y244000D01*
X3914000Y248500D01*
X3922000Y250000D01*
X3932000Y247000D01*
X3939000Y239500D01*
X3941000Y230500D01*
X3940000Y221500D01*
X3936000Y214000D01*
X3916000Y199000D01*
X3907000Y188500D01*
X3901000Y173500D01*
X3899000Y160000D01*
X3941000D01*
G01X3990000Y250000D02*
X3982000Y247000D01*
X3976000Y239500D01*
X3972000Y230500D01*
X3969000Y218500D01*
X3968000Y205000D01*
X3969000Y191500D01*
X3972000Y179500D01*
X3976000Y170500D01*
X3982000Y163000D01*
X3990000Y160000D01*
X3998000Y163000D01*
X4004000Y170500D01*
X4008000Y179500D01*
X4011000Y191500D01*
X4012000Y205000D01*
X4011000Y218500D01*
X4008000Y230500D01*
X4004000Y239500D01*
X3998000Y247000D01*
X3990000Y250000D01*
G01X3131000Y95000D02*
X3137000Y104000D01*
X3144000Y108500D01*
X3152000Y110000D01*
X3162000Y107000D01*
X3169000Y99500D01*
X3171000Y90500D01*
X3170000Y81500D01*
X3166000Y74000D01*
X3146000Y59000D01*
X3137000Y48500D01*
X3131000Y33500D01*
X3129000Y20000D01*
X3171000D01*
G01X3198000Y38000D02*
X3204000Y27500D01*
X3212000Y21500D01*
X3221000Y20000D01*
X3229000Y21500D01*
X3237000Y29000D01*
X3242000Y38000D01*
X3243000Y47000D01*
X3241000Y57500D01*
X3234000Y65000D01*
X3227000Y68000D01*
X3218000D01*
G01X3227000D02*
X3233000Y72500D01*
X3238000Y80000D01*
X3240000Y89000D01*
X3238000Y98000D01*
X3233000Y105500D01*
X3224000Y110000D01*
X3215000Y108500D01*
X3206000Y102500D01*
G01X3290000Y110000D02*
X3282000Y107000D01*
X3276000Y99500D01*
X3272000Y90500D01*
X3269000Y78500D01*
X3268000Y65000D01*
X3269000Y51500D01*
X3272000Y39500D01*
X3276000Y30500D01*
X3282000Y23000D01*
X3290000Y20000D01*
X3298000Y23000D01*
X3304000Y30500D01*
X3308000Y39500D01*
X3311000Y51500D01*
X3312000Y65000D01*
X3311000Y78500D01*
X3308000Y90500D01*
X3304000Y99500D01*
X3298000Y107000D01*
X3290000Y110000D01*
G01X3360000Y20000D02*
Y110000D01*
X3348000Y92000D01*
G01Y20000D02*
X3372000D01*
G01X3430000Y110000D02*
X3422000Y107000D01*
X3416000Y99500D01*
X3412000Y90500D01*
X3409000Y78500D01*
X3408000Y65000D01*
X3409000Y51500D01*
X3412000Y39500D01*
X3416000Y30500D01*
X3422000Y23000D01*
X3430000Y20000D01*
X3438000Y23000D01*
X3444000Y30500D01*
X3448000Y39500D01*
X3451000Y51500D01*
X3452000Y65000D01*
X3451000Y78500D01*
X3448000Y90500D01*
X3444000Y99500D01*
X3438000Y107000D01*
X3430000Y110000D01*
G01X3478000Y38000D02*
X3484000Y27500D01*
X3492000Y21500D01*
X3501000Y20000D01*
X3509000Y21500D01*
X3517000Y29000D01*
X3522000Y38000D01*
X3523000Y47000D01*
X3521000Y57500D01*
X3514000Y65000D01*
X3507000Y68000D01*
X3498000D01*
G01X3507000D02*
X3513000Y72500D01*
X3518000Y80000D01*
X3520000Y89000D01*
X3518000Y98000D01*
X3513000Y105500D01*
X3504000Y110000D01*
X3495000Y108500D01*
X3486000Y102500D01*
G01X3340000Y4330000D02*
X3299500D01*
X3250000Y4310000D01*
G01Y4350000D02*
X3299500Y4330000D01*
G01X3390000Y4240000D02*
X3480000D01*
G01X3390000Y4217000D02*
Y4263000D01*
G01X3508000Y1363500D02*
X3514000Y1356000D01*
X3521000Y1351500D01*
X3530000Y1350000D01*
X3539000Y1353000D01*
X3546000Y1359000D01*
X3551000Y1369500D01*
X3552000Y1381500D01*
X3550000Y1393500D01*
X3545000Y1401000D01*
X3538000Y1407000D01*
X3531000Y1408500D01*
X3524000Y1407000D01*
X3515000Y1401000D01*
X3518000Y1440000D01*
X3545000D01*
G01X3575000D02*
X3600000Y1350000D01*
X3625000Y1440000D01*
G01X3508000Y1858000D02*
X3514000Y1847500D01*
X3522000Y1841500D01*
X3531000Y1840000D01*
X3539000Y1841500D01*
X3547000Y1849000D01*
X3552000Y1858000D01*
X3553000Y1867000D01*
X3551000Y1877500D01*
X3544000Y1885000D01*
X3537000Y1888000D01*
X3528000D01*
G01X3537000D02*
X3543000Y1892500D01*
X3548000Y1900000D01*
X3550000Y1909000D01*
X3548000Y1918000D01*
X3543000Y1925500D01*
X3534000Y1930000D01*
X3525000Y1928500D01*
X3516000Y1922500D01*
G01X3575000Y1930000D02*
X3600000Y1840000D01*
X3625000Y1930000D01*
G01X3648000Y1858000D02*
X3654000Y1847500D01*
X3662000Y1841500D01*
X3671000Y1840000D01*
X3679000Y1841500D01*
X3687000Y1849000D01*
X3692000Y1858000D01*
X3693000Y1867000D01*
X3691000Y1877500D01*
X3684000Y1885000D01*
X3677000Y1888000D01*
X3668000D01*
G01X3677000D02*
X3683000Y1892500D01*
X3688000Y1900000D01*
X3690000Y1909000D01*
X3688000Y1918000D01*
X3683000Y1925500D01*
X3674000Y1930000D01*
X3665000Y1928500D01*
X3656000Y1922500D01*
G01X3802000Y4338000D02*
X3797500Y4342000D01*
X3790000Y4345000D01*
X3779500Y4347000D01*
X3770500Y4345000D01*
X3764500Y4341000D01*
X3760000Y4334000D01*
Y4307000D01*
X3850000D01*
Y4340000D01*
X3844000Y4347000D01*
X3835000Y4351000D01*
X3824500Y4353000D01*
X3814000Y4351000D01*
X3805000Y4345000D01*
X3802000Y4338000D01*
Y4307000D01*
G01X4100000Y4305000D02*
X4010000Y4330000D01*
X4100000Y4355000D01*
G01X4068500Y4346000D02*
Y4314000D01*
G01X3500000Y4311000D02*
Y4349000D01*
X3590000Y4311000D01*
Y4349000D01*
G01X3980000Y4220000D02*
X3890000D01*
Y4245000D01*
X3894500Y4253000D01*
X3900500Y4258000D01*
X3912500Y4260000D01*
X3924500Y4258000D01*
X3932000Y4252000D01*
X3936500Y4245000D01*
Y4220000D01*
G01Y4245000D02*
X3980000Y4260000D01*
G01X4410000Y2030000D02*
Y2120000D01*
X4434000D01*
X4442000Y2115500D01*
X4448000Y2105000D01*
X4450000Y2093000D01*
X4448000Y2081000D01*
X4443000Y2072000D01*
X4434000Y2067500D01*
X4410000D01*
G01X4470000Y2120000D02*
X4484000Y2030000D01*
X4500000Y2120000D01*
X4516000Y2030000D01*
X4530000Y2120000D01*
G01X4550000Y2030000D02*
Y2120000D01*
X4575000D01*
X4583000Y2115500D01*
X4588000Y2109500D01*
X4590000Y2097500D01*
X4588000Y2085500D01*
X4582000Y2078000D01*
X4575000Y2073500D01*
X4550000D01*
G01X4575000D02*
X4590000Y2030000D01*
G01X4618000Y2048000D02*
X4624000Y2037500D01*
X4632000Y2031500D01*
X4641000Y2030000D01*
X4649000Y2031500D01*
X4657000Y2039000D01*
X4662000Y2048000D01*
X4663000Y2057000D01*
X4661000Y2067500D01*
X4654000Y2075000D01*
X4647000Y2078000D01*
X4638000D01*
G01X4647000D02*
X4653000Y2082500D01*
X4658000Y2090000D01*
X4660000Y2099000D01*
X4658000Y2108000D01*
X4653000Y2115500D01*
X4644000Y2120000D01*
X4635000Y2118500D01*
X4626000Y2112500D01*
G01X4552000Y4338000D02*
X4547500Y4342000D01*
X4540000Y4345000D01*
X4529500Y4347000D01*
X4520500Y4345000D01*
X4514500Y4341000D01*
X4510000Y4334000D01*
Y4307000D01*
X4600000D01*
Y4340000D01*
X4594000Y4347000D01*
X4585000Y4351000D01*
X4574500Y4353000D01*
X4564000Y4351000D01*
X4555000Y4345000D01*
X4552000Y4338000D01*
Y4307000D01*
G01X4350000Y4305000D02*
X4260000Y4330000D01*
X4350000Y4355000D01*
G01X4318500Y4346000D02*
Y4314000D01*
G01X4949000Y4232000D02*
X4957000Y4224500D01*
X4966000Y4220000D01*
X4974000D01*
X4982000Y4224500D01*
X4988000Y4232000D01*
X4991000Y4242500D01*
X4989000Y4253000D01*
X4984000Y4262000D01*
X4975000Y4268000D01*
X4963000Y4271000D01*
X4956000Y4277000D01*
X4953000Y4287500D01*
X4955000Y4298000D01*
X4960000Y4305500D01*
X4967000Y4310000D01*
X4974000D01*
X4981000Y4307000D01*
X4987000Y4299500D01*
G01X5040000Y4310000D02*
Y4220000D01*
G01X5017000Y4310000D02*
X5063000D01*
G01X5085000Y4220000D02*
X5110000Y4310000D01*
X5135000Y4220000D01*
G01X5126000Y4251500D02*
X5094000D01*
G01X5157000Y4220000D02*
Y4310000D01*
X5203000Y4220000D01*
Y4310000D01*
G01X5228000Y4220000D02*
Y4310000D01*
X5248000D01*
X5256000Y4305500D01*
X5262000Y4299500D01*
X5267000Y4290500D01*
X5271000Y4280000D01*
X5272000Y4265000D01*
X5271000Y4250000D01*
X5267000Y4239500D01*
X5262000Y4230500D01*
X5256000Y4224500D01*
X5248000Y4220000D01*
X5228000D01*
G01X5295000D02*
X5320000Y4310000D01*
X5345000Y4220000D01*
G01X5336000Y4251500D02*
X5304000D01*
G01X5370000Y4220000D02*
Y4310000D01*
X5395000D01*
X5403000Y4305500D01*
X5408000Y4299500D01*
X5410000Y4287500D01*
X5408000Y4275500D01*
X5402000Y4268000D01*
X5395000Y4263500D01*
X5370000D01*
G01X5395000D02*
X5410000Y4220000D01*
G01X5438000D02*
Y4310000D01*
X5458000D01*
X5466000Y4305500D01*
X5472000Y4299500D01*
X5477000Y4290500D01*
X5481000Y4280000D01*
X5482000Y4265000D01*
X5481000Y4250000D01*
X5477000Y4239500D01*
X5472000Y4230500D01*
X5466000Y4224500D01*
X5458000Y4220000D01*
X5438000D01*
G01X5580000D02*
Y4310000D01*
X5604000D01*
X5612000Y4305500D01*
X5618000Y4295000D01*
X5620000Y4283000D01*
X5618000Y4271000D01*
X5613000Y4262000D01*
X5604000Y4257500D01*
X5580000D01*
G01X5670000Y4220000D02*
X5662000Y4221500D01*
X5655000Y4227500D01*
X5649000Y4236500D01*
X5645000Y4247000D01*
X5643000Y4259000D01*
Y4271000D01*
X5645000Y4283000D01*
X5649000Y4293500D01*
X5655000Y4302500D01*
X5662000Y4308500D01*
X5670000Y4310000D01*
X5678000Y4308500D01*
X5685000Y4302500D01*
X5691000Y4293500D01*
X5695000Y4283000D01*
X5697000Y4271000D01*
Y4259000D01*
X5695000Y4247000D01*
X5691000Y4236500D01*
X5685000Y4227500D01*
X5678000Y4221500D01*
X5670000Y4220000D01*
G01X5720000D02*
Y4310000D01*
X5745000D01*
X5753000Y4305500D01*
X5758000Y4299500D01*
X5760000Y4287500D01*
X5758000Y4275500D01*
X5752000Y4268000D01*
X5745000Y4263500D01*
X5720000D01*
G01X5745000D02*
X5760000Y4220000D01*
G01X5810000Y4310000D02*
Y4220000D01*
G01X5787000Y4310000D02*
X5833000D01*
G01X5005000Y4456000D02*
Y4476000D01*
X5032000D01*
X5041000Y4470000D01*
X5047000Y4463000D01*
X5050000Y4453000D01*
X5047000Y4443000D01*
X5041000Y4436000D01*
X5032000Y4430000D01*
X5021500Y4426000D01*
X5009500Y4424000D01*
X4999000D01*
X4990000Y4426000D01*
X4979500Y4430000D01*
X4970500Y4436000D01*
X4964500Y4442000D01*
X4960000Y4450000D01*
Y4457000D01*
X4963000Y4465000D01*
X4969000Y4471000D01*
G01X5220000Y4425000D02*
X5310000Y4450000D01*
X5220000Y4475000D01*
G01X5570000Y4430000D02*
X5480000D01*
Y4455000D01*
X5484500Y4463000D01*
X5490500Y4468000D01*
X5502500Y4470000D01*
X5514500Y4468000D01*
X5522000Y4462000D01*
X5526500Y4455000D01*
Y4430000D01*
G01Y4455000D02*
X5570000Y4470000D01*
G01X5740000Y4450000D02*
X5830000D01*
G01X5740000Y4427000D02*
Y4473000D01*
G01X6350000Y1700000D02*
X6260000D01*
Y1724000D01*
X6264500Y1732000D01*
X6275000Y1738000D01*
X6287000Y1740000D01*
X6299000Y1738000D01*
X6308000Y1733000D01*
X6312500Y1724000D01*
Y1700000D01*
G01X6260000Y1760000D02*
X6350000Y1774000D01*
X6260000Y1790000D01*
X6350000Y1806000D01*
X6260000Y1820000D01*
G01X6350000Y1840000D02*
X6260000D01*
Y1865000D01*
X6264500Y1873000D01*
X6270500Y1878000D01*
X6282500Y1880000D01*
X6294500Y1878000D01*
X6302000Y1872000D01*
X6306500Y1865000D01*
Y1840000D01*
G01Y1865000D02*
X6350000Y1880000D01*
G01Y1942000D02*
X6260000D01*
X6324500Y1905000D01*
Y1955000D01*
G01X6290000Y4940000D02*
X6200000D01*
Y4965000D01*
X6204500Y4973000D01*
X6210500Y4978000D01*
X6222500Y4980000D01*
X6234500Y4978000D01*
X6242000Y4972000D01*
X6246500Y4965000D01*
Y4940000D01*
G01Y4965000D02*
X6290000Y4980000D01*
G01X6070000Y4960000D02*
X6160000D01*
G01X6070000Y4937000D02*
Y4983000D01*
G01X6560000Y1700000D02*
X6470000D01*
Y1724000D01*
X6474500Y1732000D01*
X6485000Y1738000D01*
X6497000Y1740000D01*
X6509000Y1738000D01*
X6518000Y1733000D01*
X6522500Y1724000D01*
Y1700000D01*
G01X6470000Y1760000D02*
X6560000Y1774000D01*
X6470000Y1790000D01*
X6560000Y1806000D01*
X6470000Y1820000D01*
G01X6560000Y1840000D02*
X6470000D01*
Y1865000D01*
X6474500Y1873000D01*
X6480500Y1878000D01*
X6492500Y1880000D01*
X6504500Y1878000D01*
X6512000Y1872000D01*
X6516500Y1865000D01*
Y1840000D01*
G01Y1865000D02*
X6560000Y1880000D01*
G01X6546500Y1908000D02*
X6554000Y1914000D01*
X6558500Y1921000D01*
X6560000Y1930000D01*
X6557000Y1939000D01*
X6551000Y1946000D01*
X6540500Y1951000D01*
X6528500Y1952000D01*
X6516500Y1950000D01*
X6509000Y1945000D01*
X6503000Y1938000D01*
X6501500Y1931000D01*
X6503000Y1924000D01*
X6509000Y1915000D01*
X6470000Y1918000D01*
Y1945000D01*
G01X7620000Y2610000D02*
Y2700000D01*
X7644000D01*
X7652000Y2695500D01*
X7658000Y2685000D01*
X7660000Y2673000D01*
X7658000Y2661000D01*
X7653000Y2652000D01*
X7644000Y2647500D01*
X7620000D01*
G01X7680000Y2700000D02*
X7694000Y2610000D01*
X7710000Y2700000D01*
X7726000Y2610000D01*
X7740000Y2700000D01*
G01X7760000Y2610000D02*
Y2700000D01*
X7785000D01*
X7793000Y2695500D01*
X7798000Y2689500D01*
X7800000Y2677500D01*
X7798000Y2665500D01*
X7792000Y2658000D01*
X7785000Y2653500D01*
X7760000D01*
G01X7785000D02*
X7800000Y2610000D01*
G01X7828000Y2623500D02*
X7834000Y2616000D01*
X7841000Y2611500D01*
X7850000Y2610000D01*
X7859000Y2613000D01*
X7866000Y2619000D01*
X7871000Y2629500D01*
X7872000Y2641500D01*
X7870000Y2653500D01*
X7865000Y2661000D01*
X7858000Y2667000D01*
X7851000Y2668500D01*
X7844000Y2667000D01*
X7835000Y2661000D01*
X7838000Y2700000D01*
X7865000D01*
G01X7620000Y2470000D02*
Y2560000D01*
X7644000D01*
X7652000Y2555500D01*
X7658000Y2545000D01*
X7660000Y2533000D01*
X7658000Y2521000D01*
X7653000Y2512000D01*
X7644000Y2507500D01*
X7620000D01*
G01X7680000Y2560000D02*
X7694000Y2470000D01*
X7710000Y2560000D01*
X7726000Y2470000D01*
X7740000Y2560000D01*
G01X7760000Y2470000D02*
Y2560000D01*
X7785000D01*
X7793000Y2555500D01*
X7798000Y2549500D01*
X7800000Y2537500D01*
X7798000Y2525500D01*
X7792000Y2518000D01*
X7785000Y2513500D01*
X7760000D01*
G01X7785000D02*
X7800000Y2470000D01*
G01X7862000D02*
Y2560000D01*
X7825000Y2495500D01*
X7875000D01*
G01X7620000Y2330000D02*
Y2420000D01*
X7644000D01*
X7652000Y2415500D01*
X7658000Y2405000D01*
X7660000Y2393000D01*
X7658000Y2381000D01*
X7653000Y2372000D01*
X7644000Y2367500D01*
X7620000D01*
G01X7680000Y2420000D02*
X7694000Y2330000D01*
X7710000Y2420000D01*
X7726000Y2330000D01*
X7740000Y2420000D01*
G01X7760000Y2330000D02*
Y2420000D01*
X7785000D01*
X7793000Y2415500D01*
X7798000Y2409500D01*
X7800000Y2397500D01*
X7798000Y2385500D01*
X7792000Y2378000D01*
X7785000Y2373500D01*
X7760000D01*
G01X7785000D02*
X7800000Y2330000D01*
G01X7828000Y2348000D02*
X7834000Y2337500D01*
X7842000Y2331500D01*
X7851000Y2330000D01*
X7859000Y2331500D01*
X7867000Y2339000D01*
X7872000Y2348000D01*
X7873000Y2357000D01*
X7871000Y2367500D01*
X7864000Y2375000D01*
X7857000Y2378000D01*
X7848000D01*
G01X7857000D02*
X7863000Y2382500D01*
X7868000Y2390000D01*
X7870000Y2399000D01*
X7868000Y2408000D01*
X7863000Y2415500D01*
X7854000Y2420000D01*
X7845000Y2418500D01*
X7836000Y2412500D01*
G01X7620000Y2190000D02*
Y2280000D01*
X7644000D01*
X7652000Y2275500D01*
X7658000Y2265000D01*
X7660000Y2253000D01*
X7658000Y2241000D01*
X7653000Y2232000D01*
X7644000Y2227500D01*
X7620000D01*
G01X7680000Y2280000D02*
X7694000Y2190000D01*
X7710000Y2280000D01*
X7726000Y2190000D01*
X7740000Y2280000D01*
G01X7760000Y2190000D02*
Y2280000D01*
X7785000D01*
X7793000Y2275500D01*
X7798000Y2269500D01*
X7800000Y2257500D01*
X7798000Y2245500D01*
X7792000Y2238000D01*
X7785000Y2233500D01*
X7760000D01*
G01X7785000D02*
X7800000Y2190000D01*
G01X7831000Y2265000D02*
X7837000Y2274000D01*
X7844000Y2278500D01*
X7852000Y2280000D01*
X7862000Y2277000D01*
X7869000Y2269500D01*
X7871000Y2260500D01*
X7870000Y2251500D01*
X7866000Y2244000D01*
X7846000Y2229000D01*
X7837000Y2218500D01*
X7831000Y2203500D01*
X7829000Y2190000D01*
X7871000D01*
G01X7691000Y2900000D02*
Y2990000D01*
X7729000D01*
G01X7715000Y2946500D02*
X7691000D01*
G01X7758000Y2900000D02*
Y2990000D01*
X7778000D01*
X7786000Y2985500D01*
X7792000Y2979500D01*
X7797000Y2970500D01*
X7801000Y2960000D01*
X7802000Y2945000D01*
X7801000Y2930000D01*
X7797000Y2919500D01*
X7792000Y2910500D01*
X7786000Y2904500D01*
X7778000Y2900000D01*
X7758000D01*
G01X7829000D02*
X7871000Y2990000D01*
G01X7829000D02*
X7871000Y2900000D01*
M02*
