G04 ================== begin FILE IDENTIFICATION RECORD ==================*
G04 Layout Name:  HY_UART_DBUG_V20_230103.brd*
G04 Film Name:    SolderMask_Bottom*
G04 File Format:  Gerber RS274X*
G04 File Origin:  Cadence Allegro 17.2-S079*
G04 Origin Date:  Tue Jan 31 14:16:27 2023*
G04 *
G04 Layer:  PIN/SOLDERMASK_BOTTOM*
G04 Layer:  PACKAGE GEOMETRY/SOLDERMASK_BOTTOM*
G04 Layer:  BOARD GEOMETRY/SOLDERMASK_BOTTOM*
G04 *
G04 Offset:    (0.0000 0.0000)*
G04 Mirror:    No*
G04 Mode:      Positive*
G04 Rotation:  0*
G04 FullContactRelief:  No*
G04 UndefLineWidth:     0.1524*
G04 ================== end FILE IDENTIFICATION RECORD ====================*
%FSLAX55Y55*MOMM*%
%IR0*IPPOS*OFA0.00000B0.00000*MIA0B0*SFA1.00000B1.00000*%
%ADD21R,1.1X.9*%
%ADD12O,2.2X1.1*%
%ADD20R,1.X1.4*%
%ADD11O,1.7X1.1*%
%ADD16O,4.15X2.15*%
%ADD22C,2.*%
%ADD13O,2.15X4.15*%
%ADD15C,1.4*%
%ADD14C,3.4*%
%ADD10C,7.*%
%ADD24C,2.6*%
%ADD23C,1.7*%
%ADD19C,1.9*%
%ADD17R,1.4X1.4*%
%ADD18R,1.9X1.9*%
G75*
%LPD*%
G75*
G36*
G01X4360000Y1230000D02*
Y530000D01*
X5090000D01*
Y1230000D01*
X4360000D01*
G37*
G36*
G01X4800000Y2380000D02*
Y2100000D01*
X5080000D01*
Y2380000D01*
X4800000D01*
G37*
G54D10*
X360000Y360000D03*
Y5040000D03*
X1060000D03*
X7440000D03*
X8140000Y360000D03*
Y5040000D03*
G54D11*
X208000Y2142000D03*
Y3006000D03*
G54D20*
X2700000Y5020000D03*
X2850000D03*
X3150000D03*
X3300000D03*
X4530000D03*
X4680000D03*
X4980000D03*
X5130000D03*
G54D12*
X626000Y2142000D03*
Y3006000D03*
G54D21*
X2465000Y5335000D03*
Y5105000D03*
X3535000D03*
Y5335000D03*
X4295000D03*
Y5105000D03*
X5365000D03*
Y5335000D03*
G54D13*
X770000Y3676000D03*
X1390000D03*
G54D22*
X3290000Y4510000D03*
X3544000D03*
X3798000D03*
X4052000D03*
X4306000D03*
G54D23*
X6521000Y3786000D03*
Y3532000D03*
X6775000Y3659000D03*
Y3405000D03*
X6521000Y4294000D03*
Y4040000D03*
X6775000Y4167000D03*
Y3913000D03*
X7900000Y3187500D03*
Y3441500D03*
Y4258500D03*
Y4512500D03*
G54D14*
X1029000Y738000D03*
Y1942000D03*
X6870000Y745000D03*
Y2075000D03*
X7450000Y745000D03*
Y2075000D03*
G54D24*
X7105000Y3075500D03*
Y4624500D03*
G54D15*
X1300000Y1215000D03*
Y1465000D03*
X1500000D03*
X6480000Y205000D03*
Y455000D03*
X6920000Y1515000D03*
Y1315000D03*
Y1765000D03*
X7160000Y205000D03*
Y455000D03*
X7180000Y1515000D03*
Y1315000D03*
Y1765000D03*
G54D16*
X1090000Y3206000D03*
G54D17*
X1500000Y1215000D03*
X6920000Y1065000D03*
X7180000D03*
G54D18*
X2120000Y360000D03*
X2090000Y4670000D03*
X4560000Y4510000D03*
X5010000Y4670000D03*
G54D19*
X2374000Y360000D03*
X2344000Y4670000D03*
X2882000Y360000D03*
X2628000D03*
X2852000Y4670000D03*
X2598000D03*
X5264000D03*
X5772000D03*
X5518000D03*
M02*
